%TF.GenerationSoftware,KiCad,Pcbnew,7.0.2*%
%TF.CreationDate,2023-08-29T00:02:39-03:00*%
%TF.ProjectId,controlRemoto,636f6e74-726f-46c5-9265-6d6f746f2e6b,rev?*%
%TF.SameCoordinates,Original*%
%TF.FileFunction,Copper,L1,Top*%
%TF.FilePolarity,Positive*%
%FSLAX46Y46*%
G04 Gerber Fmt 4.6, Leading zero omitted, Abs format (unit mm)*
G04 Created by KiCad (PCBNEW 7.0.2) date 2023-08-29 00:02:39*
%MOMM*%
%LPD*%
G01*
G04 APERTURE LIST*
G04 Aperture macros list*
%AMRoundRect*
0 Rectangle with rounded corners*
0 $1 Rounding radius*
0 $2 $3 $4 $5 $6 $7 $8 $9 X,Y pos of 4 corners*
0 Add a 4 corners polygon primitive as box body*
4,1,4,$2,$3,$4,$5,$6,$7,$8,$9,$2,$3,0*
0 Add four circle primitives for the rounded corners*
1,1,$1+$1,$2,$3*
1,1,$1+$1,$4,$5*
1,1,$1+$1,$6,$7*
1,1,$1+$1,$8,$9*
0 Add four rect primitives between the rounded corners*
20,1,$1+$1,$2,$3,$4,$5,0*
20,1,$1+$1,$4,$5,$6,$7,0*
20,1,$1+$1,$6,$7,$8,$9,0*
20,1,$1+$1,$8,$9,$2,$3,0*%
G04 Aperture macros list end*
%ADD10C,0.300000*%
%TA.AperFunction,NonConductor*%
%ADD11C,0.300000*%
%TD*%
%TA.AperFunction,ComponentPad*%
%ADD12C,3.000000*%
%TD*%
%TA.AperFunction,ComponentPad*%
%ADD13R,3.000000X2.100000*%
%TD*%
%TA.AperFunction,ComponentPad*%
%ADD14RoundRect,0.500000X1.000000X0.500000X-1.000000X0.500000X-1.000000X-0.500000X1.000000X-0.500000X0*%
%TD*%
%TA.AperFunction,ComponentPad*%
%ADD15O,2.000000X3.000000*%
%TD*%
%TA.AperFunction,ComponentPad*%
%ADD16O,2.200000X3.000000*%
%TD*%
%TA.AperFunction,ComponentPad*%
%ADD17RoundRect,0.500000X0.500000X-1.000000X0.500000X1.000000X-0.500000X1.000000X-0.500000X-1.000000X0*%
%TD*%
%TA.AperFunction,ComponentPad*%
%ADD18O,4.000000X2.000000*%
%TD*%
%TA.AperFunction,ComponentPad*%
%ADD19O,3.500000X2.200000*%
%TD*%
%TA.AperFunction,ViaPad*%
%ADD20C,2.500000*%
%TD*%
%TA.AperFunction,ViaPad*%
%ADD21C,2.000000*%
%TD*%
%TA.AperFunction,Conductor*%
%ADD22C,0.500000*%
%TD*%
%TA.AperFunction,Conductor*%
%ADD23C,1.000000*%
%TD*%
G04 APERTURE END LIST*
D10*
D11*
X175497857Y-130914285D02*
X175426428Y-131057143D01*
X175426428Y-131057143D02*
X175426428Y-131271428D01*
X175426428Y-131271428D02*
X175497857Y-131485714D01*
X175497857Y-131485714D02*
X175640714Y-131628571D01*
X175640714Y-131628571D02*
X175783571Y-131700000D01*
X175783571Y-131700000D02*
X176069285Y-131771428D01*
X176069285Y-131771428D02*
X176283571Y-131771428D01*
X176283571Y-131771428D02*
X176569285Y-131700000D01*
X176569285Y-131700000D02*
X176712142Y-131628571D01*
X176712142Y-131628571D02*
X176855000Y-131485714D01*
X176855000Y-131485714D02*
X176926428Y-131271428D01*
X176926428Y-131271428D02*
X176926428Y-131128571D01*
X176926428Y-131128571D02*
X176855000Y-130914285D01*
X176855000Y-130914285D02*
X176783571Y-130842857D01*
X176783571Y-130842857D02*
X176283571Y-130842857D01*
X176283571Y-130842857D02*
X176283571Y-131128571D01*
X175426428Y-130200000D02*
X176640714Y-130200000D01*
X176640714Y-130200000D02*
X176783571Y-130128571D01*
X176783571Y-130128571D02*
X176855000Y-130057143D01*
X176855000Y-130057143D02*
X176926428Y-129914285D01*
X176926428Y-129914285D02*
X176926428Y-129628571D01*
X176926428Y-129628571D02*
X176855000Y-129485714D01*
X176855000Y-129485714D02*
X176783571Y-129414285D01*
X176783571Y-129414285D02*
X176640714Y-129342857D01*
X176640714Y-129342857D02*
X175426428Y-129342857D01*
X176140714Y-128628571D02*
X176140714Y-128128571D01*
X176926428Y-127914285D02*
X176926428Y-128628571D01*
X176926428Y-128628571D02*
X175426428Y-128628571D01*
X175426428Y-128628571D02*
X175426428Y-127914285D01*
X176926428Y-126414285D02*
X176212142Y-126914285D01*
X176926428Y-127271428D02*
X175426428Y-127271428D01*
X175426428Y-127271428D02*
X175426428Y-126699999D01*
X175426428Y-126699999D02*
X175497857Y-126557142D01*
X175497857Y-126557142D02*
X175569285Y-126485713D01*
X175569285Y-126485713D02*
X175712142Y-126414285D01*
X175712142Y-126414285D02*
X175926428Y-126414285D01*
X175926428Y-126414285D02*
X176069285Y-126485713D01*
X176069285Y-126485713D02*
X176140714Y-126557142D01*
X176140714Y-126557142D02*
X176212142Y-126699999D01*
X176212142Y-126699999D02*
X176212142Y-127271428D01*
X176140714Y-125771428D02*
X176140714Y-125271428D01*
X176926428Y-125057142D02*
X176926428Y-125771428D01*
X176926428Y-125771428D02*
X175426428Y-125771428D01*
X175426428Y-125771428D02*
X175426428Y-125057142D01*
X175426428Y-124628570D02*
X175426428Y-123771428D01*
X176926428Y-124199999D02*
X175426428Y-124199999D01*
X176497857Y-123342856D02*
X176497857Y-122628571D01*
X176926428Y-123485713D02*
X175426428Y-122985713D01*
X175426428Y-122985713D02*
X176926428Y-122485713D01*
X177856428Y-131307142D02*
X177856428Y-130450000D01*
X179356428Y-130878571D02*
X177856428Y-130878571D01*
X177856428Y-129664285D02*
X177856428Y-129378571D01*
X177856428Y-129378571D02*
X177927857Y-129235714D01*
X177927857Y-129235714D02*
X178070714Y-129092857D01*
X178070714Y-129092857D02*
X178356428Y-129021428D01*
X178356428Y-129021428D02*
X178856428Y-129021428D01*
X178856428Y-129021428D02*
X179142142Y-129092857D01*
X179142142Y-129092857D02*
X179285000Y-129235714D01*
X179285000Y-129235714D02*
X179356428Y-129378571D01*
X179356428Y-129378571D02*
X179356428Y-129664285D01*
X179356428Y-129664285D02*
X179285000Y-129807143D01*
X179285000Y-129807143D02*
X179142142Y-129950000D01*
X179142142Y-129950000D02*
X178856428Y-130021428D01*
X178856428Y-130021428D02*
X178356428Y-130021428D01*
X178356428Y-130021428D02*
X178070714Y-129950000D01*
X178070714Y-129950000D02*
X177927857Y-129807143D01*
X177927857Y-129807143D02*
X177856428Y-129664285D01*
X179356428Y-127521428D02*
X178642142Y-128021428D01*
X179356428Y-128378571D02*
X177856428Y-128378571D01*
X177856428Y-128378571D02*
X177856428Y-127807142D01*
X177856428Y-127807142D02*
X177927857Y-127664285D01*
X177927857Y-127664285D02*
X177999285Y-127592856D01*
X177999285Y-127592856D02*
X178142142Y-127521428D01*
X178142142Y-127521428D02*
X178356428Y-127521428D01*
X178356428Y-127521428D02*
X178499285Y-127592856D01*
X178499285Y-127592856D02*
X178570714Y-127664285D01*
X178570714Y-127664285D02*
X178642142Y-127807142D01*
X178642142Y-127807142D02*
X178642142Y-128378571D01*
X179356428Y-126021428D02*
X178642142Y-126521428D01*
X179356428Y-126878571D02*
X177856428Y-126878571D01*
X177856428Y-126878571D02*
X177856428Y-126307142D01*
X177856428Y-126307142D02*
X177927857Y-126164285D01*
X177927857Y-126164285D02*
X177999285Y-126092856D01*
X177999285Y-126092856D02*
X178142142Y-126021428D01*
X178142142Y-126021428D02*
X178356428Y-126021428D01*
X178356428Y-126021428D02*
X178499285Y-126092856D01*
X178499285Y-126092856D02*
X178570714Y-126164285D01*
X178570714Y-126164285D02*
X178642142Y-126307142D01*
X178642142Y-126307142D02*
X178642142Y-126878571D01*
X178570714Y-125378571D02*
X178570714Y-124878571D01*
X179356428Y-124664285D02*
X179356428Y-125378571D01*
X179356428Y-125378571D02*
X177856428Y-125378571D01*
X177856428Y-125378571D02*
X177856428Y-124664285D01*
X179285000Y-124092856D02*
X179356428Y-123878571D01*
X179356428Y-123878571D02*
X179356428Y-123521428D01*
X179356428Y-123521428D02*
X179285000Y-123378571D01*
X179285000Y-123378571D02*
X179213571Y-123307142D01*
X179213571Y-123307142D02*
X179070714Y-123235713D01*
X179070714Y-123235713D02*
X178927857Y-123235713D01*
X178927857Y-123235713D02*
X178785000Y-123307142D01*
X178785000Y-123307142D02*
X178713571Y-123378571D01*
X178713571Y-123378571D02*
X178642142Y-123521428D01*
X178642142Y-123521428D02*
X178570714Y-123807142D01*
X178570714Y-123807142D02*
X178499285Y-123949999D01*
X178499285Y-123949999D02*
X178427857Y-124021428D01*
X178427857Y-124021428D02*
X178285000Y-124092856D01*
X178285000Y-124092856D02*
X178142142Y-124092856D01*
X178142142Y-124092856D02*
X177999285Y-124021428D01*
X177999285Y-124021428D02*
X177927857Y-123949999D01*
X177927857Y-123949999D02*
X177856428Y-123807142D01*
X177856428Y-123807142D02*
X177856428Y-123449999D01*
X177856428Y-123449999D02*
X177927857Y-123235713D01*
X181715000Y-135414284D02*
X181786428Y-135199999D01*
X181786428Y-135199999D02*
X181786428Y-134842856D01*
X181786428Y-134842856D02*
X181715000Y-134699999D01*
X181715000Y-134699999D02*
X181643571Y-134628570D01*
X181643571Y-134628570D02*
X181500714Y-134557141D01*
X181500714Y-134557141D02*
X181357857Y-134557141D01*
X181357857Y-134557141D02*
X181215000Y-134628570D01*
X181215000Y-134628570D02*
X181143571Y-134699999D01*
X181143571Y-134699999D02*
X181072142Y-134842856D01*
X181072142Y-134842856D02*
X181000714Y-135128570D01*
X181000714Y-135128570D02*
X180929285Y-135271427D01*
X180929285Y-135271427D02*
X180857857Y-135342856D01*
X180857857Y-135342856D02*
X180715000Y-135414284D01*
X180715000Y-135414284D02*
X180572142Y-135414284D01*
X180572142Y-135414284D02*
X180429285Y-135342856D01*
X180429285Y-135342856D02*
X180357857Y-135271427D01*
X180357857Y-135271427D02*
X180286428Y-135128570D01*
X180286428Y-135128570D02*
X180286428Y-134771427D01*
X180286428Y-134771427D02*
X180357857Y-134557141D01*
X181643571Y-133057142D02*
X181715000Y-133128570D01*
X181715000Y-133128570D02*
X181786428Y-133342856D01*
X181786428Y-133342856D02*
X181786428Y-133485713D01*
X181786428Y-133485713D02*
X181715000Y-133699999D01*
X181715000Y-133699999D02*
X181572142Y-133842856D01*
X181572142Y-133842856D02*
X181429285Y-133914285D01*
X181429285Y-133914285D02*
X181143571Y-133985713D01*
X181143571Y-133985713D02*
X180929285Y-133985713D01*
X180929285Y-133985713D02*
X180643571Y-133914285D01*
X180643571Y-133914285D02*
X180500714Y-133842856D01*
X180500714Y-133842856D02*
X180357857Y-133699999D01*
X180357857Y-133699999D02*
X180286428Y-133485713D01*
X180286428Y-133485713D02*
X180286428Y-133342856D01*
X180286428Y-133342856D02*
X180357857Y-133128570D01*
X180357857Y-133128570D02*
X180429285Y-133057142D01*
X181786428Y-132414285D02*
X180286428Y-132414285D01*
X181000714Y-132414285D02*
X181000714Y-131557142D01*
X181786428Y-131557142D02*
X180286428Y-131557142D01*
X180286428Y-130985713D02*
X181786428Y-130628570D01*
X181786428Y-130628570D02*
X180715000Y-130342856D01*
X180715000Y-130342856D02*
X181786428Y-130057141D01*
X181786428Y-130057141D02*
X180286428Y-129699999D01*
X181357857Y-129199998D02*
X181357857Y-128485713D01*
X181786428Y-129342855D02*
X180286428Y-128842855D01*
X180286428Y-128842855D02*
X181786428Y-128342855D01*
X181786428Y-126985713D02*
X181072142Y-127485713D01*
X181786428Y-127842856D02*
X180286428Y-127842856D01*
X180286428Y-127842856D02*
X180286428Y-127271427D01*
X180286428Y-127271427D02*
X180357857Y-127128570D01*
X180357857Y-127128570D02*
X180429285Y-127057141D01*
X180429285Y-127057141D02*
X180572142Y-126985713D01*
X180572142Y-126985713D02*
X180786428Y-126985713D01*
X180786428Y-126985713D02*
X180929285Y-127057141D01*
X180929285Y-127057141D02*
X181000714Y-127128570D01*
X181000714Y-127128570D02*
X181072142Y-127271427D01*
X181072142Y-127271427D02*
X181072142Y-127842856D01*
X180286428Y-126557141D02*
X180286428Y-125699999D01*
X181786428Y-126128570D02*
X180286428Y-126128570D01*
X180286428Y-125342856D02*
X180286428Y-124342856D01*
X180286428Y-124342856D02*
X181786428Y-125342856D01*
X181786428Y-125342856D02*
X181786428Y-124342856D01*
X181000714Y-123271428D02*
X181072142Y-123057142D01*
X181072142Y-123057142D02*
X181143571Y-122985713D01*
X181143571Y-122985713D02*
X181286428Y-122914285D01*
X181286428Y-122914285D02*
X181500714Y-122914285D01*
X181500714Y-122914285D02*
X181643571Y-122985713D01*
X181643571Y-122985713D02*
X181715000Y-123057142D01*
X181715000Y-123057142D02*
X181786428Y-123199999D01*
X181786428Y-123199999D02*
X181786428Y-123771428D01*
X181786428Y-123771428D02*
X180286428Y-123771428D01*
X180286428Y-123771428D02*
X180286428Y-123271428D01*
X180286428Y-123271428D02*
X180357857Y-123128571D01*
X180357857Y-123128571D02*
X180429285Y-123057142D01*
X180429285Y-123057142D02*
X180572142Y-122985713D01*
X180572142Y-122985713D02*
X180715000Y-122985713D01*
X180715000Y-122985713D02*
X180857857Y-123057142D01*
X180857857Y-123057142D02*
X180929285Y-123128571D01*
X180929285Y-123128571D02*
X181000714Y-123271428D01*
X181000714Y-123271428D02*
X181000714Y-123771428D01*
X181357857Y-122342856D02*
X181357857Y-121628571D01*
X181786428Y-122485713D02*
X180286428Y-121985713D01*
X180286428Y-121985713D02*
X181786428Y-121485713D01*
X181786428Y-120128571D02*
X181072142Y-120628571D01*
X181786428Y-120985714D02*
X180286428Y-120985714D01*
X180286428Y-120985714D02*
X180286428Y-120414285D01*
X180286428Y-120414285D02*
X180357857Y-120271428D01*
X180357857Y-120271428D02*
X180429285Y-120199999D01*
X180429285Y-120199999D02*
X180572142Y-120128571D01*
X180572142Y-120128571D02*
X180786428Y-120128571D01*
X180786428Y-120128571D02*
X180929285Y-120199999D01*
X180929285Y-120199999D02*
X181000714Y-120271428D01*
X181000714Y-120271428D02*
X181072142Y-120414285D01*
X181072142Y-120414285D02*
X181072142Y-120985714D01*
X180286428Y-119699999D02*
X180286428Y-118842857D01*
X181786428Y-119271428D02*
X180286428Y-119271428D01*
D10*
D11*
X192620714Y-129552857D02*
X192620714Y-130052857D01*
X193406428Y-130052857D02*
X191906428Y-130052857D01*
X191906428Y-130052857D02*
X191906428Y-129338571D01*
X193406428Y-127910000D02*
X192692142Y-128410000D01*
X193406428Y-128767143D02*
X191906428Y-128767143D01*
X191906428Y-128767143D02*
X191906428Y-128195714D01*
X191906428Y-128195714D02*
X191977857Y-128052857D01*
X191977857Y-128052857D02*
X192049285Y-127981428D01*
X192049285Y-127981428D02*
X192192142Y-127910000D01*
X192192142Y-127910000D02*
X192406428Y-127910000D01*
X192406428Y-127910000D02*
X192549285Y-127981428D01*
X192549285Y-127981428D02*
X192620714Y-128052857D01*
X192620714Y-128052857D02*
X192692142Y-128195714D01*
X192692142Y-128195714D02*
X192692142Y-128767143D01*
X191906428Y-126981428D02*
X191906428Y-126695714D01*
X191906428Y-126695714D02*
X191977857Y-126552857D01*
X191977857Y-126552857D02*
X192120714Y-126410000D01*
X192120714Y-126410000D02*
X192406428Y-126338571D01*
X192406428Y-126338571D02*
X192906428Y-126338571D01*
X192906428Y-126338571D02*
X193192142Y-126410000D01*
X193192142Y-126410000D02*
X193335000Y-126552857D01*
X193335000Y-126552857D02*
X193406428Y-126695714D01*
X193406428Y-126695714D02*
X193406428Y-126981428D01*
X193406428Y-126981428D02*
X193335000Y-127124286D01*
X193335000Y-127124286D02*
X193192142Y-127267143D01*
X193192142Y-127267143D02*
X192906428Y-127338571D01*
X192906428Y-127338571D02*
X192406428Y-127338571D01*
X192406428Y-127338571D02*
X192120714Y-127267143D01*
X192120714Y-127267143D02*
X191977857Y-127124286D01*
X191977857Y-127124286D02*
X191906428Y-126981428D01*
X193406428Y-125695714D02*
X191906428Y-125695714D01*
X191906428Y-125695714D02*
X193406428Y-124838571D01*
X193406428Y-124838571D02*
X191906428Y-124838571D01*
X191906428Y-124338570D02*
X191906428Y-123481428D01*
X193406428Y-123909999D02*
X191906428Y-123909999D01*
D12*
%TO.P,SW1,1,1*%
%TO.N,D26*%
X135240000Y-130420000D03*
%TO.P,SW1,2,2*%
%TO.N,GND*%
X130740000Y-123920000D03*
%TD*%
D13*
%TO.P,J2,1,Pin_1*%
%TO.N,GND*%
X95100000Y-131045000D03*
%TO.P,J2,2,Pin_2*%
%TO.N,3V3*%
X95100000Y-128505000D03*
%TO.P,J2,3,Pin_3*%
%TO.N,D22*%
X95100000Y-125965000D03*
%TO.P,J2,4,Pin_4*%
%TO.N,D21*%
X95100000Y-123425000D03*
%TD*%
D12*
%TO.P,SW5,1,1*%
%TO.N,D25*%
X146070000Y-130430000D03*
%TO.P,SW5,2,2*%
%TO.N,GND*%
X141570000Y-123930000D03*
%TD*%
D14*
%TO.P,,15,D23*%
%TO.N,unconnected-(U3-D18-Pad9)*%
X114480000Y-143290000D03*
%TD*%
%TO.P,,15,D23*%
%TO.N,unconnected-(U3-D19-Pad10)*%
X107140000Y-143290000D03*
%TD*%
D12*
%TO.P,SW3,1,1*%
%TO.N,D2*%
X156910000Y-130430000D03*
%TO.P,SW3,2,2*%
%TO.N,GND*%
X152410000Y-123930000D03*
%TD*%
%TO.P,SW4,1,1*%
%TO.N,D27*%
X146060000Y-120560000D03*
%TO.P,SW4,2,2*%
%TO.N,GND*%
X141560000Y-114060000D03*
%TD*%
D15*
%TO.P,R2,1*%
%TO.N,D35*%
X109420000Y-122270000D03*
%TO.P,R2,2*%
%TO.N,GND*%
X101800000Y-122270000D03*
%TD*%
%TO.P,R1,1*%
%TO.N,+3V8*%
X122430000Y-127850000D03*
%TO.P,R1,2*%
%TO.N,D35*%
X114810000Y-127850000D03*
%TD*%
D12*
%TO.P,SW6,1,1*%
%TO.N,D33*%
X168430000Y-115020000D03*
%TO.P,SW6,2,2*%
%TO.N,GND*%
X163930000Y-108520000D03*
%TD*%
%TO.P,SW2,1,1*%
%TO.N,D32*%
X146080000Y-140270000D03*
%TO.P,SW2,2,2*%
%TO.N,GND*%
X141580000Y-133770000D03*
%TD*%
D16*
%TO.P,J3,1,Pin_1*%
%TO.N,+3V8*%
X156070000Y-140980000D03*
%TO.P,J3,2,Pin_2*%
%TO.N,GND*%
X153530000Y-140980000D03*
%TD*%
D17*
%TO.P,U3,1,3V3*%
%TO.N,3V3*%
X134800000Y-139800000D03*
%TO.P,U3,3,D15*%
%TO.N,D15*%
X129720000Y-139800000D03*
%TO.P,U3,4,D2*%
%TO.N,D2*%
X127180000Y-139800000D03*
%TO.P,U3,5,D4*%
%TO.N,D4*%
X124640000Y-139800000D03*
%TO.P,U3,9,D18*%
%TO.N,unconnected-(U3-D18-Pad9)*%
X114480000Y-139800000D03*
%TO.P,U3,10,D19*%
%TO.N,unconnected-(U3-D19-Pad10)*%
X111940000Y-139800000D03*
%TO.P,U3,11,D21*%
%TO.N,D21*%
X109400000Y-139800000D03*
%TO.P,U3,14,D22*%
%TO.N,D22*%
X101780000Y-139800000D03*
%TO.P,U3,15,D23*%
%TO.N,D23*%
X99240000Y-139800000D03*
%TO.P,U3,20,D35*%
%TO.N,D35*%
X109400000Y-114400000D03*
%TO.P,U3,21,D32*%
%TO.N,D32*%
X111940000Y-114400000D03*
%TO.P,U3,22,D33*%
%TO.N,D33*%
X114480000Y-114400000D03*
%TO.P,U3,23,D25*%
%TO.N,D25*%
X117020000Y-114400000D03*
%TO.P,U3,24,D26*%
%TO.N,D26*%
X119560000Y-114400000D03*
%TO.P,U3,25,D27*%
%TO.N,D27*%
X122100000Y-114400000D03*
%TO.P,U3,26,D14*%
%TO.N,D14*%
X124640000Y-114400000D03*
%TO.P,U3,27,D12*%
%TO.N,D12*%
X127180000Y-114400000D03*
%TO.P,U3,28,D13*%
%TO.N,D13*%
X129720000Y-114400000D03*
%TO.P,U3,29,GND*%
%TO.N,GND*%
X132260000Y-114400000D03*
%TO.P,U3,30,VIN*%
%TO.N,+3V8*%
X134800000Y-114400000D03*
%TD*%
D18*
%TO.P,D1,1,K*%
%TO.N,Net-(D1-K)*%
X86630000Y-121190000D03*
%TO.P,D1,2,A*%
%TO.N,3V3*%
X86630000Y-123730000D03*
%TD*%
D19*
%TO.P,J1,1,Pin_1*%
%TO.N,GND*%
X166200000Y-135710000D03*
%TO.P,J1,2,Pin_2*%
%TO.N,3V3*%
X166200000Y-133170000D03*
%TO.P,J1,3,Pin_3*%
%TO.N,D12*%
X166200000Y-130630000D03*
%TO.P,J1,4,Pin_4*%
%TO.N,D13*%
X166200000Y-128090000D03*
%TO.P,J1,5,Pin_5*%
%TO.N,D14*%
X166200000Y-125550000D03*
%TO.P,J1,6,Pin_6*%
%TO.N,D15*%
X166200000Y-123010000D03*
%TD*%
D15*
%TO.P,Q1,1,E*%
%TO.N,GND*%
X83670000Y-111300000D03*
%TO.P,Q1,2,B*%
%TO.N,D4*%
X86210000Y-111300000D03*
%TO.P,Q1,3,C*%
%TO.N,Net-(D1-K)*%
X88750000Y-111300000D03*
%TD*%
D18*
%TO.P,U2,1,OUT*%
%TO.N,D23*%
X86640000Y-133325000D03*
%TO.P,U2,2,GND*%
%TO.N,GND*%
X86640000Y-130785000D03*
%TO.P,U2,3,Vs*%
%TO.N,3V3*%
X86640000Y-128245000D03*
%TD*%
D20*
%TO.N,GND*%
X175100000Y-145820000D03*
X161030000Y-142950000D03*
%TO.N,+3V8*%
X137580000Y-117080000D03*
X161570000Y-135440000D03*
X121550000Y-124340000D03*
%TO.N,3V3*%
X132250000Y-143930000D03*
X90810000Y-125580000D03*
D21*
%TO.N,D12*%
X127180000Y-111279500D03*
D20*
X150740000Y-114000000D03*
%TO.N,D4*%
X86210000Y-114860000D03*
X122190000Y-136000000D03*
%TD*%
D22*
%TO.N,Net-(D1-K)*%
X86630000Y-117530000D02*
X86630000Y-121190000D01*
X88750000Y-115410000D02*
X86630000Y-117530000D01*
X88750000Y-111300000D02*
X88750000Y-115410000D01*
D23*
%TO.N,+3V8*%
X134800000Y-117070000D02*
X134800000Y-114400000D01*
X134810000Y-117080000D02*
X134800000Y-117070000D01*
X137580000Y-117080000D02*
X134810000Y-117080000D01*
X161570000Y-135440000D02*
X159120000Y-135440000D01*
X159120000Y-135440000D02*
X156070000Y-138490000D01*
X156070000Y-138490000D02*
X156070000Y-140980000D01*
X122430000Y-127850000D02*
X122430000Y-125860000D01*
X122430000Y-125860000D02*
X121550000Y-124980000D01*
D22*
%TO.N,unconnected-(U3-D18-Pad9)*%
X114480000Y-143290000D02*
X114480000Y-139800000D01*
%TO.N,unconnected-(U3-D19-Pad10)*%
X111940000Y-139800000D02*
X111940000Y-141550000D01*
X111940000Y-141550000D02*
X110200000Y-143290000D01*
X110200000Y-143290000D02*
X107140000Y-143290000D01*
D23*
%TO.N,3V3*%
X90800000Y-128245000D02*
X86640000Y-128245000D01*
X92485000Y-128505000D02*
X95100000Y-128505000D01*
X90810000Y-125580000D02*
X90810000Y-128235000D01*
D22*
X170080000Y-133190000D02*
X170080000Y-145320000D01*
X166200000Y-133170000D02*
X170060000Y-133170000D01*
X86640000Y-128245000D02*
X86640000Y-123740000D01*
D23*
X90810000Y-128235000D02*
X90815000Y-128230000D01*
D22*
X86640000Y-123740000D02*
X86630000Y-123730000D01*
D23*
X132250000Y-143930000D02*
X134800000Y-143930000D01*
X90815000Y-128230000D02*
X92210000Y-128230000D01*
D22*
X170080000Y-145320000D02*
X134800000Y-145320000D01*
D23*
X92210000Y-128230000D02*
X92485000Y-128505000D01*
D22*
X170060000Y-133170000D02*
X170080000Y-133190000D01*
D23*
X134800000Y-139800000D02*
X134800000Y-143930000D01*
D22*
X134800000Y-145320000D02*
X134800000Y-143930000D01*
%TO.N,D12*%
X164100000Y-130630000D02*
X160310000Y-126840000D01*
X160310000Y-120770000D02*
X157510000Y-120770000D01*
X166200000Y-130630000D02*
X164100000Y-130630000D01*
X160310000Y-126840000D02*
X160310000Y-120770000D01*
X127180000Y-111279500D02*
X127180000Y-114400000D01*
X157510000Y-120770000D02*
X150740000Y-114000000D01*
%TO.N,D13*%
X161880000Y-125910000D02*
X161870000Y-125920000D01*
X166200000Y-128090000D02*
X164060000Y-128090000D01*
X161870000Y-119260000D02*
X159870000Y-119260000D01*
X161870000Y-125920000D02*
X161870000Y-119260000D01*
X129720000Y-111650000D02*
X129720000Y-114400000D01*
X159870000Y-119260000D02*
X152260000Y-111650000D01*
X152260000Y-111650000D02*
X129720000Y-111650000D01*
X164060000Y-128090000D02*
X161880000Y-125910000D01*
%TO.N,D14*%
X163310000Y-117730000D02*
X161180000Y-117730000D01*
X124640000Y-110380000D02*
X124640000Y-114400000D01*
X128880000Y-109720000D02*
X125300000Y-109720000D01*
X153830000Y-110380000D02*
X129540000Y-110380000D01*
X166200000Y-125550000D02*
X164140000Y-125550000D01*
X161180000Y-117730000D02*
X153830000Y-110380000D01*
X163310000Y-124720000D02*
X163310000Y-117730000D01*
X125300000Y-109720000D02*
X124640000Y-110380000D01*
X164140000Y-125550000D02*
X163310000Y-124720000D01*
X129540000Y-110380000D02*
X128880000Y-109720000D01*
%TO.N,D15*%
X171800000Y-146640000D02*
X129700000Y-146640000D01*
X166200000Y-123010000D02*
X171800000Y-123010000D01*
X129700000Y-146640000D02*
X129700000Y-139820000D01*
X171800000Y-123010000D02*
X171800000Y-146640000D01*
%TO.N,D22*%
X96015000Y-125960000D02*
X96930000Y-125960000D01*
X101780000Y-130810000D02*
X101780000Y-139800000D01*
X95100000Y-125965000D02*
X96010000Y-125965000D01*
X96930000Y-125960000D02*
X101780000Y-130810000D01*
X96010000Y-125965000D02*
X96015000Y-125960000D01*
%TO.N,D21*%
X96465000Y-123425000D02*
X103530000Y-130490000D01*
X103530000Y-130490000D02*
X109380000Y-130490000D01*
X109410000Y-130520000D02*
X109410000Y-139790000D01*
X109380000Y-130490000D02*
X109410000Y-130520000D01*
X95100000Y-123425000D02*
X96465000Y-123425000D01*
X109410000Y-139790000D02*
X109400000Y-139800000D01*
%TO.N,D4*%
X86210000Y-111300000D02*
X86210000Y-114860000D01*
X122190000Y-136000000D02*
X124620000Y-136000000D01*
X124630000Y-139790000D02*
X124640000Y-139800000D01*
X124620000Y-136000000D02*
X124630000Y-136010000D01*
X124630000Y-136010000D02*
X124630000Y-139790000D01*
%TO.N,D26*%
X133500000Y-132160000D02*
X127130000Y-132160000D01*
X127130000Y-132160000D02*
X127130000Y-125630000D01*
X127130000Y-125630000D02*
X119560000Y-118060000D01*
X119560000Y-118060000D02*
X119560000Y-114400000D01*
X135240000Y-130420000D02*
X133500000Y-132160000D01*
%TO.N,D25*%
X146070000Y-130430000D02*
X144100000Y-128460000D01*
X119280000Y-119830000D02*
X117070000Y-119830000D01*
X144100000Y-128460000D02*
X138630000Y-128460000D01*
X126190000Y-133600000D02*
X124390000Y-131800000D01*
X117070000Y-119830000D02*
X117070000Y-114450000D01*
X124390000Y-131800000D02*
X119280000Y-131800000D01*
X138630000Y-128460000D02*
X138630000Y-133600000D01*
X119280000Y-131800000D02*
X119280000Y-119830000D01*
X138630000Y-133600000D02*
X126190000Y-133600000D01*
%TO.N,D2*%
X149650000Y-143910000D02*
X138060000Y-143910000D01*
X149650000Y-133220000D02*
X149650000Y-143910000D01*
X156910000Y-130430000D02*
X154120000Y-133220000D01*
X135550000Y-136490000D02*
X127210000Y-136490000D01*
X138060000Y-143910000D02*
X138040000Y-143890000D01*
X154120000Y-133220000D02*
X149650000Y-133220000D01*
X138040000Y-143890000D02*
X138040000Y-138980000D01*
X138040000Y-138980000D02*
X135550000Y-136490000D01*
X127180000Y-136500000D02*
X127180000Y-139800000D01*
%TO.N,D27*%
X143780000Y-120560000D02*
X146060000Y-120560000D01*
X122100000Y-114400000D02*
X122100000Y-117080000D01*
X142740000Y-121600000D02*
X143780000Y-120560000D01*
X126620000Y-121600000D02*
X142740000Y-121600000D01*
X122100000Y-117080000D02*
X126620000Y-121600000D01*
%TO.N,D32*%
X146080000Y-136790000D02*
X138040000Y-136790000D01*
X138040000Y-136790000D02*
X136280000Y-135030000D01*
X116930000Y-121210000D02*
X111940000Y-121210000D01*
X136280000Y-135030000D02*
X125180000Y-135030000D01*
X111940000Y-121210000D02*
X111940000Y-114400000D01*
X123830000Y-133680000D02*
X116960000Y-133680000D01*
X125180000Y-135030000D02*
X123830000Y-133680000D01*
X116960000Y-133680000D02*
X116960000Y-121240000D01*
X116960000Y-121240000D02*
X116930000Y-121210000D01*
X146080000Y-140270000D02*
X146080000Y-136790000D01*
%TO.N,D33*%
X122330000Y-111150000D02*
X114480000Y-111150000D01*
X129940000Y-109240000D02*
X129410000Y-108710000D01*
X155370000Y-109240000D02*
X129940000Y-109240000D01*
X168430000Y-115020000D02*
X168430000Y-112260000D01*
X129410000Y-108710000D02*
X124770000Y-108710000D01*
X168430000Y-112260000D02*
X158390000Y-112260000D01*
X124770000Y-108710000D02*
X122330000Y-111150000D01*
X114480000Y-111150000D02*
X114480000Y-114400000D01*
X158390000Y-112260000D02*
X155370000Y-109240000D01*
%TO.N,D23*%
X96350000Y-139800000D02*
X99240000Y-139800000D01*
X86640000Y-133325000D02*
X89875000Y-133325000D01*
X89875000Y-133325000D02*
X96350000Y-139800000D01*
%TO.N,D35*%
X109420000Y-122270000D02*
X109420000Y-114420000D01*
X114810000Y-122270000D02*
X109420000Y-122270000D01*
X114810000Y-127850000D02*
X114810000Y-122270000D01*
%TD*%
%TA.AperFunction,Conductor*%
%TO.N,GND*%
G36*
X140623284Y-112420185D02*
G01*
X140643926Y-112436819D01*
X141560000Y-113352893D01*
X142476074Y-112436819D01*
X142537397Y-112403334D01*
X142563755Y-112400500D01*
X149576568Y-112400500D01*
X149643607Y-112420185D01*
X149689362Y-112472989D01*
X149699306Y-112542147D01*
X149670281Y-112605703D01*
X149646422Y-112626952D01*
X149645518Y-112627568D01*
X149453198Y-112806015D01*
X149289613Y-113011143D01*
X149158431Y-113238358D01*
X149062580Y-113482581D01*
X149004197Y-113738372D01*
X148984591Y-113999999D01*
X149004197Y-114261627D01*
X149062580Y-114517418D01*
X149158431Y-114761641D01*
X149289613Y-114988856D01*
X149330509Y-115040137D01*
X149453195Y-115193981D01*
X149453197Y-115193983D01*
X149453198Y-115193984D01*
X149645514Y-115372428D01*
X149645520Y-115372432D01*
X149645521Y-115372433D01*
X149862296Y-115520228D01*
X150098677Y-115634063D01*
X150349385Y-115711396D01*
X150608818Y-115750500D01*
X150871182Y-115750500D01*
X151130615Y-115711396D01*
X151257476Y-115672263D01*
X151327338Y-115671314D01*
X151381706Y-115703074D01*
X156934269Y-121255637D01*
X156946051Y-121269270D01*
X156960390Y-121288531D01*
X156998338Y-121320373D01*
X157006313Y-121327681D01*
X157010223Y-121331591D01*
X157034556Y-121350830D01*
X157037335Y-121353095D01*
X157095752Y-121402113D01*
X157112179Y-121412578D01*
X157181320Y-121444819D01*
X157184567Y-121446391D01*
X157252699Y-121480609D01*
X157271087Y-121487000D01*
X157272323Y-121487255D01*
X157272327Y-121487257D01*
X157345895Y-121502447D01*
X157349242Y-121503189D01*
X157422279Y-121520500D01*
X157422281Y-121520500D01*
X157423509Y-121520791D01*
X157442878Y-121522770D01*
X157444140Y-121522733D01*
X157444144Y-121522734D01*
X157516533Y-121520627D01*
X157519131Y-121520552D01*
X157522737Y-121520500D01*
X159435500Y-121520500D01*
X159502539Y-121540185D01*
X159548294Y-121592989D01*
X159559500Y-121644500D01*
X159559500Y-126776294D01*
X159558191Y-126794264D01*
X159554711Y-126818023D01*
X159559028Y-126867368D01*
X159559500Y-126878175D01*
X159559500Y-126883709D01*
X159559916Y-126887272D01*
X159559917Y-126887282D01*
X159563098Y-126914496D01*
X159563464Y-126918082D01*
X159570109Y-126994041D01*
X159574330Y-127013077D01*
X159574759Y-127014255D01*
X159600127Y-127083957D01*
X159600393Y-127084686D01*
X159601576Y-127088088D01*
X159625581Y-127160526D01*
X159634075Y-127178072D01*
X159675979Y-127241784D01*
X159677889Y-127244782D01*
X159717288Y-127308656D01*
X159717952Y-127309732D01*
X159730253Y-127324830D01*
X159731168Y-127325693D01*
X159731170Y-127325696D01*
X159776530Y-127368491D01*
X159785709Y-127377151D01*
X159788296Y-127379664D01*
X161658817Y-129250185D01*
X163524267Y-131115634D01*
X163536048Y-131129266D01*
X163550390Y-131148530D01*
X163588339Y-131180373D01*
X163596314Y-131187681D01*
X163600223Y-131191590D01*
X163603055Y-131193829D01*
X163603065Y-131193838D01*
X163624542Y-131210819D01*
X163627298Y-131213063D01*
X163684786Y-131261302D01*
X163684788Y-131261303D01*
X163685757Y-131262116D01*
X163702177Y-131272576D01*
X163703321Y-131273109D01*
X163703323Y-131273111D01*
X163771357Y-131304835D01*
X163774456Y-131306335D01*
X163835536Y-131337011D01*
X163842704Y-131340611D01*
X163861084Y-131346998D01*
X163862321Y-131347253D01*
X163862327Y-131347256D01*
X163935862Y-131362439D01*
X163939209Y-131363181D01*
X164012279Y-131380500D01*
X164012281Y-131380500D01*
X164013505Y-131380790D01*
X164032873Y-131382769D01*
X164034139Y-131382732D01*
X164034144Y-131382733D01*
X164060612Y-131381962D01*
X164128193Y-131399688D01*
X164169943Y-131441119D01*
X164251164Y-131573659D01*
X164414776Y-131765224D01*
X164460649Y-131804403D01*
X164462179Y-131805710D01*
X164500372Y-131864217D01*
X164500870Y-131934085D01*
X164463516Y-131993131D01*
X164462179Y-131994290D01*
X164414776Y-132034776D01*
X164251163Y-132226342D01*
X164119535Y-132441139D01*
X164023126Y-132673889D01*
X163964317Y-132918850D01*
X163948611Y-133118409D01*
X163944551Y-133170000D01*
X163947855Y-133211977D01*
X163964317Y-133421149D01*
X164023126Y-133666110D01*
X164066159Y-133769999D01*
X164119534Y-133898859D01*
X164251164Y-134113659D01*
X164414776Y-134305224D01*
X164462563Y-134346038D01*
X164500756Y-134404543D01*
X164501255Y-134474411D01*
X164463901Y-134533458D01*
X164462564Y-134534616D01*
X164415131Y-134575128D01*
X164251569Y-134766636D01*
X164119982Y-134981367D01*
X164025279Y-135209999D01*
X164025279Y-135210000D01*
X166164237Y-135210000D01*
X166057685Y-135225320D01*
X165926900Y-135285048D01*
X165818239Y-135379202D01*
X165740507Y-135500156D01*
X165700000Y-135638111D01*
X165700000Y-135781889D01*
X165740507Y-135919844D01*
X165818239Y-136040798D01*
X165926900Y-136134952D01*
X166057685Y-136194680D01*
X166164237Y-136210000D01*
X166235763Y-136210000D01*
X166700000Y-136210000D01*
X166700000Y-137310000D01*
X166910424Y-137310000D01*
X166915303Y-137309808D01*
X167101070Y-137295187D01*
X167345956Y-137236396D01*
X167578632Y-137140017D01*
X167793364Y-137008430D01*
X167984869Y-136844869D01*
X168148430Y-136653364D01*
X168280017Y-136438632D01*
X168374721Y-136210000D01*
X166700000Y-136210000D01*
X166235763Y-136210000D01*
X166342315Y-136194680D01*
X166473100Y-136134952D01*
X166581761Y-136040798D01*
X166659493Y-135919844D01*
X166700000Y-135781889D01*
X166700000Y-135638111D01*
X166659493Y-135500156D01*
X166581761Y-135379202D01*
X166473100Y-135285048D01*
X166342315Y-135225320D01*
X166235763Y-135210000D01*
X168374721Y-135210000D01*
X168374720Y-135209999D01*
X168280017Y-134981367D01*
X168148430Y-134766635D01*
X167984869Y-134575130D01*
X167937435Y-134534617D01*
X167899242Y-134476110D01*
X167898744Y-134406242D01*
X167936098Y-134347196D01*
X167937208Y-134346232D01*
X167985224Y-134305224D01*
X168148836Y-134113659D01*
X168230920Y-133979709D01*
X168282731Y-133932835D01*
X168336647Y-133920500D01*
X169205500Y-133920500D01*
X169272539Y-133940185D01*
X169318294Y-133992989D01*
X169329500Y-134044500D01*
X169329500Y-144445500D01*
X169309815Y-144512539D01*
X169257011Y-144558294D01*
X169205500Y-144569500D01*
X150347052Y-144569500D01*
X150280013Y-144549815D01*
X150234258Y-144497011D01*
X150224314Y-144427853D01*
X150248976Y-144373849D01*
X150248843Y-144373773D01*
X150249649Y-144372376D01*
X150253339Y-144364297D01*
X150256033Y-144361318D01*
X150256088Y-144361221D01*
X150256092Y-144361218D01*
X150261699Y-144351504D01*
X150274097Y-144333800D01*
X150281302Y-144325214D01*
X150309255Y-144269551D01*
X150312669Y-144263221D01*
X150324179Y-144243285D01*
X150343812Y-144209281D01*
X150347028Y-144198535D01*
X150355010Y-144178448D01*
X150360039Y-144168434D01*
X150360040Y-144168433D01*
X150374405Y-144107820D01*
X150376271Y-144100860D01*
X150381832Y-144082285D01*
X150394130Y-144041210D01*
X150394781Y-144030009D01*
X150397916Y-144008620D01*
X150400500Y-143997720D01*
X150400500Y-143935444D01*
X150400710Y-143928233D01*
X150404331Y-143866065D01*
X150402384Y-143855023D01*
X150400500Y-143833490D01*
X150400500Y-141480000D01*
X151932923Y-141480000D01*
X151944812Y-141631070D01*
X152003603Y-141875956D01*
X152099982Y-142108632D01*
X152231569Y-142323364D01*
X152395130Y-142514869D01*
X152586636Y-142678430D01*
X152801369Y-142810019D01*
X153029999Y-142904720D01*
X153030000Y-142904720D01*
X153030000Y-141480000D01*
X151932923Y-141480000D01*
X150400500Y-141480000D01*
X150400500Y-141051889D01*
X153030000Y-141051889D01*
X153070507Y-141189844D01*
X153148239Y-141310798D01*
X153256900Y-141404952D01*
X153387685Y-141464680D01*
X153494237Y-141480000D01*
X153565763Y-141480000D01*
X153672315Y-141464680D01*
X153803100Y-141404952D01*
X153911761Y-141310798D01*
X153989493Y-141189844D01*
X154030000Y-141051889D01*
X154030000Y-142904720D01*
X154258630Y-142810019D01*
X154473363Y-142678430D01*
X154664868Y-142514870D01*
X154705380Y-142467437D01*
X154763887Y-142429244D01*
X154833755Y-142428744D01*
X154892801Y-142466098D01*
X154893961Y-142467436D01*
X154934776Y-142515224D01*
X155126341Y-142678836D01*
X155341141Y-142810466D01*
X155573889Y-142906873D01*
X155818852Y-142965683D01*
X156070000Y-142985449D01*
X156321148Y-142965683D01*
X156566111Y-142906873D01*
X156798859Y-142810466D01*
X157013659Y-142678836D01*
X157205224Y-142515224D01*
X157368836Y-142323659D01*
X157500466Y-142108859D01*
X157596873Y-141876111D01*
X157655683Y-141631148D01*
X157670500Y-141442882D01*
X157670500Y-140517118D01*
X157655683Y-140328852D01*
X157596873Y-140083889D01*
X157500466Y-139851141D01*
X157368836Y-139636341D01*
X157368835Y-139636340D01*
X157368834Y-139636338D01*
X157205227Y-139444778D01*
X157113968Y-139366835D01*
X157075775Y-139308328D01*
X157070500Y-139272545D01*
X157070500Y-138955783D01*
X157090185Y-138888744D01*
X157106819Y-138868102D01*
X159498102Y-136476819D01*
X159559425Y-136443334D01*
X159585783Y-136440500D01*
X160069184Y-136440500D01*
X160136223Y-136460185D01*
X160166129Y-136487185D01*
X160283195Y-136633981D01*
X160283197Y-136633983D01*
X160283198Y-136633984D01*
X160475514Y-136812428D01*
X160475520Y-136812432D01*
X160475521Y-136812433D01*
X160692296Y-136960228D01*
X160928677Y-137074063D01*
X161179385Y-137151396D01*
X161438818Y-137190500D01*
X161701182Y-137190500D01*
X161960615Y-137151396D01*
X162211323Y-137074063D01*
X162447704Y-136960228D01*
X162664479Y-136812433D01*
X162664482Y-136812429D01*
X162664485Y-136812428D01*
X162802109Y-136684731D01*
X162856805Y-136633981D01*
X163020386Y-136428857D01*
X163146743Y-136210000D01*
X164025279Y-136210000D01*
X164119982Y-136438632D01*
X164251569Y-136653364D01*
X164415130Y-136844869D01*
X164606635Y-137008430D01*
X164821367Y-137140017D01*
X165054043Y-137236396D01*
X165298929Y-137295187D01*
X165484696Y-137309808D01*
X165489576Y-137310000D01*
X165700000Y-137310000D01*
X165700000Y-136210000D01*
X164025279Y-136210000D01*
X163146743Y-136210000D01*
X163151568Y-136201643D01*
X163247420Y-135957416D01*
X163305802Y-135701630D01*
X163325408Y-135440000D01*
X163305802Y-135178370D01*
X163247420Y-134922584D01*
X163151568Y-134678357D01*
X163020386Y-134451143D01*
X162856805Y-134246019D01*
X162856801Y-134246015D01*
X162664485Y-134067571D01*
X162640499Y-134051218D01*
X162447704Y-133919772D01*
X162211323Y-133805937D01*
X161960615Y-133728604D01*
X161701182Y-133689500D01*
X161438818Y-133689500D01*
X161179385Y-133728604D01*
X160928677Y-133805937D01*
X160740179Y-133896713D01*
X160692296Y-133919772D01*
X160623707Y-133966535D01*
X160475514Y-134067571D01*
X160283198Y-134246015D01*
X160283194Y-134246019D01*
X160283195Y-134246019D01*
X160171909Y-134385568D01*
X160166131Y-134392813D01*
X160108943Y-134432953D01*
X160069184Y-134439500D01*
X159134238Y-134439500D01*
X159131096Y-134439460D01*
X159043635Y-134437243D01*
X158985581Y-134447648D01*
X158976253Y-134448957D01*
X158917561Y-134454926D01*
X158888527Y-134464035D01*
X158873288Y-134467775D01*
X158843345Y-134473142D01*
X158788568Y-134495021D01*
X158779698Y-134498179D01*
X158723410Y-134515841D01*
X158696809Y-134530605D01*
X158682639Y-134537335D01*
X158654385Y-134548622D01*
X158605121Y-134581087D01*
X158597070Y-134585964D01*
X158545498Y-134614590D01*
X158522414Y-134634407D01*
X158509887Y-134643853D01*
X158484481Y-134660598D01*
X158442775Y-134702303D01*
X158435868Y-134708704D01*
X158391103Y-134747135D01*
X158372480Y-134771193D01*
X158362108Y-134782969D01*
X155372646Y-137772432D01*
X155370399Y-137774623D01*
X155306948Y-137834939D01*
X155273244Y-137883362D01*
X155267573Y-137890882D01*
X155230301Y-137936593D01*
X155216210Y-137963566D01*
X155208082Y-137976983D01*
X155190705Y-138001950D01*
X155167439Y-138056165D01*
X155163399Y-138064671D01*
X155136090Y-138116952D01*
X155127720Y-138146201D01*
X155122459Y-138160978D01*
X155110460Y-138188942D01*
X155098587Y-138246713D01*
X155096342Y-138255860D01*
X155080113Y-138312580D01*
X155077802Y-138342925D01*
X155075622Y-138358466D01*
X155069500Y-138388258D01*
X155069500Y-138447241D01*
X155069142Y-138456655D01*
X155064663Y-138515477D01*
X155068506Y-138545651D01*
X155069500Y-138561317D01*
X155069500Y-139272545D01*
X155049815Y-139339584D01*
X155026034Y-139366833D01*
X154934776Y-139444776D01*
X154934774Y-139444778D01*
X154934772Y-139444780D01*
X154893960Y-139492564D01*
X154835452Y-139530756D01*
X154765584Y-139531254D01*
X154706539Y-139493899D01*
X154705381Y-139492563D01*
X154664869Y-139445130D01*
X154473364Y-139281569D01*
X154258632Y-139149982D01*
X154030000Y-139055279D01*
X154030000Y-140908111D01*
X153989493Y-140770156D01*
X153911761Y-140649202D01*
X153803100Y-140555048D01*
X153672315Y-140495320D01*
X153565763Y-140480000D01*
X153494237Y-140480000D01*
X153387685Y-140495320D01*
X153256900Y-140555048D01*
X153148239Y-140649202D01*
X153070507Y-140770156D01*
X153030000Y-140908111D01*
X153030000Y-141051889D01*
X150400500Y-141051889D01*
X150400500Y-140479999D01*
X151932922Y-140479999D01*
X151932923Y-140480000D01*
X153030000Y-140480000D01*
X153030000Y-139055279D01*
X153029999Y-139055279D01*
X152801367Y-139149982D01*
X152586635Y-139281569D01*
X152395130Y-139445130D01*
X152231569Y-139636635D01*
X152099982Y-139851367D01*
X152003603Y-140084043D01*
X151944812Y-140328929D01*
X151932922Y-140479999D01*
X150400500Y-140479999D01*
X150400500Y-134094500D01*
X150420185Y-134027461D01*
X150472989Y-133981706D01*
X150524500Y-133970500D01*
X154056294Y-133970500D01*
X154074264Y-133971809D01*
X154078320Y-133972402D01*
X154098023Y-133975289D01*
X154147368Y-133970972D01*
X154158176Y-133970500D01*
X154160100Y-133970500D01*
X154163709Y-133970500D01*
X154194550Y-133966894D01*
X154198031Y-133966539D01*
X154272797Y-133959999D01*
X154272797Y-133959998D01*
X154274052Y-133959889D01*
X154293062Y-133955674D01*
X154294250Y-133955241D01*
X154294255Y-133955241D01*
X154364820Y-133929557D01*
X154368095Y-133928419D01*
X154439334Y-133904814D01*
X154439336Y-133904812D01*
X154440536Y-133904415D01*
X154458063Y-133895929D01*
X154459112Y-133895238D01*
X154459117Y-133895237D01*
X154521806Y-133854005D01*
X154524798Y-133852099D01*
X154588656Y-133812712D01*
X154588656Y-133812711D01*
X154589729Y-133812050D01*
X154604824Y-133799753D01*
X154605692Y-133798832D01*
X154605696Y-133798830D01*
X154657184Y-133744254D01*
X154659630Y-133741736D01*
X156071592Y-132329774D01*
X156132913Y-132296291D01*
X156202603Y-132301274D01*
X156344954Y-132354369D01*
X156344957Y-132354369D01*
X156344958Y-132354370D01*
X156364247Y-132358566D01*
X156624572Y-132415196D01*
X156910000Y-132435610D01*
X157195428Y-132415196D01*
X157475046Y-132354369D01*
X157743161Y-132254367D01*
X157994315Y-132117226D01*
X158223395Y-131945739D01*
X158425739Y-131743395D01*
X158597226Y-131514315D01*
X158734367Y-131263161D01*
X158834369Y-130995046D01*
X158895196Y-130715428D01*
X158915610Y-130430000D01*
X158895196Y-130144572D01*
X158841567Y-129898042D01*
X158834370Y-129864958D01*
X158834368Y-129864952D01*
X158734367Y-129596839D01*
X158659898Y-129460460D01*
X158597227Y-129345686D01*
X158538668Y-129267461D01*
X158425739Y-129116605D01*
X158223395Y-128914261D01*
X158071575Y-128800610D01*
X157994313Y-128742772D01*
X157743163Y-128605634D01*
X157743162Y-128605633D01*
X157743161Y-128605633D01*
X157540980Y-128530223D01*
X157475041Y-128505629D01*
X157195429Y-128444804D01*
X156910000Y-128424389D01*
X156624570Y-128444804D01*
X156344958Y-128505629D01*
X156076836Y-128605634D01*
X155825686Y-128742772D01*
X155596602Y-128914263D01*
X155394263Y-129116602D01*
X155222772Y-129345686D01*
X155085634Y-129596836D01*
X154985629Y-129864958D01*
X154924804Y-130144570D01*
X154904389Y-130430000D01*
X154924804Y-130715429D01*
X154985630Y-130995044D01*
X155038724Y-131137394D01*
X155043708Y-131207085D01*
X155010223Y-131268408D01*
X153845451Y-132433181D01*
X153784128Y-132466666D01*
X153757770Y-132469500D01*
X149675446Y-132469500D01*
X149668236Y-132469290D01*
X149606064Y-132465668D01*
X149544720Y-132476485D01*
X149537585Y-132477530D01*
X149475745Y-132484758D01*
X149465200Y-132488596D01*
X149444337Y-132494186D01*
X149433290Y-132496134D01*
X149376105Y-132520800D01*
X149369407Y-132523461D01*
X149310879Y-132544764D01*
X149301505Y-132550929D01*
X149282496Y-132561179D01*
X149272193Y-132565623D01*
X149222240Y-132602812D01*
X149216335Y-132606947D01*
X149164305Y-132641169D01*
X149164304Y-132641169D01*
X149164304Y-132641170D01*
X149157280Y-132648615D01*
X149156605Y-132649330D01*
X149140471Y-132663688D01*
X149131467Y-132670391D01*
X149091432Y-132718102D01*
X149086641Y-132723487D01*
X149043907Y-132768783D01*
X149038300Y-132778495D01*
X149025910Y-132796190D01*
X149018697Y-132804786D01*
X148990748Y-132860436D01*
X148987328Y-132866780D01*
X148956188Y-132920719D01*
X148952969Y-132931469D01*
X148944995Y-132951539D01*
X148939961Y-132961563D01*
X148925598Y-133022158D01*
X148923733Y-133029118D01*
X148905869Y-133088791D01*
X148905217Y-133099989D01*
X148902086Y-133121362D01*
X148899500Y-133132275D01*
X148899500Y-133194554D01*
X148899290Y-133201764D01*
X148895668Y-133263933D01*
X148897616Y-133274975D01*
X148899500Y-133296509D01*
X148899500Y-143035500D01*
X148879815Y-143102539D01*
X148827011Y-143148294D01*
X148775500Y-143159500D01*
X138914500Y-143159500D01*
X138847461Y-143139815D01*
X138801706Y-143087011D01*
X138790500Y-143035500D01*
X138790500Y-140320937D01*
X140575630Y-140320937D01*
X140606443Y-140522071D01*
X140677113Y-140712886D01*
X140784745Y-140885568D01*
X140784748Y-140885571D01*
X140924941Y-141033053D01*
X141091951Y-141149295D01*
X141278942Y-141229540D01*
X141478259Y-141270500D01*
X141478261Y-141270500D01*
X141627600Y-141270500D01*
X141630742Y-141270500D01*
X141782438Y-141255074D01*
X141976588Y-141194159D01*
X142154502Y-141095409D01*
X142308895Y-140962866D01*
X142433448Y-140801958D01*
X142523060Y-140619271D01*
X142574063Y-140422285D01*
X142584369Y-140219064D01*
X142563684Y-140084043D01*
X142553556Y-140017928D01*
X142482886Y-139827113D01*
X142375254Y-139654431D01*
X142358055Y-139636338D01*
X142235059Y-139506947D01*
X142068049Y-139390705D01*
X141881058Y-139310460D01*
X141681741Y-139269500D01*
X141529258Y-139269500D01*
X141526147Y-139269816D01*
X141526134Y-139269817D01*
X141377559Y-139284926D01*
X141183412Y-139345841D01*
X141005500Y-139444589D01*
X140851104Y-139577135D01*
X140726551Y-139738042D01*
X140636940Y-139920727D01*
X140585937Y-140117716D01*
X140575630Y-140320937D01*
X138790500Y-140320937D01*
X138790500Y-139043705D01*
X138791809Y-139025735D01*
X138791961Y-139024691D01*
X138795289Y-139001977D01*
X138790972Y-138952629D01*
X138790500Y-138941823D01*
X138790500Y-138939901D01*
X138790500Y-138936291D01*
X138786903Y-138905520D01*
X138786536Y-138901929D01*
X138783577Y-138868102D01*
X138779999Y-138827203D01*
X138779998Y-138827201D01*
X138779889Y-138825949D01*
X138775672Y-138806930D01*
X138749583Y-138735248D01*
X138748399Y-138731841D01*
X138724416Y-138659466D01*
X138715929Y-138641936D01*
X138715237Y-138640884D01*
X138715237Y-138640883D01*
X138674001Y-138578188D01*
X138672086Y-138575181D01*
X138653872Y-138545651D01*
X138632712Y-138511345D01*
X138632711Y-138511344D01*
X138632048Y-138510269D01*
X138619748Y-138495170D01*
X138564272Y-138442831D01*
X138561685Y-138440318D01*
X137876135Y-137754767D01*
X137842650Y-137693444D01*
X137847634Y-137623752D01*
X137889506Y-137567819D01*
X137954970Y-137543402D01*
X137960211Y-137543138D01*
X137974138Y-137542732D01*
X137974144Y-137542734D01*
X138045633Y-137540653D01*
X138049132Y-137540552D01*
X138052737Y-137540500D01*
X145205500Y-137540500D01*
X145272539Y-137560185D01*
X145318294Y-137612989D01*
X145329500Y-137664500D01*
X145329500Y-138328707D01*
X145309815Y-138395746D01*
X145257011Y-138441501D01*
X145248838Y-138444887D01*
X145246840Y-138445632D01*
X144995687Y-138582772D01*
X144766602Y-138754263D01*
X144564263Y-138956602D01*
X144392772Y-139185686D01*
X144255634Y-139436836D01*
X144155629Y-139704958D01*
X144094804Y-139984570D01*
X144074389Y-140270000D01*
X144094804Y-140555429D01*
X144155629Y-140835041D01*
X144155631Y-140835046D01*
X144246850Y-141079614D01*
X144255634Y-141103163D01*
X144392772Y-141354313D01*
X144457243Y-141440436D01*
X144564261Y-141583395D01*
X144766605Y-141785739D01*
X144925064Y-141904360D01*
X144995686Y-141957227D01*
X145111745Y-142020600D01*
X145246839Y-142094367D01*
X145514954Y-142194369D01*
X145514957Y-142194369D01*
X145514958Y-142194370D01*
X145567217Y-142205738D01*
X145794572Y-142255196D01*
X146080000Y-142275610D01*
X146365428Y-142255196D01*
X146645046Y-142194369D01*
X146913161Y-142094367D01*
X147164315Y-141957226D01*
X147393395Y-141785739D01*
X147595739Y-141583395D01*
X147767226Y-141354315D01*
X147904367Y-141103161D01*
X148004369Y-140835046D01*
X148065196Y-140555428D01*
X148085610Y-140270000D01*
X148065196Y-139984572D01*
X148004369Y-139704954D01*
X147904367Y-139436839D01*
X147834194Y-139308328D01*
X147767227Y-139185686D01*
X147708424Y-139107135D01*
X147595739Y-138956605D01*
X147393395Y-138754261D01*
X147164315Y-138582774D01*
X147164313Y-138582773D01*
X147164312Y-138582772D01*
X146913159Y-138445632D01*
X146911162Y-138444887D01*
X146909455Y-138443609D01*
X146905378Y-138441383D01*
X146905698Y-138440796D01*
X146855230Y-138403014D01*
X146830816Y-138337548D01*
X146830500Y-138328707D01*
X146830500Y-136815444D01*
X146830710Y-136808234D01*
X146834331Y-136746066D01*
X146823515Y-136684731D01*
X146822469Y-136677591D01*
X146815241Y-136615745D01*
X146811404Y-136605206D01*
X146805810Y-136584324D01*
X146803865Y-136573289D01*
X146779193Y-136516094D01*
X146776535Y-136509400D01*
X146755238Y-136450884D01*
X146749076Y-136441516D01*
X146738817Y-136422490D01*
X146734377Y-136412196D01*
X146697187Y-136362243D01*
X146693054Y-136356340D01*
X146658830Y-136304304D01*
X146650673Y-136296608D01*
X146636304Y-136280462D01*
X146629610Y-136271470D01*
X146581894Y-136231432D01*
X146576543Y-136226670D01*
X146531218Y-136183908D01*
X146531216Y-136183906D01*
X146531213Y-136183904D01*
X146521503Y-136178298D01*
X146503803Y-136165905D01*
X146495214Y-136158698D01*
X146495212Y-136158697D01*
X146495211Y-136158696D01*
X146439551Y-136130742D01*
X146433204Y-136127320D01*
X146379279Y-136096187D01*
X146368535Y-136092970D01*
X146348459Y-136084994D01*
X146338435Y-136079960D01*
X146277841Y-136065598D01*
X146270879Y-136063732D01*
X146211212Y-136045870D01*
X146205941Y-136045563D01*
X146200013Y-136045217D01*
X146178634Y-136042086D01*
X146167721Y-136039500D01*
X146167719Y-136039500D01*
X146105446Y-136039500D01*
X146098236Y-136039290D01*
X146036065Y-136035668D01*
X146025023Y-136037616D01*
X146003490Y-136039500D01*
X138402229Y-136039500D01*
X138335190Y-136019815D01*
X138314548Y-136003181D01*
X137805024Y-135493657D01*
X140563448Y-135493657D01*
X140747045Y-135593909D01*
X141015100Y-135693889D01*
X141294642Y-135754699D01*
X141579999Y-135775109D01*
X141865357Y-135754699D01*
X142144899Y-135693889D01*
X142412954Y-135593909D01*
X142596550Y-135493658D01*
X142596550Y-135493657D01*
X141580000Y-134477107D01*
X140563448Y-135493657D01*
X137805024Y-135493657D01*
X137596415Y-135285048D01*
X136873549Y-134562181D01*
X136840064Y-134500858D01*
X136845048Y-134431166D01*
X136886920Y-134375233D01*
X136952384Y-134350816D01*
X136961230Y-134350500D01*
X138604554Y-134350500D01*
X138611764Y-134350710D01*
X138614367Y-134350861D01*
X138673935Y-134354331D01*
X138735304Y-134343508D01*
X138742384Y-134342471D01*
X138804255Y-134335241D01*
X138814790Y-134331405D01*
X138835661Y-134325812D01*
X138846711Y-134323865D01*
X138903899Y-134299196D01*
X138910580Y-134296541D01*
X138969117Y-134275237D01*
X138978479Y-134269078D01*
X138997517Y-134258814D01*
X139007804Y-134254377D01*
X139057786Y-134217165D01*
X139063648Y-134213061D01*
X139115696Y-134178830D01*
X139123391Y-134170673D01*
X139139534Y-134156306D01*
X139148530Y-134149610D01*
X139188567Y-134101893D01*
X139193333Y-134096537D01*
X139236092Y-134051218D01*
X139241699Y-134041504D01*
X139254097Y-134023800D01*
X139255548Y-134022071D01*
X139261302Y-134015214D01*
X139289255Y-133959551D01*
X139292669Y-133953221D01*
X139323812Y-133899281D01*
X139327028Y-133888535D01*
X139335010Y-133868448D01*
X139346547Y-133845478D01*
X139348705Y-133846562D01*
X139373299Y-133803431D01*
X139435228Y-133771081D01*
X139504816Y-133777348D01*
X139559969Y-133820243D01*
X139583034Y-133883865D01*
X139595300Y-134055358D01*
X139656111Y-134334902D01*
X139756088Y-134602952D01*
X139856341Y-134786550D01*
X140801003Y-133841889D01*
X141080000Y-133841889D01*
X141120507Y-133979844D01*
X141198239Y-134100798D01*
X141306900Y-134194952D01*
X141437685Y-134254680D01*
X141544237Y-134270000D01*
X141615763Y-134270000D01*
X141722315Y-134254680D01*
X141853100Y-134194952D01*
X141961761Y-134100798D01*
X142039493Y-133979844D01*
X142080000Y-133841889D01*
X142080000Y-133770000D01*
X142287107Y-133770000D01*
X143303657Y-134786550D01*
X143303658Y-134786550D01*
X143403909Y-134602954D01*
X143503889Y-134334899D01*
X143564699Y-134055357D01*
X143581466Y-133820937D01*
X145075630Y-133820937D01*
X145106443Y-134022071D01*
X145177113Y-134212886D01*
X145284745Y-134385568D01*
X145284748Y-134385571D01*
X145424941Y-134533053D01*
X145591951Y-134649295D01*
X145778942Y-134729540D01*
X145978259Y-134770500D01*
X145978261Y-134770500D01*
X146127600Y-134770500D01*
X146130742Y-134770500D01*
X146282438Y-134755074D01*
X146476588Y-134694159D01*
X146654502Y-134595409D01*
X146808895Y-134462866D01*
X146933448Y-134301958D01*
X147023060Y-134119271D01*
X147074063Y-133922285D01*
X147084369Y-133719064D01*
X147080623Y-133694614D01*
X147053556Y-133517928D01*
X146982886Y-133327113D01*
X146875254Y-133154431D01*
X146867516Y-133146291D01*
X146735059Y-133006947D01*
X146568049Y-132890705D01*
X146381058Y-132810460D01*
X146181741Y-132769500D01*
X146029258Y-132769500D01*
X146026147Y-132769816D01*
X146026134Y-132769817D01*
X145877559Y-132784926D01*
X145683412Y-132845841D01*
X145505500Y-132944589D01*
X145476606Y-132969394D01*
X145382899Y-133049840D01*
X145351104Y-133077135D01*
X145226551Y-133238042D01*
X145136940Y-133420727D01*
X145085937Y-133617716D01*
X145075630Y-133820937D01*
X143581466Y-133820937D01*
X143585109Y-133769999D01*
X143564699Y-133484642D01*
X143503889Y-133205100D01*
X143403909Y-132937045D01*
X143303657Y-132753448D01*
X142287107Y-133769999D01*
X142287107Y-133770000D01*
X142080000Y-133770000D01*
X142080000Y-133698111D01*
X142039493Y-133560156D01*
X141961761Y-133439202D01*
X141853100Y-133345048D01*
X141722315Y-133285320D01*
X141615763Y-133270000D01*
X141544237Y-133270000D01*
X141437685Y-133285320D01*
X141306900Y-133345048D01*
X141198239Y-133439202D01*
X141120507Y-133560156D01*
X141080000Y-133698111D01*
X141080000Y-133841889D01*
X140801003Y-133841889D01*
X140872893Y-133769999D01*
X139856341Y-132753448D01*
X139856339Y-132753448D01*
X139756090Y-132937043D01*
X139656111Y-133205097D01*
X139625666Y-133345053D01*
X139592181Y-133406376D01*
X139530858Y-133439861D01*
X139461166Y-133434877D01*
X139405233Y-133393005D01*
X139380816Y-133327541D01*
X139380500Y-133318695D01*
X139380500Y-132046341D01*
X140563448Y-132046341D01*
X141579999Y-133062892D01*
X142596550Y-132046341D01*
X142596550Y-132046340D01*
X142412952Y-131946088D01*
X142144902Y-131846111D01*
X141865357Y-131785300D01*
X141579999Y-131764890D01*
X141294642Y-131785300D01*
X141015097Y-131846111D01*
X140747043Y-131946090D01*
X140563448Y-132046339D01*
X140563448Y-132046341D01*
X139380500Y-132046341D01*
X139380500Y-129334500D01*
X139400185Y-129267461D01*
X139452989Y-129221706D01*
X139504500Y-129210500D01*
X141305303Y-129210500D01*
X141372342Y-129230185D01*
X141418097Y-129282989D01*
X141428041Y-129352147D01*
X141399016Y-129415703D01*
X141342424Y-129452813D01*
X141173412Y-129505841D01*
X140995500Y-129604589D01*
X140995497Y-129604591D01*
X140995498Y-129604591D01*
X140846641Y-129732382D01*
X140841104Y-129737135D01*
X140716551Y-129898042D01*
X140626940Y-130080727D01*
X140601773Y-130177929D01*
X140577010Y-130273573D01*
X140575937Y-130277716D01*
X140565630Y-130480937D01*
X140596443Y-130682071D01*
X140667113Y-130872886D01*
X140774745Y-131045568D01*
X140774748Y-131045571D01*
X140914941Y-131193053D01*
X141081951Y-131309295D01*
X141268942Y-131389540D01*
X141468259Y-131430500D01*
X141468261Y-131430500D01*
X141617600Y-131430500D01*
X141620742Y-131430500D01*
X141772438Y-131415074D01*
X141966588Y-131354159D01*
X142144502Y-131255409D01*
X142298895Y-131122866D01*
X142423448Y-130961958D01*
X142513060Y-130779271D01*
X142564063Y-130582285D01*
X142574369Y-130379064D01*
X142574336Y-130378850D01*
X142543556Y-130177928D01*
X142472886Y-129987113D01*
X142365254Y-129814431D01*
X142348999Y-129797331D01*
X142225059Y-129666947D01*
X142058049Y-129550705D01*
X141871058Y-129470460D01*
X141800504Y-129455961D01*
X141738802Y-129423185D01*
X141704612Y-129362252D01*
X141708794Y-129292508D01*
X141750018Y-129236095D01*
X141815197Y-129210926D01*
X141825467Y-129210500D01*
X143737770Y-129210500D01*
X143804809Y-129230185D01*
X143825451Y-129246819D01*
X144170222Y-129591590D01*
X144203707Y-129652913D01*
X144198723Y-129722603D01*
X144145631Y-129864952D01*
X144084804Y-130144570D01*
X144064389Y-130430000D01*
X144084804Y-130715429D01*
X144145629Y-130995041D01*
X144164475Y-131045568D01*
X144239289Y-131246153D01*
X144245634Y-131263163D01*
X144382772Y-131514313D01*
X144394276Y-131529680D01*
X144554261Y-131743395D01*
X144756605Y-131945739D01*
X144890994Y-132046341D01*
X144985686Y-132117227D01*
X145096619Y-132177801D01*
X145236839Y-132254367D01*
X145504954Y-132354369D01*
X145504957Y-132354369D01*
X145504958Y-132354370D01*
X145524247Y-132358566D01*
X145784572Y-132415196D01*
X146070000Y-132435610D01*
X146355428Y-132415196D01*
X146635046Y-132354369D01*
X146903161Y-132254367D01*
X147154315Y-132117226D01*
X147383395Y-131945739D01*
X147585739Y-131743395D01*
X147757226Y-131514315D01*
X147894367Y-131263161D01*
X147994369Y-130995046D01*
X148055196Y-130715428D01*
X148071967Y-130480937D01*
X151405630Y-130480937D01*
X151436443Y-130682071D01*
X151507113Y-130872886D01*
X151614745Y-131045568D01*
X151614748Y-131045571D01*
X151754941Y-131193053D01*
X151921951Y-131309295D01*
X152108942Y-131389540D01*
X152308259Y-131430500D01*
X152308261Y-131430500D01*
X152457600Y-131430500D01*
X152460742Y-131430500D01*
X152612438Y-131415074D01*
X152806588Y-131354159D01*
X152984502Y-131255409D01*
X153138895Y-131122866D01*
X153263448Y-130961958D01*
X153353060Y-130779271D01*
X153404063Y-130582285D01*
X153414369Y-130379064D01*
X153414336Y-130378850D01*
X153383556Y-130177928D01*
X153312886Y-129987113D01*
X153205254Y-129814431D01*
X153188999Y-129797331D01*
X153065059Y-129666947D01*
X152898049Y-129550705D01*
X152711058Y-129470460D01*
X152511741Y-129429500D01*
X152359258Y-129429500D01*
X152356147Y-129429816D01*
X152356134Y-129429817D01*
X152207559Y-129444926D01*
X152013412Y-129505841D01*
X151835500Y-129604589D01*
X151835497Y-129604591D01*
X151835498Y-129604591D01*
X151686641Y-129732382D01*
X151681104Y-129737135D01*
X151556551Y-129898042D01*
X151466940Y-130080727D01*
X151441773Y-130177929D01*
X151417010Y-130273573D01*
X151415937Y-130277716D01*
X151405630Y-130480937D01*
X148071967Y-130480937D01*
X148075610Y-130430000D01*
X148055196Y-130144572D01*
X148001567Y-129898042D01*
X147994370Y-129864958D01*
X147994368Y-129864952D01*
X147894367Y-129596839D01*
X147819898Y-129460460D01*
X147757227Y-129345686D01*
X147698668Y-129267461D01*
X147585739Y-129116605D01*
X147383395Y-128914261D01*
X147231575Y-128800610D01*
X147154313Y-128742772D01*
X146903163Y-128605634D01*
X146903162Y-128605633D01*
X146903161Y-128605633D01*
X146700980Y-128530223D01*
X146635041Y-128505629D01*
X146355429Y-128444804D01*
X146070000Y-128424389D01*
X145784570Y-128444804D01*
X145504955Y-128505630D01*
X145362604Y-128558724D01*
X145292912Y-128563708D01*
X145231590Y-128530223D01*
X144970485Y-128269118D01*
X144675728Y-127974360D01*
X144663946Y-127960727D01*
X144649609Y-127941469D01*
X144611666Y-127909631D01*
X144603691Y-127902323D01*
X144602329Y-127900961D01*
X144599777Y-127898409D01*
X144575444Y-127879169D01*
X144572647Y-127876890D01*
X144514251Y-127827890D01*
X144497821Y-127817422D01*
X144428691Y-127785186D01*
X144425447Y-127783615D01*
X144357306Y-127749394D01*
X144338903Y-127742997D01*
X144287118Y-127732304D01*
X144264206Y-127727572D01*
X144260692Y-127726794D01*
X144186490Y-127709208D01*
X144167121Y-127707229D01*
X144090869Y-127709448D01*
X144087263Y-127709500D01*
X138655446Y-127709500D01*
X138648236Y-127709290D01*
X138586064Y-127705668D01*
X138524720Y-127716485D01*
X138517585Y-127717530D01*
X138455745Y-127724758D01*
X138445200Y-127728596D01*
X138424337Y-127734186D01*
X138413290Y-127736134D01*
X138356105Y-127760800D01*
X138349407Y-127763461D01*
X138290879Y-127784764D01*
X138281505Y-127790929D01*
X138262496Y-127801179D01*
X138252193Y-127805623D01*
X138202240Y-127842812D01*
X138196335Y-127846947D01*
X138144305Y-127881169D01*
X138136605Y-127889330D01*
X138120471Y-127903688D01*
X138111467Y-127910391D01*
X138071432Y-127958102D01*
X138066641Y-127963487D01*
X138023907Y-128008783D01*
X138018300Y-128018495D01*
X138005910Y-128036190D01*
X137998697Y-128044786D01*
X137970748Y-128100436D01*
X137967328Y-128106780D01*
X137936188Y-128160719D01*
X137932969Y-128171469D01*
X137924995Y-128191539D01*
X137919961Y-128201563D01*
X137905598Y-128262158D01*
X137903733Y-128269118D01*
X137885869Y-128328791D01*
X137885217Y-128339989D01*
X137882086Y-128361362D01*
X137879500Y-128372275D01*
X137879500Y-128434554D01*
X137879290Y-128441764D01*
X137875668Y-128503933D01*
X137877616Y-128514975D01*
X137879500Y-128536509D01*
X137879500Y-132725500D01*
X137859815Y-132792539D01*
X137807011Y-132838294D01*
X137755500Y-132849500D01*
X134171229Y-132849500D01*
X134104190Y-132829815D01*
X134058435Y-132777011D01*
X134048491Y-132707853D01*
X134077516Y-132644297D01*
X134083548Y-132637819D01*
X134236609Y-132484758D01*
X134401592Y-132319774D01*
X134462913Y-132286291D01*
X134532603Y-132291274D01*
X134674954Y-132344369D01*
X134674957Y-132344369D01*
X134674958Y-132344370D01*
X134720923Y-132354369D01*
X134954572Y-132405196D01*
X135240000Y-132425610D01*
X135525428Y-132405196D01*
X135805046Y-132344369D01*
X136073161Y-132244367D01*
X136324315Y-132107226D01*
X136553395Y-131935739D01*
X136755739Y-131733395D01*
X136927226Y-131504315D01*
X137064367Y-131253161D01*
X137164369Y-130985046D01*
X137225196Y-130705428D01*
X137245610Y-130420000D01*
X137225196Y-130134572D01*
X137166544Y-129864952D01*
X137164370Y-129854958D01*
X137164369Y-129854954D01*
X137064367Y-129586839D01*
X136993872Y-129457738D01*
X136927227Y-129335686D01*
X136874117Y-129264740D01*
X136755739Y-129106605D01*
X136553395Y-128904261D01*
X136417573Y-128802586D01*
X136324313Y-128732772D01*
X136073163Y-128595634D01*
X136073162Y-128595633D01*
X136073161Y-128595633D01*
X135831857Y-128505631D01*
X135805041Y-128495629D01*
X135525429Y-128434804D01*
X135240000Y-128414389D01*
X134954570Y-128434804D01*
X134674958Y-128495629D01*
X134406836Y-128595634D01*
X134155686Y-128732772D01*
X133926602Y-128904263D01*
X133724263Y-129106602D01*
X133552772Y-129335686D01*
X133415634Y-129586836D01*
X133315629Y-129854958D01*
X133254804Y-130134570D01*
X133234389Y-130420000D01*
X133254804Y-130705429D01*
X133315630Y-130985044D01*
X133368723Y-131127394D01*
X133373707Y-131197086D01*
X133340223Y-131258407D01*
X133225452Y-131373180D01*
X133164129Y-131406666D01*
X133137770Y-131409500D01*
X131458168Y-131409500D01*
X131391129Y-131389815D01*
X131345374Y-131337011D01*
X131335430Y-131267853D01*
X131364455Y-131204297D01*
X131377398Y-131191414D01*
X131380176Y-131189029D01*
X131468895Y-131112866D01*
X131593448Y-130951958D01*
X131683060Y-130769271D01*
X131734063Y-130572285D01*
X131744369Y-130369064D01*
X131742477Y-130356716D01*
X131713556Y-130167928D01*
X131642886Y-129977113D01*
X131535254Y-129804431D01*
X131498334Y-129765592D01*
X131395059Y-129656947D01*
X131228049Y-129540705D01*
X131041058Y-129460460D01*
X130841741Y-129419500D01*
X130689258Y-129419500D01*
X130686147Y-129419816D01*
X130686134Y-129419817D01*
X130537559Y-129434926D01*
X130343412Y-129495841D01*
X130165500Y-129594589D01*
X130011104Y-129727135D01*
X129886551Y-129888042D01*
X129796940Y-130070727D01*
X129745937Y-130267716D01*
X129735630Y-130470937D01*
X129766443Y-130672071D01*
X129837113Y-130862886D01*
X129944745Y-131035568D01*
X129944748Y-131035571D01*
X130084941Y-131183053D01*
X130085907Y-131183725D01*
X130087692Y-131185946D01*
X130093629Y-131192191D01*
X130093110Y-131192684D01*
X130129686Y-131238178D01*
X130137076Y-131307656D01*
X130105729Y-131370099D01*
X130045600Y-131405683D01*
X130015071Y-131409500D01*
X128004500Y-131409500D01*
X127937461Y-131389815D01*
X127891706Y-131337011D01*
X127880500Y-131285500D01*
X127880500Y-128495629D01*
X127880499Y-125693691D01*
X127881809Y-125675732D01*
X127885289Y-125651976D01*
X127884561Y-125643657D01*
X129723448Y-125643657D01*
X129907045Y-125743909D01*
X130175100Y-125843889D01*
X130454642Y-125904699D01*
X130740000Y-125925109D01*
X131025357Y-125904699D01*
X131304899Y-125843889D01*
X131572954Y-125743909D01*
X131738238Y-125653657D01*
X140553448Y-125653657D01*
X140737045Y-125753909D01*
X141005100Y-125853889D01*
X141284642Y-125914699D01*
X141570000Y-125935109D01*
X141855357Y-125914699D01*
X142134899Y-125853889D01*
X142402954Y-125753909D01*
X142586550Y-125653658D01*
X142586550Y-125653657D01*
X151393448Y-125653657D01*
X151577045Y-125753909D01*
X151845100Y-125853889D01*
X152124642Y-125914699D01*
X152410000Y-125935109D01*
X152695357Y-125914699D01*
X152974899Y-125853889D01*
X153242954Y-125753909D01*
X153426550Y-125653658D01*
X153426550Y-125653657D01*
X152410000Y-124637107D01*
X151393448Y-125653657D01*
X142586550Y-125653657D01*
X141570000Y-124637107D01*
X140553448Y-125653657D01*
X131738238Y-125653657D01*
X131756550Y-125643658D01*
X131756550Y-125643657D01*
X130740000Y-124627107D01*
X129723448Y-125643657D01*
X127884561Y-125643657D01*
X127880972Y-125602629D01*
X127880500Y-125591823D01*
X127880500Y-125589901D01*
X127880500Y-125586291D01*
X127876903Y-125555520D01*
X127876536Y-125551929D01*
X127869889Y-125475949D01*
X127865672Y-125456930D01*
X127853188Y-125422631D01*
X127839591Y-125385273D01*
X127838408Y-125381868D01*
X127826235Y-125345132D01*
X127814814Y-125310666D01*
X127814812Y-125310663D01*
X127814415Y-125309464D01*
X127805929Y-125291936D01*
X127805237Y-125290884D01*
X127805237Y-125290883D01*
X127764001Y-125228188D01*
X127762086Y-125225181D01*
X127761654Y-125224481D01*
X127722712Y-125161345D01*
X127722711Y-125161344D01*
X127722048Y-125160269D01*
X127709748Y-125145170D01*
X127654272Y-125092831D01*
X127651685Y-125090318D01*
X126481366Y-123919999D01*
X128734890Y-123919999D01*
X128755300Y-124205357D01*
X128816111Y-124484902D01*
X128916088Y-124752952D01*
X129016341Y-124936550D01*
X129961004Y-123991889D01*
X130240000Y-123991889D01*
X130280507Y-124129844D01*
X130358239Y-124250798D01*
X130466900Y-124344952D01*
X130597685Y-124404680D01*
X130704237Y-124420000D01*
X130775763Y-124420000D01*
X130882315Y-124404680D01*
X131013100Y-124344952D01*
X131121761Y-124250798D01*
X131199493Y-124129844D01*
X131240000Y-123991889D01*
X131240000Y-123920000D01*
X131447106Y-123920000D01*
X132463657Y-124936550D01*
X132463658Y-124936550D01*
X132563909Y-124752954D01*
X132663889Y-124484899D01*
X132724699Y-124205357D01*
X132741466Y-123970937D01*
X134235630Y-123970937D01*
X134266443Y-124172071D01*
X134337113Y-124362886D01*
X134444745Y-124535568D01*
X134444748Y-124535571D01*
X134584941Y-124683053D01*
X134751951Y-124799295D01*
X134938942Y-124879540D01*
X135138259Y-124920500D01*
X135138261Y-124920500D01*
X135287600Y-124920500D01*
X135290742Y-124920500D01*
X135442438Y-124905074D01*
X135636588Y-124844159D01*
X135814502Y-124745409D01*
X135968895Y-124612866D01*
X136093448Y-124451958D01*
X136183060Y-124269271D01*
X136234063Y-124072285D01*
X136241279Y-123930000D01*
X139564890Y-123930000D01*
X139585300Y-124215357D01*
X139646111Y-124494902D01*
X139746088Y-124762952D01*
X139846341Y-124946550D01*
X140791004Y-124001889D01*
X141070000Y-124001889D01*
X141110507Y-124139844D01*
X141188239Y-124260798D01*
X141296900Y-124354952D01*
X141427685Y-124414680D01*
X141534237Y-124430000D01*
X141605763Y-124430000D01*
X141712315Y-124414680D01*
X141843100Y-124354952D01*
X141951761Y-124260798D01*
X142029493Y-124139844D01*
X142070000Y-124001889D01*
X142070000Y-123930000D01*
X142277107Y-123930000D01*
X143293657Y-124946550D01*
X143293658Y-124946550D01*
X143393909Y-124762954D01*
X143493889Y-124494899D01*
X143554699Y-124215357D01*
X143571466Y-123980937D01*
X145065630Y-123980937D01*
X145096443Y-124182071D01*
X145167113Y-124372886D01*
X145274745Y-124545568D01*
X145274748Y-124545571D01*
X145414941Y-124693053D01*
X145581951Y-124809295D01*
X145768942Y-124889540D01*
X145968259Y-124930500D01*
X145968261Y-124930500D01*
X146117600Y-124930500D01*
X146120742Y-124930500D01*
X146272438Y-124915074D01*
X146466588Y-124854159D01*
X146644502Y-124755409D01*
X146798895Y-124622866D01*
X146923448Y-124461958D01*
X147013060Y-124279271D01*
X147064063Y-124082285D01*
X147071786Y-123929999D01*
X150404890Y-123929999D01*
X150425300Y-124215357D01*
X150486111Y-124494902D01*
X150586088Y-124762952D01*
X150686341Y-124946550D01*
X151631004Y-124001889D01*
X151910000Y-124001889D01*
X151950507Y-124139844D01*
X152028239Y-124260798D01*
X152136900Y-124354952D01*
X152267685Y-124414680D01*
X152374237Y-124430000D01*
X152445763Y-124430000D01*
X152552315Y-124414680D01*
X152683100Y-124354952D01*
X152791761Y-124260798D01*
X152869493Y-124139844D01*
X152910000Y-124001889D01*
X152910000Y-123930000D01*
X153117107Y-123930000D01*
X154133657Y-124946550D01*
X154133658Y-124946550D01*
X154233909Y-124762954D01*
X154333889Y-124494899D01*
X154394699Y-124215357D01*
X154411466Y-123980937D01*
X155905630Y-123980937D01*
X155936443Y-124182071D01*
X156007113Y-124372886D01*
X156114745Y-124545568D01*
X156114748Y-124545571D01*
X156254941Y-124693053D01*
X156421951Y-124809295D01*
X156608942Y-124889540D01*
X156808259Y-124930500D01*
X156808261Y-124930500D01*
X156957600Y-124930500D01*
X156960742Y-124930500D01*
X157112438Y-124915074D01*
X157306588Y-124854159D01*
X157484502Y-124755409D01*
X157638895Y-124622866D01*
X157763448Y-124461958D01*
X157853060Y-124279271D01*
X157904063Y-124082285D01*
X157914369Y-123879064D01*
X157910580Y-123854334D01*
X157883556Y-123677928D01*
X157812886Y-123487113D01*
X157705254Y-123314431D01*
X157652297Y-123258721D01*
X157565059Y-123166947D01*
X157398049Y-123050705D01*
X157211058Y-122970460D01*
X157011741Y-122929500D01*
X156859258Y-122929500D01*
X156856147Y-122929816D01*
X156856134Y-122929817D01*
X156707559Y-122944926D01*
X156513412Y-123005841D01*
X156335500Y-123104589D01*
X156181104Y-123237135D01*
X156056551Y-123398042D01*
X155966940Y-123580727D01*
X155941773Y-123677929D01*
X155925998Y-123738859D01*
X155915937Y-123777716D01*
X155905630Y-123980937D01*
X154411466Y-123980937D01*
X154415109Y-123929999D01*
X154394699Y-123644642D01*
X154333889Y-123365100D01*
X154233909Y-123097045D01*
X154133657Y-122913448D01*
X153117107Y-123929999D01*
X153117107Y-123930000D01*
X152910000Y-123930000D01*
X152910000Y-123858111D01*
X152869493Y-123720156D01*
X152791761Y-123599202D01*
X152683100Y-123505048D01*
X152552315Y-123445320D01*
X152445763Y-123430000D01*
X152374237Y-123430000D01*
X152267685Y-123445320D01*
X152136900Y-123505048D01*
X152028239Y-123599202D01*
X151950507Y-123720156D01*
X151910000Y-123858111D01*
X151910000Y-124001889D01*
X151631004Y-124001889D01*
X151702893Y-123930000D01*
X150686341Y-122913448D01*
X150686339Y-122913448D01*
X150586090Y-123097043D01*
X150486111Y-123365097D01*
X150425300Y-123644642D01*
X150404890Y-123929999D01*
X147071786Y-123929999D01*
X147074369Y-123879064D01*
X147070580Y-123854334D01*
X147043556Y-123677928D01*
X146972886Y-123487113D01*
X146865254Y-123314431D01*
X146812297Y-123258721D01*
X146725059Y-123166947D01*
X146558049Y-123050705D01*
X146371058Y-122970460D01*
X146171741Y-122929500D01*
X146019258Y-122929500D01*
X146016147Y-122929816D01*
X146016134Y-122929817D01*
X145867559Y-122944926D01*
X145673412Y-123005841D01*
X145495500Y-123104589D01*
X145341104Y-123237135D01*
X145216551Y-123398042D01*
X145126940Y-123580727D01*
X145101773Y-123677929D01*
X145085998Y-123738859D01*
X145075937Y-123777716D01*
X145065630Y-123980937D01*
X143571466Y-123980937D01*
X143575109Y-123929999D01*
X143554699Y-123644642D01*
X143493889Y-123365100D01*
X143393909Y-123097045D01*
X143293657Y-122913448D01*
X142277107Y-123929999D01*
X142277107Y-123930000D01*
X142070000Y-123930000D01*
X142070000Y-123858111D01*
X142029493Y-123720156D01*
X141951761Y-123599202D01*
X141843100Y-123505048D01*
X141712315Y-123445320D01*
X141605763Y-123430000D01*
X141534237Y-123430000D01*
X141427685Y-123445320D01*
X141296900Y-123505048D01*
X141188239Y-123599202D01*
X141110507Y-123720156D01*
X141070000Y-123858111D01*
X141070000Y-124001889D01*
X140791004Y-124001889D01*
X140862893Y-123930000D01*
X140862893Y-123929999D01*
X139846341Y-122913448D01*
X139846339Y-122913448D01*
X139746090Y-123097043D01*
X139646111Y-123365097D01*
X139585300Y-123644642D01*
X139564890Y-123930000D01*
X136241279Y-123930000D01*
X136244369Y-123869064D01*
X136242112Y-123854334D01*
X136213556Y-123667928D01*
X136142886Y-123477113D01*
X136035254Y-123304431D01*
X135991952Y-123258878D01*
X135895059Y-123156947D01*
X135728049Y-123040705D01*
X135541058Y-122960460D01*
X135341741Y-122919500D01*
X135189258Y-122919500D01*
X135186147Y-122919816D01*
X135186134Y-122919817D01*
X135037559Y-122934926D01*
X134843412Y-122995841D01*
X134665500Y-123094589D01*
X134511104Y-123227135D01*
X134386551Y-123388042D01*
X134296940Y-123570727D01*
X134245937Y-123767716D01*
X134235630Y-123970937D01*
X132741466Y-123970937D01*
X132745109Y-123920000D01*
X132724699Y-123634642D01*
X132663889Y-123355100D01*
X132563909Y-123087045D01*
X132463657Y-122903448D01*
X131447106Y-123920000D01*
X131240000Y-123920000D01*
X131240000Y-123848111D01*
X131199493Y-123710156D01*
X131121761Y-123589202D01*
X131013100Y-123495048D01*
X130882315Y-123435320D01*
X130775763Y-123420000D01*
X130704237Y-123420000D01*
X130597685Y-123435320D01*
X130466900Y-123495048D01*
X130358239Y-123589202D01*
X130280507Y-123710156D01*
X130240000Y-123848111D01*
X130240000Y-123991889D01*
X129961004Y-123991889D01*
X130032893Y-123920000D01*
X130032893Y-123919999D01*
X129016341Y-122903448D01*
X129016339Y-122903448D01*
X128916090Y-123087043D01*
X128816111Y-123355097D01*
X128755300Y-123634642D01*
X128734890Y-123919999D01*
X126481366Y-123919999D01*
X123985684Y-121424317D01*
X120346816Y-117785448D01*
X120313333Y-117724128D01*
X120310500Y-117697779D01*
X120310500Y-116462466D01*
X120330184Y-116395431D01*
X120382988Y-116349676D01*
X120400389Y-116343254D01*
X120433049Y-116333909D01*
X120613407Y-116239698D01*
X120613406Y-116239698D01*
X120613409Y-116239697D01*
X120690251Y-116177039D01*
X120751639Y-116126984D01*
X120816034Y-116099875D01*
X120884863Y-116111884D01*
X120908360Y-116126984D01*
X121046593Y-116239698D01*
X121226951Y-116333909D01*
X121259611Y-116343254D01*
X121318649Y-116380621D01*
X121348113Y-116443974D01*
X121349500Y-116462470D01*
X121349500Y-117016294D01*
X121348191Y-117034264D01*
X121344711Y-117058023D01*
X121349028Y-117107368D01*
X121349500Y-117118175D01*
X121349500Y-117123709D01*
X121349916Y-117127272D01*
X121349917Y-117127282D01*
X121353098Y-117154496D01*
X121353464Y-117158082D01*
X121360109Y-117234041D01*
X121364329Y-117253071D01*
X121364758Y-117254251D01*
X121364759Y-117254255D01*
X121390413Y-117324742D01*
X121391582Y-117328107D01*
X121415580Y-117400524D01*
X121424075Y-117418072D01*
X121465979Y-117481784D01*
X121467889Y-117484782D01*
X121501412Y-117539129D01*
X121507952Y-117549732D01*
X121520253Y-117564830D01*
X121521168Y-117565693D01*
X121521170Y-117565696D01*
X121575709Y-117617151D01*
X121578296Y-117619664D01*
X126044267Y-122085634D01*
X126056048Y-122099266D01*
X126070389Y-122118529D01*
X126070390Y-122118530D01*
X126075693Y-122122980D01*
X126108339Y-122150373D01*
X126116314Y-122157681D01*
X126120223Y-122161590D01*
X126123055Y-122163829D01*
X126123065Y-122163838D01*
X126144542Y-122180819D01*
X126147298Y-122183063D01*
X126204786Y-122231302D01*
X126204788Y-122231303D01*
X126205757Y-122232116D01*
X126222177Y-122242576D01*
X126223321Y-122243109D01*
X126223323Y-122243111D01*
X126291357Y-122274835D01*
X126294456Y-122276335D01*
X126360667Y-122309588D01*
X126362704Y-122310611D01*
X126381084Y-122316998D01*
X126382321Y-122317253D01*
X126382327Y-122317256D01*
X126455862Y-122332439D01*
X126459209Y-122333181D01*
X126532279Y-122350500D01*
X126532281Y-122350500D01*
X126533505Y-122350790D01*
X126552876Y-122352769D01*
X126554140Y-122352732D01*
X126554144Y-122352733D01*
X126629110Y-122350552D01*
X126632716Y-122350500D01*
X129826245Y-122350500D01*
X129893284Y-122370185D01*
X129913926Y-122386819D01*
X130739998Y-123212893D01*
X130739999Y-123212893D01*
X131566074Y-122386819D01*
X131627397Y-122353334D01*
X131653755Y-122350500D01*
X140646245Y-122350500D01*
X140713284Y-122370185D01*
X140733926Y-122386819D01*
X141570000Y-123222893D01*
X142406074Y-122386819D01*
X142467397Y-122353334D01*
X142493755Y-122350500D01*
X142676294Y-122350500D01*
X142694264Y-122351809D01*
X142698320Y-122352402D01*
X142718023Y-122355289D01*
X142767368Y-122350972D01*
X142778176Y-122350500D01*
X142780100Y-122350500D01*
X142783709Y-122350500D01*
X142814550Y-122346894D01*
X142818031Y-122346539D01*
X142892797Y-122339999D01*
X142892797Y-122339998D01*
X142894052Y-122339889D01*
X142913062Y-122335674D01*
X142914250Y-122335241D01*
X142914255Y-122335241D01*
X142984820Y-122309557D01*
X142988095Y-122308419D01*
X143059334Y-122284814D01*
X143059336Y-122284812D01*
X143060536Y-122284415D01*
X143078063Y-122275929D01*
X143079112Y-122275238D01*
X143079117Y-122275237D01*
X143141806Y-122234005D01*
X143144798Y-122232099D01*
X143208656Y-122192712D01*
X143208658Y-122192709D01*
X143209731Y-122192048D01*
X143224817Y-122179760D01*
X143225691Y-122178832D01*
X143225696Y-122178830D01*
X143277217Y-122124218D01*
X143279632Y-122121733D01*
X144038182Y-121363184D01*
X144099503Y-121329701D01*
X144169195Y-121334685D01*
X144225128Y-121376557D01*
X144234693Y-121391440D01*
X144344747Y-121592989D01*
X144372774Y-121644315D01*
X144544261Y-121873395D01*
X144746605Y-122075739D01*
X144901976Y-122192048D01*
X144975686Y-122247227D01*
X145095384Y-122312587D01*
X145226839Y-122384367D01*
X145494954Y-122484369D01*
X145494957Y-122484369D01*
X145494958Y-122484370D01*
X145527597Y-122491470D01*
X145774572Y-122545196D01*
X146060000Y-122565610D01*
X146345428Y-122545196D01*
X146625046Y-122484369D01*
X146893161Y-122384367D01*
X147144315Y-122247226D01*
X147198931Y-122206341D01*
X151393448Y-122206341D01*
X152410000Y-123222893D01*
X152410001Y-123222893D01*
X153426550Y-122206341D01*
X153426550Y-122206340D01*
X153242952Y-122106088D01*
X152974902Y-122006111D01*
X152695357Y-121945300D01*
X152410000Y-121924890D01*
X152124642Y-121945300D01*
X151845097Y-122006111D01*
X151577043Y-122106090D01*
X151393448Y-122206339D01*
X151393448Y-122206341D01*
X147198931Y-122206341D01*
X147373395Y-122075739D01*
X147575739Y-121873395D01*
X147747226Y-121644315D01*
X147884367Y-121393161D01*
X147984369Y-121125046D01*
X148045196Y-120845428D01*
X148065610Y-120560000D01*
X148045196Y-120274572D01*
X147985866Y-120001836D01*
X147984370Y-119994958D01*
X147984369Y-119994954D01*
X147884367Y-119726839D01*
X147747226Y-119475685D01*
X147575739Y-119246605D01*
X147373395Y-119044261D01*
X147254824Y-118955500D01*
X147144313Y-118872772D01*
X146893163Y-118735634D01*
X146893162Y-118735633D01*
X146893161Y-118735633D01*
X146718123Y-118670347D01*
X146625041Y-118635629D01*
X146345429Y-118574804D01*
X146060000Y-118554389D01*
X145774570Y-118574804D01*
X145494958Y-118635629D01*
X145226836Y-118735634D01*
X144975686Y-118872772D01*
X144746602Y-119044263D01*
X144544263Y-119246602D01*
X144372772Y-119475686D01*
X144235633Y-119726839D01*
X144234890Y-119728832D01*
X144233615Y-119730534D01*
X144231383Y-119734623D01*
X144230795Y-119734302D01*
X144193020Y-119784766D01*
X144127556Y-119809184D01*
X144118708Y-119809500D01*
X143843706Y-119809500D01*
X143825736Y-119808191D01*
X143811853Y-119806157D01*
X143801977Y-119804711D01*
X143801976Y-119804711D01*
X143752634Y-119809028D01*
X143741827Y-119809500D01*
X143736291Y-119809500D01*
X143732717Y-119809917D01*
X143732711Y-119809918D01*
X143705487Y-119813099D01*
X143701906Y-119813465D01*
X143625952Y-119820111D01*
X143606923Y-119824329D01*
X143535271Y-119850408D01*
X143531868Y-119851591D01*
X143459479Y-119875579D01*
X143441927Y-119884076D01*
X143378228Y-119925970D01*
X143375190Y-119927905D01*
X143310281Y-119967943D01*
X143295164Y-119980256D01*
X143242848Y-120035708D01*
X143240336Y-120038294D01*
X142764795Y-120513835D01*
X142703472Y-120547320D01*
X142633780Y-120542336D01*
X142577847Y-120500464D01*
X142554544Y-120444931D01*
X142533556Y-120307928D01*
X142462886Y-120117113D01*
X142355254Y-119944431D01*
X142315976Y-119903111D01*
X142215059Y-119796947D01*
X142048049Y-119680705D01*
X141861058Y-119600460D01*
X141661741Y-119559500D01*
X141509258Y-119559500D01*
X141506147Y-119559816D01*
X141506134Y-119559817D01*
X141357559Y-119574926D01*
X141163412Y-119635841D01*
X140985500Y-119734589D01*
X140899802Y-119808159D01*
X140832628Y-119865827D01*
X140831104Y-119867135D01*
X140706551Y-120028042D01*
X140616940Y-120210727D01*
X140584973Y-120334195D01*
X140568938Y-120396127D01*
X140565937Y-120407716D01*
X140555630Y-120610936D01*
X140570305Y-120706722D01*
X140560999Y-120775970D01*
X140515733Y-120829193D01*
X140448878Y-120849495D01*
X140447735Y-120849500D01*
X126982230Y-120849500D01*
X126915191Y-120829815D01*
X126894549Y-120813181D01*
X122886819Y-116805451D01*
X122853334Y-116744128D01*
X122850500Y-116717770D01*
X122850500Y-116597701D01*
X122850500Y-116462466D01*
X122870183Y-116395431D01*
X122922987Y-116349676D01*
X122940389Y-116343254D01*
X122973049Y-116333909D01*
X123153407Y-116239698D01*
X123153406Y-116239698D01*
X123153409Y-116239697D01*
X123230251Y-116177039D01*
X123291639Y-116126984D01*
X123356034Y-116099875D01*
X123424863Y-116111884D01*
X123448360Y-116126984D01*
X123586593Y-116239698D01*
X123766951Y-116333909D01*
X123962582Y-116389886D01*
X124081963Y-116400500D01*
X125198036Y-116400499D01*
X125317418Y-116389886D01*
X125513049Y-116333909D01*
X125693407Y-116239698D01*
X125693406Y-116239698D01*
X125693409Y-116239697D01*
X125770251Y-116177039D01*
X125831639Y-116126984D01*
X125896034Y-116099875D01*
X125964863Y-116111884D01*
X125988360Y-116126984D01*
X126126593Y-116239698D01*
X126306951Y-116333909D01*
X126502582Y-116389886D01*
X126621963Y-116400500D01*
X127738036Y-116400499D01*
X127857418Y-116389886D01*
X128053049Y-116333909D01*
X128233407Y-116239698D01*
X128233406Y-116239698D01*
X128233409Y-116239697D01*
X128310251Y-116177039D01*
X128371639Y-116126984D01*
X128436034Y-116099875D01*
X128504863Y-116111884D01*
X128528360Y-116126984D01*
X128666593Y-116239698D01*
X128846951Y-116333909D01*
X129042582Y-116389886D01*
X129161963Y-116400500D01*
X130278036Y-116400499D01*
X130397418Y-116389886D01*
X130593049Y-116333909D01*
X130773407Y-116239698D01*
X130912037Y-116126660D01*
X130976431Y-116099552D01*
X131045261Y-116111561D01*
X131068757Y-116126661D01*
X131206868Y-116239276D01*
X131387137Y-116333442D01*
X131582670Y-116389390D01*
X131699268Y-116399757D01*
X131704739Y-116400000D01*
X131760000Y-116400000D01*
X131760000Y-114471889D01*
X131800507Y-114609844D01*
X131878239Y-114730798D01*
X131986900Y-114824952D01*
X132117685Y-114884680D01*
X132224237Y-114900000D01*
X132295763Y-114900000D01*
X132402315Y-114884680D01*
X132533100Y-114824952D01*
X132641761Y-114730798D01*
X132719493Y-114609844D01*
X132760000Y-114471889D01*
X132760000Y-116400000D01*
X132815261Y-116400000D01*
X132820731Y-116399757D01*
X132937329Y-116389390D01*
X133132862Y-116333442D01*
X133313135Y-116239274D01*
X133451242Y-116126662D01*
X133515638Y-116099552D01*
X133584467Y-116111561D01*
X133607964Y-116126661D01*
X133746075Y-116239276D01*
X133753861Y-116245624D01*
X133793378Y-116303245D01*
X133799500Y-116341726D01*
X133799500Y-117055721D01*
X133799460Y-117058863D01*
X133797242Y-117146362D01*
X133807648Y-117204420D01*
X133808957Y-117213749D01*
X133814926Y-117272438D01*
X133824033Y-117301467D01*
X133827772Y-117316702D01*
X133833141Y-117346652D01*
X133855020Y-117401425D01*
X133858180Y-117410300D01*
X133872456Y-117455802D01*
X133875841Y-117466588D01*
X133890607Y-117493191D01*
X133897337Y-117507364D01*
X133908622Y-117535617D01*
X133941080Y-117584867D01*
X133945961Y-117592923D01*
X133974590Y-117644501D01*
X133994404Y-117667581D01*
X134003856Y-117680116D01*
X134020599Y-117705521D01*
X134062304Y-117747226D01*
X134068708Y-117754135D01*
X134107134Y-117798895D01*
X134121741Y-117810201D01*
X134135712Y-117822824D01*
X134154942Y-117843054D01*
X134203362Y-117876755D01*
X134210871Y-117882416D01*
X134256593Y-117919698D01*
X134283562Y-117933785D01*
X134296982Y-117941916D01*
X134321949Y-117959294D01*
X134376163Y-117982559D01*
X134384673Y-117986601D01*
X134436951Y-118013909D01*
X134466200Y-118022277D01*
X134480970Y-118027535D01*
X134508942Y-118039540D01*
X134508945Y-118039540D01*
X134508946Y-118039541D01*
X134566726Y-118051414D01*
X134575869Y-118053657D01*
X134632582Y-118069886D01*
X134662920Y-118072196D01*
X134678448Y-118074373D01*
X134708259Y-118080500D01*
X134767244Y-118080500D01*
X134776659Y-118080858D01*
X134780806Y-118081173D01*
X134835476Y-118085337D01*
X134862278Y-118081923D01*
X134865652Y-118081494D01*
X134881317Y-118080500D01*
X136079184Y-118080500D01*
X136146223Y-118100185D01*
X136176129Y-118127185D01*
X136293195Y-118273981D01*
X136293197Y-118273983D01*
X136293198Y-118273984D01*
X136485514Y-118452428D01*
X136485520Y-118452432D01*
X136485521Y-118452433D01*
X136702296Y-118600228D01*
X136938677Y-118714063D01*
X137189385Y-118791396D01*
X137448818Y-118830500D01*
X137711182Y-118830500D01*
X137970615Y-118791396D01*
X138221323Y-118714063D01*
X138457704Y-118600228D01*
X138674479Y-118452433D01*
X138674482Y-118452429D01*
X138674485Y-118452428D01*
X138782565Y-118352144D01*
X138866805Y-118273981D01*
X139030386Y-118068857D01*
X139161568Y-117841643D01*
X139257420Y-117597416D01*
X139315802Y-117341630D01*
X139335408Y-117080000D01*
X139315802Y-116818370D01*
X139257420Y-116562584D01*
X139230527Y-116494063D01*
X139193711Y-116400256D01*
X139161568Y-116318357D01*
X139030386Y-116091143D01*
X138866805Y-115886019D01*
X138831395Y-115853163D01*
X138756486Y-115783657D01*
X140543448Y-115783657D01*
X140727045Y-115883909D01*
X140995100Y-115983889D01*
X141274642Y-116044699D01*
X141560000Y-116065109D01*
X141845357Y-116044699D01*
X142124899Y-115983889D01*
X142392954Y-115883909D01*
X142576550Y-115783658D01*
X142576550Y-115783657D01*
X141560000Y-114767107D01*
X140543448Y-115783657D01*
X138756486Y-115783657D01*
X138674485Y-115707571D01*
X138622699Y-115672264D01*
X138457704Y-115559772D01*
X138221323Y-115445937D01*
X137970615Y-115368604D01*
X137711182Y-115329500D01*
X137448818Y-115329500D01*
X137189385Y-115368604D01*
X136938677Y-115445937D01*
X136702295Y-115559772D01*
X136479641Y-115711575D01*
X136413162Y-115733075D01*
X136345612Y-115715221D01*
X136298438Y-115663681D01*
X136286618Y-115594818D01*
X136289718Y-115579296D01*
X136289884Y-115577423D01*
X136289886Y-115577418D01*
X136300500Y-115458037D01*
X136300499Y-114060000D01*
X139554890Y-114060000D01*
X139575300Y-114345357D01*
X139636111Y-114624902D01*
X139736088Y-114892952D01*
X139836341Y-115076550D01*
X140781004Y-114131889D01*
X141060000Y-114131889D01*
X141100507Y-114269844D01*
X141178239Y-114390798D01*
X141286900Y-114484952D01*
X141417685Y-114544680D01*
X141524237Y-114560000D01*
X141595763Y-114560000D01*
X141702315Y-114544680D01*
X141833100Y-114484952D01*
X141941761Y-114390798D01*
X142019493Y-114269844D01*
X142060000Y-114131889D01*
X142060000Y-114060000D01*
X142267107Y-114060000D01*
X143283657Y-115076550D01*
X143283658Y-115076550D01*
X143383909Y-114892954D01*
X143483889Y-114624899D01*
X143544699Y-114345357D01*
X143561466Y-114110937D01*
X145055630Y-114110937D01*
X145086443Y-114312071D01*
X145157113Y-114502886D01*
X145264745Y-114675568D01*
X145264748Y-114675571D01*
X145404941Y-114823053D01*
X145571951Y-114939295D01*
X145758942Y-115019540D01*
X145958259Y-115060500D01*
X145958261Y-115060500D01*
X146107600Y-115060500D01*
X146110742Y-115060500D01*
X146262438Y-115045074D01*
X146456588Y-114984159D01*
X146634502Y-114885409D01*
X146788895Y-114752866D01*
X146913448Y-114591958D01*
X147003060Y-114409271D01*
X147054063Y-114212285D01*
X147064369Y-114009064D01*
X147062980Y-114000000D01*
X147033556Y-113807928D01*
X146962886Y-113617113D01*
X146855254Y-113444431D01*
X146824015Y-113411568D01*
X146715059Y-113296947D01*
X146548049Y-113180705D01*
X146361058Y-113100460D01*
X146161741Y-113059500D01*
X146009258Y-113059500D01*
X146006147Y-113059816D01*
X146006134Y-113059817D01*
X145857559Y-113074926D01*
X145663412Y-113135841D01*
X145485500Y-113234589D01*
X145412864Y-113296946D01*
X145360426Y-113341963D01*
X145331104Y-113367135D01*
X145206551Y-113528042D01*
X145116940Y-113710727D01*
X145065937Y-113907716D01*
X145055630Y-114110937D01*
X143561466Y-114110937D01*
X143565109Y-114059999D01*
X143544699Y-113774642D01*
X143483889Y-113495100D01*
X143383909Y-113227045D01*
X143283657Y-113043448D01*
X142267107Y-114059999D01*
X142267107Y-114060000D01*
X142060000Y-114060000D01*
X142060000Y-113988111D01*
X142019493Y-113850156D01*
X141941761Y-113729202D01*
X141833100Y-113635048D01*
X141702315Y-113575320D01*
X141595763Y-113560000D01*
X141524237Y-113560000D01*
X141417685Y-113575320D01*
X141286900Y-113635048D01*
X141178239Y-113729202D01*
X141100507Y-113850156D01*
X141060000Y-113988111D01*
X141060000Y-114131889D01*
X140781004Y-114131889D01*
X140852893Y-114060000D01*
X140852893Y-114059999D01*
X139836341Y-113043448D01*
X139836339Y-113043448D01*
X139736090Y-113227043D01*
X139636111Y-113495097D01*
X139575300Y-113774642D01*
X139554890Y-114060000D01*
X136300499Y-114060000D01*
X136300499Y-113341964D01*
X136289886Y-113222582D01*
X136233909Y-113026951D01*
X136226501Y-113012770D01*
X136139698Y-112846593D01*
X136134987Y-112840816D01*
X136011109Y-112688891D01*
X135927358Y-112620601D01*
X135887842Y-112562980D01*
X135885751Y-112493142D01*
X135921749Y-112433260D01*
X135984407Y-112402345D01*
X136005720Y-112400500D01*
X140556245Y-112400500D01*
X140623284Y-112420185D01*
G37*
%TD.AperFunction*%
%TA.AperFunction,Conductor*%
G36*
X132117685Y-113915320D02*
G01*
X131986900Y-113975048D01*
X131878239Y-114069202D01*
X131800507Y-114190156D01*
X131760000Y-114328111D01*
X131760000Y-114024000D01*
X131779685Y-113956961D01*
X131832489Y-113911206D01*
X131884000Y-113900000D01*
X132224237Y-113900000D01*
X132117685Y-113915320D01*
G37*
%TD.AperFunction*%
%TA.AperFunction,Conductor*%
G36*
X132703039Y-113919685D02*
G01*
X132748794Y-113972489D01*
X132760000Y-114024000D01*
X132760000Y-114328111D01*
X132719493Y-114190156D01*
X132641761Y-114069202D01*
X132533100Y-113975048D01*
X132402315Y-113915320D01*
X132295763Y-113900000D01*
X132636000Y-113900000D01*
X132703039Y-113919685D01*
G37*
%TD.AperFunction*%
%TA.AperFunction,Conductor*%
G36*
X97305702Y-127397516D02*
G01*
X97312180Y-127403548D01*
X100993181Y-131084549D01*
X101026666Y-131145872D01*
X101029500Y-131172230D01*
X101029500Y-137737529D01*
X101009815Y-137804568D01*
X100957011Y-137850323D01*
X100939614Y-137856744D01*
X100906952Y-137866090D01*
X100726590Y-137960302D01*
X100588359Y-138073015D01*
X100523963Y-138100124D01*
X100455133Y-138088114D01*
X100431640Y-138073016D01*
X100293407Y-137960302D01*
X100293406Y-137960301D01*
X100113050Y-137866091D01*
X100015233Y-137838102D01*
X99917418Y-137810114D01*
X99887230Y-137807430D01*
X99800764Y-137799742D01*
X99800753Y-137799741D01*
X99798037Y-137799500D01*
X99795293Y-137799500D01*
X98684707Y-137799500D01*
X98684684Y-137799500D01*
X98681964Y-137799501D01*
X98679249Y-137799742D01*
X98679234Y-137799743D01*
X98562582Y-137810114D01*
X98366949Y-137866091D01*
X98186593Y-137960301D01*
X98028891Y-138088891D01*
X97900301Y-138246593D01*
X97806091Y-138426949D01*
X97750114Y-138622582D01*
X97739742Y-138739235D01*
X97739741Y-138739247D01*
X97739500Y-138741963D01*
X97739500Y-138744705D01*
X97739500Y-138744706D01*
X97739500Y-138925500D01*
X97719815Y-138992539D01*
X97667011Y-139038294D01*
X97615500Y-139049500D01*
X96712229Y-139049500D01*
X96645190Y-139029815D01*
X96624548Y-139013181D01*
X93547520Y-135936153D01*
X90450728Y-132839360D01*
X90438946Y-132825727D01*
X90424609Y-132806469D01*
X90386666Y-132774631D01*
X90378691Y-132767323D01*
X90377329Y-132765961D01*
X90374777Y-132763409D01*
X90350444Y-132744169D01*
X90347647Y-132741890D01*
X90289251Y-132692890D01*
X90272821Y-132682422D01*
X90203691Y-132650186D01*
X90200447Y-132648615D01*
X90132306Y-132614394D01*
X90113903Y-132607997D01*
X90039211Y-132592574D01*
X90035692Y-132591794D01*
X89961490Y-132574208D01*
X89942121Y-132572229D01*
X89865869Y-132574448D01*
X89862263Y-132574500D01*
X89013872Y-132574500D01*
X88946833Y-132554815D01*
X88904818Y-132509518D01*
X88900474Y-132501491D01*
X88896305Y-132496135D01*
X88747741Y-132305259D01*
X88743413Y-132301275D01*
X88574617Y-132145887D01*
X88538629Y-132086003D01*
X88540729Y-132016165D01*
X88574619Y-131963430D01*
X88747368Y-131804403D01*
X88900053Y-131608233D01*
X89018368Y-131389606D01*
X89054280Y-131285000D01*
X86675763Y-131285000D01*
X86782315Y-131269680D01*
X86913100Y-131209952D01*
X87021761Y-131115798D01*
X87099493Y-130994844D01*
X87140000Y-130856889D01*
X87140000Y-130713111D01*
X87099493Y-130575156D01*
X87021761Y-130454202D01*
X86913100Y-130360048D01*
X86782315Y-130300320D01*
X86675763Y-130285000D01*
X89054280Y-130285000D01*
X89018368Y-130180393D01*
X88900053Y-129961766D01*
X88747365Y-129765592D01*
X88574620Y-129606568D01*
X88538629Y-129546681D01*
X88540730Y-129476843D01*
X88574618Y-129424112D01*
X88733045Y-129278269D01*
X88795699Y-129247348D01*
X88817027Y-129245500D01*
X90847600Y-129245500D01*
X90850742Y-129245500D01*
X90991994Y-129231136D01*
X91004540Y-129230500D01*
X91741032Y-129230500D01*
X91808071Y-129250185D01*
X91828278Y-129266895D01*
X91829939Y-129268051D01*
X91829941Y-129268053D01*
X91878358Y-129301752D01*
X91885865Y-129307413D01*
X91931593Y-129344698D01*
X91945854Y-129352147D01*
X91958556Y-129358782D01*
X91971980Y-129366915D01*
X91996951Y-129384295D01*
X92051163Y-129407559D01*
X92059663Y-129411595D01*
X92100953Y-129433164D01*
X92111951Y-129438909D01*
X92141196Y-129447277D01*
X92155986Y-129452543D01*
X92160057Y-129454290D01*
X92183942Y-129464540D01*
X92241737Y-129476416D01*
X92250854Y-129478654D01*
X92307582Y-129494887D01*
X92337916Y-129497196D01*
X92353453Y-129499374D01*
X92383259Y-129505500D01*
X92442243Y-129505500D01*
X92451657Y-129505858D01*
X92510477Y-129510337D01*
X92540652Y-129506493D01*
X92556318Y-129505500D01*
X92977649Y-129505500D01*
X93044688Y-129525185D01*
X93090443Y-129577989D01*
X93100939Y-129616247D01*
X93105909Y-129662484D01*
X93131979Y-129732382D01*
X93136963Y-129802073D01*
X93131979Y-129819047D01*
X93106400Y-129887626D01*
X93100354Y-129943867D01*
X93100000Y-129950481D01*
X93100000Y-130545000D01*
X95064237Y-130545000D01*
X94957685Y-130560320D01*
X94826900Y-130620048D01*
X94718239Y-130714202D01*
X94640507Y-130835156D01*
X94600000Y-130973111D01*
X94600000Y-131116889D01*
X94640507Y-131254844D01*
X94718239Y-131375798D01*
X94826900Y-131469952D01*
X94957685Y-131529680D01*
X95064237Y-131545000D01*
X95135763Y-131545000D01*
X95242315Y-131529680D01*
X95373100Y-131469952D01*
X95481761Y-131375798D01*
X95559493Y-131254844D01*
X95600000Y-131116889D01*
X95600000Y-130973111D01*
X95559493Y-130835156D01*
X95481761Y-130714202D01*
X95373100Y-130620048D01*
X95242315Y-130560320D01*
X95135763Y-130545000D01*
X97100000Y-130545000D01*
X97100000Y-129950481D01*
X97099645Y-129943867D01*
X97093599Y-129887628D01*
X97068020Y-129819048D01*
X97063036Y-129749356D01*
X97068020Y-129732382D01*
X97094091Y-129662483D01*
X97100500Y-129602873D01*
X97100499Y-127491228D01*
X97120184Y-127424190D01*
X97172987Y-127378435D01*
X97242146Y-127368491D01*
X97305702Y-127397516D01*
G37*
%TD.AperFunction*%
%TA.AperFunction,Conductor*%
G36*
X202172845Y-106670631D02*
G01*
X202342951Y-106678495D01*
X202539795Y-106688166D01*
X202550787Y-106689201D01*
X202733357Y-106714668D01*
X202917242Y-106741946D01*
X202927422Y-106743894D01*
X203109341Y-106786681D01*
X203287878Y-106831402D01*
X203297095Y-106834097D01*
X203474478Y-106893550D01*
X203476618Y-106894292D01*
X203648220Y-106955692D01*
X203656519Y-106959004D01*
X203827980Y-107034712D01*
X203830909Y-107036051D01*
X203917263Y-107076892D01*
X203995119Y-107113715D01*
X204002411Y-107117465D01*
X204166435Y-107208827D01*
X204169810Y-107210777D01*
X204325371Y-107304017D01*
X204331670Y-107308058D01*
X204486699Y-107414256D01*
X204490459Y-107416935D01*
X204636009Y-107524882D01*
X204641305Y-107529040D01*
X204786009Y-107649200D01*
X204789947Y-107652617D01*
X204924206Y-107774303D01*
X204928590Y-107778478D01*
X205061520Y-107911408D01*
X205065698Y-107915795D01*
X205187375Y-108050045D01*
X205190805Y-108053998D01*
X205310951Y-108198684D01*
X205315124Y-108204000D01*
X205423041Y-108349509D01*
X205425742Y-108353299D01*
X205531940Y-108508328D01*
X205535992Y-108514645D01*
X205547986Y-108534656D01*
X205629200Y-108670153D01*
X205631171Y-108673563D01*
X205722525Y-108837573D01*
X205726291Y-108844896D01*
X205803947Y-109009089D01*
X205805286Y-109012018D01*
X205880994Y-109183479D01*
X205884311Y-109191791D01*
X205945666Y-109363265D01*
X205946487Y-109365634D01*
X206005894Y-109542881D01*
X206008606Y-109552157D01*
X206053317Y-109730653D01*
X206096102Y-109912567D01*
X206098052Y-109922753D01*
X206125337Y-110106689D01*
X206150794Y-110289186D01*
X206151834Y-110300230D01*
X206161512Y-110497238D01*
X206169368Y-110667144D01*
X206169500Y-110672871D01*
X206169500Y-143687127D01*
X206169368Y-143692854D01*
X206161512Y-143862761D01*
X206151834Y-144059767D01*
X206150794Y-144070813D01*
X206125337Y-144253309D01*
X206098052Y-144437242D01*
X206096101Y-144447433D01*
X206053317Y-144629344D01*
X206008605Y-144807845D01*
X206005895Y-144817113D01*
X205946487Y-144994364D01*
X205945666Y-144996733D01*
X205884311Y-145168207D01*
X205880994Y-145176519D01*
X205805286Y-145347980D01*
X205803947Y-145350909D01*
X205726291Y-145515102D01*
X205722525Y-145522425D01*
X205631171Y-145686435D01*
X205629200Y-145689845D01*
X205535999Y-145845342D01*
X205531940Y-145851670D01*
X205425742Y-146006699D01*
X205423041Y-146010489D01*
X205315135Y-146155984D01*
X205310935Y-146161334D01*
X205190851Y-146305947D01*
X205187331Y-146310004D01*
X205065717Y-146444183D01*
X205061520Y-146448590D01*
X204928590Y-146581520D01*
X204924183Y-146585717D01*
X204790004Y-146707331D01*
X204785955Y-146710843D01*
X204744507Y-146745262D01*
X204641334Y-146830935D01*
X204635984Y-146835135D01*
X204490489Y-146943041D01*
X204486699Y-146945742D01*
X204331670Y-147051940D01*
X204325342Y-147055999D01*
X204169845Y-147149200D01*
X204166435Y-147151171D01*
X204002425Y-147242525D01*
X203995102Y-147246291D01*
X203830909Y-147323947D01*
X203827980Y-147325286D01*
X203656519Y-147400994D01*
X203648207Y-147404311D01*
X203476733Y-147465666D01*
X203474364Y-147466487D01*
X203297117Y-147525894D01*
X203287841Y-147528606D01*
X203109346Y-147573317D01*
X202927431Y-147616102D01*
X202917245Y-147618052D01*
X202733310Y-147645337D01*
X202550812Y-147670794D01*
X202539768Y-147671834D01*
X202342761Y-147681512D01*
X202172855Y-147689368D01*
X202167128Y-147689500D01*
X85172872Y-147689500D01*
X85167145Y-147689368D01*
X84997238Y-147681512D01*
X84800231Y-147671834D01*
X84789185Y-147670794D01*
X84606690Y-147645337D01*
X84422756Y-147618052D01*
X84412565Y-147616101D01*
X84230655Y-147573317D01*
X84052153Y-147528605D01*
X84042885Y-147525895D01*
X83865634Y-147466487D01*
X83863265Y-147465666D01*
X83691791Y-147404311D01*
X83683479Y-147400994D01*
X83512018Y-147325286D01*
X83509089Y-147323947D01*
X83344896Y-147246291D01*
X83337573Y-147242525D01*
X83173563Y-147151171D01*
X83170153Y-147149200D01*
X83143776Y-147133390D01*
X83014645Y-147055992D01*
X83008328Y-147051940D01*
X82853299Y-146945742D01*
X82849509Y-146943041D01*
X82829961Y-146928543D01*
X82704000Y-146835124D01*
X82698684Y-146830951D01*
X82553998Y-146710805D01*
X82550045Y-146707375D01*
X82415795Y-146585698D01*
X82411408Y-146581520D01*
X82278478Y-146448590D01*
X82274303Y-146444206D01*
X82152617Y-146309947D01*
X82149200Y-146306009D01*
X82029040Y-146161305D01*
X82024882Y-146156009D01*
X81916935Y-146010459D01*
X81914256Y-146006699D01*
X81808058Y-145851670D01*
X81804017Y-145845371D01*
X81710777Y-145689810D01*
X81708827Y-145686435D01*
X81703877Y-145677548D01*
X81617465Y-145522411D01*
X81613715Y-145515119D01*
X81569734Y-145422128D01*
X81536051Y-145350909D01*
X81534712Y-145347980D01*
X81459004Y-145176519D01*
X81455692Y-145168220D01*
X81394292Y-144996618D01*
X81393550Y-144994478D01*
X81334096Y-144817091D01*
X81331400Y-144807867D01*
X81286675Y-144629315D01*
X81281402Y-144606895D01*
X81243891Y-144447408D01*
X81241948Y-144437256D01*
X81214674Y-144253399D01*
X81189201Y-144070789D01*
X81188166Y-144059799D01*
X81178487Y-143862761D01*
X81170632Y-143692854D01*
X81170500Y-143687128D01*
X81170500Y-142661182D01*
X93649500Y-142661182D01*
X93688604Y-142920615D01*
X93765937Y-143171323D01*
X93879772Y-143407704D01*
X94015766Y-143607170D01*
X94027571Y-143624485D01*
X94201283Y-143811701D01*
X94206019Y-143816805D01*
X94411143Y-143980386D01*
X94638357Y-144111568D01*
X94769531Y-144163050D01*
X94859965Y-144198543D01*
X94882584Y-144207420D01*
X95138370Y-144265802D01*
X95334506Y-144280500D01*
X95336823Y-144280500D01*
X95463177Y-144280500D01*
X95465494Y-144280500D01*
X95661630Y-144265802D01*
X95917416Y-144207420D01*
X96161643Y-144111568D01*
X96388857Y-143980386D01*
X96593981Y-143816805D01*
X96693273Y-143709792D01*
X96772428Y-143624485D01*
X96772429Y-143624482D01*
X96772433Y-143624479D01*
X96920228Y-143407704D01*
X97034063Y-143171323D01*
X97111396Y-142920615D01*
X97150500Y-142661182D01*
X97150500Y-142398818D01*
X97111396Y-142139385D01*
X97034063Y-141888677D01*
X96920228Y-141652296D01*
X96772433Y-141435521D01*
X96772432Y-141435520D01*
X96772428Y-141435514D01*
X96593984Y-141243198D01*
X96593983Y-141243197D01*
X96593981Y-141243195D01*
X96440137Y-141120509D01*
X96388856Y-141079613D01*
X96211848Y-140977418D01*
X96161643Y-140948432D01*
X96161642Y-140948431D01*
X96161641Y-140948431D01*
X95917418Y-140852580D01*
X95661627Y-140794197D01*
X95467808Y-140779673D01*
X95467797Y-140779672D01*
X95465494Y-140779500D01*
X95334506Y-140779500D01*
X95332203Y-140779672D01*
X95332191Y-140779673D01*
X95138372Y-140794197D01*
X94882581Y-140852580D01*
X94638358Y-140948431D01*
X94411143Y-141079613D01*
X94206015Y-141243198D01*
X94027571Y-141435514D01*
X93936290Y-141569399D01*
X93879772Y-141652296D01*
X93765937Y-141888677D01*
X93688604Y-142139385D01*
X93649500Y-142398818D01*
X93649500Y-142661182D01*
X81170500Y-142661182D01*
X81170500Y-138851182D01*
X89489500Y-138851182D01*
X89528604Y-139110615D01*
X89605937Y-139361323D01*
X89719772Y-139597704D01*
X89822968Y-139749064D01*
X89867571Y-139814485D01*
X90046015Y-140006801D01*
X90046019Y-140006805D01*
X90251143Y-140170386D01*
X90478357Y-140301568D01*
X90560088Y-140333645D01*
X90707446Y-140391479D01*
X90722584Y-140397420D01*
X90978370Y-140455802D01*
X91174506Y-140470500D01*
X91176823Y-140470500D01*
X91303177Y-140470500D01*
X91305494Y-140470500D01*
X91501630Y-140455802D01*
X91757416Y-140397420D01*
X92001643Y-140301568D01*
X92228857Y-140170386D01*
X92433981Y-140006805D01*
X92578606Y-139850936D01*
X92612428Y-139814485D01*
X92612429Y-139814482D01*
X92612433Y-139814479D01*
X92760228Y-139597704D01*
X92874063Y-139361323D01*
X92951396Y-139110615D01*
X92990500Y-138851182D01*
X92990500Y-138588818D01*
X92951396Y-138329385D01*
X92874063Y-138078677D01*
X92760228Y-137842296D01*
X92612433Y-137625521D01*
X92612432Y-137625520D01*
X92612428Y-137625514D01*
X92433984Y-137433198D01*
X92433983Y-137433197D01*
X92433981Y-137433195D01*
X92260925Y-137295187D01*
X92228856Y-137269613D01*
X92024097Y-137151396D01*
X92001643Y-137138432D01*
X92001642Y-137138431D01*
X92001641Y-137138431D01*
X91757418Y-137042580D01*
X91501627Y-136984197D01*
X91307808Y-136969673D01*
X91307797Y-136969672D01*
X91305494Y-136969500D01*
X91174506Y-136969500D01*
X91172203Y-136969672D01*
X91172191Y-136969673D01*
X90978372Y-136984197D01*
X90722581Y-137042580D01*
X90478358Y-137138431D01*
X90251143Y-137269613D01*
X90046015Y-137433198D01*
X89867571Y-137625514D01*
X89780543Y-137753162D01*
X89719772Y-137842296D01*
X89605937Y-138078677D01*
X89528604Y-138329385D01*
X89489500Y-138588818D01*
X89489500Y-138851182D01*
X81170500Y-138851182D01*
X81170500Y-111800000D01*
X82170000Y-111800000D01*
X82170000Y-111859472D01*
X82170211Y-111864587D01*
X82185387Y-112047737D01*
X82246413Y-112288721D01*
X82346266Y-112516365D01*
X82482233Y-112724477D01*
X82650596Y-112907368D01*
X82846766Y-113060053D01*
X83065390Y-113178366D01*
X83170000Y-113214278D01*
X83170000Y-111800000D01*
X82170000Y-111800000D01*
X81170500Y-111800000D01*
X81170500Y-111371889D01*
X83170000Y-111371889D01*
X83210507Y-111509844D01*
X83288239Y-111630798D01*
X83396900Y-111724952D01*
X83527685Y-111784680D01*
X83634237Y-111800000D01*
X83705763Y-111800000D01*
X83812315Y-111784680D01*
X83943100Y-111724952D01*
X84051761Y-111630798D01*
X84129493Y-111509844D01*
X84170000Y-111371889D01*
X84170000Y-113214277D01*
X84274609Y-113178366D01*
X84493233Y-113060053D01*
X84689403Y-112907368D01*
X84848430Y-112734619D01*
X84908317Y-112698629D01*
X84978155Y-112700729D01*
X85030887Y-112734617D01*
X85136049Y-112848853D01*
X85190256Y-112907738D01*
X85386487Y-113060472D01*
X85386491Y-113060474D01*
X85394513Y-113064815D01*
X85444105Y-113114031D01*
X85459500Y-113173872D01*
X85459500Y-113200599D01*
X85439815Y-113267638D01*
X85389302Y-113312319D01*
X85332298Y-113339770D01*
X85115514Y-113487571D01*
X84923198Y-113666015D01*
X84759613Y-113871143D01*
X84628431Y-114098358D01*
X84532580Y-114342581D01*
X84474197Y-114598372D01*
X84454591Y-114860000D01*
X84474197Y-115121627D01*
X84532580Y-115377418D01*
X84628431Y-115621641D01*
X84759613Y-115848856D01*
X84789250Y-115886019D01*
X84923195Y-116053981D01*
X84923197Y-116053983D01*
X84923198Y-116053984D01*
X85115514Y-116232428D01*
X85115520Y-116232432D01*
X85115521Y-116232433D01*
X85332296Y-116380228D01*
X85568677Y-116494063D01*
X85819385Y-116571396D01*
X86078818Y-116610500D01*
X86188769Y-116610500D01*
X86255808Y-116630185D01*
X86301563Y-116682989D01*
X86311507Y-116752147D01*
X86282482Y-116815703D01*
X86276463Y-116822167D01*
X86155450Y-116943181D01*
X86144358Y-116954273D01*
X86130727Y-116966053D01*
X86111468Y-116980391D01*
X86079635Y-117018328D01*
X86072338Y-117026292D01*
X86070972Y-117027657D01*
X86070950Y-117027681D01*
X86068409Y-117030223D01*
X86066173Y-117033050D01*
X86066171Y-117033053D01*
X86049176Y-117054546D01*
X86046902Y-117057337D01*
X85997894Y-117115744D01*
X85987418Y-117132187D01*
X85955192Y-117201294D01*
X85953622Y-117204536D01*
X85919393Y-117272692D01*
X85912996Y-117291098D01*
X85897573Y-117365788D01*
X85896793Y-117369305D01*
X85879208Y-117443506D01*
X85877229Y-117462879D01*
X85879448Y-117539129D01*
X85879500Y-117542735D01*
X85879500Y-119565500D01*
X85859815Y-119632539D01*
X85807011Y-119678294D01*
X85755500Y-119689500D01*
X85567933Y-119689500D01*
X85450111Y-119699262D01*
X85382177Y-119704892D01*
X85260086Y-119735810D01*
X85141119Y-119765937D01*
X85118678Y-119775780D01*
X84913395Y-119865825D01*
X84801662Y-119938824D01*
X84705215Y-120001836D01*
X84523500Y-120169117D01*
X84522259Y-120170259D01*
X84369529Y-120366485D01*
X84347217Y-120407715D01*
X84274364Y-120542336D01*
X84251170Y-120585194D01*
X84170429Y-120820384D01*
X84153896Y-120919463D01*
X84129500Y-121065665D01*
X84129500Y-121314335D01*
X84142654Y-121393163D01*
X84170429Y-121559615D01*
X84247914Y-121785320D01*
X84251172Y-121794810D01*
X84369526Y-122013509D01*
X84369529Y-122013514D01*
X84481740Y-122157681D01*
X84522262Y-122209744D01*
X84637890Y-122316187D01*
X84695010Y-122368770D01*
X84731001Y-122428657D01*
X84728900Y-122498496D01*
X84695010Y-122551230D01*
X84653438Y-122589500D01*
X84565032Y-122670884D01*
X84522259Y-122710259D01*
X84369529Y-122906485D01*
X84299738Y-123035447D01*
X84266405Y-123097043D01*
X84251170Y-123125194D01*
X84170429Y-123360384D01*
X84157925Y-123435320D01*
X84129500Y-123605665D01*
X84129500Y-123854335D01*
X84134534Y-123884500D01*
X84170429Y-124099615D01*
X84251170Y-124334805D01*
X84251172Y-124334810D01*
X84361675Y-124539001D01*
X84369529Y-124553514D01*
X84479653Y-124695000D01*
X84522262Y-124749744D01*
X84705215Y-124918164D01*
X84913393Y-125054173D01*
X85141119Y-125154063D01*
X85382179Y-125215108D01*
X85567933Y-125230500D01*
X85765500Y-125230500D01*
X85832539Y-125250185D01*
X85878294Y-125302989D01*
X85889500Y-125354500D01*
X85889500Y-126620500D01*
X85869815Y-126687539D01*
X85817011Y-126733294D01*
X85765500Y-126744500D01*
X85577933Y-126744500D01*
X85460111Y-126754262D01*
X85392177Y-126759892D01*
X85296130Y-126784215D01*
X85151119Y-126820937D01*
X85151116Y-126820938D01*
X85151117Y-126820938D01*
X84923395Y-126920825D01*
X84833452Y-126979588D01*
X84715215Y-127056836D01*
X84549036Y-127209815D01*
X84532259Y-127225259D01*
X84379529Y-127421485D01*
X84261170Y-127640194D01*
X84180429Y-127875384D01*
X84153596Y-128036190D01*
X84139500Y-128120665D01*
X84139500Y-128369335D01*
X84151586Y-128441764D01*
X84180429Y-128614615D01*
X84258743Y-128842734D01*
X84261172Y-128849810D01*
X84360665Y-129033657D01*
X84379529Y-129068514D01*
X84532258Y-129264740D01*
X84532261Y-129264742D01*
X84532262Y-129264744D01*
X84705381Y-129424111D01*
X84741370Y-129483996D01*
X84739270Y-129553834D01*
X84705380Y-129606568D01*
X84532634Y-129765592D01*
X84379946Y-129961766D01*
X84261631Y-130180393D01*
X84225719Y-130285000D01*
X86604237Y-130285000D01*
X86497685Y-130300320D01*
X86366900Y-130360048D01*
X86258239Y-130454202D01*
X86180507Y-130575156D01*
X86140000Y-130713111D01*
X86140000Y-130856889D01*
X86180507Y-130994844D01*
X86258239Y-131115798D01*
X86366900Y-131209952D01*
X86497685Y-131269680D01*
X86604237Y-131285000D01*
X84225720Y-131285000D01*
X84261631Y-131389606D01*
X84379946Y-131608233D01*
X84532634Y-131804407D01*
X84705379Y-131963431D01*
X84741370Y-132023318D01*
X84739269Y-132093156D01*
X84705379Y-132145890D01*
X84616444Y-132227761D01*
X84537065Y-132300835D01*
X84532259Y-132305259D01*
X84379529Y-132501485D01*
X84326692Y-132599120D01*
X84267849Y-132707853D01*
X84261170Y-132720194D01*
X84180429Y-132955384D01*
X84139500Y-133200665D01*
X84139500Y-133449334D01*
X84180429Y-133694615D01*
X84260689Y-133928404D01*
X84261172Y-133929810D01*
X84363704Y-134119272D01*
X84379529Y-134148514D01*
X84498960Y-134301958D01*
X84532262Y-134344744D01*
X84715215Y-134513164D01*
X84923393Y-134649173D01*
X85151119Y-134749063D01*
X85392179Y-134810108D01*
X85577933Y-134825500D01*
X85580503Y-134825500D01*
X87699497Y-134825500D01*
X87702067Y-134825500D01*
X87887821Y-134810108D01*
X88128881Y-134749063D01*
X88356607Y-134649173D01*
X88564785Y-134513164D01*
X88747738Y-134344744D01*
X88900474Y-134148509D01*
X88904818Y-134140481D01*
X88954036Y-134090892D01*
X89013872Y-134075500D01*
X89512770Y-134075500D01*
X89579809Y-134095185D01*
X89600451Y-134111819D01*
X95774269Y-140285637D01*
X95786051Y-140299270D01*
X95800390Y-140318531D01*
X95838338Y-140350373D01*
X95846313Y-140357681D01*
X95850223Y-140361591D01*
X95874556Y-140380830D01*
X95877335Y-140383095D01*
X95935752Y-140432113D01*
X95952179Y-140442578D01*
X96021320Y-140474819D01*
X96024567Y-140476391D01*
X96092699Y-140510609D01*
X96111087Y-140517000D01*
X96112323Y-140517255D01*
X96112327Y-140517257D01*
X96185895Y-140532447D01*
X96189242Y-140533189D01*
X96262279Y-140550500D01*
X96262281Y-140550500D01*
X96263509Y-140550791D01*
X96282878Y-140552770D01*
X96284140Y-140552733D01*
X96284144Y-140552734D01*
X96356533Y-140550627D01*
X96359131Y-140550552D01*
X96362737Y-140550500D01*
X97615501Y-140550500D01*
X97682540Y-140570185D01*
X97728295Y-140622989D01*
X97739501Y-140674499D01*
X97739501Y-140858036D01*
X97739742Y-140860751D01*
X97739743Y-140860765D01*
X97750114Y-140977417D01*
X97806091Y-141173050D01*
X97900301Y-141353406D01*
X97900302Y-141353407D01*
X98028891Y-141511109D01*
X98179522Y-141633932D01*
X98186593Y-141639698D01*
X98210714Y-141652298D01*
X98366951Y-141733909D01*
X98562582Y-141789886D01*
X98681963Y-141800500D01*
X99798036Y-141800499D01*
X99917418Y-141789886D01*
X100113049Y-141733909D01*
X100293407Y-141639698D01*
X100293406Y-141639698D01*
X100293409Y-141639697D01*
X100379622Y-141569399D01*
X100431639Y-141526984D01*
X100496034Y-141499875D01*
X100564863Y-141511884D01*
X100588360Y-141526984D01*
X100726593Y-141639698D01*
X100750714Y-141652298D01*
X100906951Y-141733909D01*
X101102582Y-141789886D01*
X101221963Y-141800500D01*
X102338036Y-141800499D01*
X102457418Y-141789886D01*
X102653049Y-141733909D01*
X102833407Y-141639698D01*
X102991109Y-141511109D01*
X103119698Y-141353407D01*
X103213909Y-141173049D01*
X103269886Y-140977418D01*
X103280500Y-140858037D01*
X103280499Y-140457068D01*
X103300183Y-140390032D01*
X103352987Y-140344277D01*
X103422146Y-140334333D01*
X103485701Y-140363358D01*
X103509730Y-140391479D01*
X103524744Y-140415566D01*
X103524746Y-140415568D01*
X103524748Y-140415571D01*
X103664941Y-140563053D01*
X103831951Y-140679295D01*
X104018942Y-140759540D01*
X104218259Y-140800500D01*
X104218261Y-140800500D01*
X104367600Y-140800500D01*
X104370742Y-140800500D01*
X104522438Y-140785074D01*
X104716588Y-140724159D01*
X104894502Y-140625409D01*
X105048895Y-140492866D01*
X105173448Y-140331958D01*
X105263060Y-140149271D01*
X105314063Y-139952285D01*
X105324369Y-139749064D01*
X105322680Y-139738042D01*
X105293556Y-139547928D01*
X105222886Y-139357113D01*
X105115254Y-139184431D01*
X105082507Y-139149982D01*
X104975059Y-139036947D01*
X104808049Y-138920705D01*
X104621058Y-138840460D01*
X104421741Y-138799500D01*
X104269258Y-138799500D01*
X104266147Y-138799816D01*
X104266134Y-138799817D01*
X104117559Y-138814926D01*
X103923412Y-138875841D01*
X103745500Y-138974589D01*
X103591104Y-139107135D01*
X103502555Y-139221530D01*
X103445953Y-139262494D01*
X103376190Y-139266353D01*
X103315415Y-139231884D01*
X103282923Y-139170028D01*
X103280499Y-139145628D01*
X103280499Y-138744707D01*
X103280499Y-138744706D01*
X103280499Y-138741964D01*
X103269886Y-138622582D01*
X103213909Y-138426951D01*
X103193697Y-138388258D01*
X103119698Y-138246593D01*
X103119698Y-138246592D01*
X102991109Y-138088891D01*
X102833407Y-137960302D01*
X102833406Y-137960301D01*
X102653047Y-137866090D01*
X102620386Y-137856744D01*
X102561349Y-137819376D01*
X102531887Y-137756022D01*
X102530500Y-137737529D01*
X102530500Y-130873705D01*
X102531809Y-130855737D01*
X102534680Y-130836133D01*
X102563871Y-130772653D01*
X102622748Y-130735033D01*
X102692617Y-130735216D01*
X102745052Y-130766420D01*
X102954269Y-130975637D01*
X102966051Y-130989270D01*
X102980390Y-131008531D01*
X103018338Y-131040373D01*
X103026313Y-131047681D01*
X103030223Y-131051591D01*
X103054556Y-131070830D01*
X103057335Y-131073095D01*
X103115752Y-131122113D01*
X103132179Y-131132578D01*
X103201320Y-131164819D01*
X103204560Y-131166388D01*
X103216193Y-131172230D01*
X103272699Y-131200609D01*
X103291087Y-131207000D01*
X103292323Y-131207255D01*
X103292327Y-131207257D01*
X103365895Y-131222447D01*
X103369242Y-131223189D01*
X103442279Y-131240500D01*
X103442281Y-131240500D01*
X103443509Y-131240791D01*
X103462878Y-131242770D01*
X103464140Y-131242733D01*
X103464144Y-131242734D01*
X103536533Y-131240627D01*
X103539131Y-131240552D01*
X103542737Y-131240500D01*
X108535500Y-131240500D01*
X108602539Y-131260185D01*
X108648294Y-131312989D01*
X108659500Y-131364500D01*
X108659500Y-137734668D01*
X108639815Y-137801707D01*
X108587011Y-137847462D01*
X108569613Y-137853883D01*
X108526952Y-137866089D01*
X108346593Y-137960301D01*
X108188891Y-138088891D01*
X108060301Y-138246593D01*
X107966091Y-138426949D01*
X107910114Y-138622582D01*
X107899742Y-138739235D01*
X107899741Y-138739247D01*
X107899500Y-138741963D01*
X107899500Y-138744705D01*
X107899500Y-138744706D01*
X107899500Y-139142928D01*
X107879815Y-139209967D01*
X107827011Y-139255722D01*
X107757853Y-139265666D01*
X107694297Y-139236641D01*
X107670268Y-139208519D01*
X107655254Y-139184431D01*
X107622507Y-139149982D01*
X107515059Y-139036947D01*
X107348049Y-138920705D01*
X107161058Y-138840460D01*
X106961741Y-138799500D01*
X106809258Y-138799500D01*
X106806147Y-138799816D01*
X106806134Y-138799817D01*
X106657559Y-138814926D01*
X106463412Y-138875841D01*
X106285500Y-138974589D01*
X106131104Y-139107135D01*
X106006551Y-139268042D01*
X105916940Y-139450727D01*
X105891773Y-139547929D01*
X105878887Y-139597701D01*
X105865937Y-139647716D01*
X105855630Y-139850937D01*
X105886443Y-140052071D01*
X105957113Y-140242886D01*
X106064745Y-140415568D01*
X106064748Y-140415571D01*
X106204941Y-140563053D01*
X106371951Y-140679295D01*
X106558942Y-140759540D01*
X106758259Y-140800500D01*
X106758261Y-140800500D01*
X106907600Y-140800500D01*
X106910742Y-140800500D01*
X107062438Y-140785074D01*
X107256588Y-140724159D01*
X107434502Y-140625409D01*
X107588895Y-140492866D01*
X107677445Y-140378468D01*
X107734045Y-140337506D01*
X107803808Y-140333645D01*
X107864583Y-140368115D01*
X107897075Y-140429970D01*
X107899500Y-140454371D01*
X107899500Y-140855292D01*
X107899500Y-140855314D01*
X107899501Y-140858036D01*
X107899742Y-140860751D01*
X107899743Y-140860765D01*
X107910114Y-140977417D01*
X107966091Y-141173050D01*
X108060301Y-141353406D01*
X108060302Y-141353407D01*
X108188891Y-141511109D01*
X108208360Y-141526984D01*
X108260377Y-141569399D01*
X108299894Y-141627020D01*
X108301985Y-141696858D01*
X108265987Y-141756740D01*
X108203329Y-141787655D01*
X108182016Y-141789500D01*
X106084707Y-141789500D01*
X106084684Y-141789500D01*
X106081964Y-141789501D01*
X106079249Y-141789742D01*
X106079234Y-141789743D01*
X105962582Y-141800114D01*
X105766949Y-141856091D01*
X105586593Y-141950301D01*
X105428891Y-142078891D01*
X105300301Y-142236593D01*
X105206091Y-142416949D01*
X105150114Y-142612582D01*
X105139742Y-142729235D01*
X105139741Y-142729247D01*
X105139500Y-142731963D01*
X105139500Y-142734705D01*
X105139500Y-142734706D01*
X105139500Y-143845292D01*
X105139500Y-143845314D01*
X105139501Y-143848036D01*
X105139742Y-143850751D01*
X105139743Y-143850765D01*
X105147435Y-143937282D01*
X105150114Y-143967418D01*
X105177484Y-144063071D01*
X105206091Y-144163050D01*
X105300301Y-144343406D01*
X105319107Y-144366469D01*
X105428891Y-144501109D01*
X105586593Y-144629698D01*
X105766951Y-144723909D01*
X105962582Y-144779886D01*
X106081963Y-144790500D01*
X108198036Y-144790499D01*
X108317418Y-144779886D01*
X108513049Y-144723909D01*
X108693407Y-144629698D01*
X108851109Y-144501109D01*
X108979698Y-144343407D01*
X109073909Y-144163049D01*
X109083254Y-144130388D01*
X109120621Y-144071351D01*
X109183974Y-144041887D01*
X109202470Y-144040500D01*
X110136294Y-144040500D01*
X110154264Y-144041809D01*
X110158320Y-144042402D01*
X110178023Y-144045289D01*
X110227368Y-144040972D01*
X110238176Y-144040500D01*
X110240100Y-144040500D01*
X110243709Y-144040500D01*
X110274550Y-144036894D01*
X110278031Y-144036539D01*
X110352797Y-144029999D01*
X110352797Y-144029998D01*
X110354052Y-144029889D01*
X110373062Y-144025674D01*
X110374250Y-144025241D01*
X110374255Y-144025241D01*
X110444820Y-143999557D01*
X110448095Y-143998419D01*
X110519334Y-143974814D01*
X110519336Y-143974812D01*
X110520536Y-143974415D01*
X110538063Y-143965929D01*
X110539112Y-143965238D01*
X110539117Y-143965237D01*
X110601806Y-143924005D01*
X110604798Y-143922099D01*
X110668656Y-143882712D01*
X110668656Y-143882711D01*
X110669729Y-143882050D01*
X110684824Y-143869753D01*
X110685692Y-143868832D01*
X110685696Y-143868830D01*
X110737185Y-143814253D01*
X110739631Y-143811735D01*
X112423954Y-142127411D01*
X112485275Y-142093928D01*
X112554967Y-142098912D01*
X112610900Y-142140784D01*
X112635317Y-142206248D01*
X112621542Y-142272505D01*
X112546091Y-142416949D01*
X112490114Y-142612582D01*
X112479742Y-142729235D01*
X112479741Y-142729247D01*
X112479500Y-142731963D01*
X112479500Y-142734705D01*
X112479500Y-142734706D01*
X112479500Y-143845292D01*
X112479500Y-143845314D01*
X112479501Y-143848036D01*
X112479742Y-143850751D01*
X112479743Y-143850765D01*
X112487435Y-143937282D01*
X112490114Y-143967418D01*
X112517484Y-144063071D01*
X112546091Y-144163050D01*
X112640301Y-144343406D01*
X112659107Y-144366469D01*
X112768891Y-144501109D01*
X112926593Y-144629698D01*
X113106951Y-144723909D01*
X113302582Y-144779886D01*
X113421963Y-144790500D01*
X115538036Y-144790499D01*
X115657418Y-144779886D01*
X115853049Y-144723909D01*
X116033407Y-144629698D01*
X116191109Y-144501109D01*
X116319698Y-144343407D01*
X116413909Y-144163049D01*
X116469886Y-143967418D01*
X116480500Y-143848037D01*
X116480499Y-142731964D01*
X116469886Y-142612582D01*
X116413909Y-142416951D01*
X116410158Y-142409771D01*
X116319698Y-142236593D01*
X116294955Y-142206248D01*
X116191109Y-142078891D01*
X116033407Y-141950302D01*
X116033406Y-141950301D01*
X115853050Y-141856091D01*
X115721608Y-141818481D01*
X115657418Y-141800114D01*
X115657416Y-141800113D01*
X115648215Y-141797481D01*
X115589177Y-141760113D01*
X115559714Y-141696760D01*
X115569179Y-141627534D01*
X115603965Y-141582165D01*
X115691109Y-141511109D01*
X115819698Y-141353407D01*
X115913909Y-141173049D01*
X115969886Y-140977418D01*
X115980500Y-140858037D01*
X115980499Y-140457068D01*
X116000183Y-140390032D01*
X116052987Y-140344277D01*
X116122146Y-140334333D01*
X116185701Y-140363358D01*
X116209730Y-140391479D01*
X116224744Y-140415566D01*
X116224746Y-140415568D01*
X116224748Y-140415571D01*
X116364941Y-140563053D01*
X116531951Y-140679295D01*
X116718942Y-140759540D01*
X116918259Y-140800500D01*
X116918261Y-140800500D01*
X117067600Y-140800500D01*
X117070742Y-140800500D01*
X117222438Y-140785074D01*
X117416588Y-140724159D01*
X117594502Y-140625409D01*
X117748895Y-140492866D01*
X117873448Y-140331958D01*
X117963060Y-140149271D01*
X118014063Y-139952285D01*
X118019203Y-139850937D01*
X118555630Y-139850937D01*
X118586443Y-140052071D01*
X118657113Y-140242886D01*
X118764745Y-140415568D01*
X118764748Y-140415571D01*
X118904941Y-140563053D01*
X119071951Y-140679295D01*
X119258942Y-140759540D01*
X119458259Y-140800500D01*
X119458261Y-140800500D01*
X119607600Y-140800500D01*
X119610742Y-140800500D01*
X119762438Y-140785074D01*
X119956588Y-140724159D01*
X120134502Y-140625409D01*
X120288895Y-140492866D01*
X120413448Y-140331958D01*
X120503060Y-140149271D01*
X120554063Y-139952285D01*
X120564369Y-139749064D01*
X120562680Y-139738042D01*
X120533556Y-139547928D01*
X120462886Y-139357113D01*
X120355254Y-139184431D01*
X120322507Y-139149982D01*
X120215059Y-139036947D01*
X120048049Y-138920705D01*
X119861058Y-138840460D01*
X119661741Y-138799500D01*
X119509258Y-138799500D01*
X119506147Y-138799816D01*
X119506134Y-138799817D01*
X119357559Y-138814926D01*
X119163412Y-138875841D01*
X118985500Y-138974589D01*
X118831104Y-139107135D01*
X118706551Y-139268042D01*
X118616940Y-139450727D01*
X118591773Y-139547929D01*
X118578887Y-139597701D01*
X118565937Y-139647716D01*
X118555630Y-139850937D01*
X118019203Y-139850937D01*
X118024369Y-139749064D01*
X118022680Y-139738042D01*
X117993556Y-139547928D01*
X117922886Y-139357113D01*
X117815254Y-139184431D01*
X117782507Y-139149982D01*
X117675059Y-139036947D01*
X117508049Y-138920705D01*
X117321058Y-138840460D01*
X117121741Y-138799500D01*
X116969258Y-138799500D01*
X116966147Y-138799816D01*
X116966134Y-138799817D01*
X116817559Y-138814926D01*
X116623412Y-138875841D01*
X116445500Y-138974589D01*
X116291104Y-139107135D01*
X116202555Y-139221530D01*
X116145953Y-139262494D01*
X116076190Y-139266353D01*
X116015415Y-139231884D01*
X115982923Y-139170028D01*
X115980499Y-139145628D01*
X115980499Y-138744707D01*
X115980499Y-138744706D01*
X115980499Y-138741964D01*
X115969886Y-138622582D01*
X115913909Y-138426951D01*
X115893697Y-138388258D01*
X115819698Y-138246593D01*
X115819697Y-138246593D01*
X115691109Y-138088891D01*
X115533407Y-137960302D01*
X115533406Y-137960301D01*
X115353050Y-137866091D01*
X115255233Y-137838102D01*
X115157418Y-137810114D01*
X115127230Y-137807430D01*
X115040764Y-137799742D01*
X115040753Y-137799741D01*
X115038037Y-137799500D01*
X115035293Y-137799500D01*
X113924707Y-137799500D01*
X113924684Y-137799500D01*
X113921964Y-137799501D01*
X113919249Y-137799742D01*
X113919234Y-137799743D01*
X113802582Y-137810114D01*
X113606949Y-137866091D01*
X113426593Y-137960301D01*
X113344726Y-138027054D01*
X113288359Y-138073016D01*
X113223965Y-138100125D01*
X113155135Y-138088116D01*
X113131642Y-138073018D01*
X112993407Y-137960302D01*
X112993406Y-137960301D01*
X112813050Y-137866091D01*
X112715233Y-137838102D01*
X112617418Y-137810114D01*
X112587230Y-137807430D01*
X112500764Y-137799742D01*
X112500753Y-137799741D01*
X112498037Y-137799500D01*
X112495293Y-137799500D01*
X111384707Y-137799500D01*
X111384684Y-137799500D01*
X111381964Y-137799501D01*
X111379249Y-137799742D01*
X111379234Y-137799743D01*
X111262582Y-137810114D01*
X111066949Y-137866091D01*
X110886593Y-137960301D01*
X110804726Y-138027054D01*
X110748359Y-138073016D01*
X110683965Y-138100125D01*
X110615135Y-138088116D01*
X110591642Y-138073018D01*
X110453407Y-137960302D01*
X110453406Y-137960301D01*
X110273050Y-137866091D01*
X110261277Y-137862722D01*
X110250387Y-137859606D01*
X110191350Y-137822239D01*
X110161887Y-137758886D01*
X110160500Y-137740391D01*
X110160500Y-130583705D01*
X110161809Y-130565735D01*
X110162602Y-130560320D01*
X110165289Y-130541977D01*
X110160971Y-130492633D01*
X110160500Y-130481827D01*
X110160500Y-130479901D01*
X110160500Y-130476291D01*
X110156898Y-130445478D01*
X110156534Y-130441915D01*
X110149888Y-130365942D01*
X110145674Y-130346935D01*
X110145241Y-130345745D01*
X110119571Y-130275217D01*
X110118424Y-130271917D01*
X110094814Y-130200665D01*
X110094812Y-130200662D01*
X110094415Y-130199463D01*
X110085929Y-130181936D01*
X110085237Y-130180884D01*
X110085237Y-130180883D01*
X110043994Y-130118176D01*
X110042099Y-130115201D01*
X110014667Y-130070727D01*
X110002048Y-130050268D01*
X109989751Y-130035173D01*
X109954918Y-130002310D01*
X109940551Y-129986166D01*
X109929610Y-129971470D01*
X109918045Y-129961766D01*
X109891666Y-129939631D01*
X109883690Y-129932322D01*
X109882329Y-129930961D01*
X109879777Y-129928409D01*
X109855444Y-129909169D01*
X109852647Y-129906890D01*
X109794251Y-129857890D01*
X109777821Y-129847422D01*
X109708691Y-129815186D01*
X109705447Y-129813615D01*
X109637306Y-129779394D01*
X109618903Y-129772997D01*
X109617673Y-129772743D01*
X109544206Y-129757572D01*
X109540692Y-129756794D01*
X109466490Y-129739208D01*
X109447121Y-129737229D01*
X109370869Y-129739448D01*
X109367263Y-129739500D01*
X103892229Y-129739500D01*
X103825190Y-129719815D01*
X103804548Y-129703181D01*
X97136818Y-123035450D01*
X97103333Y-122974127D01*
X97100499Y-122947769D01*
X97100499Y-122770000D01*
X100300000Y-122770000D01*
X100300000Y-122829472D01*
X100300211Y-122834587D01*
X100315387Y-123017737D01*
X100376413Y-123258721D01*
X100476266Y-123486365D01*
X100612233Y-123694477D01*
X100780596Y-123877368D01*
X100976766Y-124030053D01*
X101195390Y-124148366D01*
X101300000Y-124184278D01*
X101300000Y-122770000D01*
X100300000Y-122770000D01*
X97100499Y-122770000D01*
X97100499Y-122341889D01*
X101300000Y-122341889D01*
X101340507Y-122479844D01*
X101418239Y-122600798D01*
X101526900Y-122694952D01*
X101657685Y-122754680D01*
X101764237Y-122770000D01*
X101835763Y-122770000D01*
X102300000Y-122770000D01*
X102300000Y-124184277D01*
X102404609Y-124148366D01*
X102623233Y-124030053D01*
X102819403Y-123877368D01*
X102987766Y-123694477D01*
X103123733Y-123486365D01*
X103223586Y-123258721D01*
X103284612Y-123017737D01*
X103299788Y-122834587D01*
X103300000Y-122829472D01*
X103300000Y-122770000D01*
X102300000Y-122770000D01*
X101835763Y-122770000D01*
X101942315Y-122754680D01*
X102073100Y-122694952D01*
X102181761Y-122600798D01*
X102259493Y-122479844D01*
X102300000Y-122341889D01*
X102300000Y-122198111D01*
X102259493Y-122060156D01*
X102181761Y-121939202D01*
X102073100Y-121845048D01*
X101942315Y-121785320D01*
X101835763Y-121770000D01*
X101764237Y-121770000D01*
X101657685Y-121785320D01*
X101526900Y-121845048D01*
X101418239Y-121939202D01*
X101340507Y-122060156D01*
X101300000Y-122198111D01*
X101300000Y-122341889D01*
X97100499Y-122341889D01*
X97100499Y-122330439D01*
X97100498Y-122330438D01*
X97100499Y-122327128D01*
X97094091Y-122267517D01*
X97043796Y-122132669D01*
X96957546Y-122017454D01*
X96842331Y-121931204D01*
X96707483Y-121880909D01*
X96647873Y-121874500D01*
X96644550Y-121874500D01*
X93555439Y-121874500D01*
X93555420Y-121874500D01*
X93552128Y-121874501D01*
X93548848Y-121874853D01*
X93548840Y-121874854D01*
X93492515Y-121880909D01*
X93357669Y-121931204D01*
X93242454Y-122017454D01*
X93156204Y-122132668D01*
X93105909Y-122267516D01*
X93103682Y-122288234D01*
X93099500Y-122327127D01*
X93099500Y-122330448D01*
X93099500Y-122330449D01*
X93099500Y-124519560D01*
X93099500Y-124519578D01*
X93099501Y-124522872D01*
X93099853Y-124526152D01*
X93099854Y-124526159D01*
X93105909Y-124582484D01*
X93131712Y-124651666D01*
X93136696Y-124721358D01*
X93131712Y-124738331D01*
X93105909Y-124807512D01*
X93101969Y-124844159D01*
X93099500Y-124867127D01*
X93099500Y-124870448D01*
X93099500Y-124870449D01*
X93099500Y-127059560D01*
X93099500Y-127059578D01*
X93099501Y-127062872D01*
X93099853Y-127066152D01*
X93099854Y-127066159D01*
X93105909Y-127122484D01*
X93131712Y-127191666D01*
X93136696Y-127261358D01*
X93131712Y-127278331D01*
X93105909Y-127347512D01*
X93100938Y-127393755D01*
X93074200Y-127458306D01*
X93016807Y-127498154D01*
X92977648Y-127504500D01*
X92953968Y-127504500D01*
X92886929Y-127484815D01*
X92866718Y-127468101D01*
X92816642Y-127433247D01*
X92809119Y-127427575D01*
X92763405Y-127390300D01*
X92736440Y-127376215D01*
X92723019Y-127368084D01*
X92698049Y-127350705D01*
X92698048Y-127350704D01*
X92698046Y-127350703D01*
X92643845Y-127327443D01*
X92635336Y-127323402D01*
X92583053Y-127296092D01*
X92577126Y-127294396D01*
X92553798Y-127287721D01*
X92539020Y-127282459D01*
X92511058Y-127270460D01*
X92453272Y-127258583D01*
X92444128Y-127256338D01*
X92387421Y-127240113D01*
X92357075Y-127237802D01*
X92341534Y-127235622D01*
X92311742Y-127229500D01*
X92311741Y-127229500D01*
X92252758Y-127229500D01*
X92243344Y-127229142D01*
X92234198Y-127228445D01*
X92184524Y-127224663D01*
X92184523Y-127224663D01*
X92184522Y-127224663D01*
X92154349Y-127228506D01*
X92138683Y-127229500D01*
X91934500Y-127229500D01*
X91867461Y-127209815D01*
X91821706Y-127157011D01*
X91810500Y-127105500D01*
X91810500Y-127082042D01*
X91830185Y-127015003D01*
X91864649Y-126979588D01*
X91904479Y-126952433D01*
X92096805Y-126773981D01*
X92260386Y-126568857D01*
X92391568Y-126341643D01*
X92487420Y-126097416D01*
X92545802Y-125841630D01*
X92565408Y-125580000D01*
X92545802Y-125318370D01*
X92487420Y-125062584D01*
X92484007Y-125053889D01*
X92430739Y-124918164D01*
X92391568Y-124818357D01*
X92260386Y-124591143D01*
X92096805Y-124386019D01*
X92094765Y-124384126D01*
X91904485Y-124207571D01*
X91818326Y-124148829D01*
X91687704Y-124059772D01*
X91451323Y-123945937D01*
X91200615Y-123868604D01*
X90941182Y-123829500D01*
X90678818Y-123829500D01*
X90419385Y-123868604D01*
X90168677Y-123945937D01*
X89932296Y-124059772D01*
X89899276Y-124082285D01*
X89715514Y-124207571D01*
X89523198Y-124386015D01*
X89359613Y-124591143D01*
X89228431Y-124818358D01*
X89132580Y-125062581D01*
X89074197Y-125318372D01*
X89054591Y-125580000D01*
X89074197Y-125841627D01*
X89132580Y-126097418D01*
X89228431Y-126341641D01*
X89357647Y-126565451D01*
X89359614Y-126568857D01*
X89523195Y-126773981D01*
X89715521Y-126952433D01*
X89755351Y-126979588D01*
X89799653Y-127033617D01*
X89809500Y-127082042D01*
X89809500Y-127120500D01*
X89789815Y-127187539D01*
X89737011Y-127233294D01*
X89685500Y-127244500D01*
X88817027Y-127244500D01*
X88749988Y-127224815D01*
X88733049Y-127211734D01*
X88564785Y-127056836D01*
X88356607Y-126920827D01*
X88356604Y-126920825D01*
X88231523Y-126865960D01*
X88128881Y-126820937D01*
X87943453Y-126773980D01*
X87887822Y-126759892D01*
X87853854Y-126757077D01*
X87702067Y-126744500D01*
X87699497Y-126744500D01*
X87514500Y-126744500D01*
X87447461Y-126724815D01*
X87401706Y-126672011D01*
X87390500Y-126620500D01*
X87390500Y-125354500D01*
X87410185Y-125287461D01*
X87462989Y-125241706D01*
X87514500Y-125230500D01*
X87689497Y-125230500D01*
X87692067Y-125230500D01*
X87877821Y-125215108D01*
X88118881Y-125154063D01*
X88346607Y-125054173D01*
X88554785Y-124918164D01*
X88737738Y-124749744D01*
X88890474Y-124553509D01*
X89008828Y-124334810D01*
X89089571Y-124099614D01*
X89130500Y-123854335D01*
X89130500Y-123605665D01*
X89089571Y-123360386D01*
X89008828Y-123125190D01*
X88890474Y-122906491D01*
X88890471Y-122906487D01*
X88890470Y-122906485D01*
X88757857Y-122736105D01*
X88737738Y-122710256D01*
X88564988Y-122551228D01*
X88528999Y-122491343D01*
X88531099Y-122421505D01*
X88564988Y-122368771D01*
X88737738Y-122209744D01*
X88890474Y-122013509D01*
X89008828Y-121794810D01*
X89017346Y-121769999D01*
X100299999Y-121769999D01*
X100300000Y-121770000D01*
X101300000Y-121770000D01*
X101300000Y-120355719D01*
X102300000Y-120355719D01*
X102300000Y-121770000D01*
X103300000Y-121770000D01*
X103300000Y-121710527D01*
X103299788Y-121705412D01*
X103284612Y-121522262D01*
X103223586Y-121281278D01*
X103123733Y-121053634D01*
X102987766Y-120845522D01*
X102819403Y-120662631D01*
X102623233Y-120509946D01*
X102404606Y-120391631D01*
X102300000Y-120355719D01*
X101300000Y-120355719D01*
X101195393Y-120391631D01*
X100976766Y-120509946D01*
X100780596Y-120662631D01*
X100612233Y-120845522D01*
X100476266Y-121053634D01*
X100376413Y-121281278D01*
X100315387Y-121522262D01*
X100300211Y-121705412D01*
X100300000Y-121710527D01*
X100299999Y-121769999D01*
X89017346Y-121769999D01*
X89089571Y-121559614D01*
X89130500Y-121314335D01*
X89130500Y-121065665D01*
X89089571Y-120820386D01*
X89008828Y-120585190D01*
X88890474Y-120366491D01*
X88890471Y-120366487D01*
X88890470Y-120366485D01*
X88737740Y-120170259D01*
X88737738Y-120170256D01*
X88554785Y-120001836D01*
X88346607Y-119865827D01*
X88346604Y-119865825D01*
X88219147Y-119809918D01*
X88118881Y-119765937D01*
X87938867Y-119720351D01*
X87877822Y-119704892D01*
X87843854Y-119702077D01*
X87692067Y-119689500D01*
X87689497Y-119689500D01*
X87504500Y-119689500D01*
X87437461Y-119669815D01*
X87391706Y-119617011D01*
X87380500Y-119565500D01*
X87380500Y-117892229D01*
X87400185Y-117825190D01*
X87416814Y-117804553D01*
X89235642Y-115985724D01*
X89249271Y-115973947D01*
X89271101Y-115957696D01*
X89336630Y-115933454D01*
X89404863Y-115948488D01*
X89454136Y-115998025D01*
X89467761Y-116038679D01*
X89470068Y-116053981D01*
X89478604Y-116110615D01*
X89555937Y-116361323D01*
X89669772Y-116597704D01*
X89775070Y-116752147D01*
X89817571Y-116814485D01*
X89994127Y-117004766D01*
X89996019Y-117006805D01*
X90201143Y-117170386D01*
X90428357Y-117301568D01*
X90543232Y-117346653D01*
X90655930Y-117390884D01*
X90672584Y-117397420D01*
X90928370Y-117455802D01*
X91124506Y-117470500D01*
X91126823Y-117470500D01*
X91253177Y-117470500D01*
X91255494Y-117470500D01*
X91451630Y-117455802D01*
X91707416Y-117397420D01*
X91951643Y-117301568D01*
X92178857Y-117170386D01*
X92383981Y-117006805D01*
X92558823Y-116818370D01*
X92562428Y-116814485D01*
X92562429Y-116814482D01*
X92562433Y-116814479D01*
X92710228Y-116597704D01*
X92824063Y-116361323D01*
X92901396Y-116110615D01*
X92940500Y-115851182D01*
X92940500Y-115588818D01*
X92901396Y-115329385D01*
X92824063Y-115078677D01*
X92710228Y-114842296D01*
X92562433Y-114625521D01*
X92562432Y-114625520D01*
X92562428Y-114625514D01*
X92400443Y-114450937D01*
X98235630Y-114450937D01*
X98266443Y-114652071D01*
X98337113Y-114842886D01*
X98444745Y-115015568D01*
X98444748Y-115015571D01*
X98584941Y-115163053D01*
X98751951Y-115279295D01*
X98938942Y-115359540D01*
X99138259Y-115400500D01*
X99138261Y-115400500D01*
X99287600Y-115400500D01*
X99290742Y-115400500D01*
X99442438Y-115385074D01*
X99636588Y-115324159D01*
X99814502Y-115225409D01*
X99968895Y-115092866D01*
X100093448Y-114931958D01*
X100183060Y-114749271D01*
X100234063Y-114552285D01*
X100239203Y-114450937D01*
X100775630Y-114450937D01*
X100806443Y-114652071D01*
X100877113Y-114842886D01*
X100984745Y-115015568D01*
X100984748Y-115015571D01*
X101124941Y-115163053D01*
X101291951Y-115279295D01*
X101478942Y-115359540D01*
X101678259Y-115400500D01*
X101678261Y-115400500D01*
X101827600Y-115400500D01*
X101830742Y-115400500D01*
X101982438Y-115385074D01*
X102176588Y-115324159D01*
X102354502Y-115225409D01*
X102508895Y-115092866D01*
X102633448Y-114931958D01*
X102723060Y-114749271D01*
X102774063Y-114552285D01*
X102779203Y-114450937D01*
X103315630Y-114450937D01*
X103346443Y-114652071D01*
X103417113Y-114842886D01*
X103524745Y-115015568D01*
X103524748Y-115015571D01*
X103664941Y-115163053D01*
X103831951Y-115279295D01*
X104018942Y-115359540D01*
X104218259Y-115400500D01*
X104218261Y-115400500D01*
X104367600Y-115400500D01*
X104370742Y-115400500D01*
X104522438Y-115385074D01*
X104716588Y-115324159D01*
X104894502Y-115225409D01*
X105048895Y-115092866D01*
X105173448Y-114931958D01*
X105263060Y-114749271D01*
X105314063Y-114552285D01*
X105319203Y-114450937D01*
X105855630Y-114450937D01*
X105886443Y-114652071D01*
X105957113Y-114842886D01*
X106064745Y-115015568D01*
X106064748Y-115015571D01*
X106204941Y-115163053D01*
X106371951Y-115279295D01*
X106558942Y-115359540D01*
X106758259Y-115400500D01*
X106758261Y-115400500D01*
X106907600Y-115400500D01*
X106910742Y-115400500D01*
X107062438Y-115385074D01*
X107256588Y-115324159D01*
X107434502Y-115225409D01*
X107588895Y-115092866D01*
X107677445Y-114978468D01*
X107734045Y-114937506D01*
X107803808Y-114933645D01*
X107864583Y-114968115D01*
X107897075Y-115029970D01*
X107899500Y-115054371D01*
X107899500Y-115455292D01*
X107899500Y-115455314D01*
X107899501Y-115458036D01*
X107899742Y-115460751D01*
X107899743Y-115460765D01*
X107907851Y-115551958D01*
X107910114Y-115577418D01*
X107926322Y-115634062D01*
X107966091Y-115773050D01*
X108060301Y-115953406D01*
X108060302Y-115953407D01*
X108188891Y-116111109D01*
X108346593Y-116239698D01*
X108526951Y-116333909D01*
X108579611Y-116348976D01*
X108638648Y-116386342D01*
X108668113Y-116449695D01*
X108669500Y-116468192D01*
X108669500Y-120396127D01*
X108649815Y-120463166D01*
X108604522Y-120505179D01*
X108596491Y-120509525D01*
X108400259Y-120662259D01*
X108400256Y-120662261D01*
X108400256Y-120662262D01*
X108231836Y-120845215D01*
X108188685Y-120911263D01*
X108095825Y-121053395D01*
X108030718Y-121201826D01*
X107995937Y-121281119D01*
X107983156Y-121331591D01*
X107934892Y-121522177D01*
X107934891Y-121522179D01*
X107934892Y-121522179D01*
X107919500Y-121707933D01*
X107919500Y-122832067D01*
X107926745Y-122919500D01*
X107934892Y-123017822D01*
X107950351Y-123078867D01*
X107995937Y-123258881D01*
X108015917Y-123304431D01*
X108095825Y-123486604D01*
X108095827Y-123486607D01*
X108231836Y-123694785D01*
X108400256Y-123877738D01*
X108400259Y-123877740D01*
X108596485Y-124030470D01*
X108596487Y-124030471D01*
X108596491Y-124030474D01*
X108815190Y-124148828D01*
X109050386Y-124229571D01*
X109295665Y-124270500D01*
X109544335Y-124270500D01*
X109789614Y-124229571D01*
X110024810Y-124148828D01*
X110243509Y-124030474D01*
X110439744Y-123877738D01*
X110608164Y-123694785D01*
X110744173Y-123486607D01*
X110844063Y-123258881D01*
X110867344Y-123166947D01*
X110880738Y-123114059D01*
X110916277Y-123053904D01*
X110978698Y-123022512D01*
X111000943Y-123020500D01*
X113935500Y-123020500D01*
X114002539Y-123040185D01*
X114048294Y-123092989D01*
X114059500Y-123144500D01*
X114059500Y-125976127D01*
X114039815Y-126043166D01*
X113994522Y-126085179D01*
X113986491Y-126089525D01*
X113790259Y-126242259D01*
X113790256Y-126242261D01*
X113790256Y-126242262D01*
X113621836Y-126425215D01*
X113599280Y-126459740D01*
X113485825Y-126633395D01*
X113419670Y-126784215D01*
X113385937Y-126861119D01*
X113362220Y-126954776D01*
X113324892Y-127102177D01*
X113320348Y-127157011D01*
X113309500Y-127287933D01*
X113309500Y-128412067D01*
X113317253Y-128505629D01*
X113324892Y-128597822D01*
X113329145Y-128614615D01*
X113385937Y-128838881D01*
X113414616Y-128904263D01*
X113485825Y-129066604D01*
X113485827Y-129066607D01*
X113621836Y-129274785D01*
X113790256Y-129457738D01*
X113851621Y-129505500D01*
X113986485Y-129610470D01*
X113986487Y-129610471D01*
X113986491Y-129610474D01*
X114205190Y-129728828D01*
X114440386Y-129809571D01*
X114685665Y-129850500D01*
X114934335Y-129850500D01*
X115179614Y-129809571D01*
X115414810Y-129728828D01*
X115633509Y-129610474D01*
X115829744Y-129457738D01*
X115994272Y-129279012D01*
X116054157Y-129243024D01*
X116123995Y-129245124D01*
X116181611Y-129284648D01*
X116208713Y-129349047D01*
X116209500Y-129362997D01*
X116209500Y-133654554D01*
X116209290Y-133661764D01*
X116205668Y-133723935D01*
X116216482Y-133785262D01*
X116217527Y-133792396D01*
X116224758Y-133854253D01*
X116228593Y-133864789D01*
X116234188Y-133885667D01*
X116236135Y-133896713D01*
X116260796Y-133953884D01*
X116263459Y-133960585D01*
X116284763Y-134019118D01*
X116290923Y-134028483D01*
X116301180Y-134047505D01*
X116305621Y-134057801D01*
X116305622Y-134057803D01*
X116305623Y-134057804D01*
X116333452Y-134095185D01*
X116342815Y-134107761D01*
X116346952Y-134113670D01*
X116381168Y-134165694D01*
X116389325Y-134173390D01*
X116403689Y-134189530D01*
X116410388Y-134198528D01*
X116458103Y-134238566D01*
X116463490Y-134243361D01*
X116508782Y-134286092D01*
X116518493Y-134291699D01*
X116536199Y-134304097D01*
X116542215Y-134309144D01*
X116544786Y-134311302D01*
X116577428Y-134327695D01*
X116600438Y-134339251D01*
X116606779Y-134342669D01*
X116660719Y-134373812D01*
X116665465Y-134375233D01*
X116671458Y-134377027D01*
X116691544Y-134385007D01*
X116701566Y-134390040D01*
X116762174Y-134404405D01*
X116769136Y-134406270D01*
X116796888Y-134414578D01*
X116828786Y-134424129D01*
X116828790Y-134424130D01*
X116839985Y-134424781D01*
X116861366Y-134427913D01*
X116872279Y-134430500D01*
X116934554Y-134430500D01*
X116941764Y-134430710D01*
X117003934Y-134434331D01*
X117003934Y-134434330D01*
X117003935Y-134434331D01*
X117014976Y-134432384D01*
X117036510Y-134430500D01*
X120991961Y-134430500D01*
X121059000Y-134450185D01*
X121104755Y-134502989D01*
X121114699Y-134572147D01*
X121085674Y-134635703D01*
X121076303Y-134645398D01*
X120903195Y-134806018D01*
X120739613Y-135011143D01*
X120608431Y-135238358D01*
X120512580Y-135482581D01*
X120454197Y-135738372D01*
X120434591Y-136000000D01*
X120454197Y-136261627D01*
X120512580Y-136517418D01*
X120608431Y-136761641D01*
X120739613Y-136988856D01*
X120755223Y-137008430D01*
X120903195Y-137193981D01*
X120903197Y-137193983D01*
X120903198Y-137193984D01*
X121095514Y-137372428D01*
X121095520Y-137372432D01*
X121095521Y-137372433D01*
X121312296Y-137520228D01*
X121548677Y-137634063D01*
X121799385Y-137711396D01*
X122058818Y-137750500D01*
X122321182Y-137750500D01*
X122580615Y-137711396D01*
X122831323Y-137634063D01*
X123067704Y-137520228D01*
X123284479Y-137372433D01*
X123284482Y-137372429D01*
X123284485Y-137372428D01*
X123431092Y-137236396D01*
X123476805Y-137193981D01*
X123640386Y-136988857D01*
X123648112Y-136975474D01*
X123698679Y-136927259D01*
X123767286Y-136914035D01*
X123832151Y-136940003D01*
X123872680Y-136996917D01*
X123879500Y-137037474D01*
X123879500Y-137740391D01*
X123859815Y-137807430D01*
X123807011Y-137853185D01*
X123789615Y-137859605D01*
X123782445Y-137861657D01*
X123766949Y-137866091D01*
X123586593Y-137960301D01*
X123428891Y-138088891D01*
X123300301Y-138246593D01*
X123206091Y-138426949D01*
X123150114Y-138622582D01*
X123139742Y-138739235D01*
X123139741Y-138739247D01*
X123139500Y-138741963D01*
X123139500Y-138744705D01*
X123139500Y-138744706D01*
X123139500Y-139142928D01*
X123119815Y-139209967D01*
X123067011Y-139255722D01*
X122997853Y-139265666D01*
X122934297Y-139236641D01*
X122910268Y-139208519D01*
X122895254Y-139184431D01*
X122862507Y-139149982D01*
X122755059Y-139036947D01*
X122588049Y-138920705D01*
X122401058Y-138840460D01*
X122201741Y-138799500D01*
X122049258Y-138799500D01*
X122046147Y-138799816D01*
X122046134Y-138799817D01*
X121897559Y-138814926D01*
X121703412Y-138875841D01*
X121525500Y-138974589D01*
X121371104Y-139107135D01*
X121246551Y-139268042D01*
X121156940Y-139450727D01*
X121131773Y-139547929D01*
X121118887Y-139597701D01*
X121105937Y-139647716D01*
X121095630Y-139850937D01*
X121126443Y-140052071D01*
X121197113Y-140242886D01*
X121304745Y-140415568D01*
X121304748Y-140415571D01*
X121444941Y-140563053D01*
X121611951Y-140679295D01*
X121798942Y-140759540D01*
X121998259Y-140800500D01*
X121998261Y-140800500D01*
X122147600Y-140800500D01*
X122150742Y-140800500D01*
X122302438Y-140785074D01*
X122496588Y-140724159D01*
X122674502Y-140625409D01*
X122828895Y-140492866D01*
X122917445Y-140378468D01*
X122974045Y-140337506D01*
X123043808Y-140333645D01*
X123104583Y-140368115D01*
X123137075Y-140429970D01*
X123139500Y-140454371D01*
X123139500Y-140855292D01*
X123139500Y-140855314D01*
X123139501Y-140858036D01*
X123139742Y-140860751D01*
X123139743Y-140860765D01*
X123150114Y-140977417D01*
X123206091Y-141173050D01*
X123300301Y-141353406D01*
X123300302Y-141353407D01*
X123428891Y-141511109D01*
X123579522Y-141633932D01*
X123586593Y-141639698D01*
X123610714Y-141652298D01*
X123766951Y-141733909D01*
X123962582Y-141789886D01*
X124081963Y-141800500D01*
X125198036Y-141800499D01*
X125317418Y-141789886D01*
X125513049Y-141733909D01*
X125693407Y-141639698D01*
X125693406Y-141639698D01*
X125693409Y-141639697D01*
X125779622Y-141569399D01*
X125831639Y-141526984D01*
X125896034Y-141499875D01*
X125964863Y-141511884D01*
X125988360Y-141526984D01*
X126126593Y-141639698D01*
X126150714Y-141652298D01*
X126306951Y-141733909D01*
X126502582Y-141789886D01*
X126621963Y-141800500D01*
X127738036Y-141800499D01*
X127857418Y-141789886D01*
X128053049Y-141733909D01*
X128233407Y-141639698D01*
X128233406Y-141639698D01*
X128233409Y-141639697D01*
X128319622Y-141569399D01*
X128371639Y-141526984D01*
X128436034Y-141499875D01*
X128504863Y-141511884D01*
X128528360Y-141526984D01*
X128666593Y-141639698D01*
X128846951Y-141733909D01*
X128859612Y-141737531D01*
X128918649Y-141774898D01*
X128948113Y-141838251D01*
X128949500Y-141856747D01*
X128949500Y-146614554D01*
X128949290Y-146621764D01*
X128945668Y-146683935D01*
X128956482Y-146745262D01*
X128957527Y-146752396D01*
X128964758Y-146814253D01*
X128968593Y-146824789D01*
X128974188Y-146845667D01*
X128976135Y-146856713D01*
X129000796Y-146913884D01*
X129003459Y-146920585D01*
X129024763Y-146979118D01*
X129030923Y-146988483D01*
X129041180Y-147007505D01*
X129045621Y-147017801D01*
X129082815Y-147067761D01*
X129086952Y-147073670D01*
X129121168Y-147125694D01*
X129129325Y-147133390D01*
X129143689Y-147149530D01*
X129150388Y-147158528D01*
X129198103Y-147198566D01*
X129203490Y-147203361D01*
X129248782Y-147246092D01*
X129258493Y-147251699D01*
X129276199Y-147264097D01*
X129284786Y-147271302D01*
X129329723Y-147293869D01*
X129340438Y-147299251D01*
X129346779Y-147302669D01*
X129400719Y-147333812D01*
X129409804Y-147336532D01*
X129411458Y-147337027D01*
X129431544Y-147345007D01*
X129441566Y-147350040D01*
X129502174Y-147364405D01*
X129509136Y-147366270D01*
X129526300Y-147371409D01*
X129568786Y-147384129D01*
X129568790Y-147384130D01*
X129579985Y-147384781D01*
X129601366Y-147387913D01*
X129612279Y-147390500D01*
X129674554Y-147390500D01*
X129681764Y-147390710D01*
X129743934Y-147394331D01*
X129743934Y-147394330D01*
X129743935Y-147394331D01*
X129754976Y-147392384D01*
X129776510Y-147390500D01*
X171774554Y-147390500D01*
X171781764Y-147390710D01*
X171784367Y-147390861D01*
X171843935Y-147394331D01*
X171905304Y-147383508D01*
X171912384Y-147382471D01*
X171974255Y-147375241D01*
X171984790Y-147371405D01*
X172005661Y-147365812D01*
X172016711Y-147363865D01*
X172073899Y-147339196D01*
X172080580Y-147336541D01*
X172139117Y-147315237D01*
X172148479Y-147309078D01*
X172167517Y-147298814D01*
X172177804Y-147294377D01*
X172227786Y-147257165D01*
X172233648Y-147253061D01*
X172285696Y-147218830D01*
X172293391Y-147210673D01*
X172309534Y-147196306D01*
X172318530Y-147189610D01*
X172358567Y-147141893D01*
X172363333Y-147136537D01*
X172406092Y-147091218D01*
X172411699Y-147081504D01*
X172424097Y-147063800D01*
X172431302Y-147055214D01*
X172459255Y-146999551D01*
X172462669Y-146993221D01*
X172493812Y-146939281D01*
X172497028Y-146928535D01*
X172505010Y-146908448D01*
X172510039Y-146898434D01*
X172510040Y-146898433D01*
X172524405Y-146837820D01*
X172526271Y-146830860D01*
X172528089Y-146824789D01*
X172544130Y-146771210D01*
X172544781Y-146760009D01*
X172547913Y-146738633D01*
X172550500Y-146727721D01*
X172550499Y-146665446D01*
X172550709Y-146658234D01*
X172551441Y-146645666D01*
X172554331Y-146596065D01*
X172552383Y-146585018D01*
X172550499Y-146563501D01*
X172550499Y-138821182D01*
X194399500Y-138821182D01*
X194438604Y-139080615D01*
X194515937Y-139331323D01*
X194629772Y-139567704D01*
X194765766Y-139767170D01*
X194777571Y-139784485D01*
X194956015Y-139976801D01*
X194956019Y-139976805D01*
X195161143Y-140140386D01*
X195388357Y-140271568D01*
X195542226Y-140331957D01*
X195623431Y-140363828D01*
X195632584Y-140367420D01*
X195888370Y-140425802D01*
X196084506Y-140440500D01*
X196086823Y-140440500D01*
X196213177Y-140440500D01*
X196215494Y-140440500D01*
X196411630Y-140425802D01*
X196667416Y-140367420D01*
X196911643Y-140271568D01*
X197138857Y-140140386D01*
X197343981Y-139976805D01*
X197494592Y-139814485D01*
X197522428Y-139784485D01*
X197522429Y-139784482D01*
X197522433Y-139784479D01*
X197670228Y-139567704D01*
X197784063Y-139331323D01*
X197861396Y-139080615D01*
X197900500Y-138821182D01*
X197900500Y-138558818D01*
X197861396Y-138299385D01*
X197784063Y-138048677D01*
X197670228Y-137812296D01*
X197522433Y-137595521D01*
X197522432Y-137595520D01*
X197522428Y-137595514D01*
X197343984Y-137403198D01*
X197343983Y-137403197D01*
X197343981Y-137403195D01*
X197138857Y-137239614D01*
X197138856Y-137239613D01*
X196911641Y-137108431D01*
X196667418Y-137012580D01*
X196411627Y-136954197D01*
X196217808Y-136939673D01*
X196217797Y-136939672D01*
X196215494Y-136939500D01*
X196084506Y-136939500D01*
X196082203Y-136939672D01*
X196082191Y-136939673D01*
X195888372Y-136954197D01*
X195632581Y-137012580D01*
X195388358Y-137108431D01*
X195161143Y-137239613D01*
X194956015Y-137403198D01*
X194777571Y-137595514D01*
X194682698Y-137734668D01*
X194629772Y-137812296D01*
X194515937Y-138048677D01*
X194438604Y-138299385D01*
X194399500Y-138558818D01*
X194399500Y-138821182D01*
X172550499Y-138821182D01*
X172550499Y-123035446D01*
X172550709Y-123028235D01*
X172551160Y-123020500D01*
X172554331Y-122966065D01*
X172543514Y-122904728D01*
X172542469Y-122897591D01*
X172535241Y-122835745D01*
X172531404Y-122825206D01*
X172525810Y-122804324D01*
X172523865Y-122793289D01*
X172499193Y-122736094D01*
X172496535Y-122729400D01*
X172475238Y-122670884D01*
X172469076Y-122661516D01*
X172458817Y-122642490D01*
X172454377Y-122632196D01*
X172417187Y-122582243D01*
X172413054Y-122576340D01*
X172396539Y-122551230D01*
X172378830Y-122524304D01*
X172370673Y-122516608D01*
X172356304Y-122500462D01*
X172349610Y-122491470D01*
X172341147Y-122484369D01*
X172332180Y-122476844D01*
X172301894Y-122451432D01*
X172296543Y-122446670D01*
X172251218Y-122403908D01*
X172251216Y-122403906D01*
X172251213Y-122403904D01*
X172241503Y-122398298D01*
X172223803Y-122385905D01*
X172215214Y-122378698D01*
X172215212Y-122378697D01*
X172215211Y-122378696D01*
X172159551Y-122350742D01*
X172153204Y-122347320D01*
X172099279Y-122316187D01*
X172088535Y-122312970D01*
X172068459Y-122304994D01*
X172058435Y-122299960D01*
X171997841Y-122285598D01*
X171990879Y-122283732D01*
X171931212Y-122265870D01*
X171925941Y-122265563D01*
X171920013Y-122265217D01*
X171898634Y-122262086D01*
X171887721Y-122259500D01*
X171887719Y-122259500D01*
X171825446Y-122259500D01*
X171818236Y-122259290D01*
X171756065Y-122255668D01*
X171745023Y-122257616D01*
X171723490Y-122259500D01*
X168336647Y-122259500D01*
X168269608Y-122239815D01*
X168230920Y-122200290D01*
X168208582Y-122163838D01*
X168148836Y-122066341D01*
X167985224Y-121874776D01*
X167793659Y-121711164D01*
X167578859Y-121579534D01*
X167440592Y-121522262D01*
X167346110Y-121483126D01*
X167101149Y-121424317D01*
X166915316Y-121409691D01*
X166915301Y-121409690D01*
X166912882Y-121409500D01*
X165487118Y-121409500D01*
X165484699Y-121409690D01*
X165484683Y-121409691D01*
X165298850Y-121424317D01*
X165053889Y-121483126D01*
X164821139Y-121579535D01*
X164606342Y-121711163D01*
X164414776Y-121874776D01*
X164278790Y-122033995D01*
X164220283Y-122072188D01*
X164150415Y-122072686D01*
X164091369Y-122035332D01*
X164061891Y-121971986D01*
X164060500Y-121953463D01*
X164060500Y-117760214D01*
X174145214Y-117760214D01*
X174145214Y-136639785D01*
X182684786Y-136639785D01*
X182684786Y-122173785D01*
X190625214Y-122173785D01*
X190625214Y-131124786D01*
X194304786Y-131124786D01*
X194304786Y-122173785D01*
X190625214Y-122173785D01*
X182684786Y-122173785D01*
X182684786Y-117760214D01*
X174145214Y-117760214D01*
X164060500Y-117760214D01*
X164060500Y-117755444D01*
X164060710Y-117748234D01*
X164064331Y-117686066D01*
X164057001Y-117644502D01*
X164053514Y-117624728D01*
X164052469Y-117617591D01*
X164049586Y-117592923D01*
X164045241Y-117555745D01*
X164041404Y-117545206D01*
X164035810Y-117524324D01*
X164033865Y-117513289D01*
X164009193Y-117456094D01*
X164006535Y-117449400D01*
X163985238Y-117390884D01*
X163979076Y-117381516D01*
X163968817Y-117362490D01*
X163964377Y-117352196D01*
X163927187Y-117302243D01*
X163923054Y-117296340D01*
X163920415Y-117292327D01*
X163888830Y-117244304D01*
X163880673Y-117236608D01*
X163866304Y-117220462D01*
X163859610Y-117211470D01*
X163856746Y-117209067D01*
X163842180Y-117196844D01*
X163811894Y-117171432D01*
X163806543Y-117166670D01*
X163761218Y-117123908D01*
X163761216Y-117123906D01*
X163761213Y-117123904D01*
X163751503Y-117118298D01*
X163733803Y-117105905D01*
X163725214Y-117098698D01*
X163725212Y-117098697D01*
X163725211Y-117098696D01*
X163669551Y-117070742D01*
X163663204Y-117067320D01*
X163609279Y-117036187D01*
X163598535Y-117032970D01*
X163578459Y-117024994D01*
X163568435Y-117019960D01*
X163507841Y-117005598D01*
X163500879Y-117003732D01*
X163441212Y-116985870D01*
X163435941Y-116985563D01*
X163430013Y-116985217D01*
X163408634Y-116982086D01*
X163397721Y-116979500D01*
X163397719Y-116979500D01*
X163335446Y-116979500D01*
X163328236Y-116979290D01*
X163266065Y-116975668D01*
X163255023Y-116977616D01*
X163233490Y-116979500D01*
X161542229Y-116979500D01*
X161475190Y-116959815D01*
X161454548Y-116943181D01*
X159582304Y-115070937D01*
X162925630Y-115070937D01*
X162956443Y-115272071D01*
X163027113Y-115462886D01*
X163134745Y-115635568D01*
X163134748Y-115635571D01*
X163274941Y-115783053D01*
X163441951Y-115899295D01*
X163628942Y-115979540D01*
X163828259Y-116020500D01*
X163828261Y-116020500D01*
X163977600Y-116020500D01*
X163980742Y-116020500D01*
X164132438Y-116005074D01*
X164326588Y-115944159D01*
X164504502Y-115845409D01*
X164658895Y-115712866D01*
X164783448Y-115551958D01*
X164873060Y-115369271D01*
X164924063Y-115172285D01*
X164934369Y-114969064D01*
X164929808Y-114939294D01*
X164903556Y-114767928D01*
X164832886Y-114577113D01*
X164725254Y-114404431D01*
X164672621Y-114349062D01*
X164585059Y-114256947D01*
X164418049Y-114140705D01*
X164231058Y-114060460D01*
X164031741Y-114019500D01*
X163879258Y-114019500D01*
X163876147Y-114019816D01*
X163876134Y-114019817D01*
X163727559Y-114034926D01*
X163533412Y-114095841D01*
X163355500Y-114194589D01*
X163201104Y-114327135D01*
X163076551Y-114488042D01*
X162986940Y-114670727D01*
X162952938Y-114802052D01*
X162942366Y-114842887D01*
X162935937Y-114867716D01*
X162925630Y-115070937D01*
X159582304Y-115070937D01*
X154713549Y-110202181D01*
X154680064Y-110140858D01*
X154685048Y-110071166D01*
X154726920Y-110015233D01*
X154792384Y-109990816D01*
X154801230Y-109990500D01*
X155007770Y-109990500D01*
X155074809Y-110010185D01*
X155095451Y-110026819D01*
X157814269Y-112745637D01*
X157826051Y-112759270D01*
X157840390Y-112778531D01*
X157878338Y-112810373D01*
X157886313Y-112817681D01*
X157890223Y-112821591D01*
X157914556Y-112840830D01*
X157917335Y-112843095D01*
X157975752Y-112892113D01*
X157992179Y-112902578D01*
X158061320Y-112934819D01*
X158064567Y-112936391D01*
X158132699Y-112970609D01*
X158151087Y-112977000D01*
X158152323Y-112977255D01*
X158152327Y-112977257D01*
X158225895Y-112992447D01*
X158229242Y-112993189D01*
X158302279Y-113010500D01*
X158302281Y-113010500D01*
X158303509Y-113010791D01*
X158322878Y-113012770D01*
X158324140Y-113012733D01*
X158324144Y-113012734D01*
X158396533Y-113010627D01*
X158399131Y-113010552D01*
X158402737Y-113010500D01*
X167450058Y-113010500D01*
X167517097Y-113030185D01*
X167562852Y-113082989D01*
X167572796Y-113152147D01*
X167543771Y-113215703D01*
X167509485Y-113243332D01*
X167345686Y-113332772D01*
X167116602Y-113504263D01*
X166914263Y-113706602D01*
X166742772Y-113935686D01*
X166605634Y-114186836D01*
X166505629Y-114454958D01*
X166444804Y-114734570D01*
X166424389Y-115020000D01*
X166444804Y-115305429D01*
X166505629Y-115585041D01*
X166505631Y-115585046D01*
X166604894Y-115851181D01*
X166605634Y-115853163D01*
X166742772Y-116104313D01*
X166828517Y-116218854D01*
X166914261Y-116333395D01*
X167116605Y-116535739D01*
X167242770Y-116630185D01*
X167345686Y-116707227D01*
X167427951Y-116752147D01*
X167596839Y-116844367D01*
X167864954Y-116944369D01*
X167864957Y-116944369D01*
X167864958Y-116944370D01*
X167910482Y-116954273D01*
X168144572Y-117005196D01*
X168430000Y-117025610D01*
X168715428Y-117005196D01*
X168995046Y-116944369D01*
X169263161Y-116844367D01*
X169514315Y-116707226D01*
X169743395Y-116535739D01*
X169945739Y-116333395D01*
X170117226Y-116104315D01*
X170254367Y-115853161D01*
X170266295Y-115821182D01*
X194349500Y-115821182D01*
X194388604Y-116080615D01*
X194465937Y-116331323D01*
X194579772Y-116567704D01*
X194700056Y-116744128D01*
X194727571Y-116784485D01*
X194904964Y-116975668D01*
X194906019Y-116976805D01*
X195111143Y-117140386D01*
X195338357Y-117271568D01*
X195478125Y-117326423D01*
X195578425Y-117365788D01*
X195582584Y-117367420D01*
X195838370Y-117425802D01*
X196034506Y-117440500D01*
X196036823Y-117440500D01*
X196163177Y-117440500D01*
X196165494Y-117440500D01*
X196361630Y-117425802D01*
X196617416Y-117367420D01*
X196861643Y-117271568D01*
X197088857Y-117140386D01*
X197293981Y-116976805D01*
X197440987Y-116818370D01*
X197472428Y-116784485D01*
X197472429Y-116784482D01*
X197472433Y-116784479D01*
X197620228Y-116567704D01*
X197734063Y-116331323D01*
X197811396Y-116080615D01*
X197850500Y-115821182D01*
X197850500Y-115558818D01*
X197811396Y-115299385D01*
X197734063Y-115048677D01*
X197620228Y-114812296D01*
X197472433Y-114595521D01*
X197472432Y-114595520D01*
X197472428Y-114595514D01*
X197293984Y-114403198D01*
X197293983Y-114403197D01*
X197293981Y-114403195D01*
X197116464Y-114261630D01*
X197088856Y-114239613D01*
X196922522Y-114143581D01*
X196861643Y-114108432D01*
X196861642Y-114108431D01*
X196861641Y-114108431D01*
X196617418Y-114012580D01*
X196361627Y-113954197D01*
X196167808Y-113939673D01*
X196167797Y-113939672D01*
X196165494Y-113939500D01*
X196034506Y-113939500D01*
X196032203Y-113939672D01*
X196032191Y-113939673D01*
X195838372Y-113954197D01*
X195582581Y-114012580D01*
X195338358Y-114108431D01*
X195111143Y-114239613D01*
X194906015Y-114403198D01*
X194727571Y-114595514D01*
X194632765Y-114734570D01*
X194579772Y-114812296D01*
X194465937Y-115048677D01*
X194388604Y-115299385D01*
X194349500Y-115558818D01*
X194349500Y-115821182D01*
X170266295Y-115821182D01*
X170354369Y-115585046D01*
X170415196Y-115305428D01*
X170435610Y-115020000D01*
X170415196Y-114734572D01*
X170354369Y-114454954D01*
X170254367Y-114186839D01*
X170190132Y-114069202D01*
X170117227Y-113935686D01*
X170074354Y-113878415D01*
X169945739Y-113706605D01*
X169743395Y-113504261D01*
X169514315Y-113332774D01*
X169514313Y-113332773D01*
X169514312Y-113332772D01*
X169263164Y-113195634D01*
X169262776Y-113195489D01*
X169261163Y-113194888D01*
X169259456Y-113193610D01*
X169255378Y-113191383D01*
X169255698Y-113190796D01*
X169205232Y-113153017D01*
X169180815Y-113087552D01*
X169180499Y-113078732D01*
X169180499Y-112285446D01*
X169180709Y-112278235D01*
X169184331Y-112216065D01*
X169173514Y-112154728D01*
X169172469Y-112147591D01*
X169165241Y-112085745D01*
X169161404Y-112075206D01*
X169155810Y-112054324D01*
X169153865Y-112043289D01*
X169129193Y-111986094D01*
X169126535Y-111979400D01*
X169105238Y-111920884D01*
X169099076Y-111911516D01*
X169088817Y-111892490D01*
X169084377Y-111882196D01*
X169047187Y-111832243D01*
X169043054Y-111826340D01*
X169015654Y-111784680D01*
X169008830Y-111774304D01*
X169000673Y-111766608D01*
X168986304Y-111750462D01*
X168979610Y-111741470D01*
X168931894Y-111701432D01*
X168926543Y-111696670D01*
X168881218Y-111653908D01*
X168881216Y-111653906D01*
X168881213Y-111653904D01*
X168871503Y-111648298D01*
X168853803Y-111635905D01*
X168845214Y-111628698D01*
X168845212Y-111628697D01*
X168845211Y-111628696D01*
X168789551Y-111600742D01*
X168783204Y-111597320D01*
X168729279Y-111566187D01*
X168718535Y-111562970D01*
X168698459Y-111554994D01*
X168688435Y-111549960D01*
X168627841Y-111535598D01*
X168620879Y-111533732D01*
X168561212Y-111515870D01*
X168555941Y-111515563D01*
X168550013Y-111515217D01*
X168528634Y-111512086D01*
X168517721Y-111509500D01*
X168517719Y-111509500D01*
X168455446Y-111509500D01*
X168448236Y-111509290D01*
X168386065Y-111505668D01*
X168375023Y-111507616D01*
X168353490Y-111509500D01*
X158752229Y-111509500D01*
X158685190Y-111489815D01*
X158664548Y-111473181D01*
X157435024Y-110243657D01*
X162913448Y-110243657D01*
X163097045Y-110343909D01*
X163365100Y-110443889D01*
X163644642Y-110504699D01*
X163929999Y-110525109D01*
X164215357Y-110504699D01*
X164494899Y-110443889D01*
X164762954Y-110343909D01*
X164946550Y-110243658D01*
X164946550Y-110243657D01*
X163930000Y-109227107D01*
X162913448Y-110243657D01*
X157435024Y-110243657D01*
X157318056Y-110126689D01*
X155945728Y-108754360D01*
X155933946Y-108740727D01*
X155919609Y-108721469D01*
X155881666Y-108689631D01*
X155873691Y-108682323D01*
X155872329Y-108680961D01*
X155869777Y-108678409D01*
X155845444Y-108659169D01*
X155842647Y-108656890D01*
X155784251Y-108607890D01*
X155767821Y-108597422D01*
X155698691Y-108565186D01*
X155695447Y-108563615D01*
X155627306Y-108529394D01*
X155608903Y-108522997D01*
X155594384Y-108519999D01*
X161924890Y-108519999D01*
X161945300Y-108805357D01*
X162006111Y-109084902D01*
X162106088Y-109352952D01*
X162206341Y-109536550D01*
X163151004Y-108591889D01*
X163430000Y-108591889D01*
X163470507Y-108729844D01*
X163548239Y-108850798D01*
X163656900Y-108944952D01*
X163787685Y-109004680D01*
X163894237Y-109020000D01*
X163965763Y-109020000D01*
X164072315Y-109004680D01*
X164203100Y-108944952D01*
X164311761Y-108850798D01*
X164389493Y-108729844D01*
X164430000Y-108591889D01*
X164430000Y-108520000D01*
X164637107Y-108520000D01*
X165653657Y-109536550D01*
X165653658Y-109536550D01*
X165753909Y-109352954D01*
X165853889Y-109084899D01*
X165914699Y-108805357D01*
X165931466Y-108570937D01*
X167425630Y-108570937D01*
X167456443Y-108772071D01*
X167527113Y-108962886D01*
X167634745Y-109135568D01*
X167634748Y-109135571D01*
X167774941Y-109283053D01*
X167941951Y-109399295D01*
X168128942Y-109479540D01*
X168328259Y-109520500D01*
X168328261Y-109520500D01*
X168477600Y-109520500D01*
X168480742Y-109520500D01*
X168632438Y-109505074D01*
X168826588Y-109444159D01*
X169004502Y-109345409D01*
X169158895Y-109212866D01*
X169283448Y-109051958D01*
X169373060Y-108869271D01*
X169424063Y-108672285D01*
X169434369Y-108469064D01*
X169416634Y-108353299D01*
X169403556Y-108267928D01*
X169332886Y-108077113D01*
X169225254Y-107904431D01*
X169218803Y-107897644D01*
X169085059Y-107756947D01*
X168918049Y-107640705D01*
X168731058Y-107560460D01*
X168531741Y-107519500D01*
X168379258Y-107519500D01*
X168376147Y-107519816D01*
X168376134Y-107519817D01*
X168227559Y-107534926D01*
X168033412Y-107595841D01*
X167855500Y-107694589D01*
X167701104Y-107827135D01*
X167576551Y-107988042D01*
X167486940Y-108170727D01*
X167435937Y-108367716D01*
X167425630Y-108570937D01*
X165931466Y-108570937D01*
X165935109Y-108520000D01*
X165914699Y-108234642D01*
X165853889Y-107955100D01*
X165753909Y-107687045D01*
X165653657Y-107503448D01*
X164637107Y-108519999D01*
X164637107Y-108520000D01*
X164430000Y-108520000D01*
X164430000Y-108448111D01*
X164389493Y-108310156D01*
X164311761Y-108189202D01*
X164203100Y-108095048D01*
X164072315Y-108035320D01*
X163965763Y-108020000D01*
X163894237Y-108020000D01*
X163787685Y-108035320D01*
X163656900Y-108095048D01*
X163548239Y-108189202D01*
X163470507Y-108310156D01*
X163430000Y-108448111D01*
X163430000Y-108591889D01*
X163151004Y-108591889D01*
X163222893Y-108520000D01*
X163222893Y-108519999D01*
X162206341Y-107503448D01*
X162206339Y-107503448D01*
X162106090Y-107687043D01*
X162006111Y-107955097D01*
X161945300Y-108234642D01*
X161924890Y-108519999D01*
X155594384Y-108519999D01*
X155534211Y-108507574D01*
X155530692Y-108506794D01*
X155456490Y-108489208D01*
X155437121Y-108487229D01*
X155360869Y-108489448D01*
X155357263Y-108489500D01*
X130302230Y-108489500D01*
X130235191Y-108469815D01*
X130214549Y-108453181D01*
X129985728Y-108224360D01*
X129973946Y-108210727D01*
X129964965Y-108198664D01*
X129959610Y-108191470D01*
X129921667Y-108159631D01*
X129913691Y-108152323D01*
X129912329Y-108150961D01*
X129909777Y-108148409D01*
X129885444Y-108129169D01*
X129882647Y-108126890D01*
X129824251Y-108077890D01*
X129807821Y-108067422D01*
X129738691Y-108035186D01*
X129735447Y-108033615D01*
X129667306Y-107999394D01*
X129648903Y-107992997D01*
X129647673Y-107992743D01*
X129574206Y-107977572D01*
X129570692Y-107976794D01*
X129496490Y-107959208D01*
X129477121Y-107957229D01*
X129400869Y-107959448D01*
X129397263Y-107959500D01*
X124833706Y-107959500D01*
X124815736Y-107958191D01*
X124801853Y-107956157D01*
X124791977Y-107954711D01*
X124791976Y-107954711D01*
X124742634Y-107959028D01*
X124731827Y-107959500D01*
X124726291Y-107959500D01*
X124722717Y-107959917D01*
X124722711Y-107959918D01*
X124695487Y-107963099D01*
X124691906Y-107963465D01*
X124615952Y-107970111D01*
X124596923Y-107974329D01*
X124525271Y-108000408D01*
X124521868Y-108001591D01*
X124449479Y-108025579D01*
X124431927Y-108034076D01*
X124368228Y-108075970D01*
X124365190Y-108077905D01*
X124300281Y-108117943D01*
X124285164Y-108130256D01*
X124232848Y-108185708D01*
X124230336Y-108188294D01*
X122055451Y-110363181D01*
X121994128Y-110396666D01*
X121967770Y-110399500D01*
X114505446Y-110399500D01*
X114498236Y-110399290D01*
X114436064Y-110395668D01*
X114374720Y-110406485D01*
X114367585Y-110407530D01*
X114305745Y-110414758D01*
X114295200Y-110418596D01*
X114274337Y-110424186D01*
X114263290Y-110426134D01*
X114206105Y-110450800D01*
X114199407Y-110453461D01*
X114140879Y-110474764D01*
X114131505Y-110480929D01*
X114112496Y-110491179D01*
X114102193Y-110495623D01*
X114052240Y-110532812D01*
X114046335Y-110536947D01*
X113994305Y-110571169D01*
X113986605Y-110579330D01*
X113970471Y-110593688D01*
X113961467Y-110600391D01*
X113921432Y-110648102D01*
X113916641Y-110653487D01*
X113873907Y-110698783D01*
X113868300Y-110708495D01*
X113855910Y-110726190D01*
X113848697Y-110734786D01*
X113820748Y-110790436D01*
X113817328Y-110796780D01*
X113786188Y-110850719D01*
X113782969Y-110861469D01*
X113774995Y-110881539D01*
X113769961Y-110891563D01*
X113755598Y-110952158D01*
X113753733Y-110959118D01*
X113735869Y-111018791D01*
X113735217Y-111029989D01*
X113732086Y-111051362D01*
X113729500Y-111062275D01*
X113729500Y-111124554D01*
X113729290Y-111131764D01*
X113725668Y-111193934D01*
X113727616Y-111204980D01*
X113729499Y-111226509D01*
X113729500Y-112337529D01*
X113709815Y-112404568D01*
X113657012Y-112450323D01*
X113639614Y-112456744D01*
X113606952Y-112466090D01*
X113426590Y-112560302D01*
X113288359Y-112673015D01*
X113223963Y-112700124D01*
X113155133Y-112688114D01*
X113131640Y-112673016D01*
X112996693Y-112562981D01*
X112993406Y-112560301D01*
X112813050Y-112466091D01*
X112698310Y-112433260D01*
X112617418Y-112410114D01*
X112598306Y-112408414D01*
X112500764Y-112399742D01*
X112500753Y-112399741D01*
X112498037Y-112399500D01*
X112495293Y-112399500D01*
X111384707Y-112399500D01*
X111384684Y-112399500D01*
X111381964Y-112399501D01*
X111379249Y-112399742D01*
X111379234Y-112399743D01*
X111262582Y-112410114D01*
X111066949Y-112466091D01*
X110886590Y-112560302D01*
X110748359Y-112673015D01*
X110683963Y-112700124D01*
X110615133Y-112688114D01*
X110591640Y-112673016D01*
X110456693Y-112562981D01*
X110453406Y-112560301D01*
X110273050Y-112466091D01*
X110158310Y-112433260D01*
X110077418Y-112410114D01*
X110058306Y-112408414D01*
X109960764Y-112399742D01*
X109960753Y-112399741D01*
X109958037Y-112399500D01*
X109955293Y-112399500D01*
X108844707Y-112399500D01*
X108844684Y-112399500D01*
X108841964Y-112399501D01*
X108839249Y-112399742D01*
X108839234Y-112399743D01*
X108722582Y-112410114D01*
X108526949Y-112466091D01*
X108346593Y-112560301D01*
X108188891Y-112688891D01*
X108060301Y-112846593D01*
X107966091Y-113026949D01*
X107910114Y-113222582D01*
X107899742Y-113339235D01*
X107899741Y-113339247D01*
X107899500Y-113341963D01*
X107899500Y-113344705D01*
X107899500Y-113344706D01*
X107899500Y-113742928D01*
X107879815Y-113809967D01*
X107827011Y-113855722D01*
X107757853Y-113865666D01*
X107694297Y-113836641D01*
X107670268Y-113808519D01*
X107655254Y-113784431D01*
X107602754Y-113729202D01*
X107515059Y-113636947D01*
X107348049Y-113520705D01*
X107161058Y-113440460D01*
X106961741Y-113399500D01*
X106809258Y-113399500D01*
X106806147Y-113399816D01*
X106806134Y-113399817D01*
X106657559Y-113414926D01*
X106463412Y-113475841D01*
X106285500Y-113574589D01*
X106131104Y-113707135D01*
X106006551Y-113868042D01*
X105916940Y-114050727D01*
X105891773Y-114147929D01*
X105868035Y-114239614D01*
X105865937Y-114247716D01*
X105855630Y-114450937D01*
X105319203Y-114450937D01*
X105324369Y-114349064D01*
X105323376Y-114342584D01*
X105293556Y-114147928D01*
X105222886Y-113957113D01*
X105115254Y-113784431D01*
X105062754Y-113729202D01*
X104975059Y-113636947D01*
X104808049Y-113520705D01*
X104621058Y-113440460D01*
X104421741Y-113399500D01*
X104269258Y-113399500D01*
X104266147Y-113399816D01*
X104266134Y-113399817D01*
X104117559Y-113414926D01*
X103923412Y-113475841D01*
X103745500Y-113574589D01*
X103591104Y-113707135D01*
X103466551Y-113868042D01*
X103376940Y-114050727D01*
X103351773Y-114147929D01*
X103328035Y-114239614D01*
X103325937Y-114247716D01*
X103315630Y-114450937D01*
X102779203Y-114450937D01*
X102784369Y-114349064D01*
X102783376Y-114342584D01*
X102753556Y-114147928D01*
X102682886Y-113957113D01*
X102575254Y-113784431D01*
X102522754Y-113729202D01*
X102435059Y-113636947D01*
X102268049Y-113520705D01*
X102081058Y-113440460D01*
X101881741Y-113399500D01*
X101729258Y-113399500D01*
X101726147Y-113399816D01*
X101726134Y-113399817D01*
X101577559Y-113414926D01*
X101383412Y-113475841D01*
X101205500Y-113574589D01*
X101051104Y-113707135D01*
X100926551Y-113868042D01*
X100836940Y-114050727D01*
X100811773Y-114147929D01*
X100788035Y-114239614D01*
X100785937Y-114247716D01*
X100775630Y-114450937D01*
X100239203Y-114450937D01*
X100244369Y-114349064D01*
X100243376Y-114342584D01*
X100213556Y-114147928D01*
X100142886Y-113957113D01*
X100035254Y-113784431D01*
X99982754Y-113729202D01*
X99895059Y-113636947D01*
X99728049Y-113520705D01*
X99541058Y-113440460D01*
X99341741Y-113399500D01*
X99189258Y-113399500D01*
X99186147Y-113399816D01*
X99186134Y-113399817D01*
X99037559Y-113414926D01*
X98843412Y-113475841D01*
X98665500Y-113574589D01*
X98511104Y-113707135D01*
X98386551Y-113868042D01*
X98296940Y-114050727D01*
X98271773Y-114147929D01*
X98248035Y-114239614D01*
X98245937Y-114247716D01*
X98235630Y-114450937D01*
X92400443Y-114450937D01*
X92383984Y-114433198D01*
X92383983Y-114433197D01*
X92383981Y-114433195D01*
X92230137Y-114310509D01*
X92178856Y-114269613D01*
X91968092Y-114147929D01*
X91951643Y-114138432D01*
X91951642Y-114138431D01*
X91951641Y-114138431D01*
X91707418Y-114042580D01*
X91451627Y-113984197D01*
X91257808Y-113969673D01*
X91257797Y-113969672D01*
X91255494Y-113969500D01*
X91124506Y-113969500D01*
X91122203Y-113969672D01*
X91122191Y-113969673D01*
X90928372Y-113984197D01*
X90672581Y-114042580D01*
X90428358Y-114138431D01*
X90201143Y-114269613D01*
X89996015Y-114433198D01*
X89817571Y-114625514D01*
X89783445Y-114675568D01*
X89730745Y-114752866D01*
X89726954Y-114758426D01*
X89672925Y-114802728D01*
X89603521Y-114810787D01*
X89540779Y-114780044D01*
X89504617Y-114720260D01*
X89500500Y-114688574D01*
X89500500Y-113173872D01*
X89520185Y-113106833D01*
X89565486Y-113064815D01*
X89573509Y-113060474D01*
X89574354Y-113059817D01*
X89637649Y-113010552D01*
X89769744Y-112907738D01*
X89938164Y-112724785D01*
X90074173Y-112516607D01*
X90174063Y-112288881D01*
X90235108Y-112047821D01*
X90242287Y-111961182D01*
X93649500Y-111961182D01*
X93688604Y-112220615D01*
X93765937Y-112471323D01*
X93879772Y-112707704D01*
X93974465Y-112846593D01*
X94027571Y-112924485D01*
X94170669Y-113078707D01*
X94206019Y-113116805D01*
X94411143Y-113280386D01*
X94638357Y-113411568D01*
X94722091Y-113444431D01*
X94832009Y-113487571D01*
X94882584Y-113507420D01*
X95138370Y-113565802D01*
X95334506Y-113580500D01*
X95336823Y-113580500D01*
X95463177Y-113580500D01*
X95465494Y-113580500D01*
X95661630Y-113565802D01*
X95917416Y-113507420D01*
X96161643Y-113411568D01*
X96388857Y-113280386D01*
X96593981Y-113116805D01*
X96709048Y-112992792D01*
X96772428Y-112924485D01*
X96772429Y-112924482D01*
X96772433Y-112924479D01*
X96920228Y-112707704D01*
X97034063Y-112471323D01*
X97111396Y-112220615D01*
X97150500Y-111961182D01*
X97150500Y-111698818D01*
X97111396Y-111439385D01*
X97034063Y-111188677D01*
X96920228Y-110952296D01*
X96772433Y-110735521D01*
X96772432Y-110735520D01*
X96772428Y-110735514D01*
X96593984Y-110543198D01*
X96593983Y-110543197D01*
X96593981Y-110543195D01*
X96388857Y-110379614D01*
X96388856Y-110379613D01*
X96161641Y-110248431D01*
X95917418Y-110152580D01*
X95661627Y-110094197D01*
X95467808Y-110079673D01*
X95467797Y-110079672D01*
X95465494Y-110079500D01*
X95334506Y-110079500D01*
X95332203Y-110079672D01*
X95332191Y-110079673D01*
X95138372Y-110094197D01*
X94882581Y-110152580D01*
X94638358Y-110248431D01*
X94411143Y-110379613D01*
X94206015Y-110543198D01*
X94027571Y-110735514D01*
X93963109Y-110830063D01*
X93880500Y-110951229D01*
X93879771Y-110952298D01*
X93854602Y-111004562D01*
X93765937Y-111188677D01*
X93688604Y-111439385D01*
X93649500Y-111698818D01*
X93649500Y-111961182D01*
X90242287Y-111961182D01*
X90250500Y-111862067D01*
X90250500Y-110737933D01*
X90235108Y-110552179D01*
X90174063Y-110311119D01*
X90074173Y-110083393D01*
X89938164Y-109875215D01*
X89769744Y-109692262D01*
X89747612Y-109675036D01*
X89573514Y-109539529D01*
X89573510Y-109539526D01*
X89573509Y-109539526D01*
X89354810Y-109421172D01*
X89354806Y-109421170D01*
X89354805Y-109421170D01*
X89119615Y-109340429D01*
X88874335Y-109299500D01*
X88625665Y-109299500D01*
X88380384Y-109340429D01*
X88145194Y-109421170D01*
X87926485Y-109539529D01*
X87730259Y-109692259D01*
X87730256Y-109692261D01*
X87730256Y-109692262D01*
X87729914Y-109692634D01*
X87571230Y-109865010D01*
X87511343Y-109901001D01*
X87441504Y-109898900D01*
X87388770Y-109865010D01*
X87304165Y-109773105D01*
X87229744Y-109692262D01*
X87207612Y-109675036D01*
X87033514Y-109539529D01*
X87033510Y-109539526D01*
X87033509Y-109539526D01*
X86814810Y-109421172D01*
X86814806Y-109421170D01*
X86814805Y-109421170D01*
X86579615Y-109340429D01*
X86334335Y-109299500D01*
X86085665Y-109299500D01*
X85840384Y-109340429D01*
X85605194Y-109421170D01*
X85386485Y-109539529D01*
X85190259Y-109692259D01*
X85190256Y-109692261D01*
X85190256Y-109692262D01*
X85189914Y-109692634D01*
X85030890Y-109865379D01*
X84971002Y-109901370D01*
X84901164Y-109899269D01*
X84848431Y-109865379D01*
X84689407Y-109692634D01*
X84493233Y-109539946D01*
X84274606Y-109421631D01*
X84170000Y-109385719D01*
X84170000Y-111228111D01*
X84129493Y-111090156D01*
X84051761Y-110969202D01*
X83943100Y-110875048D01*
X83812315Y-110815320D01*
X83705763Y-110800000D01*
X83634237Y-110800000D01*
X83527685Y-110815320D01*
X83396900Y-110875048D01*
X83288239Y-110969202D01*
X83210507Y-111090156D01*
X83170000Y-111228111D01*
X83170000Y-111371889D01*
X81170500Y-111371889D01*
X81170500Y-110800000D01*
X82170000Y-110800000D01*
X83169999Y-110800000D01*
X83170000Y-109385719D01*
X83065393Y-109421631D01*
X82846766Y-109539946D01*
X82650596Y-109692631D01*
X82482233Y-109875522D01*
X82346266Y-110083634D01*
X82246413Y-110311278D01*
X82185387Y-110552262D01*
X82170211Y-110735412D01*
X82170000Y-110740527D01*
X82170000Y-110800000D01*
X81170500Y-110800000D01*
X81170500Y-110692871D01*
X81170632Y-110687144D01*
X81171292Y-110672871D01*
X81178490Y-110517168D01*
X81179103Y-110504699D01*
X81188166Y-110320200D01*
X81189200Y-110309217D01*
X81214670Y-110126633D01*
X81221085Y-110083395D01*
X81241947Y-109942748D01*
X81243892Y-109932586D01*
X81286689Y-109750626D01*
X81331406Y-109572107D01*
X81334093Y-109562918D01*
X81393572Y-109385457D01*
X81394270Y-109383442D01*
X81455699Y-109211759D01*
X81458996Y-109203497D01*
X81534713Y-109032015D01*
X81536051Y-109029089D01*
X81545510Y-109009089D01*
X81613727Y-108864855D01*
X81617452Y-108857612D01*
X81708864Y-108693497D01*
X81710745Y-108690243D01*
X81804036Y-108534598D01*
X81808034Y-108528363D01*
X81914270Y-108373278D01*
X81916899Y-108369590D01*
X82024909Y-108223954D01*
X82029011Y-108218728D01*
X82149239Y-108073944D01*
X82152577Y-108070097D01*
X82274340Y-107935752D01*
X82278437Y-107931450D01*
X82411450Y-107798437D01*
X82415752Y-107794340D01*
X82550097Y-107672577D01*
X82553944Y-107669239D01*
X82698728Y-107549011D01*
X82703954Y-107544909D01*
X82849590Y-107436899D01*
X82853278Y-107434270D01*
X83008363Y-107328034D01*
X83014598Y-107324036D01*
X83170243Y-107230745D01*
X83173497Y-107228864D01*
X83337612Y-107137452D01*
X83344855Y-107133727D01*
X83509098Y-107056046D01*
X83512018Y-107054712D01*
X83554281Y-107036051D01*
X83683497Y-106978996D01*
X83691759Y-106975699D01*
X83863442Y-106914270D01*
X83865457Y-106913572D01*
X84042922Y-106854091D01*
X84052118Y-106851403D01*
X84230626Y-106806689D01*
X84412600Y-106763889D01*
X84422734Y-106761949D01*
X84606625Y-106734671D01*
X84789214Y-106709201D01*
X84800196Y-106708167D01*
X84996958Y-106698500D01*
X85158714Y-106691021D01*
X85167146Y-106690632D01*
X85172872Y-106690500D01*
X85221776Y-106690500D01*
X85221848Y-106690490D01*
X162787451Y-106677231D01*
X162854492Y-106696904D01*
X162900256Y-106749700D01*
X162905880Y-106788773D01*
X163930000Y-107812893D01*
X163930001Y-107812893D01*
X164953987Y-106788904D01*
X164959677Y-106749330D01*
X165005431Y-106696526D01*
X165072447Y-106676841D01*
X202167138Y-106670500D01*
X202172845Y-106670631D01*
G37*
%TD.AperFunction*%
%TD*%
M02*
