%TF.GenerationSoftware,KiCad,Pcbnew,7.0.1*%
%TF.CreationDate,2023-10-01T14:31:09-03:00*%
%TF.ProjectId,controlRemoto,636f6e74-726f-46c5-9265-6d6f746f2e6b,rev?*%
%TF.SameCoordinates,Original*%
%TF.FileFunction,Copper,L1,Top*%
%TF.FilePolarity,Positive*%
%FSLAX46Y46*%
G04 Gerber Fmt 4.6, Leading zero omitted, Abs format (unit mm)*
G04 Created by KiCad (PCBNEW 7.0.1) date 2023-10-01 14:31:09*
%MOMM*%
%LPD*%
G01*
G04 APERTURE LIST*
G04 Aperture macros list*
%AMRoundRect*
0 Rectangle with rounded corners*
0 $1 Rounding radius*
0 $2 $3 $4 $5 $6 $7 $8 $9 X,Y pos of 4 corners*
0 Add a 4 corners polygon primitive as box body*
4,1,4,$2,$3,$4,$5,$6,$7,$8,$9,$2,$3,0*
0 Add four circle primitives for the rounded corners*
1,1,$1+$1,$2,$3*
1,1,$1+$1,$4,$5*
1,1,$1+$1,$6,$7*
1,1,$1+$1,$8,$9*
0 Add four rect primitives between the rounded corners*
20,1,$1+$1,$2,$3,$4,$5,0*
20,1,$1+$1,$4,$5,$6,$7,0*
20,1,$1+$1,$6,$7,$8,$9,0*
20,1,$1+$1,$8,$9,$2,$3,0*%
G04 Aperture macros list end*
%ADD10C,0.300000*%
%TA.AperFunction,NonConductor*%
%ADD11C,0.300000*%
%TD*%
%TA.AperFunction,ComponentPad*%
%ADD12C,3.000000*%
%TD*%
%TA.AperFunction,ComponentPad*%
%ADD13RoundRect,0.500000X1.000000X0.500000X-1.000000X0.500000X-1.000000X-0.500000X1.000000X-0.500000X0*%
%TD*%
%TA.AperFunction,ComponentPad*%
%ADD14R,3.000000X2.100000*%
%TD*%
%TA.AperFunction,ComponentPad*%
%ADD15O,2.200000X3.000000*%
%TD*%
%TA.AperFunction,ComponentPad*%
%ADD16RoundRect,0.500000X0.500000X-1.000000X0.500000X1.000000X-0.500000X1.000000X-0.500000X-1.000000X0*%
%TD*%
%TA.AperFunction,ComponentPad*%
%ADD17O,4.000000X2.000000*%
%TD*%
%TA.AperFunction,ComponentPad*%
%ADD18O,2.000000X3.000000*%
%TD*%
%TA.AperFunction,ComponentPad*%
%ADD19O,3.500000X2.200000*%
%TD*%
%TA.AperFunction,ViaPad*%
%ADD20C,2.500000*%
%TD*%
%TA.AperFunction,ViaPad*%
%ADD21C,2.000000*%
%TD*%
%TA.AperFunction,Conductor*%
%ADD22C,0.500000*%
%TD*%
%TA.AperFunction,Conductor*%
%ADD23C,1.000000*%
%TD*%
G04 APERTURE END LIST*
D10*
D11*
X197667857Y-130774285D02*
X197596428Y-130917143D01*
X197596428Y-130917143D02*
X197596428Y-131131428D01*
X197596428Y-131131428D02*
X197667857Y-131345714D01*
X197667857Y-131345714D02*
X197810714Y-131488571D01*
X197810714Y-131488571D02*
X197953571Y-131560000D01*
X197953571Y-131560000D02*
X198239285Y-131631428D01*
X198239285Y-131631428D02*
X198453571Y-131631428D01*
X198453571Y-131631428D02*
X198739285Y-131560000D01*
X198739285Y-131560000D02*
X198882142Y-131488571D01*
X198882142Y-131488571D02*
X199025000Y-131345714D01*
X199025000Y-131345714D02*
X199096428Y-131131428D01*
X199096428Y-131131428D02*
X199096428Y-130988571D01*
X199096428Y-130988571D02*
X199025000Y-130774285D01*
X199025000Y-130774285D02*
X198953571Y-130702857D01*
X198953571Y-130702857D02*
X198453571Y-130702857D01*
X198453571Y-130702857D02*
X198453571Y-130988571D01*
X197596428Y-130060000D02*
X198810714Y-130060000D01*
X198810714Y-130060000D02*
X198953571Y-129988571D01*
X198953571Y-129988571D02*
X199025000Y-129917143D01*
X199025000Y-129917143D02*
X199096428Y-129774285D01*
X199096428Y-129774285D02*
X199096428Y-129488571D01*
X199096428Y-129488571D02*
X199025000Y-129345714D01*
X199025000Y-129345714D02*
X198953571Y-129274285D01*
X198953571Y-129274285D02*
X198810714Y-129202857D01*
X198810714Y-129202857D02*
X197596428Y-129202857D01*
X198310714Y-128488571D02*
X198310714Y-127988571D01*
X199096428Y-127774285D02*
X199096428Y-128488571D01*
X199096428Y-128488571D02*
X197596428Y-128488571D01*
X197596428Y-128488571D02*
X197596428Y-127774285D01*
X199096428Y-126274285D02*
X198382142Y-126774285D01*
X199096428Y-127131428D02*
X197596428Y-127131428D01*
X197596428Y-127131428D02*
X197596428Y-126559999D01*
X197596428Y-126559999D02*
X197667857Y-126417142D01*
X197667857Y-126417142D02*
X197739285Y-126345713D01*
X197739285Y-126345713D02*
X197882142Y-126274285D01*
X197882142Y-126274285D02*
X198096428Y-126274285D01*
X198096428Y-126274285D02*
X198239285Y-126345713D01*
X198239285Y-126345713D02*
X198310714Y-126417142D01*
X198310714Y-126417142D02*
X198382142Y-126559999D01*
X198382142Y-126559999D02*
X198382142Y-127131428D01*
X198310714Y-125631428D02*
X198310714Y-125131428D01*
X199096428Y-124917142D02*
X199096428Y-125631428D01*
X199096428Y-125631428D02*
X197596428Y-125631428D01*
X197596428Y-125631428D02*
X197596428Y-124917142D01*
X197596428Y-124488570D02*
X197596428Y-123631428D01*
X199096428Y-124059999D02*
X197596428Y-124059999D01*
X198667857Y-123202856D02*
X198667857Y-122488571D01*
X199096428Y-123345713D02*
X197596428Y-122845713D01*
X197596428Y-122845713D02*
X199096428Y-122345713D01*
X200026428Y-131167142D02*
X200026428Y-130310000D01*
X201526428Y-130738571D02*
X200026428Y-130738571D01*
X200026428Y-129524285D02*
X200026428Y-129238571D01*
X200026428Y-129238571D02*
X200097857Y-129095714D01*
X200097857Y-129095714D02*
X200240714Y-128952857D01*
X200240714Y-128952857D02*
X200526428Y-128881428D01*
X200526428Y-128881428D02*
X201026428Y-128881428D01*
X201026428Y-128881428D02*
X201312142Y-128952857D01*
X201312142Y-128952857D02*
X201455000Y-129095714D01*
X201455000Y-129095714D02*
X201526428Y-129238571D01*
X201526428Y-129238571D02*
X201526428Y-129524285D01*
X201526428Y-129524285D02*
X201455000Y-129667143D01*
X201455000Y-129667143D02*
X201312142Y-129810000D01*
X201312142Y-129810000D02*
X201026428Y-129881428D01*
X201026428Y-129881428D02*
X200526428Y-129881428D01*
X200526428Y-129881428D02*
X200240714Y-129810000D01*
X200240714Y-129810000D02*
X200097857Y-129667143D01*
X200097857Y-129667143D02*
X200026428Y-129524285D01*
X201526428Y-127381428D02*
X200812142Y-127881428D01*
X201526428Y-128238571D02*
X200026428Y-128238571D01*
X200026428Y-128238571D02*
X200026428Y-127667142D01*
X200026428Y-127667142D02*
X200097857Y-127524285D01*
X200097857Y-127524285D02*
X200169285Y-127452856D01*
X200169285Y-127452856D02*
X200312142Y-127381428D01*
X200312142Y-127381428D02*
X200526428Y-127381428D01*
X200526428Y-127381428D02*
X200669285Y-127452856D01*
X200669285Y-127452856D02*
X200740714Y-127524285D01*
X200740714Y-127524285D02*
X200812142Y-127667142D01*
X200812142Y-127667142D02*
X200812142Y-128238571D01*
X201526428Y-125881428D02*
X200812142Y-126381428D01*
X201526428Y-126738571D02*
X200026428Y-126738571D01*
X200026428Y-126738571D02*
X200026428Y-126167142D01*
X200026428Y-126167142D02*
X200097857Y-126024285D01*
X200097857Y-126024285D02*
X200169285Y-125952856D01*
X200169285Y-125952856D02*
X200312142Y-125881428D01*
X200312142Y-125881428D02*
X200526428Y-125881428D01*
X200526428Y-125881428D02*
X200669285Y-125952856D01*
X200669285Y-125952856D02*
X200740714Y-126024285D01*
X200740714Y-126024285D02*
X200812142Y-126167142D01*
X200812142Y-126167142D02*
X200812142Y-126738571D01*
X200740714Y-125238571D02*
X200740714Y-124738571D01*
X201526428Y-124524285D02*
X201526428Y-125238571D01*
X201526428Y-125238571D02*
X200026428Y-125238571D01*
X200026428Y-125238571D02*
X200026428Y-124524285D01*
X201455000Y-123952856D02*
X201526428Y-123738571D01*
X201526428Y-123738571D02*
X201526428Y-123381428D01*
X201526428Y-123381428D02*
X201455000Y-123238571D01*
X201455000Y-123238571D02*
X201383571Y-123167142D01*
X201383571Y-123167142D02*
X201240714Y-123095713D01*
X201240714Y-123095713D02*
X201097857Y-123095713D01*
X201097857Y-123095713D02*
X200955000Y-123167142D01*
X200955000Y-123167142D02*
X200883571Y-123238571D01*
X200883571Y-123238571D02*
X200812142Y-123381428D01*
X200812142Y-123381428D02*
X200740714Y-123667142D01*
X200740714Y-123667142D02*
X200669285Y-123809999D01*
X200669285Y-123809999D02*
X200597857Y-123881428D01*
X200597857Y-123881428D02*
X200455000Y-123952856D01*
X200455000Y-123952856D02*
X200312142Y-123952856D01*
X200312142Y-123952856D02*
X200169285Y-123881428D01*
X200169285Y-123881428D02*
X200097857Y-123809999D01*
X200097857Y-123809999D02*
X200026428Y-123667142D01*
X200026428Y-123667142D02*
X200026428Y-123309999D01*
X200026428Y-123309999D02*
X200097857Y-123095713D01*
X203885000Y-135274284D02*
X203956428Y-135059999D01*
X203956428Y-135059999D02*
X203956428Y-134702856D01*
X203956428Y-134702856D02*
X203885000Y-134559999D01*
X203885000Y-134559999D02*
X203813571Y-134488570D01*
X203813571Y-134488570D02*
X203670714Y-134417141D01*
X203670714Y-134417141D02*
X203527857Y-134417141D01*
X203527857Y-134417141D02*
X203385000Y-134488570D01*
X203385000Y-134488570D02*
X203313571Y-134559999D01*
X203313571Y-134559999D02*
X203242142Y-134702856D01*
X203242142Y-134702856D02*
X203170714Y-134988570D01*
X203170714Y-134988570D02*
X203099285Y-135131427D01*
X203099285Y-135131427D02*
X203027857Y-135202856D01*
X203027857Y-135202856D02*
X202885000Y-135274284D01*
X202885000Y-135274284D02*
X202742142Y-135274284D01*
X202742142Y-135274284D02*
X202599285Y-135202856D01*
X202599285Y-135202856D02*
X202527857Y-135131427D01*
X202527857Y-135131427D02*
X202456428Y-134988570D01*
X202456428Y-134988570D02*
X202456428Y-134631427D01*
X202456428Y-134631427D02*
X202527857Y-134417141D01*
X203813571Y-132917142D02*
X203885000Y-132988570D01*
X203885000Y-132988570D02*
X203956428Y-133202856D01*
X203956428Y-133202856D02*
X203956428Y-133345713D01*
X203956428Y-133345713D02*
X203885000Y-133559999D01*
X203885000Y-133559999D02*
X203742142Y-133702856D01*
X203742142Y-133702856D02*
X203599285Y-133774285D01*
X203599285Y-133774285D02*
X203313571Y-133845713D01*
X203313571Y-133845713D02*
X203099285Y-133845713D01*
X203099285Y-133845713D02*
X202813571Y-133774285D01*
X202813571Y-133774285D02*
X202670714Y-133702856D01*
X202670714Y-133702856D02*
X202527857Y-133559999D01*
X202527857Y-133559999D02*
X202456428Y-133345713D01*
X202456428Y-133345713D02*
X202456428Y-133202856D01*
X202456428Y-133202856D02*
X202527857Y-132988570D01*
X202527857Y-132988570D02*
X202599285Y-132917142D01*
X203956428Y-132274285D02*
X202456428Y-132274285D01*
X203170714Y-132274285D02*
X203170714Y-131417142D01*
X203956428Y-131417142D02*
X202456428Y-131417142D01*
X202456428Y-130845713D02*
X203956428Y-130488570D01*
X203956428Y-130488570D02*
X202885000Y-130202856D01*
X202885000Y-130202856D02*
X203956428Y-129917141D01*
X203956428Y-129917141D02*
X202456428Y-129559999D01*
X203527857Y-129059998D02*
X203527857Y-128345713D01*
X203956428Y-129202855D02*
X202456428Y-128702855D01*
X202456428Y-128702855D02*
X203956428Y-128202855D01*
X203956428Y-126845713D02*
X203242142Y-127345713D01*
X203956428Y-127702856D02*
X202456428Y-127702856D01*
X202456428Y-127702856D02*
X202456428Y-127131427D01*
X202456428Y-127131427D02*
X202527857Y-126988570D01*
X202527857Y-126988570D02*
X202599285Y-126917141D01*
X202599285Y-126917141D02*
X202742142Y-126845713D01*
X202742142Y-126845713D02*
X202956428Y-126845713D01*
X202956428Y-126845713D02*
X203099285Y-126917141D01*
X203099285Y-126917141D02*
X203170714Y-126988570D01*
X203170714Y-126988570D02*
X203242142Y-127131427D01*
X203242142Y-127131427D02*
X203242142Y-127702856D01*
X202456428Y-126417141D02*
X202456428Y-125559999D01*
X203956428Y-125988570D02*
X202456428Y-125988570D01*
X202456428Y-125202856D02*
X202456428Y-124202856D01*
X202456428Y-124202856D02*
X203956428Y-125202856D01*
X203956428Y-125202856D02*
X203956428Y-124202856D01*
X203170714Y-123131428D02*
X203242142Y-122917142D01*
X203242142Y-122917142D02*
X203313571Y-122845713D01*
X203313571Y-122845713D02*
X203456428Y-122774285D01*
X203456428Y-122774285D02*
X203670714Y-122774285D01*
X203670714Y-122774285D02*
X203813571Y-122845713D01*
X203813571Y-122845713D02*
X203885000Y-122917142D01*
X203885000Y-122917142D02*
X203956428Y-123059999D01*
X203956428Y-123059999D02*
X203956428Y-123631428D01*
X203956428Y-123631428D02*
X202456428Y-123631428D01*
X202456428Y-123631428D02*
X202456428Y-123131428D01*
X202456428Y-123131428D02*
X202527857Y-122988571D01*
X202527857Y-122988571D02*
X202599285Y-122917142D01*
X202599285Y-122917142D02*
X202742142Y-122845713D01*
X202742142Y-122845713D02*
X202885000Y-122845713D01*
X202885000Y-122845713D02*
X203027857Y-122917142D01*
X203027857Y-122917142D02*
X203099285Y-122988571D01*
X203099285Y-122988571D02*
X203170714Y-123131428D01*
X203170714Y-123131428D02*
X203170714Y-123631428D01*
X203527857Y-122202856D02*
X203527857Y-121488571D01*
X203956428Y-122345713D02*
X202456428Y-121845713D01*
X202456428Y-121845713D02*
X203956428Y-121345713D01*
X203956428Y-119988571D02*
X203242142Y-120488571D01*
X203956428Y-120845714D02*
X202456428Y-120845714D01*
X202456428Y-120845714D02*
X202456428Y-120274285D01*
X202456428Y-120274285D02*
X202527857Y-120131428D01*
X202527857Y-120131428D02*
X202599285Y-120059999D01*
X202599285Y-120059999D02*
X202742142Y-119988571D01*
X202742142Y-119988571D02*
X202956428Y-119988571D01*
X202956428Y-119988571D02*
X203099285Y-120059999D01*
X203099285Y-120059999D02*
X203170714Y-120131428D01*
X203170714Y-120131428D02*
X203242142Y-120274285D01*
X203242142Y-120274285D02*
X203242142Y-120845714D01*
X202456428Y-119559999D02*
X202456428Y-118702857D01*
X203956428Y-119131428D02*
X202456428Y-119131428D01*
D10*
D11*
X192620714Y-129552857D02*
X192620714Y-130052857D01*
X193406428Y-130052857D02*
X191906428Y-130052857D01*
X191906428Y-130052857D02*
X191906428Y-129338571D01*
X193406428Y-127910000D02*
X192692142Y-128410000D01*
X193406428Y-128767143D02*
X191906428Y-128767143D01*
X191906428Y-128767143D02*
X191906428Y-128195714D01*
X191906428Y-128195714D02*
X191977857Y-128052857D01*
X191977857Y-128052857D02*
X192049285Y-127981428D01*
X192049285Y-127981428D02*
X192192142Y-127910000D01*
X192192142Y-127910000D02*
X192406428Y-127910000D01*
X192406428Y-127910000D02*
X192549285Y-127981428D01*
X192549285Y-127981428D02*
X192620714Y-128052857D01*
X192620714Y-128052857D02*
X192692142Y-128195714D01*
X192692142Y-128195714D02*
X192692142Y-128767143D01*
X191906428Y-126981428D02*
X191906428Y-126695714D01*
X191906428Y-126695714D02*
X191977857Y-126552857D01*
X191977857Y-126552857D02*
X192120714Y-126410000D01*
X192120714Y-126410000D02*
X192406428Y-126338571D01*
X192406428Y-126338571D02*
X192906428Y-126338571D01*
X192906428Y-126338571D02*
X193192142Y-126410000D01*
X193192142Y-126410000D02*
X193335000Y-126552857D01*
X193335000Y-126552857D02*
X193406428Y-126695714D01*
X193406428Y-126695714D02*
X193406428Y-126981428D01*
X193406428Y-126981428D02*
X193335000Y-127124286D01*
X193335000Y-127124286D02*
X193192142Y-127267143D01*
X193192142Y-127267143D02*
X192906428Y-127338571D01*
X192906428Y-127338571D02*
X192406428Y-127338571D01*
X192406428Y-127338571D02*
X192120714Y-127267143D01*
X192120714Y-127267143D02*
X191977857Y-127124286D01*
X191977857Y-127124286D02*
X191906428Y-126981428D01*
X193406428Y-125695714D02*
X191906428Y-125695714D01*
X191906428Y-125695714D02*
X193406428Y-124838571D01*
X193406428Y-124838571D02*
X191906428Y-124838571D01*
X191906428Y-124338570D02*
X191906428Y-123481428D01*
X193406428Y-123909999D02*
X191906428Y-123909999D01*
D12*
%TO.P,SW1,1,1*%
%TO.N,D26*%
X135240000Y-130420000D03*
%TO.P,SW1,2,2*%
%TO.N,GND*%
X130740000Y-123920000D03*
%TD*%
D13*
%TO.P,,3,D15*%
%TO.N,Charger2*%
X126920000Y-144360000D03*
%TD*%
D14*
%TO.P,J2,1,Pin_1*%
%TO.N,GND*%
X95100000Y-131045000D03*
%TO.P,J2,2,Pin_2*%
%TO.N,3V3*%
X95100000Y-128505000D03*
%TO.P,J2,3,Pin_3*%
%TO.N,D22*%
X95100000Y-125965000D03*
%TO.P,J2,4,Pin_4*%
%TO.N,D21*%
X95100000Y-123425000D03*
%TD*%
D13*
%TO.P,,19,D34*%
%TO.N,Charger1*%
X106880000Y-109360000D03*
%TD*%
D12*
%TO.P,SW5,1,1*%
%TO.N,D25*%
X146070000Y-130430000D03*
%TO.P,SW5,2,2*%
%TO.N,GND*%
X141570000Y-123930000D03*
%TD*%
%TO.P,SW4,1,1*%
%TO.N,D27*%
X146060000Y-120560000D03*
%TO.P,SW4,2,2*%
%TO.N,GND*%
X141560000Y-114060000D03*
%TD*%
%TO.P,SW6,1,1*%
%TO.N,D33*%
X168440000Y-138710000D03*
%TO.P,SW6,2,2*%
%TO.N,GND*%
X163940000Y-145210000D03*
%TD*%
%TO.P,SW3,1,1*%
%TO.N,D14*%
X156910000Y-130430000D03*
%TO.P,SW3,2,2*%
%TO.N,GND*%
X152410000Y-123930000D03*
%TD*%
%TO.P,SW2,1,1*%
%TO.N,D32*%
X146080000Y-140270000D03*
%TO.P,SW2,2,2*%
%TO.N,GND*%
X141580000Y-133770000D03*
%TD*%
D15*
%TO.P,J3,1,Pin_1*%
%TO.N,+3V8*%
X156070000Y-140980000D03*
%TO.P,J3,2,Pin_2*%
%TO.N,GND*%
X153530000Y-140980000D03*
%TD*%
D16*
%TO.P,U3,1,3V3*%
%TO.N,3V3*%
X134800000Y-139800000D03*
%TO.P,U3,2,GND*%
%TO.N,GND*%
X132260000Y-139800000D03*
%TO.P,U3,3,D15*%
%TO.N,Charger2*%
X129720000Y-139800000D03*
%TO.P,U3,4,D2*%
%TO.N,D2*%
X127180000Y-139800000D03*
%TO.P,U3,5,D4*%
%TO.N,D4*%
X124640000Y-139800000D03*
%TO.P,U3,8,D5*%
%TO.N,D5*%
X117020000Y-139800000D03*
%TO.P,U3,9,D18*%
%TO.N,D18*%
X114480000Y-139800000D03*
%TO.P,U3,10,D19*%
%TO.N,D19*%
X111940000Y-139800000D03*
%TO.P,U3,11,D21*%
%TO.N,D21*%
X109400000Y-139800000D03*
%TO.P,U3,14,D22*%
%TO.N,D22*%
X101780000Y-139800000D03*
%TO.P,U3,15,D23*%
%TO.N,D23*%
X99240000Y-139800000D03*
%TO.P,U3,19,D34*%
%TO.N,Charger1*%
X106860000Y-114400000D03*
%TO.P,U3,20,D35*%
%TO.N,D35*%
X109400000Y-114400000D03*
%TO.P,U3,21,D32*%
%TO.N,D32*%
X111940000Y-114400000D03*
%TO.P,U3,22,D33*%
%TO.N,D33*%
X114480000Y-114400000D03*
%TO.P,U3,23,D25*%
%TO.N,D25*%
X117020000Y-114400000D03*
%TO.P,U3,24,D26*%
%TO.N,D26*%
X119560000Y-114400000D03*
%TO.P,U3,25,D27*%
%TO.N,D27*%
X122100000Y-114400000D03*
%TO.P,U3,26,D14*%
%TO.N,D14*%
X124640000Y-114400000D03*
%TO.P,U3,28,D13*%
%TO.N,D13*%
X129720000Y-114400000D03*
%TO.P,U3,29,GND*%
%TO.N,GND*%
X132260000Y-114400000D03*
%TO.P,U3,30,VIN*%
%TO.N,+3V8*%
X134800000Y-114400000D03*
%TD*%
D17*
%TO.P,D1,1,K*%
%TO.N,Net-(D1-K)*%
X89300000Y-121180000D03*
%TO.P,D1,2,A*%
%TO.N,3V3*%
X89300000Y-123720000D03*
%TD*%
D18*
%TO.P,R3,2*%
%TO.N,Net-(Q2-B)*%
X192840000Y-140350000D03*
%TO.P,R3,1*%
%TO.N,D2*%
X185220000Y-140350000D03*
%TD*%
D19*
%TO.P,J1,1,Pin_1*%
%TO.N,GND*%
X166170000Y-131460000D03*
%TO.P,J1,2,Pin_2*%
%TO.N,3V3*%
X166170000Y-128920000D03*
%TO.P,J1,3,Pin_3*%
%TO.N,D19*%
X166170000Y-126380000D03*
%TO.P,J1,4,Pin_4*%
%TO.N,D23*%
X166170000Y-123840000D03*
%TO.P,J1,5,Pin_5*%
%TO.N,D18*%
X166170000Y-121300000D03*
%TO.P,J1,6,Pin_6*%
%TO.N,D5*%
X166170000Y-118760000D03*
%TD*%
D18*
%TO.P,Q2,3,E*%
%TO.N,GND*%
X195320000Y-144810000D03*
%TO.P,Q2,2,B*%
%TO.N,Net-(Q2-B)*%
X192780000Y-144810000D03*
%TO.P,Q2,1,C*%
%TO.N,Net-(Q2-C)*%
X190240000Y-144810000D03*
%TD*%
%TO.P,Q1,1,E*%
%TO.N,GND*%
X83670000Y-111300000D03*
%TO.P,Q1,2,B*%
%TO.N,D4*%
X86210000Y-111300000D03*
%TO.P,Q1,3,C*%
%TO.N,Net-(D1-K)*%
X88750000Y-111300000D03*
%TD*%
%TO.P,R2,2*%
%TO.N,Net-(Q2-C)*%
X187120000Y-144770000D03*
%TO.P,R2,1*%
%TO.N,D35*%
X179500000Y-144770000D03*
%TD*%
%TO.P,R1,2*%
%TO.N,D35*%
X182220000Y-140330000D03*
%TO.P,R1,1*%
%TO.N,+3V8*%
X174600000Y-140330000D03*
%TD*%
D17*
%TO.P,U2,1,OUT*%
%TO.N,D13*%
X86640000Y-133325000D03*
%TO.P,U2,2,GND*%
%TO.N,GND*%
X86640000Y-130785000D03*
%TO.P,U2,3,Vs*%
%TO.N,3V3*%
X86640000Y-128245000D03*
%TD*%
D20*
%TO.N,GND*%
X174550000Y-110520000D03*
X155040000Y-113340000D03*
X163770000Y-110520000D03*
%TO.N,3V3*%
X171740000Y-128950000D03*
X132250000Y-143930000D03*
D21*
X91720000Y-126070000D03*
D20*
%TO.N,D19*%
X162520000Y-126380000D03*
X111930000Y-143520000D03*
%TO.N,D18*%
X113950000Y-136070000D03*
X162540000Y-121300000D03*
%TO.N,D5*%
X120550000Y-135070000D03*
X161800000Y-117500000D03*
%TO.N,D13*%
X129720000Y-119000000D03*
X107910000Y-129330000D03*
%TO.N,D4*%
X86210000Y-114860000D03*
X114110000Y-129520000D03*
%TO.N,D23*%
X171710000Y-123860000D03*
X99230000Y-135900000D03*
%TD*%
D22*
%TO.N,D35*%
X182220000Y-137920000D02*
X182220000Y-125330000D01*
%TO.N,D14*%
X124640000Y-111100000D02*
X124640000Y-114400000D01*
X155060000Y-122260000D02*
X158020000Y-119300000D01*
X158020000Y-111100000D02*
X124640000Y-111100000D01*
X156910000Y-130430000D02*
X155060000Y-128580000D01*
X155060000Y-128580000D02*
X155060000Y-122260000D01*
X158020000Y-119300000D02*
X158020000Y-111100000D01*
%TO.N,D33*%
X114480000Y-111150000D02*
X114480000Y-114400000D01*
X122400000Y-111150000D02*
X114480000Y-111150000D01*
X159630000Y-109850000D02*
X123700000Y-109850000D01*
X159630000Y-129760000D02*
X159630000Y-109850000D01*
X168440000Y-138570000D02*
X159630000Y-129760000D01*
X123700000Y-109850000D02*
X122400000Y-111150000D01*
%TO.N,D35*%
X109400000Y-111650000D02*
X109400000Y-114400000D01*
X112460000Y-108590000D02*
X109400000Y-111650000D01*
X171920000Y-108590000D02*
X112460000Y-108590000D01*
X171920000Y-120450000D02*
X171920000Y-108590000D01*
X177340000Y-120450000D02*
X171920000Y-120450000D01*
X182220000Y-125330000D02*
X177340000Y-120450000D01*
D23*
%TO.N,+3V8*%
X149570000Y-116810000D02*
X134800000Y-116810000D01*
X149570000Y-135090000D02*
X149570000Y-116810000D01*
X156070000Y-138490000D02*
X152670000Y-135090000D01*
X156070000Y-140980000D02*
X156070000Y-138490000D01*
X152670000Y-135090000D02*
X149570000Y-135090000D01*
X134800000Y-116810000D02*
X134800000Y-114400000D01*
D22*
%TO.N,Charger1*%
X106860000Y-114400000D02*
X106860000Y-109380000D01*
X106860000Y-109380000D02*
X106880000Y-109360000D01*
D23*
%TO.N,+3V8*%
X171860000Y-140330000D02*
X174600000Y-140330000D01*
X170760000Y-141430000D02*
X171860000Y-140330000D01*
X159010000Y-141430000D02*
X170760000Y-141430000D01*
D22*
%TO.N,D2*%
X125210000Y-142470000D02*
X127160000Y-142470000D01*
X124390000Y-143290000D02*
X125210000Y-142470000D01*
X124390000Y-146270000D02*
X124390000Y-143290000D01*
X158910000Y-146270000D02*
X124390000Y-146270000D01*
X162150000Y-143030000D02*
X158910000Y-146270000D01*
X169360000Y-143030000D02*
X162150000Y-143030000D01*
X172100000Y-145770000D02*
X169360000Y-143030000D01*
X176990000Y-145770000D02*
X172100000Y-145770000D01*
X176990000Y-142370000D02*
X176990000Y-145770000D01*
X181360000Y-142900000D02*
X180830000Y-142370000D01*
X183180000Y-142900000D02*
X181360000Y-142900000D01*
X180830000Y-142370000D02*
X176990000Y-142370000D01*
X185220000Y-140860000D02*
X183180000Y-142900000D01*
X185220000Y-140350000D02*
X185220000Y-140860000D01*
%TO.N,D35*%
X188000000Y-137920000D02*
X182220000Y-137920000D01*
X188000000Y-142450000D02*
X188000000Y-137920000D01*
X182220000Y-137920000D02*
X182220000Y-140330000D01*
X185960000Y-142450000D02*
X188000000Y-142450000D01*
X183640000Y-144770000D02*
X185960000Y-142450000D01*
X179500000Y-144770000D02*
X183640000Y-144770000D01*
%TO.N,Net-(Q2-C)*%
X190240000Y-144810000D02*
X187160000Y-144810000D01*
X187160000Y-144810000D02*
X187120000Y-144770000D01*
%TO.N,Net-(Q2-B)*%
X192780000Y-140410000D02*
X192840000Y-140350000D01*
X192780000Y-144810000D02*
X192780000Y-140410000D01*
%TO.N,Net-(Q2-C)*%
X190230000Y-144800000D02*
X190240000Y-144810000D01*
%TO.N,Net-(D1-K)*%
X89300000Y-119470000D02*
X89300000Y-121180000D01*
X88750000Y-111300000D02*
X88750000Y-118920000D01*
X88750000Y-118920000D02*
X89300000Y-119470000D01*
D23*
%TO.N,+3V8*%
X158560000Y-140980000D02*
X156070000Y-140980000D01*
X159010000Y-141430000D02*
X158560000Y-140980000D01*
%TO.N,3V3*%
X91720000Y-128245000D02*
X92395000Y-128245000D01*
X166170000Y-128920000D02*
X171710000Y-128920000D01*
X132250000Y-143930000D02*
X134800000Y-143930000D01*
X171710000Y-128920000D02*
X171740000Y-128950000D01*
X92395000Y-128245000D02*
X92655000Y-128505000D01*
X86640000Y-128245000D02*
X91720000Y-128245000D01*
X134800000Y-139800000D02*
X134800000Y-143930000D01*
X89370000Y-123720000D02*
X91720000Y-126070000D01*
X89300000Y-123720000D02*
X89370000Y-123720000D01*
X92655000Y-128505000D02*
X95100000Y-128505000D01*
X91720000Y-126070000D02*
X91720000Y-128245000D01*
D22*
%TO.N,D19*%
X111940000Y-143510000D02*
X111930000Y-143520000D01*
X162520000Y-126380000D02*
X166170000Y-126380000D01*
X111940000Y-139800000D02*
X111940000Y-143510000D01*
%TO.N,D18*%
X114480000Y-137860000D02*
X114480000Y-139800000D01*
X166170000Y-121300000D02*
X162540000Y-121300000D01*
X113950000Y-137330000D02*
X114480000Y-137860000D01*
X113950000Y-136070000D02*
X113950000Y-137330000D01*
%TO.N,D5*%
X120550000Y-137110000D02*
X120560000Y-137120000D01*
X120550000Y-135070000D02*
X120550000Y-137110000D01*
X120560000Y-137120000D02*
X117020000Y-137120000D01*
X117020000Y-137120000D02*
X117020000Y-139800000D01*
X163060000Y-118760000D02*
X166170000Y-118760000D01*
X161800000Y-117500000D02*
X163060000Y-118760000D01*
%TO.N,D13*%
X86640000Y-133325000D02*
X103915000Y-133325000D01*
X129720000Y-119000000D02*
X129720000Y-114400000D01*
X103915000Y-133325000D02*
X107910000Y-129330000D01*
%TO.N,Net-(Q2-C)*%
X186600000Y-145030000D02*
X186590000Y-145020000D01*
%TO.N,D22*%
X101780000Y-139750000D02*
X101780000Y-139800000D01*
X95100000Y-125965000D02*
X96010000Y-125965000D01*
X110040000Y-125960000D02*
X110040000Y-131490000D01*
X110040000Y-131490000D02*
X101780000Y-139750000D01*
X96010000Y-125965000D02*
X96015000Y-125960000D01*
X96015000Y-125960000D02*
X110040000Y-125960000D01*
%TO.N,D21*%
X111620000Y-123425000D02*
X111620000Y-134930000D01*
X111620000Y-134930000D02*
X109400000Y-137150000D01*
X109400000Y-137150000D02*
X109400000Y-139800000D01*
X109410000Y-139790000D02*
X109400000Y-139800000D01*
X95100000Y-123425000D02*
X111620000Y-123425000D01*
%TO.N,D4*%
X117790000Y-129520000D02*
X124630000Y-136360000D01*
X86210000Y-111300000D02*
X86210000Y-114860000D01*
X124630000Y-136360000D02*
X124630000Y-139790000D01*
X114110000Y-129520000D02*
X117790000Y-129520000D01*
X124630000Y-139790000D02*
X124640000Y-139800000D01*
%TO.N,D26*%
X133500000Y-132160000D02*
X127130000Y-132160000D01*
X127130000Y-132160000D02*
X127130000Y-125630000D01*
X127130000Y-125630000D02*
X119560000Y-118060000D01*
X119560000Y-118060000D02*
X119560000Y-114400000D01*
X135240000Y-130420000D02*
X133500000Y-132160000D01*
%TO.N,D25*%
X119280000Y-126730000D02*
X119280000Y-119830000D01*
X119280000Y-119830000D02*
X117070000Y-119830000D01*
X124350000Y-131800000D02*
X119280000Y-126730000D01*
X124390000Y-131800000D02*
X124350000Y-131800000D01*
X117070000Y-119830000D02*
X117070000Y-114450000D01*
X126190000Y-133600000D02*
X124390000Y-131800000D01*
X146070000Y-130430000D02*
X144100000Y-128460000D01*
X138630000Y-128460000D02*
X138630000Y-133600000D01*
X138630000Y-133600000D02*
X126190000Y-133600000D01*
X144100000Y-128460000D02*
X138630000Y-128460000D01*
%TO.N,D2*%
X127180000Y-142470000D02*
X127180000Y-139800000D01*
%TO.N,D27*%
X143780000Y-120560000D02*
X146060000Y-120560000D01*
X122100000Y-114400000D02*
X122100000Y-117080000D01*
X142740000Y-121600000D02*
X143780000Y-120560000D01*
X126620000Y-121600000D02*
X142740000Y-121600000D01*
X122100000Y-117080000D02*
X126620000Y-121600000D01*
%TO.N,D32*%
X116930000Y-121210000D02*
X111940000Y-121210000D01*
X146080000Y-136790000D02*
X138040000Y-136790000D01*
X138040000Y-136790000D02*
X136280000Y-135030000D01*
X136280000Y-135030000D02*
X125180000Y-135030000D01*
X146080000Y-140270000D02*
X146080000Y-136790000D01*
X116960000Y-121240000D02*
X116930000Y-121210000D01*
X116960000Y-126810000D02*
X116960000Y-121240000D01*
X111940000Y-121210000D02*
X111940000Y-114400000D01*
X125180000Y-135030000D02*
X116960000Y-126810000D01*
%TO.N,D23*%
X166170000Y-123840000D02*
X171690000Y-123840000D01*
X99230000Y-135900000D02*
X99230000Y-139790000D01*
X171690000Y-123840000D02*
X171710000Y-123860000D01*
X99230000Y-139790000D02*
X99240000Y-139800000D01*
%TO.N,Charger1*%
X106870000Y-114390000D02*
X106860000Y-114400000D01*
%TO.N,Charger2*%
X129720000Y-139800000D02*
X129720000Y-142440000D01*
X128830000Y-142450000D02*
X126920000Y-144360000D01*
X129710000Y-142450000D02*
X128830000Y-142450000D01*
X129720000Y-142440000D02*
X129710000Y-142450000D01*
%TD*%
%TA.AperFunction,Conductor*%
%TO.N,GND*%
G36*
X141212793Y-111864968D02*
G01*
X141257356Y-111904997D01*
X141277955Y-111961245D01*
X141269783Y-112020586D01*
X141234747Y-112069173D01*
X141181023Y-112095666D01*
X140995097Y-112136111D01*
X140727043Y-112236090D01*
X140543448Y-112336339D01*
X140543448Y-112336341D01*
X141560000Y-113352893D01*
X141560001Y-113352893D01*
X142576550Y-112336341D01*
X142576550Y-112336340D01*
X142392952Y-112236088D01*
X142124902Y-112136111D01*
X141938977Y-112095666D01*
X141885253Y-112069173D01*
X141850217Y-112020586D01*
X141842045Y-111961245D01*
X141862644Y-111904997D01*
X141907207Y-111864968D01*
X141965335Y-111850500D01*
X157145500Y-111850500D01*
X157207500Y-111867113D01*
X157252887Y-111912500D01*
X157269500Y-111974500D01*
X157269500Y-118937770D01*
X157260061Y-118985223D01*
X157233181Y-119025451D01*
X154574358Y-121684272D01*
X154560727Y-121696053D01*
X154541467Y-121710392D01*
X154509633Y-121748329D01*
X154502341Y-121756289D01*
X154498408Y-121760222D01*
X154479176Y-121784545D01*
X154476902Y-121787337D01*
X154427894Y-121845744D01*
X154417418Y-121862187D01*
X154385192Y-121931294D01*
X154383622Y-121934536D01*
X154349393Y-122002692D01*
X154342996Y-122021098D01*
X154327573Y-122095788D01*
X154326793Y-122099305D01*
X154309208Y-122173505D01*
X154307229Y-122192878D01*
X154309448Y-122269131D01*
X154309500Y-122272737D01*
X154309500Y-122795627D01*
X154298294Y-122847138D01*
X154266703Y-122889340D01*
X154220435Y-122914604D01*
X154167853Y-122918365D01*
X154133657Y-122913448D01*
X153117107Y-123930000D01*
X153117107Y-123930001D01*
X154133657Y-124946550D01*
X154167853Y-124941634D01*
X154220435Y-124945395D01*
X154266703Y-124970659D01*
X154298294Y-125012861D01*
X154309500Y-125064372D01*
X154309500Y-128516294D01*
X154308191Y-128534264D01*
X154304711Y-128558023D01*
X154309028Y-128607369D01*
X154309500Y-128618176D01*
X154309500Y-128623708D01*
X154313098Y-128654496D01*
X154313464Y-128658081D01*
X154320110Y-128734041D01*
X154324329Y-128753071D01*
X154324758Y-128754251D01*
X154324759Y-128754255D01*
X154350413Y-128824742D01*
X154351582Y-128828107D01*
X154375580Y-128900524D01*
X154384075Y-128918072D01*
X154425979Y-128981784D01*
X154427889Y-128984782D01*
X154467288Y-129048656D01*
X154467952Y-129049732D01*
X154480253Y-129064830D01*
X154481168Y-129065693D01*
X154481170Y-129065696D01*
X154524528Y-129106602D01*
X154535708Y-129117150D01*
X154538295Y-129119663D01*
X155010222Y-129591590D01*
X155043707Y-129652912D01*
X155038723Y-129722603D01*
X154985631Y-129864952D01*
X154924804Y-130144570D01*
X154904389Y-130429999D01*
X154924804Y-130715429D01*
X154985629Y-130995041D01*
X154985631Y-130995046D01*
X155079289Y-131246153D01*
X155085634Y-131263163D01*
X155222772Y-131514313D01*
X155245744Y-131545000D01*
X155394261Y-131743395D01*
X155596605Y-131945739D01*
X155730994Y-132046341D01*
X155825686Y-132117227D01*
X155956455Y-132188632D01*
X156076839Y-132254367D01*
X156344954Y-132354369D01*
X156344957Y-132354369D01*
X156344958Y-132354370D01*
X156378153Y-132361591D01*
X156624572Y-132415196D01*
X156910000Y-132435610D01*
X157195428Y-132415196D01*
X157475046Y-132354369D01*
X157743161Y-132254367D01*
X157994315Y-132117226D01*
X158223395Y-131945739D01*
X158425739Y-131743395D01*
X158597226Y-131514315D01*
X158734367Y-131263161D01*
X158834369Y-130995046D01*
X158895196Y-130715428D01*
X158915610Y-130430000D01*
X158914444Y-130413704D01*
X158924608Y-130354965D01*
X158961011Y-130307755D01*
X159015239Y-130282989D01*
X159074757Y-130286392D01*
X159125809Y-130317177D01*
X162873631Y-134064999D01*
X166578255Y-137769622D01*
X166611740Y-137830945D01*
X166606756Y-137900636D01*
X166515630Y-138144955D01*
X166454804Y-138424570D01*
X166434389Y-138709999D01*
X166454804Y-138995429D01*
X166515629Y-139275041D01*
X166535926Y-139329460D01*
X166612161Y-139533853D01*
X166615634Y-139543163D01*
X166752772Y-139794313D01*
X166834099Y-139902953D01*
X166924261Y-140023395D01*
X166924262Y-140023396D01*
X166924263Y-140023397D01*
X167118685Y-140217819D01*
X167148935Y-140267182D01*
X167153477Y-140324898D01*
X167131322Y-140378385D01*
X167087299Y-140415985D01*
X167031004Y-140429500D01*
X159475782Y-140429500D01*
X159428329Y-140420061D01*
X159388101Y-140393181D01*
X159277566Y-140282646D01*
X159275373Y-140280397D01*
X159215059Y-140216946D01*
X159166642Y-140183247D01*
X159159119Y-140177575D01*
X159113405Y-140140300D01*
X159086440Y-140126215D01*
X159073019Y-140118084D01*
X159048049Y-140100705D01*
X159048048Y-140100704D01*
X159048046Y-140100703D01*
X158993845Y-140077443D01*
X158985336Y-140073402D01*
X158933053Y-140046092D01*
X158927126Y-140044396D01*
X158903798Y-140037721D01*
X158889020Y-140032459D01*
X158861058Y-140020460D01*
X158803272Y-140008583D01*
X158794128Y-140006338D01*
X158737421Y-139990113D01*
X158707075Y-139987802D01*
X158691534Y-139985622D01*
X158661742Y-139979500D01*
X158661741Y-139979500D01*
X158602758Y-139979500D01*
X158593344Y-139979142D01*
X158562653Y-139976805D01*
X158534524Y-139974663D01*
X158534523Y-139974663D01*
X158504349Y-139978506D01*
X158488683Y-139979500D01*
X157636488Y-139979500D01*
X157589035Y-139970061D01*
X157548807Y-139943181D01*
X157521927Y-139902953D01*
X157500466Y-139851141D01*
X157368836Y-139636341D01*
X157205224Y-139444776D01*
X157205222Y-139444774D01*
X157205221Y-139444773D01*
X157113969Y-139366837D01*
X157081890Y-139324461D01*
X157070500Y-139272547D01*
X157070500Y-138760937D01*
X162935630Y-138760937D01*
X162966443Y-138962071D01*
X163037113Y-139152886D01*
X163144745Y-139325568D01*
X163144748Y-139325571D01*
X163284941Y-139473053D01*
X163451951Y-139589295D01*
X163638942Y-139669540D01*
X163838259Y-139710500D01*
X163990740Y-139710500D01*
X163990742Y-139710500D01*
X164142438Y-139695074D01*
X164336588Y-139634159D01*
X164514502Y-139535409D01*
X164668895Y-139402866D01*
X164793448Y-139241958D01*
X164883060Y-139059271D01*
X164934063Y-138862285D01*
X164944369Y-138659064D01*
X164932681Y-138582772D01*
X164913556Y-138457928D01*
X164842886Y-138267113D01*
X164735254Y-138094431D01*
X164720699Y-138079119D01*
X164595059Y-137946947D01*
X164428049Y-137830705D01*
X164241058Y-137750460D01*
X164041741Y-137709500D01*
X163889258Y-137709500D01*
X163841820Y-137714324D01*
X163737559Y-137724926D01*
X163543412Y-137785841D01*
X163365500Y-137884589D01*
X163211104Y-138017135D01*
X163086551Y-138178042D01*
X162996940Y-138360727D01*
X162945937Y-138557716D01*
X162935630Y-138760937D01*
X157070500Y-138760937D01*
X157070500Y-138504262D01*
X157070540Y-138501120D01*
X157072757Y-138413637D01*
X157062350Y-138355574D01*
X157061041Y-138346242D01*
X157055074Y-138287562D01*
X157045962Y-138258520D01*
X157042226Y-138243297D01*
X157036858Y-138213347D01*
X157026152Y-138186546D01*
X157014976Y-138158566D01*
X157011816Y-138149689D01*
X156994159Y-138093412D01*
X156979395Y-138066812D01*
X156972660Y-138052631D01*
X156968511Y-138042244D01*
X156961377Y-138024383D01*
X156928917Y-137975131D01*
X156924036Y-137967074D01*
X156914381Y-137949679D01*
X156895409Y-137915498D01*
X156875582Y-137892403D01*
X156866146Y-137879888D01*
X156849402Y-137854481D01*
X156849400Y-137854479D01*
X156849399Y-137854477D01*
X156807693Y-137812772D01*
X156801287Y-137805860D01*
X156762864Y-137761102D01*
X156738804Y-137742478D01*
X156727026Y-137732105D01*
X153387567Y-134392647D01*
X153385412Y-134390438D01*
X153325059Y-134326947D01*
X153276640Y-134293246D01*
X153269118Y-134287575D01*
X153223405Y-134250300D01*
X153196440Y-134236215D01*
X153183019Y-134228084D01*
X153158049Y-134210705D01*
X153158048Y-134210704D01*
X153158046Y-134210703D01*
X153103845Y-134187443D01*
X153095336Y-134183402D01*
X153043053Y-134156092D01*
X153035224Y-134153852D01*
X153013798Y-134147721D01*
X152999020Y-134142459D01*
X152971058Y-134130460D01*
X152913272Y-134118583D01*
X152904128Y-134116338D01*
X152847421Y-134100113D01*
X152817075Y-134097802D01*
X152801534Y-134095622D01*
X152771742Y-134089500D01*
X152771741Y-134089500D01*
X152712758Y-134089500D01*
X152703344Y-134089142D01*
X152694198Y-134088445D01*
X152644524Y-134084663D01*
X152644523Y-134084663D01*
X152614349Y-134088506D01*
X152598683Y-134089500D01*
X150694500Y-134089500D01*
X150632500Y-134072887D01*
X150587113Y-134027500D01*
X150570500Y-133965500D01*
X150570500Y-130480937D01*
X151405630Y-130480937D01*
X151436443Y-130682071D01*
X151507113Y-130872886D01*
X151614745Y-131045568D01*
X151614748Y-131045571D01*
X151754941Y-131193053D01*
X151921951Y-131309295D01*
X152108942Y-131389540D01*
X152308259Y-131430500D01*
X152460740Y-131430500D01*
X152460742Y-131430500D01*
X152612438Y-131415074D01*
X152806588Y-131354159D01*
X152984502Y-131255409D01*
X153138895Y-131122866D01*
X153263448Y-130961958D01*
X153353060Y-130779271D01*
X153404063Y-130582285D01*
X153414369Y-130379064D01*
X153411982Y-130363484D01*
X153383556Y-130177928D01*
X153312886Y-129987113D01*
X153205254Y-129814431D01*
X153168450Y-129775714D01*
X153065059Y-129666947D01*
X152898049Y-129550705D01*
X152711058Y-129470460D01*
X152511741Y-129429500D01*
X152359258Y-129429500D01*
X152305900Y-129434926D01*
X152207559Y-129444926D01*
X152013412Y-129505841D01*
X151835500Y-129604589D01*
X151835497Y-129604591D01*
X151835498Y-129604591D01*
X151686641Y-129732382D01*
X151681104Y-129737135D01*
X151556551Y-129898042D01*
X151466940Y-130080727D01*
X151415937Y-130277716D01*
X151405630Y-130480937D01*
X150570500Y-130480937D01*
X150570500Y-125653657D01*
X151393448Y-125653657D01*
X151577045Y-125753909D01*
X151845100Y-125853889D01*
X152124642Y-125914699D01*
X152410000Y-125935109D01*
X152695357Y-125914699D01*
X152974899Y-125853889D01*
X153242954Y-125753909D01*
X153426550Y-125653658D01*
X153426550Y-125653657D01*
X152410000Y-124637107D01*
X151393448Y-125653657D01*
X150570500Y-125653657D01*
X150570500Y-125072999D01*
X150590184Y-125005960D01*
X150642988Y-124960205D01*
X150677674Y-124955217D01*
X151702893Y-123930001D01*
X151702893Y-123930000D01*
X150677674Y-122904781D01*
X150642988Y-122899794D01*
X150590184Y-122854039D01*
X150570500Y-122787000D01*
X150570500Y-122206341D01*
X151393448Y-122206341D01*
X152410000Y-123222893D01*
X152410001Y-123222893D01*
X153426550Y-122206341D01*
X153426550Y-122206340D01*
X153242952Y-122106088D01*
X152974902Y-122006111D01*
X152695357Y-121945300D01*
X152410000Y-121924890D01*
X152124642Y-121945300D01*
X151845097Y-122006111D01*
X151577043Y-122106090D01*
X151393448Y-122206339D01*
X151393448Y-122206341D01*
X150570500Y-122206341D01*
X150570500Y-116838501D01*
X150570659Y-116832220D01*
X150574369Y-116759063D01*
X150563278Y-116686669D01*
X150562484Y-116680435D01*
X150555074Y-116607562D01*
X150550249Y-116592186D01*
X150545994Y-116573849D01*
X150543556Y-116557929D01*
X150518105Y-116489209D01*
X150516102Y-116483350D01*
X150494159Y-116413412D01*
X150486342Y-116399328D01*
X150478480Y-116382217D01*
X150472886Y-116367113D01*
X150434139Y-116304949D01*
X150430951Y-116299534D01*
X150395409Y-116235498D01*
X150392773Y-116232428D01*
X150384918Y-116223278D01*
X150373773Y-116208100D01*
X150365252Y-116194429D01*
X150314788Y-116141341D01*
X150310577Y-116136680D01*
X150262867Y-116081106D01*
X150262233Y-116080615D01*
X150250126Y-116071243D01*
X150236164Y-116058629D01*
X150225059Y-116046947D01*
X150164933Y-116005098D01*
X150159872Y-116001381D01*
X150101958Y-115956551D01*
X150087492Y-115949455D01*
X150071272Y-115939907D01*
X150058050Y-115930705D01*
X149990746Y-115901822D01*
X149985039Y-115899200D01*
X149919269Y-115866938D01*
X149903682Y-115862903D01*
X149885863Y-115856813D01*
X149871057Y-115850459D01*
X149799316Y-115835717D01*
X149793195Y-115834297D01*
X149722284Y-115815936D01*
X149706190Y-115815120D01*
X149687521Y-115812742D01*
X149671741Y-115809500D01*
X149598501Y-115809500D01*
X149592221Y-115809341D01*
X149589669Y-115809211D01*
X149519064Y-115805630D01*
X149504559Y-115807853D01*
X149503142Y-115808070D01*
X149484365Y-115809500D01*
X142653755Y-115809500D01*
X142606302Y-115800061D01*
X142566074Y-115773181D01*
X141560000Y-114767107D01*
X140553925Y-115773181D01*
X140513697Y-115800061D01*
X140466244Y-115809500D01*
X136387936Y-115809500D01*
X136332623Y-115796480D01*
X136288926Y-115760153D01*
X136266022Y-115708149D01*
X136268719Y-115651390D01*
X136289886Y-115577418D01*
X136300500Y-115458037D01*
X136300499Y-114060000D01*
X139554890Y-114060000D01*
X139575300Y-114345357D01*
X139636111Y-114624902D01*
X139736088Y-114892952D01*
X139836341Y-115076550D01*
X140852893Y-114060001D01*
X142267107Y-114060001D01*
X143283657Y-115076550D01*
X143283658Y-115076550D01*
X143383909Y-114892954D01*
X143483889Y-114624899D01*
X143544699Y-114345357D01*
X143561466Y-114110937D01*
X145055630Y-114110937D01*
X145086443Y-114312071D01*
X145157113Y-114502886D01*
X145264745Y-114675568D01*
X145264748Y-114675571D01*
X145404941Y-114823053D01*
X145571951Y-114939295D01*
X145758942Y-115019540D01*
X145958259Y-115060500D01*
X146110740Y-115060500D01*
X146110742Y-115060500D01*
X146262438Y-115045074D01*
X146456588Y-114984159D01*
X146634502Y-114885409D01*
X146788895Y-114752866D01*
X146913448Y-114591958D01*
X147003060Y-114409271D01*
X147054063Y-114212285D01*
X147064369Y-114009064D01*
X147060559Y-113984197D01*
X147033556Y-113807928D01*
X146962886Y-113617113D01*
X146855254Y-113444431D01*
X146827207Y-113414926D01*
X146715059Y-113296947D01*
X146548049Y-113180705D01*
X146361058Y-113100460D01*
X146161741Y-113059500D01*
X146009258Y-113059500D01*
X145956972Y-113064817D01*
X145857559Y-113074926D01*
X145663412Y-113135841D01*
X145485500Y-113234589D01*
X145485497Y-113234591D01*
X145485498Y-113234591D01*
X145360426Y-113341963D01*
X145331104Y-113367135D01*
X145206551Y-113528042D01*
X145116940Y-113710727D01*
X145065937Y-113907716D01*
X145055630Y-114110937D01*
X143561466Y-114110937D01*
X143565109Y-114060000D01*
X143544699Y-113774642D01*
X143483889Y-113495100D01*
X143383909Y-113227045D01*
X143283657Y-113043448D01*
X142267107Y-114060000D01*
X142267107Y-114060001D01*
X140852893Y-114060001D01*
X140852893Y-114059999D01*
X139836341Y-113043448D01*
X139836339Y-113043448D01*
X139736090Y-113227043D01*
X139636111Y-113495097D01*
X139575300Y-113774642D01*
X139554890Y-114060000D01*
X136300499Y-114060000D01*
X136300499Y-113341964D01*
X136289886Y-113222582D01*
X136233909Y-113026951D01*
X136139698Y-112846593D01*
X136011109Y-112688891D01*
X135853926Y-112560725D01*
X135853406Y-112560301D01*
X135673050Y-112466091D01*
X135552564Y-112431616D01*
X135477418Y-112410114D01*
X135358037Y-112399500D01*
X135358033Y-112399500D01*
X134241966Y-112399500D01*
X134122582Y-112410114D01*
X133926949Y-112466091D01*
X133746593Y-112560301D01*
X133607964Y-112673339D01*
X133557633Y-112698027D01*
X133501573Y-112698027D01*
X133451242Y-112673338D01*
X133313135Y-112560725D01*
X133132862Y-112466557D01*
X132937329Y-112410609D01*
X132818000Y-112400000D01*
X132760000Y-112400000D01*
X132760000Y-116400000D01*
X132818000Y-116400000D01*
X132937329Y-116389390D01*
X133132862Y-116333442D01*
X133313135Y-116239274D01*
X133451242Y-116126662D01*
X133501572Y-116101973D01*
X133557633Y-116101973D01*
X133607964Y-116126661D01*
X133746075Y-116239276D01*
X133753861Y-116245624D01*
X133787511Y-116288532D01*
X133799500Y-116341726D01*
X133799500Y-116781500D01*
X133799341Y-116787779D01*
X133795631Y-116860937D01*
X133806720Y-116933324D01*
X133807514Y-116939554D01*
X133814926Y-117012440D01*
X133819749Y-117027812D01*
X133824003Y-117046143D01*
X133826444Y-117062071D01*
X133826445Y-117062073D01*
X133851882Y-117130759D01*
X133853911Y-117136696D01*
X133875841Y-117206588D01*
X133883659Y-117220674D01*
X133891518Y-117237779D01*
X133897112Y-117252884D01*
X133935864Y-117315055D01*
X133939051Y-117320470D01*
X133974591Y-117384502D01*
X133985076Y-117396715D01*
X133996224Y-117411896D01*
X134004747Y-117425571D01*
X134055220Y-117478668D01*
X134059431Y-117483329D01*
X134073742Y-117499999D01*
X134107134Y-117538895D01*
X134119874Y-117548756D01*
X134133840Y-117561375D01*
X134138299Y-117566066D01*
X134144942Y-117573054D01*
X134205050Y-117614890D01*
X134210116Y-117618610D01*
X134268037Y-117663445D01*
X134268040Y-117663446D01*
X134268042Y-117663448D01*
X134282509Y-117670544D01*
X134298733Y-117680095D01*
X134311949Y-117689294D01*
X134311950Y-117689294D01*
X134311951Y-117689295D01*
X134379263Y-117718181D01*
X134384962Y-117720800D01*
X134450727Y-117753060D01*
X134466311Y-117757094D01*
X134484136Y-117763186D01*
X134498942Y-117769540D01*
X134498945Y-117769540D01*
X134498946Y-117769541D01*
X134525887Y-117775076D01*
X134570700Y-117784285D01*
X134576779Y-117785695D01*
X134647715Y-117804063D01*
X134663807Y-117804879D01*
X134682483Y-117807258D01*
X134698258Y-117810500D01*
X134698259Y-117810500D01*
X134771499Y-117810500D01*
X134777778Y-117810658D01*
X134802842Y-117811930D01*
X134850935Y-117814369D01*
X134850935Y-117814368D01*
X134850936Y-117814369D01*
X134866857Y-117811929D01*
X134885635Y-117810500D01*
X148445500Y-117810500D01*
X148507500Y-117827113D01*
X148552887Y-117872500D01*
X148569500Y-117934500D01*
X148569500Y-135061500D01*
X148569341Y-135067779D01*
X148565631Y-135140937D01*
X148576720Y-135213324D01*
X148577514Y-135219554D01*
X148584926Y-135292440D01*
X148589749Y-135307812D01*
X148594003Y-135326143D01*
X148596444Y-135342071D01*
X148596445Y-135342073D01*
X148621882Y-135410759D01*
X148623911Y-135416696D01*
X148645841Y-135486588D01*
X148653659Y-135500674D01*
X148661518Y-135517779D01*
X148667112Y-135532884D01*
X148667114Y-135532887D01*
X148705149Y-135593909D01*
X148705864Y-135595055D01*
X148709045Y-135600460D01*
X148730087Y-135638370D01*
X148744591Y-135664502D01*
X148755076Y-135676715D01*
X148766224Y-135691896D01*
X148774747Y-135705571D01*
X148825220Y-135758668D01*
X148829431Y-135763329D01*
X148877132Y-135818893D01*
X148877134Y-135818895D01*
X148889874Y-135828756D01*
X148903842Y-135841377D01*
X148914942Y-135853054D01*
X148975050Y-135894890D01*
X148980116Y-135898610D01*
X149038037Y-135943445D01*
X149038040Y-135943446D01*
X149038042Y-135943448D01*
X149052509Y-135950544D01*
X149068733Y-135960095D01*
X149081949Y-135969294D01*
X149081950Y-135969294D01*
X149081951Y-135969295D01*
X149149263Y-135998181D01*
X149154962Y-136000800D01*
X149220727Y-136033060D01*
X149236311Y-136037094D01*
X149254136Y-136043186D01*
X149268942Y-136049540D01*
X149268945Y-136049540D01*
X149268946Y-136049541D01*
X149295887Y-136055076D01*
X149340700Y-136064285D01*
X149346779Y-136065695D01*
X149417715Y-136084063D01*
X149433807Y-136084879D01*
X149452483Y-136087258D01*
X149468258Y-136090500D01*
X149468259Y-136090500D01*
X149541499Y-136090500D01*
X149547778Y-136090658D01*
X149572842Y-136091930D01*
X149620935Y-136094369D01*
X149620935Y-136094368D01*
X149620936Y-136094369D01*
X149636857Y-136091929D01*
X149655635Y-136090500D01*
X152204217Y-136090500D01*
X152251670Y-136099939D01*
X152291898Y-136126819D01*
X155033181Y-138868101D01*
X155060061Y-138908329D01*
X155069500Y-138955782D01*
X155069500Y-139272547D01*
X155058110Y-139324461D01*
X155026033Y-139366835D01*
X154980363Y-139405841D01*
X154934775Y-139444776D01*
X154893961Y-139492563D01*
X154851584Y-139524641D01*
X154799670Y-139536031D01*
X154747757Y-139524641D01*
X154705381Y-139492563D01*
X154664869Y-139445130D01*
X154473364Y-139281569D01*
X154258632Y-139149982D01*
X154030000Y-139055279D01*
X154030000Y-142904720D01*
X154258632Y-142810017D01*
X154473364Y-142678430D01*
X154664868Y-142514870D01*
X154705380Y-142467437D01*
X154747756Y-142435359D01*
X154799670Y-142423968D01*
X154851584Y-142435358D01*
X154893961Y-142467436D01*
X154934776Y-142515224D01*
X155126341Y-142678836D01*
X155341141Y-142810466D01*
X155573889Y-142906873D01*
X155818852Y-142965683D01*
X156070000Y-142985449D01*
X156321148Y-142965683D01*
X156566111Y-142906873D01*
X156798859Y-142810466D01*
X157013659Y-142678836D01*
X157205224Y-142515224D01*
X157368836Y-142323659D01*
X157500466Y-142108859D01*
X157521927Y-142057046D01*
X157548807Y-142016819D01*
X157589035Y-141989939D01*
X157636488Y-141980500D01*
X158094218Y-141980500D01*
X158141671Y-141989939D01*
X158181899Y-142016819D01*
X158292432Y-142127352D01*
X158294625Y-142129601D01*
X158354942Y-142193054D01*
X158403362Y-142226755D01*
X158410871Y-142232416D01*
X158456593Y-142269698D01*
X158483562Y-142283785D01*
X158496982Y-142291916D01*
X158521949Y-142309294D01*
X158521950Y-142309294D01*
X158521951Y-142309295D01*
X158560913Y-142326015D01*
X158576163Y-142332559D01*
X158584673Y-142336601D01*
X158636951Y-142363909D01*
X158666200Y-142372277D01*
X158680970Y-142377535D01*
X158708942Y-142389540D01*
X158708945Y-142389540D01*
X158708946Y-142389541D01*
X158766726Y-142401414D01*
X158775869Y-142403657D01*
X158832582Y-142419886D01*
X158862920Y-142422196D01*
X158878448Y-142424373D01*
X158908259Y-142430500D01*
X158967244Y-142430500D01*
X158976659Y-142430858D01*
X158980806Y-142431173D01*
X159035476Y-142435337D01*
X159062278Y-142431923D01*
X159065652Y-142431494D01*
X159081317Y-142430500D01*
X161388770Y-142430500D01*
X161445065Y-142444015D01*
X161489088Y-142481615D01*
X161511243Y-142535102D01*
X161506701Y-142592818D01*
X161476451Y-142642181D01*
X158635451Y-145483181D01*
X158595223Y-145510061D01*
X158547770Y-145519500D01*
X133426484Y-145519500D01*
X133369364Y-145505561D01*
X133325087Y-145466877D01*
X133303606Y-145412145D01*
X133309752Y-145353671D01*
X133342142Y-145304602D01*
X133480182Y-145176519D01*
X133536805Y-145123981D01*
X133653869Y-144977186D01*
X133697014Y-144942780D01*
X133750816Y-144930500D01*
X134771499Y-144930500D01*
X134777778Y-144930658D01*
X134850936Y-144934369D01*
X134923339Y-144923276D01*
X134929557Y-144922484D01*
X135002438Y-144915074D01*
X135017801Y-144910253D01*
X135036150Y-144905995D01*
X135043372Y-144904888D01*
X135052071Y-144903556D01*
X135120777Y-144878109D01*
X135126672Y-144876094D01*
X135196588Y-144854159D01*
X135210674Y-144846339D01*
X135227781Y-144838479D01*
X135242887Y-144832886D01*
X135305056Y-144794134D01*
X135310450Y-144790959D01*
X135374502Y-144755409D01*
X135386720Y-144744918D01*
X135401898Y-144733773D01*
X135415571Y-144725252D01*
X135468692Y-144674755D01*
X135473328Y-144670568D01*
X135528895Y-144622866D01*
X135538752Y-144610131D01*
X135551375Y-144596159D01*
X135553195Y-144594429D01*
X135563053Y-144585059D01*
X135604939Y-144524877D01*
X135608577Y-144519924D01*
X135653448Y-144461958D01*
X135660546Y-144447485D01*
X135670093Y-144431268D01*
X135679295Y-144418049D01*
X135708186Y-144350722D01*
X135710791Y-144345054D01*
X135743060Y-144279271D01*
X135747096Y-144263680D01*
X135753186Y-144245861D01*
X135759540Y-144231058D01*
X135774288Y-144159287D01*
X135775694Y-144153222D01*
X135794063Y-144082285D01*
X135794879Y-144066193D01*
X135797258Y-144047516D01*
X135800500Y-144031742D01*
X135800500Y-143958501D01*
X135800659Y-143952220D01*
X135804369Y-143879064D01*
X135801930Y-143863144D01*
X135800500Y-143844365D01*
X135800500Y-141741726D01*
X135812489Y-141688532D01*
X135846139Y-141645624D01*
X135853407Y-141639698D01*
X136011109Y-141511109D01*
X136139698Y-141353407D01*
X136233909Y-141173049D01*
X136289886Y-140977418D01*
X136300500Y-140858037D01*
X136300500Y-140320937D01*
X140575630Y-140320937D01*
X140606443Y-140522071D01*
X140677113Y-140712886D01*
X140784745Y-140885568D01*
X140784748Y-140885571D01*
X140924941Y-141033053D01*
X141091951Y-141149295D01*
X141278942Y-141229540D01*
X141478259Y-141270500D01*
X141630740Y-141270500D01*
X141630742Y-141270500D01*
X141782438Y-141255074D01*
X141976588Y-141194159D01*
X142154502Y-141095409D01*
X142308895Y-140962866D01*
X142433448Y-140801958D01*
X142523060Y-140619271D01*
X142574063Y-140422285D01*
X142584369Y-140219064D01*
X142584178Y-140217819D01*
X142553556Y-140017928D01*
X142482886Y-139827113D01*
X142375254Y-139654431D01*
X142355983Y-139634158D01*
X142235059Y-139506947D01*
X142068049Y-139390705D01*
X141881058Y-139310460D01*
X141681741Y-139269500D01*
X141529258Y-139269500D01*
X141474769Y-139275041D01*
X141377559Y-139284926D01*
X141183412Y-139345841D01*
X141005500Y-139444589D01*
X140851104Y-139577135D01*
X140726551Y-139738042D01*
X140636940Y-139920727D01*
X140585937Y-140117716D01*
X140575630Y-140320937D01*
X136300500Y-140320937D01*
X136300499Y-138741964D01*
X136289886Y-138622582D01*
X136233909Y-138426951D01*
X136139698Y-138246593D01*
X136011109Y-138088891D01*
X135871595Y-137975132D01*
X135853406Y-137960301D01*
X135673050Y-137866091D01*
X135552564Y-137831616D01*
X135477418Y-137810114D01*
X135358037Y-137799500D01*
X135358033Y-137799500D01*
X134241966Y-137799500D01*
X134122582Y-137810114D01*
X133926949Y-137866091D01*
X133746593Y-137960301D01*
X133607964Y-138073339D01*
X133557633Y-138098027D01*
X133501573Y-138098027D01*
X133451242Y-138073338D01*
X133313135Y-137960725D01*
X133132862Y-137866557D01*
X132937329Y-137810609D01*
X132818000Y-137800000D01*
X132760000Y-137800000D01*
X132760000Y-141800000D01*
X132818000Y-141800000D01*
X132937329Y-141789390D01*
X133132862Y-141733442D01*
X133313135Y-141639274D01*
X133451242Y-141526662D01*
X133501572Y-141501973D01*
X133557633Y-141501973D01*
X133607964Y-141526661D01*
X133746075Y-141639276D01*
X133753861Y-141645624D01*
X133787511Y-141688532D01*
X133799500Y-141741726D01*
X133799500Y-142711057D01*
X133784694Y-142769817D01*
X133743811Y-142814544D01*
X133686615Y-142834558D01*
X133626765Y-142825078D01*
X133578554Y-142788371D01*
X133536805Y-142736019D01*
X133528321Y-142728147D01*
X133344485Y-142557571D01*
X133298905Y-142526495D01*
X133127704Y-142409772D01*
X132891323Y-142295937D01*
X132640615Y-142218604D01*
X132381182Y-142179500D01*
X132118818Y-142179500D01*
X131859385Y-142218604D01*
X131608677Y-142295937D01*
X131372296Y-142409772D01*
X131311576Y-142451170D01*
X131155514Y-142557571D01*
X130963198Y-142736015D01*
X130799613Y-142941143D01*
X130668431Y-143168358D01*
X130572580Y-143412581D01*
X130514197Y-143668372D01*
X130494591Y-143929999D01*
X130514197Y-144191627D01*
X130572580Y-144447418D01*
X130668431Y-144691641D01*
X130799613Y-144918856D01*
X130963195Y-145123981D01*
X131157858Y-145304602D01*
X131190248Y-145353671D01*
X131196394Y-145412145D01*
X131174913Y-145466877D01*
X131130636Y-145505561D01*
X131073516Y-145519500D01*
X128908950Y-145519500D01*
X128848087Y-145503536D01*
X128802896Y-145459753D01*
X128785012Y-145399427D01*
X128799041Y-145338089D01*
X128834346Y-145270500D01*
X128853909Y-145233049D01*
X128909886Y-145037418D01*
X128920500Y-144918037D01*
X128920499Y-143801964D01*
X128909886Y-143682582D01*
X128874101Y-143557521D01*
X128873277Y-143492329D01*
X128905634Y-143435733D01*
X129104551Y-143236816D01*
X129144778Y-143209939D01*
X129192230Y-143200500D01*
X129646294Y-143200500D01*
X129664264Y-143201809D01*
X129667358Y-143202262D01*
X129688023Y-143205289D01*
X129737368Y-143200972D01*
X129748176Y-143200500D01*
X129753706Y-143200500D01*
X129753709Y-143200500D01*
X129784550Y-143196894D01*
X129788031Y-143196539D01*
X129862797Y-143189999D01*
X129862797Y-143189998D01*
X129864052Y-143189889D01*
X129883062Y-143185674D01*
X129884250Y-143185241D01*
X129884255Y-143185241D01*
X129954820Y-143159557D01*
X129958095Y-143158419D01*
X130029334Y-143134814D01*
X130029336Y-143134812D01*
X130030536Y-143134415D01*
X130048064Y-143125929D01*
X130049115Y-143125237D01*
X130049117Y-143125237D01*
X130083601Y-143102555D01*
X130095261Y-143096268D01*
X130097797Y-143094380D01*
X130097804Y-143094377D01*
X130107536Y-143087130D01*
X130116444Y-143081083D01*
X130178656Y-143042712D01*
X130178660Y-143042707D01*
X130179733Y-143042046D01*
X130194819Y-143029758D01*
X130195694Y-143028831D01*
X130195696Y-143028830D01*
X130211489Y-143012089D01*
X130227638Y-142997718D01*
X130238530Y-142989610D01*
X130270380Y-142951651D01*
X130277668Y-142943697D01*
X130281590Y-142939777D01*
X130287948Y-142931734D01*
X130295025Y-142923546D01*
X130310756Y-142906873D01*
X130316092Y-142901218D01*
X130318145Y-142897660D01*
X130330545Y-142879949D01*
X130351302Y-142855214D01*
X130351303Y-142855210D01*
X130352119Y-142854239D01*
X130362575Y-142837825D01*
X130363109Y-142836679D01*
X130363111Y-142836677D01*
X130394816Y-142768682D01*
X130396369Y-142765475D01*
X130430040Y-142698433D01*
X130430040Y-142698429D01*
X130430610Y-142697296D01*
X130436999Y-142678917D01*
X130437256Y-142677673D01*
X130452431Y-142604171D01*
X130453186Y-142600767D01*
X130470500Y-142527721D01*
X130470500Y-142527719D01*
X130470790Y-142526495D01*
X130472769Y-142507123D01*
X130472732Y-142505859D01*
X130472733Y-142505856D01*
X130470552Y-142430889D01*
X130470500Y-142427284D01*
X130470500Y-141862470D01*
X130481825Y-141810699D01*
X130513730Y-141768384D01*
X130560387Y-141743254D01*
X130593049Y-141733909D01*
X130773407Y-141639698D01*
X130912037Y-141526659D01*
X130962366Y-141501973D01*
X131018426Y-141501973D01*
X131068757Y-141526661D01*
X131206868Y-141639276D01*
X131387137Y-141733442D01*
X131582670Y-141789390D01*
X131702000Y-141800000D01*
X131760000Y-141800000D01*
X131760000Y-137800000D01*
X131702000Y-137800000D01*
X131582670Y-137810609D01*
X131387137Y-137866557D01*
X131206867Y-137960723D01*
X131068757Y-138073338D01*
X131018426Y-138098026D01*
X130962366Y-138098026D01*
X130912035Y-138073338D01*
X130773406Y-137960301D01*
X130593050Y-137866091D01*
X130472564Y-137831616D01*
X130397418Y-137810114D01*
X130278037Y-137799500D01*
X130278033Y-137799500D01*
X129161966Y-137799500D01*
X129042582Y-137810114D01*
X128846949Y-137866091D01*
X128666593Y-137960301D01*
X128596894Y-138017134D01*
X128528358Y-138073017D01*
X128478030Y-138097704D01*
X128421970Y-138097704D01*
X128371641Y-138073017D01*
X128251595Y-137975132D01*
X128233406Y-137960301D01*
X128053050Y-137866091D01*
X127932564Y-137831616D01*
X127857418Y-137810114D01*
X127738037Y-137799500D01*
X127738033Y-137799500D01*
X126621966Y-137799500D01*
X126502582Y-137810114D01*
X126306949Y-137866091D01*
X126126593Y-137960301D01*
X126056894Y-138017134D01*
X125988358Y-138073017D01*
X125938030Y-138097704D01*
X125881970Y-138097704D01*
X125831641Y-138073017D01*
X125711595Y-137975132D01*
X125693406Y-137960301D01*
X125513047Y-137866089D01*
X125470387Y-137853883D01*
X125423729Y-137828754D01*
X125391824Y-137786439D01*
X125380500Y-137734668D01*
X125380500Y-136423706D01*
X125381809Y-136405736D01*
X125383215Y-136396134D01*
X125385289Y-136381977D01*
X125380972Y-136332631D01*
X125380500Y-136321824D01*
X125380500Y-136316289D01*
X125376903Y-136285521D01*
X125376536Y-136281929D01*
X125374966Y-136263981D01*
X125369999Y-136207203D01*
X125369998Y-136207201D01*
X125369889Y-136205949D01*
X125365672Y-136186930D01*
X125362530Y-136178298D01*
X125339591Y-136115273D01*
X125338408Y-136111868D01*
X125329194Y-136084062D01*
X125314814Y-136040666D01*
X125314812Y-136040663D01*
X125314415Y-136039464D01*
X125305927Y-136021931D01*
X125273507Y-135972639D01*
X125253225Y-135909909D01*
X125267962Y-135845650D01*
X125313552Y-135798026D01*
X125377107Y-135780500D01*
X135917770Y-135780500D01*
X135965223Y-135789939D01*
X136005451Y-135816819D01*
X137464269Y-137275637D01*
X137476051Y-137289270D01*
X137490390Y-137308530D01*
X137496799Y-137313908D01*
X137528337Y-137340372D01*
X137536311Y-137347680D01*
X137540221Y-137351590D01*
X137564537Y-137370816D01*
X137567336Y-137373096D01*
X137625752Y-137422113D01*
X137642179Y-137432578D01*
X137711320Y-137464819D01*
X137714567Y-137466391D01*
X137782699Y-137500609D01*
X137801087Y-137507000D01*
X137802323Y-137507255D01*
X137802327Y-137507257D01*
X137875895Y-137522447D01*
X137879242Y-137523189D01*
X137952279Y-137540500D01*
X137952281Y-137540500D01*
X137953509Y-137540791D01*
X137972878Y-137542770D01*
X137974140Y-137542733D01*
X137974144Y-137542734D01*
X138046533Y-137540627D01*
X138049131Y-137540552D01*
X138052737Y-137540500D01*
X145205500Y-137540500D01*
X145267500Y-137557113D01*
X145312887Y-137602500D01*
X145329500Y-137664500D01*
X145329500Y-138328708D01*
X145319488Y-138377521D01*
X145291069Y-138418452D01*
X145254575Y-138441295D01*
X145254623Y-138441383D01*
X145253148Y-138442188D01*
X145248833Y-138444889D01*
X145246839Y-138445632D01*
X145246839Y-138445633D01*
X144995686Y-138582772D01*
X144766602Y-138754263D01*
X144564263Y-138956602D01*
X144392772Y-139185686D01*
X144255634Y-139436836D01*
X144155629Y-139704958D01*
X144094804Y-139984570D01*
X144074389Y-140270000D01*
X144094804Y-140555429D01*
X144155629Y-140835041D01*
X144155631Y-140835046D01*
X144253641Y-141097821D01*
X144255634Y-141103163D01*
X144392772Y-141354313D01*
X144459074Y-141442882D01*
X144564261Y-141583395D01*
X144766605Y-141785739D01*
X144926054Y-141905101D01*
X144995686Y-141957227D01*
X145104821Y-142016819D01*
X145246839Y-142094367D01*
X145514954Y-142194369D01*
X145514957Y-142194369D01*
X145514958Y-142194370D01*
X145567217Y-142205738D01*
X145794572Y-142255196D01*
X146080000Y-142275610D01*
X146365428Y-142255196D01*
X146645046Y-142194369D01*
X146913161Y-142094367D01*
X147164315Y-141957226D01*
X147393395Y-141785739D01*
X147595739Y-141583395D01*
X147673139Y-141480000D01*
X151932923Y-141480000D01*
X151944812Y-141631070D01*
X152003603Y-141875956D01*
X152099982Y-142108632D01*
X152231569Y-142323364D01*
X152395130Y-142514869D01*
X152586635Y-142678430D01*
X152801367Y-142810017D01*
X153029999Y-142904720D01*
X153030000Y-142904721D01*
X153030000Y-141480000D01*
X151932923Y-141480000D01*
X147673139Y-141480000D01*
X147767226Y-141354315D01*
X147904367Y-141103161D01*
X148004369Y-140835046D01*
X148065196Y-140555428D01*
X148070591Y-140479999D01*
X151932922Y-140479999D01*
X151932923Y-140480000D01*
X153030000Y-140480000D01*
X153030000Y-139055279D01*
X153029999Y-139055279D01*
X152801367Y-139149982D01*
X152586635Y-139281569D01*
X152395130Y-139445130D01*
X152231569Y-139636635D01*
X152099982Y-139851367D01*
X152003603Y-140084043D01*
X151944812Y-140328929D01*
X151932922Y-140479999D01*
X148070591Y-140479999D01*
X148085610Y-140270000D01*
X148065196Y-139984572D01*
X148011567Y-139738042D01*
X148004370Y-139704958D01*
X148004369Y-139704954D01*
X147904367Y-139436839D01*
X147816018Y-139275041D01*
X147767227Y-139185686D01*
X147708424Y-139107135D01*
X147595739Y-138956605D01*
X147393395Y-138754261D01*
X147266224Y-138659062D01*
X147164313Y-138582772D01*
X147007482Y-138497136D01*
X146913161Y-138445633D01*
X146911166Y-138444889D01*
X146906851Y-138442188D01*
X146905377Y-138441383D01*
X146905424Y-138441295D01*
X146868931Y-138418452D01*
X146840512Y-138377521D01*
X146830500Y-138328708D01*
X146830500Y-136815446D01*
X146830710Y-136808236D01*
X146834331Y-136746066D01*
X146823515Y-136684731D01*
X146822469Y-136677591D01*
X146821683Y-136670868D01*
X146815241Y-136615745D01*
X146811404Y-136605206D01*
X146805810Y-136584324D01*
X146805164Y-136580659D01*
X146803865Y-136573289D01*
X146779193Y-136516094D01*
X146776535Y-136509400D01*
X146755238Y-136450884D01*
X146749076Y-136441516D01*
X146738817Y-136422490D01*
X146738088Y-136420800D01*
X146734377Y-136412196D01*
X146697187Y-136362243D01*
X146693054Y-136356340D01*
X146689209Y-136350494D01*
X146658830Y-136304304D01*
X146650673Y-136296608D01*
X146636304Y-136280462D01*
X146629610Y-136271470D01*
X146581894Y-136231432D01*
X146576543Y-136226670D01*
X146531218Y-136183908D01*
X146531216Y-136183906D01*
X146531213Y-136183904D01*
X146521503Y-136178298D01*
X146503803Y-136165905D01*
X146495214Y-136158698D01*
X146495212Y-136158697D01*
X146495211Y-136158696D01*
X146439551Y-136130742D01*
X146433204Y-136127320D01*
X146379279Y-136096187D01*
X146368535Y-136092970D01*
X146348459Y-136084994D01*
X146338435Y-136079960D01*
X146277841Y-136065598D01*
X146270879Y-136063732D01*
X146211212Y-136045870D01*
X146205941Y-136045563D01*
X146200013Y-136045217D01*
X146178634Y-136042086D01*
X146167721Y-136039500D01*
X146167719Y-136039500D01*
X146105446Y-136039500D01*
X146098236Y-136039290D01*
X146036065Y-136035668D01*
X146025023Y-136037616D01*
X146003490Y-136039500D01*
X138402229Y-136039500D01*
X138354776Y-136030061D01*
X138314548Y-136003181D01*
X137805024Y-135493657D01*
X140563448Y-135493657D01*
X140747045Y-135593909D01*
X141015100Y-135693889D01*
X141294642Y-135754699D01*
X141580000Y-135775109D01*
X141865357Y-135754699D01*
X142144899Y-135693889D01*
X142412954Y-135593909D01*
X142596550Y-135493658D01*
X142596550Y-135493657D01*
X141580000Y-134477107D01*
X140563448Y-135493657D01*
X137805024Y-135493657D01*
X137596963Y-135285596D01*
X136873549Y-134562181D01*
X136843299Y-134512818D01*
X136838757Y-134455102D01*
X136860912Y-134401615D01*
X136904935Y-134364015D01*
X136961230Y-134350500D01*
X138604554Y-134350500D01*
X138611764Y-134350710D01*
X138614367Y-134350861D01*
X138673935Y-134354331D01*
X138735304Y-134343508D01*
X138742384Y-134342471D01*
X138804255Y-134335241D01*
X138814790Y-134331405D01*
X138835661Y-134325812D01*
X138846711Y-134323865D01*
X138903899Y-134299196D01*
X138910580Y-134296541D01*
X138969117Y-134275237D01*
X138978479Y-134269078D01*
X138997517Y-134258814D01*
X139007804Y-134254377D01*
X139057786Y-134217165D01*
X139063648Y-134213061D01*
X139115696Y-134178830D01*
X139123391Y-134170673D01*
X139139534Y-134156306D01*
X139148530Y-134149610D01*
X139188567Y-134101893D01*
X139193333Y-134096537D01*
X139236092Y-134051218D01*
X139241699Y-134041504D01*
X139254097Y-134023800D01*
X139255548Y-134022071D01*
X139261302Y-134015214D01*
X139289255Y-133959551D01*
X139292669Y-133953221D01*
X139323812Y-133899281D01*
X139327028Y-133888535D01*
X139335010Y-133868448D01*
X139346547Y-133845478D01*
X139348671Y-133846545D01*
X139372970Y-133803748D01*
X139434332Y-133771262D01*
X139503538Y-133776853D01*
X139558890Y-133818767D01*
X139583034Y-133883865D01*
X139595300Y-134055358D01*
X139656111Y-134334902D01*
X139756088Y-134602952D01*
X139856341Y-134786550D01*
X140872893Y-133770001D01*
X142287107Y-133770001D01*
X143303657Y-134786550D01*
X143303658Y-134786550D01*
X143403909Y-134602954D01*
X143503889Y-134334899D01*
X143564699Y-134055357D01*
X143581466Y-133820937D01*
X145075630Y-133820937D01*
X145106443Y-134022071D01*
X145177113Y-134212886D01*
X145284745Y-134385568D01*
X145284748Y-134385571D01*
X145424941Y-134533053D01*
X145591951Y-134649295D01*
X145778942Y-134729540D01*
X145978259Y-134770500D01*
X146130740Y-134770500D01*
X146130742Y-134770500D01*
X146282438Y-134755074D01*
X146476588Y-134694159D01*
X146654502Y-134595409D01*
X146808895Y-134462866D01*
X146933448Y-134301958D01*
X147023060Y-134119271D01*
X147074063Y-133922285D01*
X147084369Y-133719064D01*
X147081076Y-133697571D01*
X147053556Y-133517928D01*
X146982886Y-133327113D01*
X146875254Y-133154431D01*
X146853451Y-133131495D01*
X146735059Y-133006947D01*
X146568049Y-132890705D01*
X146381058Y-132810460D01*
X146181741Y-132769500D01*
X146029258Y-132769500D01*
X145968579Y-132775670D01*
X145877559Y-132784926D01*
X145683412Y-132845841D01*
X145505500Y-132944589D01*
X145351104Y-133077135D01*
X145226551Y-133238042D01*
X145136940Y-133420727D01*
X145085937Y-133617716D01*
X145075630Y-133820937D01*
X143581466Y-133820937D01*
X143585109Y-133769999D01*
X143564699Y-133484642D01*
X143503889Y-133205100D01*
X143403909Y-132937045D01*
X143303657Y-132753448D01*
X142287107Y-133770000D01*
X142287107Y-133770001D01*
X140872893Y-133770001D01*
X140872893Y-133769999D01*
X139856341Y-132753448D01*
X139856339Y-132753448D01*
X139756090Y-132937043D01*
X139656111Y-133205097D01*
X139625666Y-133345053D01*
X139599173Y-133398777D01*
X139550586Y-133433813D01*
X139491245Y-133441985D01*
X139434997Y-133421386D01*
X139394968Y-133376823D01*
X139380500Y-133318695D01*
X139380500Y-132046341D01*
X140563448Y-132046341D01*
X141580000Y-133062893D01*
X141580001Y-133062893D01*
X142596550Y-132046341D01*
X142596550Y-132046340D01*
X142412952Y-131946088D01*
X142144902Y-131846111D01*
X141865357Y-131785300D01*
X141580000Y-131764890D01*
X141294642Y-131785300D01*
X141015097Y-131846111D01*
X140747043Y-131946090D01*
X140563448Y-132046339D01*
X140563448Y-132046341D01*
X139380500Y-132046341D01*
X139380500Y-129334500D01*
X139397113Y-129272500D01*
X139442500Y-129227113D01*
X139504500Y-129210500D01*
X141305303Y-129210500D01*
X141371958Y-129229938D01*
X141417715Y-129282159D01*
X141428228Y-129350789D01*
X141400203Y-129414312D01*
X141342424Y-129452813D01*
X141173412Y-129505841D01*
X140995500Y-129604589D01*
X140995497Y-129604591D01*
X140995498Y-129604591D01*
X140846641Y-129732382D01*
X140841104Y-129737135D01*
X140716551Y-129898042D01*
X140626940Y-130080727D01*
X140575937Y-130277716D01*
X140565630Y-130480937D01*
X140596443Y-130682071D01*
X140667113Y-130872886D01*
X140774745Y-131045568D01*
X140774748Y-131045571D01*
X140914941Y-131193053D01*
X141081951Y-131309295D01*
X141268942Y-131389540D01*
X141468259Y-131430500D01*
X141620740Y-131430500D01*
X141620742Y-131430500D01*
X141772438Y-131415074D01*
X141966588Y-131354159D01*
X142144502Y-131255409D01*
X142298895Y-131122866D01*
X142423448Y-130961958D01*
X142513060Y-130779271D01*
X142564063Y-130582285D01*
X142574369Y-130379064D01*
X142571982Y-130363484D01*
X142543556Y-130177928D01*
X142472886Y-129987113D01*
X142365254Y-129814431D01*
X142328450Y-129775714D01*
X142225059Y-129666947D01*
X142058049Y-129550705D01*
X141871058Y-129470460D01*
X141800503Y-129455961D01*
X141746298Y-129429937D01*
X141710707Y-129381469D01*
X141702103Y-129321955D01*
X141722510Y-129265392D01*
X141767129Y-129225080D01*
X141825467Y-129210500D01*
X143737770Y-129210500D01*
X143785223Y-129219939D01*
X143825451Y-129246819D01*
X144170222Y-129591590D01*
X144203707Y-129652912D01*
X144198723Y-129722603D01*
X144145631Y-129864952D01*
X144084804Y-130144570D01*
X144064389Y-130429999D01*
X144084804Y-130715429D01*
X144145629Y-130995041D01*
X144145631Y-130995046D01*
X144239289Y-131246153D01*
X144245634Y-131263163D01*
X144382772Y-131514313D01*
X144405744Y-131545000D01*
X144554261Y-131743395D01*
X144756605Y-131945739D01*
X144890994Y-132046341D01*
X144985686Y-132117227D01*
X145116455Y-132188632D01*
X145236839Y-132254367D01*
X145504954Y-132354369D01*
X145504957Y-132354369D01*
X145504958Y-132354370D01*
X145538153Y-132361591D01*
X145784572Y-132415196D01*
X146070000Y-132435610D01*
X146355428Y-132415196D01*
X146635046Y-132354369D01*
X146903161Y-132254367D01*
X147154315Y-132117226D01*
X147383395Y-131945739D01*
X147585739Y-131743395D01*
X147757226Y-131514315D01*
X147894367Y-131263161D01*
X147994369Y-130995046D01*
X148055196Y-130715428D01*
X148075610Y-130430000D01*
X148055196Y-130144572D01*
X147999714Y-129889526D01*
X147994370Y-129864958D01*
X147994368Y-129864952D01*
X147894367Y-129596839D01*
X147808352Y-129439314D01*
X147757227Y-129345686D01*
X147683216Y-129246819D01*
X147585739Y-129116605D01*
X147383395Y-128914261D01*
X147187033Y-128767266D01*
X147154313Y-128742772D01*
X146903163Y-128605634D01*
X146903162Y-128605633D01*
X146903161Y-128605633D01*
X146700977Y-128530222D01*
X146635041Y-128505629D01*
X146355429Y-128444804D01*
X146070000Y-128424389D01*
X145784570Y-128444804D01*
X145504955Y-128505630D01*
X145362604Y-128558724D01*
X145292913Y-128563708D01*
X145231590Y-128530223D01*
X144970499Y-128269132D01*
X144675728Y-127974360D01*
X144663946Y-127960727D01*
X144661596Y-127957571D01*
X144649610Y-127941470D01*
X144645255Y-127937816D01*
X144611666Y-127909631D01*
X144603691Y-127902323D01*
X144599782Y-127898414D01*
X144599781Y-127898413D01*
X144599777Y-127898409D01*
X144575423Y-127879152D01*
X144572647Y-127876890D01*
X144514251Y-127827890D01*
X144497821Y-127817422D01*
X144428691Y-127785186D01*
X144425447Y-127783615D01*
X144357306Y-127749394D01*
X144338903Y-127742997D01*
X144287118Y-127732304D01*
X144264206Y-127727572D01*
X144260692Y-127726794D01*
X144186490Y-127709208D01*
X144167121Y-127707229D01*
X144090869Y-127709448D01*
X144087263Y-127709500D01*
X138655446Y-127709500D01*
X138648236Y-127709290D01*
X138586064Y-127705668D01*
X138524720Y-127716485D01*
X138517585Y-127717530D01*
X138455745Y-127724758D01*
X138445200Y-127728596D01*
X138424337Y-127734186D01*
X138413290Y-127736134D01*
X138356105Y-127760800D01*
X138349407Y-127763461D01*
X138290879Y-127784764D01*
X138281505Y-127790929D01*
X138262496Y-127801179D01*
X138252193Y-127805623D01*
X138202240Y-127842812D01*
X138196335Y-127846947D01*
X138144305Y-127881169D01*
X138136605Y-127889330D01*
X138120471Y-127903688D01*
X138111467Y-127910391D01*
X138071432Y-127958102D01*
X138066641Y-127963487D01*
X138023907Y-128008783D01*
X138018300Y-128018495D01*
X138005910Y-128036190D01*
X137998697Y-128044786D01*
X137970748Y-128100436D01*
X137967328Y-128106780D01*
X137936188Y-128160719D01*
X137932969Y-128171469D01*
X137924995Y-128191539D01*
X137919961Y-128201563D01*
X137905598Y-128262158D01*
X137903733Y-128269118D01*
X137885869Y-128328791D01*
X137885217Y-128339989D01*
X137882086Y-128361362D01*
X137879500Y-128372276D01*
X137879500Y-128434554D01*
X137879290Y-128441764D01*
X137875668Y-128503934D01*
X137877616Y-128514977D01*
X137879500Y-128536510D01*
X137879500Y-132725500D01*
X137862887Y-132787500D01*
X137817500Y-132832887D01*
X137755500Y-132849500D01*
X134171229Y-132849500D01*
X134114934Y-132835985D01*
X134070911Y-132798385D01*
X134048756Y-132744898D01*
X134053298Y-132687182D01*
X134083548Y-132637819D01*
X134222250Y-132499117D01*
X134401593Y-132319773D01*
X134440458Y-132293469D01*
X134486320Y-132283492D01*
X134532602Y-132291274D01*
X134674954Y-132344369D01*
X134674957Y-132344369D01*
X134674958Y-132344370D01*
X134718519Y-132353846D01*
X134954572Y-132405196D01*
X135240000Y-132425610D01*
X135525428Y-132405196D01*
X135805046Y-132344369D01*
X136073161Y-132244367D01*
X136324315Y-132107226D01*
X136553395Y-131935739D01*
X136755739Y-131733395D01*
X136927226Y-131504315D01*
X137064367Y-131253161D01*
X137164369Y-130985046D01*
X137225196Y-130705428D01*
X137245610Y-130420000D01*
X137225196Y-130134572D01*
X137171476Y-129887624D01*
X137164370Y-129854958D01*
X137157402Y-129836275D01*
X137064367Y-129586839D01*
X136995359Y-129460460D01*
X136927227Y-129335686D01*
X136844428Y-129225080D01*
X136755739Y-129106605D01*
X136553395Y-128904261D01*
X136430925Y-128812581D01*
X136324313Y-128732772D01*
X136073163Y-128595634D01*
X136073162Y-128595633D01*
X136073161Y-128595633D01*
X135884669Y-128525329D01*
X135805041Y-128495629D01*
X135525429Y-128434804D01*
X135240000Y-128414389D01*
X134954570Y-128434804D01*
X134674958Y-128495629D01*
X134406836Y-128595634D01*
X134155686Y-128732772D01*
X133926602Y-128904263D01*
X133724263Y-129106602D01*
X133552772Y-129335686D01*
X133415634Y-129586836D01*
X133315629Y-129854958D01*
X133254804Y-130134570D01*
X133234389Y-130419999D01*
X133254804Y-130705429D01*
X133315630Y-130985044D01*
X133368723Y-131127394D01*
X133373707Y-131197085D01*
X133340223Y-131258407D01*
X133225452Y-131373180D01*
X133185223Y-131400061D01*
X133137770Y-131409500D01*
X131458168Y-131409500D01*
X131400200Y-131395116D01*
X131355681Y-131355302D01*
X131334938Y-131299295D01*
X131342783Y-131240087D01*
X131377398Y-131191414D01*
X131382236Y-131187261D01*
X131468895Y-131112866D01*
X131593448Y-130951958D01*
X131683060Y-130769271D01*
X131734063Y-130572285D01*
X131744369Y-130369064D01*
X131737225Y-130322433D01*
X131713556Y-130167928D01*
X131642886Y-129977113D01*
X131535254Y-129804431D01*
X131528505Y-129797331D01*
X131395059Y-129656947D01*
X131228049Y-129540705D01*
X131041058Y-129460460D01*
X130841741Y-129419500D01*
X130689258Y-129419500D01*
X130628579Y-129425670D01*
X130537559Y-129434926D01*
X130343412Y-129495841D01*
X130165500Y-129594589D01*
X130011104Y-129727135D01*
X129886551Y-129888042D01*
X129796940Y-130070727D01*
X129745937Y-130267716D01*
X129735630Y-130470937D01*
X129766443Y-130672071D01*
X129837113Y-130862886D01*
X129944745Y-131035568D01*
X129944748Y-131035571D01*
X130084941Y-131183053D01*
X130085907Y-131183725D01*
X130088942Y-131187261D01*
X130093629Y-131192191D01*
X130093379Y-131192428D01*
X130126398Y-131230890D01*
X130138912Y-131291780D01*
X130120303Y-131351091D01*
X130075249Y-131393919D01*
X130015071Y-131409500D01*
X128004500Y-131409500D01*
X127942500Y-131392887D01*
X127897113Y-131347500D01*
X127880500Y-131285500D01*
X127880500Y-125693706D01*
X127881809Y-125675736D01*
X127882338Y-125672118D01*
X127885289Y-125651977D01*
X127884561Y-125643657D01*
X129723448Y-125643657D01*
X129907045Y-125743909D01*
X130175100Y-125843889D01*
X130454642Y-125904699D01*
X130740000Y-125925109D01*
X131025357Y-125904699D01*
X131304899Y-125843889D01*
X131572954Y-125743909D01*
X131738238Y-125653657D01*
X140553448Y-125653657D01*
X140737045Y-125753909D01*
X141005100Y-125853889D01*
X141284642Y-125914699D01*
X141570000Y-125935109D01*
X141855357Y-125914699D01*
X142134899Y-125853889D01*
X142402954Y-125753909D01*
X142586550Y-125653658D01*
X142586550Y-125653657D01*
X141570000Y-124637107D01*
X140553448Y-125653657D01*
X131738238Y-125653657D01*
X131756550Y-125643658D01*
X131756550Y-125643657D01*
X130740000Y-124627107D01*
X129723448Y-125643657D01*
X127884561Y-125643657D01*
X127880972Y-125602631D01*
X127880500Y-125591824D01*
X127880500Y-125586289D01*
X127876903Y-125555521D01*
X127876536Y-125551929D01*
X127871224Y-125491210D01*
X127869999Y-125477203D01*
X127869998Y-125477201D01*
X127869889Y-125475949D01*
X127865672Y-125456930D01*
X127862210Y-125447419D01*
X127839591Y-125385273D01*
X127838408Y-125381868D01*
X127829143Y-125353908D01*
X127814814Y-125310666D01*
X127814812Y-125310663D01*
X127814415Y-125309464D01*
X127805929Y-125291936D01*
X127805237Y-125290884D01*
X127805237Y-125290883D01*
X127764001Y-125228188D01*
X127762086Y-125225181D01*
X127752414Y-125209500D01*
X127722712Y-125161345D01*
X127722711Y-125161344D01*
X127722048Y-125160269D01*
X127709748Y-125145170D01*
X127654272Y-125092831D01*
X127651685Y-125090318D01*
X126481366Y-123919999D01*
X128734890Y-123919999D01*
X128755300Y-124205357D01*
X128816111Y-124484902D01*
X128916088Y-124752952D01*
X129016341Y-124936550D01*
X130032893Y-123920001D01*
X130032893Y-123920000D01*
X131447107Y-123920000D01*
X132463657Y-124936550D01*
X132463658Y-124936550D01*
X132563909Y-124752954D01*
X132663889Y-124484899D01*
X132724699Y-124205357D01*
X132741466Y-123970937D01*
X134235630Y-123970937D01*
X134266443Y-124172071D01*
X134337113Y-124362886D01*
X134444745Y-124535568D01*
X134444748Y-124535571D01*
X134584941Y-124683053D01*
X134751951Y-124799295D01*
X134938942Y-124879540D01*
X135138259Y-124920500D01*
X135290740Y-124920500D01*
X135290742Y-124920500D01*
X135442438Y-124905074D01*
X135636588Y-124844159D01*
X135814502Y-124745409D01*
X135968895Y-124612866D01*
X136093448Y-124451958D01*
X136183060Y-124269271D01*
X136234063Y-124072285D01*
X136241279Y-123930000D01*
X139564890Y-123930000D01*
X139585300Y-124215357D01*
X139646111Y-124494902D01*
X139746088Y-124762952D01*
X139846341Y-124946550D01*
X140862893Y-123930001D01*
X142277107Y-123930001D01*
X143293657Y-124946550D01*
X143293658Y-124946550D01*
X143393909Y-124762954D01*
X143493889Y-124494899D01*
X143554699Y-124215357D01*
X143571466Y-123980937D01*
X145065630Y-123980937D01*
X145096443Y-124182071D01*
X145167113Y-124372886D01*
X145274745Y-124545568D01*
X145274748Y-124545571D01*
X145414941Y-124693053D01*
X145581951Y-124809295D01*
X145768942Y-124889540D01*
X145968259Y-124930500D01*
X146120740Y-124930500D01*
X146120742Y-124930500D01*
X146272438Y-124915074D01*
X146466588Y-124854159D01*
X146644502Y-124755409D01*
X146798895Y-124622866D01*
X146923448Y-124461958D01*
X147013060Y-124279271D01*
X147064063Y-124082285D01*
X147074369Y-123879064D01*
X147071448Y-123860000D01*
X147043556Y-123677928D01*
X146972886Y-123487113D01*
X146865254Y-123314431D01*
X146804715Y-123250745D01*
X146725059Y-123166947D01*
X146558049Y-123050705D01*
X146371058Y-122970460D01*
X146171741Y-122929500D01*
X146019258Y-122929500D01*
X145965900Y-122934926D01*
X145867559Y-122944926D01*
X145673412Y-123005841D01*
X145495500Y-123104589D01*
X145341104Y-123237135D01*
X145216551Y-123398042D01*
X145126940Y-123580727D01*
X145075937Y-123777716D01*
X145065630Y-123980937D01*
X143571466Y-123980937D01*
X143575109Y-123930000D01*
X143554699Y-123644642D01*
X143493889Y-123365100D01*
X143393909Y-123097045D01*
X143293657Y-122913448D01*
X142277107Y-123930000D01*
X142277107Y-123930001D01*
X140862893Y-123930001D01*
X140862893Y-123929999D01*
X139846341Y-122913448D01*
X139846339Y-122913448D01*
X139746090Y-123097043D01*
X139646111Y-123365097D01*
X139585300Y-123644642D01*
X139564890Y-123930000D01*
X136241279Y-123930000D01*
X136244369Y-123869064D01*
X136242980Y-123860000D01*
X136213556Y-123667928D01*
X136142886Y-123477113D01*
X136035254Y-123304431D01*
X135984221Y-123250745D01*
X135895059Y-123156947D01*
X135728049Y-123040705D01*
X135541058Y-122960460D01*
X135341741Y-122919500D01*
X135189258Y-122919500D01*
X135128579Y-122925670D01*
X135037559Y-122934926D01*
X134843412Y-122995841D01*
X134665500Y-123094589D01*
X134592864Y-123156946D01*
X134520203Y-123219324D01*
X134511104Y-123227135D01*
X134386551Y-123388042D01*
X134296940Y-123570727D01*
X134245937Y-123767716D01*
X134235630Y-123970937D01*
X132741466Y-123970937D01*
X132745109Y-123919999D01*
X132724699Y-123634642D01*
X132663889Y-123355100D01*
X132563909Y-123087045D01*
X132463657Y-122903448D01*
X131447107Y-123920000D01*
X130032893Y-123920000D01*
X130032893Y-123919999D01*
X129016341Y-122903448D01*
X129016339Y-122903448D01*
X128916090Y-123087043D01*
X128816111Y-123355097D01*
X128755300Y-123634642D01*
X128734890Y-123919999D01*
X126481366Y-123919999D01*
X120346819Y-117785451D01*
X120319939Y-117745223D01*
X120310500Y-117697770D01*
X120310500Y-116462470D01*
X120321825Y-116410699D01*
X120353730Y-116368384D01*
X120400387Y-116343254D01*
X120433049Y-116333909D01*
X120613407Y-116239698D01*
X120751641Y-116126982D01*
X120801970Y-116102296D01*
X120858030Y-116102296D01*
X120908358Y-116126982D01*
X121046593Y-116239698D01*
X121226951Y-116333909D01*
X121259612Y-116343254D01*
X121306270Y-116368384D01*
X121338175Y-116410699D01*
X121349500Y-116462470D01*
X121349500Y-117016294D01*
X121348191Y-117034264D01*
X121344711Y-117058023D01*
X121349028Y-117107369D01*
X121349500Y-117118176D01*
X121349500Y-117123708D01*
X121353098Y-117154496D01*
X121353464Y-117158081D01*
X121359662Y-117228927D01*
X121360110Y-117234041D01*
X121364329Y-117253071D01*
X121364758Y-117254251D01*
X121364759Y-117254255D01*
X121390413Y-117324742D01*
X121391582Y-117328107D01*
X121415580Y-117400524D01*
X121424075Y-117418072D01*
X121465979Y-117481784D01*
X121467889Y-117484782D01*
X121501566Y-117539379D01*
X121507952Y-117549732D01*
X121520253Y-117564830D01*
X121521168Y-117565693D01*
X121521170Y-117565696D01*
X121575219Y-117616689D01*
X121575709Y-117617151D01*
X121578296Y-117619664D01*
X126044267Y-122085634D01*
X126056048Y-122099266D01*
X126063667Y-122109500D01*
X126070390Y-122118530D01*
X126108355Y-122150386D01*
X126116317Y-122157684D01*
X126120224Y-122161591D01*
X126144542Y-122180819D01*
X126147298Y-122183063D01*
X126204786Y-122231302D01*
X126204788Y-122231303D01*
X126205757Y-122232116D01*
X126222177Y-122242576D01*
X126223321Y-122243109D01*
X126223323Y-122243111D01*
X126291357Y-122274835D01*
X126294456Y-122276335D01*
X126360667Y-122309588D01*
X126362704Y-122310611D01*
X126381084Y-122316998D01*
X126382321Y-122317253D01*
X126382327Y-122317256D01*
X126455862Y-122332439D01*
X126459209Y-122333181D01*
X126532279Y-122350500D01*
X126532281Y-122350500D01*
X126533505Y-122350790D01*
X126552876Y-122352769D01*
X126554140Y-122352732D01*
X126554144Y-122352733D01*
X126629110Y-122350552D01*
X126632716Y-122350500D01*
X129826245Y-122350500D01*
X129873698Y-122359939D01*
X129913926Y-122386819D01*
X130740000Y-123212893D01*
X131566074Y-122386819D01*
X131606302Y-122359939D01*
X131653755Y-122350500D01*
X140646245Y-122350500D01*
X140693698Y-122359939D01*
X140733926Y-122386819D01*
X141570000Y-123222893D01*
X142406074Y-122386819D01*
X142446302Y-122359939D01*
X142493755Y-122350500D01*
X142676294Y-122350500D01*
X142694264Y-122351809D01*
X142698320Y-122352402D01*
X142718023Y-122355289D01*
X142767368Y-122350972D01*
X142778176Y-122350500D01*
X142783706Y-122350500D01*
X142783709Y-122350500D01*
X142814550Y-122346894D01*
X142818031Y-122346539D01*
X142892797Y-122339999D01*
X142892797Y-122339998D01*
X142894052Y-122339889D01*
X142913062Y-122335674D01*
X142914250Y-122335241D01*
X142914255Y-122335241D01*
X142984820Y-122309557D01*
X142988095Y-122308419D01*
X143059334Y-122284814D01*
X143059336Y-122284812D01*
X143060536Y-122284415D01*
X143078063Y-122275929D01*
X143079112Y-122275238D01*
X143079117Y-122275237D01*
X143141806Y-122234005D01*
X143144798Y-122232099D01*
X143208656Y-122192712D01*
X143208658Y-122192709D01*
X143209731Y-122192048D01*
X143224817Y-122179760D01*
X143225691Y-122178832D01*
X143225696Y-122178830D01*
X143277217Y-122124218D01*
X143279632Y-122121733D01*
X144038182Y-121363184D01*
X144086702Y-121333213D01*
X144143508Y-121328129D01*
X144196581Y-121349011D01*
X144234693Y-121391440D01*
X144372421Y-121643670D01*
X144372774Y-121644315D01*
X144544261Y-121873395D01*
X144746605Y-122075739D01*
X144899494Y-122190190D01*
X144975686Y-122247227D01*
X145095384Y-122312587D01*
X145226839Y-122384367D01*
X145494954Y-122484369D01*
X145494957Y-122484369D01*
X145494958Y-122484370D01*
X145547217Y-122495738D01*
X145774572Y-122545196D01*
X146060000Y-122565610D01*
X146345428Y-122545196D01*
X146625046Y-122484369D01*
X146893161Y-122384367D01*
X147144315Y-122247226D01*
X147373395Y-122075739D01*
X147575739Y-121873395D01*
X147747226Y-121644315D01*
X147884367Y-121393161D01*
X147984369Y-121125046D01*
X148045196Y-120845428D01*
X148065610Y-120560000D01*
X148045196Y-120274572D01*
X147984369Y-119994954D01*
X147884367Y-119726839D01*
X147808885Y-119588604D01*
X147747227Y-119475686D01*
X147685858Y-119393707D01*
X147575739Y-119246605D01*
X147373395Y-119044261D01*
X147231140Y-118937770D01*
X147144313Y-118872772D01*
X146893163Y-118735634D01*
X146893162Y-118735633D01*
X146893161Y-118735633D01*
X146718123Y-118670347D01*
X146625041Y-118635629D01*
X146345429Y-118574804D01*
X146060000Y-118554389D01*
X145774570Y-118574804D01*
X145494958Y-118635629D01*
X145226836Y-118735634D01*
X144975686Y-118872772D01*
X144746602Y-119044263D01*
X144544263Y-119246602D01*
X144372772Y-119475686D01*
X144235633Y-119726839D01*
X144234890Y-119728832D01*
X144232188Y-119733148D01*
X144231383Y-119734623D01*
X144231295Y-119734575D01*
X144208452Y-119771069D01*
X144167521Y-119799488D01*
X144118708Y-119809500D01*
X143843706Y-119809500D01*
X143825736Y-119808191D01*
X143811853Y-119806157D01*
X143801977Y-119804711D01*
X143801976Y-119804711D01*
X143752634Y-119809028D01*
X143741827Y-119809500D01*
X143736289Y-119809500D01*
X143705487Y-119813099D01*
X143701906Y-119813465D01*
X143625952Y-119820111D01*
X143606923Y-119824329D01*
X143535271Y-119850408D01*
X143531868Y-119851591D01*
X143459479Y-119875579D01*
X143441927Y-119884076D01*
X143378228Y-119925970D01*
X143375190Y-119927905D01*
X143310281Y-119967943D01*
X143295164Y-119980256D01*
X143242848Y-120035708D01*
X143240336Y-120038294D01*
X142764795Y-120513835D01*
X142705908Y-120546764D01*
X142638497Y-120543988D01*
X142582518Y-120506326D01*
X142554544Y-120444931D01*
X142533556Y-120307928D01*
X142462886Y-120117113D01*
X142355254Y-119944431D01*
X142342933Y-119931470D01*
X142215059Y-119796947D01*
X142048049Y-119680705D01*
X141861058Y-119600460D01*
X141661741Y-119559500D01*
X141509258Y-119559500D01*
X141448579Y-119565670D01*
X141357559Y-119574926D01*
X141163412Y-119635841D01*
X140985500Y-119734589D01*
X140900661Y-119807422D01*
X140880967Y-119824329D01*
X140831104Y-119867135D01*
X140706551Y-120028042D01*
X140616940Y-120210727D01*
X140584635Y-120335500D01*
X140575074Y-120372428D01*
X140565937Y-120407716D01*
X140555630Y-120610936D01*
X140570305Y-120706722D01*
X140566951Y-120759611D01*
X140541821Y-120806270D01*
X140499506Y-120838175D01*
X140447735Y-120849500D01*
X130457243Y-120849500D01*
X130393644Y-120831948D01*
X130348049Y-120784260D01*
X130333368Y-120719937D01*
X130353756Y-120657189D01*
X130403441Y-120613780D01*
X130409347Y-120610936D01*
X130597704Y-120520228D01*
X130814479Y-120372433D01*
X130814482Y-120372429D01*
X130814485Y-120372428D01*
X130919950Y-120274570D01*
X131006805Y-120193981D01*
X131170386Y-119988857D01*
X131301568Y-119761643D01*
X131397420Y-119517416D01*
X131455802Y-119261630D01*
X131475408Y-119000000D01*
X131455802Y-118738370D01*
X131397420Y-118482584D01*
X131301568Y-118238357D01*
X131170386Y-118011143D01*
X131006805Y-117806019D01*
X131006092Y-117805357D01*
X130814485Y-117627571D01*
X130717396Y-117561377D01*
X130597704Y-117479772D01*
X130597701Y-117479771D01*
X130597699Y-117479769D01*
X130540699Y-117452320D01*
X130489506Y-117406572D01*
X130470500Y-117340600D01*
X130470500Y-116462470D01*
X130481825Y-116410699D01*
X130513730Y-116368384D01*
X130560387Y-116343254D01*
X130593049Y-116333909D01*
X130773407Y-116239698D01*
X130912037Y-116126659D01*
X130962366Y-116101973D01*
X131018426Y-116101973D01*
X131068757Y-116126661D01*
X131206868Y-116239276D01*
X131387137Y-116333442D01*
X131582670Y-116389390D01*
X131702000Y-116400000D01*
X131760000Y-116400000D01*
X131760000Y-112400000D01*
X131702000Y-112400000D01*
X131582670Y-112410609D01*
X131387137Y-112466557D01*
X131206867Y-112560723D01*
X131068757Y-112673338D01*
X131018426Y-112698026D01*
X130962366Y-112698026D01*
X130912035Y-112673338D01*
X130773406Y-112560301D01*
X130593050Y-112466091D01*
X130472564Y-112431616D01*
X130397418Y-112410114D01*
X130278037Y-112399500D01*
X130278033Y-112399500D01*
X129161966Y-112399500D01*
X129042582Y-112410114D01*
X128846949Y-112466091D01*
X128666593Y-112560301D01*
X128508891Y-112688891D01*
X128380301Y-112846593D01*
X128286091Y-113026949D01*
X128236404Y-113200600D01*
X128230114Y-113222582D01*
X128223503Y-113296947D01*
X128219500Y-113341967D01*
X128219500Y-113742928D01*
X128203304Y-113804201D01*
X128158945Y-113849468D01*
X128098013Y-113866903D01*
X128036424Y-113851951D01*
X127990268Y-113808519D01*
X127975254Y-113784431D01*
X127965949Y-113774642D01*
X127835059Y-113636947D01*
X127668049Y-113520705D01*
X127481058Y-113440460D01*
X127281741Y-113399500D01*
X127129258Y-113399500D01*
X127068579Y-113405670D01*
X126977559Y-113414926D01*
X126783412Y-113475841D01*
X126605500Y-113574589D01*
X126451104Y-113707135D01*
X126362555Y-113821530D01*
X126314551Y-113859078D01*
X126254456Y-113869221D01*
X126196788Y-113849509D01*
X126155476Y-113804703D01*
X126140499Y-113745628D01*
X126140499Y-113341966D01*
X126140304Y-113339769D01*
X126129886Y-113222582D01*
X126073909Y-113026951D01*
X125979698Y-112846593D01*
X125851109Y-112688891D01*
X125693926Y-112560725D01*
X125693406Y-112560301D01*
X125513049Y-112466091D01*
X125480387Y-112456745D01*
X125433730Y-112431616D01*
X125401825Y-112389301D01*
X125390500Y-112337530D01*
X125390500Y-111974500D01*
X125407113Y-111912500D01*
X125452500Y-111867113D01*
X125514500Y-111850500D01*
X141154665Y-111850500D01*
X141212793Y-111864968D01*
G37*
%TD.AperFunction*%
%TA.AperFunction,Conductor*%
G36*
X171107500Y-109357113D02*
G01*
X171152887Y-109402500D01*
X171169500Y-109464500D01*
X171169500Y-120424554D01*
X171169290Y-120431764D01*
X171165668Y-120493935D01*
X171176482Y-120555262D01*
X171177527Y-120562396D01*
X171184758Y-120624253D01*
X171188593Y-120634789D01*
X171194188Y-120655667D01*
X171196135Y-120666713D01*
X171220796Y-120723884D01*
X171223459Y-120730585D01*
X171244763Y-120789118D01*
X171250923Y-120798483D01*
X171261180Y-120817505D01*
X171265621Y-120827801D01*
X171265622Y-120827803D01*
X171265623Y-120827804D01*
X171281775Y-120849500D01*
X171302815Y-120877761D01*
X171306952Y-120883670D01*
X171341168Y-120935694D01*
X171349325Y-120943390D01*
X171363689Y-120959530D01*
X171370388Y-120968528D01*
X171418103Y-121008566D01*
X171423490Y-121013361D01*
X171468782Y-121056092D01*
X171478493Y-121061699D01*
X171496199Y-121074097D01*
X171502215Y-121079144D01*
X171504786Y-121081302D01*
X171549723Y-121103869D01*
X171560438Y-121109251D01*
X171566779Y-121112669D01*
X171620718Y-121143811D01*
X171620719Y-121143812D01*
X171631458Y-121147027D01*
X171651544Y-121155007D01*
X171661566Y-121160040D01*
X171722174Y-121174405D01*
X171729136Y-121176270D01*
X171756805Y-121184554D01*
X171788786Y-121194129D01*
X171788790Y-121194130D01*
X171799985Y-121194781D01*
X171821366Y-121197913D01*
X171832279Y-121200500D01*
X171894554Y-121200500D01*
X171901764Y-121200710D01*
X171963934Y-121204331D01*
X171963934Y-121204330D01*
X171963935Y-121204331D01*
X171974976Y-121202384D01*
X171996510Y-121200500D01*
X176977770Y-121200500D01*
X177025223Y-121209939D01*
X177065451Y-121236819D01*
X181433181Y-125604548D01*
X181460061Y-125644776D01*
X181469500Y-125692229D01*
X181469500Y-137894554D01*
X181469290Y-137901764D01*
X181465668Y-137963934D01*
X181467616Y-137974977D01*
X181469500Y-137996510D01*
X181469500Y-138456128D01*
X181452023Y-138519602D01*
X181404518Y-138565181D01*
X181398448Y-138568466D01*
X181396487Y-138569528D01*
X181200259Y-138722259D01*
X181200256Y-138722261D01*
X181200256Y-138722262D01*
X181031836Y-138905215D01*
X180998799Y-138955782D01*
X180895825Y-139113395D01*
X180816438Y-139294381D01*
X180795937Y-139341119D01*
X180738558Y-139567701D01*
X180734891Y-139582183D01*
X180719500Y-139767927D01*
X180719500Y-140892073D01*
X180734891Y-141077816D01*
X180734891Y-141077819D01*
X180734892Y-141077821D01*
X180795937Y-141318881D01*
X180795938Y-141318883D01*
X180851560Y-141445690D01*
X180861580Y-141505740D01*
X180841812Y-141563322D01*
X180797021Y-141604555D01*
X180738004Y-141619500D01*
X177015446Y-141619500D01*
X177008236Y-141619290D01*
X176946064Y-141615668D01*
X176884720Y-141626485D01*
X176877585Y-141627530D01*
X176815745Y-141634758D01*
X176805200Y-141638596D01*
X176784337Y-141644186D01*
X176773290Y-141646134D01*
X176716105Y-141670800D01*
X176709407Y-141673461D01*
X176650879Y-141694764D01*
X176641505Y-141700929D01*
X176622496Y-141711179D01*
X176612193Y-141715623D01*
X176562240Y-141752812D01*
X176556335Y-141756947D01*
X176504305Y-141791169D01*
X176496605Y-141799330D01*
X176480471Y-141813688D01*
X176471467Y-141820391D01*
X176431432Y-141868102D01*
X176426643Y-141873483D01*
X176383908Y-141918782D01*
X176378406Y-141928312D01*
X176378300Y-141928495D01*
X176365910Y-141946190D01*
X176358697Y-141954786D01*
X176330748Y-142010436D01*
X176327328Y-142016780D01*
X176296188Y-142070719D01*
X176292969Y-142081469D01*
X176284995Y-142101539D01*
X176279961Y-142111563D01*
X176265598Y-142172158D01*
X176263733Y-142179118D01*
X176245869Y-142238791D01*
X176245217Y-142249989D01*
X176242086Y-142271362D01*
X176239500Y-142282276D01*
X176239500Y-142344554D01*
X176239290Y-142351764D01*
X176235668Y-142413934D01*
X176237616Y-142424977D01*
X176239500Y-142446510D01*
X176239500Y-144895500D01*
X176222887Y-144957500D01*
X176177500Y-145002887D01*
X176115500Y-145019500D01*
X172462230Y-145019500D01*
X172414777Y-145010061D01*
X172374549Y-144983181D01*
X170033549Y-142642181D01*
X170003299Y-142592818D01*
X169998757Y-142535102D01*
X170020912Y-142481615D01*
X170064935Y-142444015D01*
X170121230Y-142430500D01*
X170745721Y-142430500D01*
X170748862Y-142430539D01*
X170836363Y-142432757D01*
X170894432Y-142422348D01*
X170903736Y-142421043D01*
X170962438Y-142415074D01*
X170991467Y-142405965D01*
X171006700Y-142402226D01*
X171036653Y-142396858D01*
X171091426Y-142374978D01*
X171100301Y-142371819D01*
X171117675Y-142366367D01*
X171156588Y-142354159D01*
X171183194Y-142339390D01*
X171197362Y-142332662D01*
X171225617Y-142321377D01*
X171274879Y-142288909D01*
X171282910Y-142284043D01*
X171334502Y-142255409D01*
X171357587Y-142235589D01*
X171370114Y-142226144D01*
X171395519Y-142209402D01*
X171437251Y-142167668D01*
X171444123Y-142161300D01*
X171488895Y-142122866D01*
X171507524Y-142098798D01*
X171517883Y-142087036D01*
X172238100Y-141366819D01*
X172278329Y-141339939D01*
X172325782Y-141330500D01*
X173100020Y-141330500D01*
X173146682Y-141339615D01*
X173186485Y-141365619D01*
X173213576Y-141404690D01*
X173275825Y-141546604D01*
X173275827Y-141546607D01*
X173411836Y-141754785D01*
X173580256Y-141937738D01*
X173623888Y-141971698D01*
X173776485Y-142090470D01*
X173776487Y-142090471D01*
X173776491Y-142090474D01*
X173995190Y-142208828D01*
X174230386Y-142289571D01*
X174475665Y-142330500D01*
X174724335Y-142330500D01*
X174969614Y-142289571D01*
X175204810Y-142208828D01*
X175423509Y-142090474D01*
X175619744Y-141937738D01*
X175788164Y-141754785D01*
X175924173Y-141546607D01*
X176024063Y-141318881D01*
X176085108Y-141077821D01*
X176093428Y-140977417D01*
X176100500Y-140892073D01*
X176100500Y-139767927D01*
X176089415Y-139634158D01*
X176085108Y-139582179D01*
X176024063Y-139341119D01*
X175924173Y-139113393D01*
X175788164Y-138905215D01*
X175619744Y-138722262D01*
X175570012Y-138683554D01*
X175423514Y-138569529D01*
X175423510Y-138569526D01*
X175423509Y-138569526D01*
X175204810Y-138451172D01*
X175204806Y-138451170D01*
X175204805Y-138451170D01*
X174969615Y-138370429D01*
X174724335Y-138329500D01*
X174475665Y-138329500D01*
X174230384Y-138370429D01*
X173995194Y-138451170D01*
X173776485Y-138569529D01*
X173580259Y-138722259D01*
X173580256Y-138722261D01*
X173580256Y-138722262D01*
X173411836Y-138905215D01*
X173378799Y-138955782D01*
X173275825Y-139113395D01*
X173213576Y-139255310D01*
X173186485Y-139294381D01*
X173146682Y-139320385D01*
X173100020Y-139329500D01*
X171874279Y-139329500D01*
X171871137Y-139329460D01*
X171783637Y-139327242D01*
X171725580Y-139337648D01*
X171716251Y-139338957D01*
X171657562Y-139344926D01*
X171628527Y-139354035D01*
X171613290Y-139357774D01*
X171583350Y-139363141D01*
X171528567Y-139385022D01*
X171519698Y-139388179D01*
X171463410Y-139405841D01*
X171436809Y-139420605D01*
X171422639Y-139427335D01*
X171394385Y-139438622D01*
X171345121Y-139471087D01*
X171337070Y-139475964D01*
X171285498Y-139504590D01*
X171262414Y-139524407D01*
X171249887Y-139533853D01*
X171224481Y-139550598D01*
X171182775Y-139592303D01*
X171175868Y-139598704D01*
X171131103Y-139637135D01*
X171112480Y-139661193D01*
X171102108Y-139672969D01*
X170381899Y-140393181D01*
X170341671Y-140420061D01*
X170294218Y-140429500D01*
X169848996Y-140429500D01*
X169792701Y-140415985D01*
X169748678Y-140378385D01*
X169726523Y-140324898D01*
X169731065Y-140267182D01*
X169761315Y-140217819D01*
X169856559Y-140122575D01*
X169955739Y-140023395D01*
X170127226Y-139794315D01*
X170264367Y-139543161D01*
X170364369Y-139275046D01*
X170425196Y-138995428D01*
X170445610Y-138710000D01*
X170425196Y-138424572D01*
X170364369Y-138144954D01*
X170264367Y-137876839D01*
X170191000Y-137742478D01*
X170127227Y-137625686D01*
X170062681Y-137539463D01*
X169955739Y-137396605D01*
X169753395Y-137194261D01*
X169619441Y-137093984D01*
X169524313Y-137022772D01*
X169273163Y-136885634D01*
X169273162Y-136885633D01*
X169273161Y-136885633D01*
X169005046Y-136785631D01*
X169005041Y-136785629D01*
X168725429Y-136724804D01*
X168440000Y-136704389D01*
X168154570Y-136724804D01*
X167874952Y-136785631D01*
X167834571Y-136800692D01*
X167764880Y-136805676D01*
X167703558Y-136772191D01*
X164062862Y-133131495D01*
X162891367Y-131960000D01*
X163995279Y-131960000D01*
X164089982Y-132188632D01*
X164221569Y-132403364D01*
X164385130Y-132594869D01*
X164576635Y-132758430D01*
X164791367Y-132890017D01*
X165024043Y-132986396D01*
X165268929Y-133045187D01*
X165457134Y-133060000D01*
X165670000Y-133060000D01*
X165670000Y-131960000D01*
X166670000Y-131960000D01*
X166670000Y-133060000D01*
X166882866Y-133060000D01*
X167071070Y-133045187D01*
X167315956Y-132986396D01*
X167548632Y-132890017D01*
X167763364Y-132758430D01*
X167954869Y-132594869D01*
X168118430Y-132403364D01*
X168250017Y-132188632D01*
X168344721Y-131960000D01*
X166670000Y-131960000D01*
X165670000Y-131960000D01*
X163995279Y-131960000D01*
X162891367Y-131960000D01*
X160416819Y-129485451D01*
X160389939Y-129445223D01*
X160380500Y-129397770D01*
X160380500Y-118855069D01*
X160393597Y-118799602D01*
X160430122Y-118755852D01*
X160482359Y-118733062D01*
X160539273Y-118736044D01*
X160588841Y-118764171D01*
X160705514Y-118872428D01*
X160705520Y-118872432D01*
X160705521Y-118872433D01*
X160922296Y-119020228D01*
X161158677Y-119134063D01*
X161409385Y-119211396D01*
X161668818Y-119250500D01*
X161931182Y-119250500D01*
X162190615Y-119211396D01*
X162317476Y-119172263D01*
X162383873Y-119170401D01*
X162441706Y-119203074D01*
X162484269Y-119245637D01*
X162496051Y-119259270D01*
X162510389Y-119278529D01*
X162548337Y-119310372D01*
X162556311Y-119317680D01*
X162560217Y-119321586D01*
X162568621Y-119328231D01*
X162605571Y-119376385D01*
X162615241Y-119436306D01*
X162595314Y-119493638D01*
X162550564Y-119534645D01*
X162491713Y-119549500D01*
X162408818Y-119549500D01*
X162149385Y-119588604D01*
X161898677Y-119665937D01*
X161731968Y-119746220D01*
X161662296Y-119779772D01*
X161613108Y-119813308D01*
X161445514Y-119927571D01*
X161253198Y-120106015D01*
X161089613Y-120311143D01*
X160958431Y-120538358D01*
X160862580Y-120782581D01*
X160804197Y-121038372D01*
X160784591Y-121300000D01*
X160804197Y-121561627D01*
X160862580Y-121817418D01*
X160958431Y-122061641D01*
X160958432Y-122061643D01*
X160986062Y-122109500D01*
X161089612Y-122288855D01*
X161089614Y-122288857D01*
X161253195Y-122493981D01*
X161253197Y-122493983D01*
X161253198Y-122493984D01*
X161445514Y-122672428D01*
X161445520Y-122672432D01*
X161445521Y-122672433D01*
X161662296Y-122820228D01*
X161898677Y-122934063D01*
X162149385Y-123011396D01*
X162408818Y-123050500D01*
X162671182Y-123050500D01*
X162930615Y-123011396D01*
X163181323Y-122934063D01*
X163417704Y-122820228D01*
X163634479Y-122672433D01*
X163634482Y-122672429D01*
X163634485Y-122672428D01*
X163771609Y-122545195D01*
X163826805Y-122493981D01*
X163990386Y-122288857D01*
X164011561Y-122252179D01*
X164056243Y-122207202D01*
X164117320Y-122190190D01*
X164178822Y-122205592D01*
X164212758Y-122238004D01*
X164214826Y-122236238D01*
X164221163Y-122243658D01*
X164221164Y-122243659D01*
X164384776Y-122435224D01*
X164432178Y-122475709D01*
X164432179Y-122475710D01*
X164464257Y-122518087D01*
X164475647Y-122570000D01*
X164464257Y-122621913D01*
X164432179Y-122664289D01*
X164413530Y-122680218D01*
X164384776Y-122704776D01*
X164221163Y-122896342D01*
X164089535Y-123111139D01*
X163993126Y-123343889D01*
X163934317Y-123588850D01*
X163914551Y-123839999D01*
X163934317Y-124091149D01*
X163993126Y-124336110D01*
X164013991Y-124386482D01*
X164089534Y-124568859D01*
X164221164Y-124783659D01*
X164384776Y-124975224D01*
X164432180Y-125015710D01*
X164464257Y-125058085D01*
X164475647Y-125109998D01*
X164464257Y-125161912D01*
X164432179Y-125204289D01*
X164384772Y-125244778D01*
X164221163Y-125436340D01*
X164214374Y-125447419D01*
X164168525Y-125491210D01*
X164107023Y-125506613D01*
X164045946Y-125489602D01*
X164001263Y-125444624D01*
X163970386Y-125391143D01*
X163970385Y-125391141D01*
X163886769Y-125286291D01*
X163806805Y-125186019D01*
X163795946Y-125175943D01*
X163614485Y-125007571D01*
X163590008Y-124990883D01*
X163397704Y-124859772D01*
X163161323Y-124745937D01*
X162910615Y-124668604D01*
X162651182Y-124629500D01*
X162388818Y-124629500D01*
X162129385Y-124668604D01*
X161878677Y-124745937D01*
X161653952Y-124854159D01*
X161642296Y-124859772D01*
X161575852Y-124905073D01*
X161425514Y-125007571D01*
X161233198Y-125186015D01*
X161069613Y-125391143D01*
X160938431Y-125618358D01*
X160842580Y-125862581D01*
X160784197Y-126118372D01*
X160764591Y-126379999D01*
X160784197Y-126641627D01*
X160842580Y-126897418D01*
X160938431Y-127141641D01*
X160938432Y-127141643D01*
X160960362Y-127179627D01*
X161048983Y-127333124D01*
X161069614Y-127368857D01*
X161233195Y-127573981D01*
X161233197Y-127573983D01*
X161233198Y-127573984D01*
X161425514Y-127752428D01*
X161425520Y-127752432D01*
X161425521Y-127752433D01*
X161642296Y-127900228D01*
X161878677Y-128014063D01*
X162129385Y-128091396D01*
X162388818Y-128130500D01*
X162651182Y-128130500D01*
X162910615Y-128091396D01*
X163161323Y-128014063D01*
X163397704Y-127900228D01*
X163614479Y-127752433D01*
X163614482Y-127752429D01*
X163614485Y-127752428D01*
X163735448Y-127640190D01*
X163806805Y-127573981D01*
X163970386Y-127368857D01*
X164001263Y-127315375D01*
X164045946Y-127270397D01*
X164107024Y-127253386D01*
X164168527Y-127268790D01*
X164214375Y-127312581D01*
X164221164Y-127323659D01*
X164384776Y-127515224D01*
X164432178Y-127555709D01*
X164432179Y-127555710D01*
X164464257Y-127598087D01*
X164475647Y-127650000D01*
X164464257Y-127701913D01*
X164432179Y-127744290D01*
X164384776Y-127784776D01*
X164221163Y-127976342D01*
X164101589Y-128171469D01*
X164089534Y-128191141D01*
X164078504Y-128217770D01*
X163993126Y-128423889D01*
X163934317Y-128668850D01*
X163914551Y-128919999D01*
X163934317Y-129171149D01*
X163993126Y-129416110D01*
X164036146Y-129519969D01*
X164089534Y-129648859D01*
X164221164Y-129863659D01*
X164384776Y-130055224D01*
X164432564Y-130096039D01*
X164464640Y-130138413D01*
X164476031Y-130190326D01*
X164464641Y-130242240D01*
X164432564Y-130284616D01*
X164385131Y-130325128D01*
X164221569Y-130516636D01*
X164089982Y-130731367D01*
X163995279Y-130959999D01*
X163995279Y-130960000D01*
X168344721Y-130960000D01*
X168344720Y-130959999D01*
X168250017Y-130731367D01*
X168118430Y-130516635D01*
X167954869Y-130325130D01*
X167907435Y-130284617D01*
X167875357Y-130242240D01*
X167863967Y-130190325D01*
X167875358Y-130138411D01*
X167907430Y-130096043D01*
X167955224Y-130055224D01*
X168033163Y-129963968D01*
X168075539Y-129931890D01*
X168127453Y-129920500D01*
X170215259Y-129920500D01*
X170269060Y-129932780D01*
X170312206Y-129967187D01*
X170320122Y-129977113D01*
X170453195Y-130143981D01*
X170453197Y-130143983D01*
X170453198Y-130143984D01*
X170645514Y-130322428D01*
X170645520Y-130322432D01*
X170645521Y-130322433D01*
X170862296Y-130470228D01*
X171098677Y-130584063D01*
X171349385Y-130661396D01*
X171608818Y-130700500D01*
X171871182Y-130700500D01*
X172130615Y-130661396D01*
X172381323Y-130584063D01*
X172617704Y-130470228D01*
X172834479Y-130322433D01*
X172834482Y-130322429D01*
X172834485Y-130322428D01*
X172946130Y-130218836D01*
X173026805Y-130143981D01*
X173190386Y-129938857D01*
X173321568Y-129711643D01*
X173417420Y-129467416D01*
X173475802Y-129211630D01*
X173495408Y-128950000D01*
X173475802Y-128688370D01*
X173417420Y-128432584D01*
X173414007Y-128423889D01*
X173351911Y-128265671D01*
X173321568Y-128188357D01*
X173190386Y-127961143D01*
X173026805Y-127756019D01*
X173026801Y-127756015D01*
X172834485Y-127577571D01*
X172802419Y-127555709D01*
X172617704Y-127429772D01*
X172381323Y-127315937D01*
X172130615Y-127238604D01*
X171871182Y-127199500D01*
X171608818Y-127199500D01*
X171349385Y-127238604D01*
X171098677Y-127315937D01*
X170913109Y-127405302D01*
X170862296Y-127429772D01*
X170839147Y-127445555D01*
X170645514Y-127577571D01*
X170453198Y-127756015D01*
X170360055Y-127872813D01*
X170316910Y-127907220D01*
X170263108Y-127919500D01*
X168127453Y-127919500D01*
X168075539Y-127908110D01*
X168033163Y-127876031D01*
X167955224Y-127784775D01*
X167907821Y-127744290D01*
X167875742Y-127701914D01*
X167864352Y-127649999D01*
X167875743Y-127598085D01*
X167907822Y-127555709D01*
X167919211Y-127545981D01*
X167955224Y-127515224D01*
X168118836Y-127323659D01*
X168250466Y-127108859D01*
X168346873Y-126876111D01*
X168405683Y-126631148D01*
X168425449Y-126380000D01*
X168405683Y-126128852D01*
X168346873Y-125883889D01*
X168250466Y-125651141D01*
X168118836Y-125436341D01*
X167955224Y-125244776D01*
X167955222Y-125244774D01*
X167955221Y-125244773D01*
X167909436Y-125205669D01*
X167907820Y-125204289D01*
X167875742Y-125161914D01*
X167864352Y-125109999D01*
X167875743Y-125058085D01*
X167907822Y-125015709D01*
X167924736Y-125001263D01*
X167955224Y-124975224D01*
X168118836Y-124783659D01*
X168200920Y-124649709D01*
X168246058Y-124606311D01*
X168306647Y-124590500D01*
X170038860Y-124590500D01*
X170100860Y-124607113D01*
X170146247Y-124652500D01*
X170259613Y-124848856D01*
X170268318Y-124859772D01*
X170423195Y-125053981D01*
X170423197Y-125053983D01*
X170423198Y-125053984D01*
X170615514Y-125232428D01*
X170615520Y-125232432D01*
X170615521Y-125232433D01*
X170832296Y-125380228D01*
X171068677Y-125494063D01*
X171319385Y-125571396D01*
X171578818Y-125610500D01*
X171841182Y-125610500D01*
X172100615Y-125571396D01*
X172351323Y-125494063D01*
X172587704Y-125380228D01*
X172804479Y-125232433D01*
X172804482Y-125232429D01*
X172804485Y-125232428D01*
X172926451Y-125119260D01*
X172996805Y-125053981D01*
X173160386Y-124848857D01*
X173291568Y-124621643D01*
X173387420Y-124377416D01*
X173445802Y-124121630D01*
X173465408Y-123860000D01*
X173445802Y-123598370D01*
X173387420Y-123342584D01*
X173291568Y-123098357D01*
X173160386Y-122871143D01*
X172996805Y-122666019D01*
X172949612Y-122622230D01*
X172804485Y-122487571D01*
X172727706Y-122435224D01*
X172587704Y-122339772D01*
X172351323Y-122225937D01*
X172100615Y-122148604D01*
X171841182Y-122109500D01*
X171578818Y-122109500D01*
X171319385Y-122148604D01*
X171068677Y-122225937D01*
X170858552Y-122327128D01*
X170832296Y-122339772D01*
X170809537Y-122355289D01*
X170615514Y-122487571D01*
X170423198Y-122666015D01*
X170259613Y-122871144D01*
X170214202Y-122949797D01*
X170178640Y-123011396D01*
X170169342Y-123027500D01*
X170123955Y-123072887D01*
X170061955Y-123089500D01*
X168306647Y-123089500D01*
X168246058Y-123073689D01*
X168200920Y-123030290D01*
X168185938Y-123005841D01*
X168118836Y-122896341D01*
X167955224Y-122704776D01*
X167907816Y-122664286D01*
X167875742Y-122621914D01*
X167864351Y-122570000D01*
X167875742Y-122518086D01*
X167907816Y-122475713D01*
X167955224Y-122435224D01*
X168118836Y-122243659D01*
X168250466Y-122028859D01*
X168346873Y-121796111D01*
X168405683Y-121551148D01*
X168425449Y-121300000D01*
X168405683Y-121048852D01*
X168346873Y-120803889D01*
X168250466Y-120571141D01*
X168118836Y-120356341D01*
X167955224Y-120164776D01*
X167907817Y-120124287D01*
X167875741Y-120081912D01*
X167864351Y-120029998D01*
X167875742Y-119978083D01*
X167907814Y-119935715D01*
X167955224Y-119895224D01*
X168118836Y-119703659D01*
X168250466Y-119488859D01*
X168346873Y-119256111D01*
X168405683Y-119011148D01*
X168425449Y-118760000D01*
X168405683Y-118508852D01*
X168346873Y-118263889D01*
X168250466Y-118031141D01*
X168118836Y-117816341D01*
X167955224Y-117624776D01*
X167763659Y-117461164D01*
X167548859Y-117329534D01*
X167367119Y-117254255D01*
X167316110Y-117233126D01*
X167071149Y-117174317D01*
X167021200Y-117170386D01*
X166882882Y-117159500D01*
X165457118Y-117159500D01*
X165344158Y-117168390D01*
X165268850Y-117174317D01*
X165023889Y-117233126D01*
X164791139Y-117329535D01*
X164576342Y-117461163D01*
X164384776Y-117624776D01*
X164221163Y-117816342D01*
X164139080Y-117950290D01*
X164093942Y-117993689D01*
X164033353Y-118009500D01*
X163634718Y-118009500D01*
X163580916Y-117997220D01*
X163537771Y-117962813D01*
X163513827Y-117913092D01*
X163513827Y-117857907D01*
X163535802Y-117761630D01*
X163555408Y-117500000D01*
X163535802Y-117238370D01*
X163477420Y-116982584D01*
X163475150Y-116976801D01*
X163429677Y-116860936D01*
X163381568Y-116738357D01*
X163250386Y-116511143D01*
X163086805Y-116306019D01*
X163079816Y-116299534D01*
X162894485Y-116127571D01*
X162857413Y-116102296D01*
X162677704Y-115979772D01*
X162441323Y-115865937D01*
X162190615Y-115788604D01*
X161931182Y-115749500D01*
X161668818Y-115749500D01*
X161409385Y-115788604D01*
X161158677Y-115865937D01*
X160977044Y-115953407D01*
X160922296Y-115979772D01*
X160852922Y-116027070D01*
X160705514Y-116127571D01*
X160588841Y-116235829D01*
X160539273Y-116263956D01*
X160482359Y-116266938D01*
X160430122Y-116244148D01*
X160393597Y-116200398D01*
X160380500Y-116144931D01*
X160380500Y-109875446D01*
X160380710Y-109868236D01*
X160384331Y-109806066D01*
X160373515Y-109744731D01*
X160372469Y-109737591D01*
X160371559Y-109729803D01*
X160365241Y-109675745D01*
X160361404Y-109665206D01*
X160355810Y-109644324D01*
X160353865Y-109633289D01*
X160329193Y-109576094D01*
X160326535Y-109569400D01*
X160303791Y-109506909D01*
X160297374Y-109448314D01*
X160318739Y-109393376D01*
X160363057Y-109354510D01*
X160420313Y-109340500D01*
X171045500Y-109340500D01*
X171107500Y-109357113D01*
G37*
%TD.AperFunction*%
%TA.AperFunction,Conductor*%
G36*
X202172845Y-106670631D02*
G01*
X202343010Y-106678498D01*
X202539795Y-106688166D01*
X202550787Y-106689201D01*
X202732876Y-106714601D01*
X202733781Y-106714732D01*
X202917261Y-106741949D01*
X202927413Y-106743892D01*
X203108614Y-106786510D01*
X203110023Y-106786852D01*
X203287874Y-106831401D01*
X203297091Y-106834096D01*
X203474478Y-106893550D01*
X203476618Y-106894292D01*
X203648220Y-106955692D01*
X203656519Y-106959004D01*
X203827980Y-107034712D01*
X203830909Y-107036051D01*
X203917263Y-107076892D01*
X203995119Y-107113715D01*
X204002411Y-107117465D01*
X204166435Y-107208827D01*
X204169810Y-107210777D01*
X204325371Y-107304017D01*
X204331670Y-107308058D01*
X204486699Y-107414256D01*
X204490459Y-107416935D01*
X204636009Y-107524882D01*
X204641305Y-107529040D01*
X204786009Y-107649200D01*
X204789947Y-107652617D01*
X204924206Y-107774303D01*
X204928590Y-107778478D01*
X205061520Y-107911408D01*
X205065698Y-107915795D01*
X205187375Y-108050045D01*
X205190805Y-108053998D01*
X205310951Y-108198684D01*
X205315124Y-108204000D01*
X205342948Y-108241516D01*
X205423041Y-108349509D01*
X205425742Y-108353299D01*
X205531940Y-108508328D01*
X205535992Y-108514645D01*
X205596410Y-108615446D01*
X205629200Y-108670153D01*
X205631171Y-108673563D01*
X205722525Y-108837573D01*
X205726291Y-108844896D01*
X205803947Y-109009089D01*
X205805286Y-109012018D01*
X205880994Y-109183479D01*
X205884311Y-109191791D01*
X205945666Y-109363265D01*
X205946487Y-109365634D01*
X206005894Y-109542881D01*
X206008606Y-109552157D01*
X206053104Y-109729803D01*
X206053526Y-109731543D01*
X206096101Y-109912562D01*
X206098053Y-109922758D01*
X206125257Y-110106156D01*
X206125410Y-110107218D01*
X206150794Y-110289184D01*
X206151834Y-110300232D01*
X206161512Y-110497238D01*
X206161529Y-110497595D01*
X206169368Y-110667145D01*
X206169500Y-110672872D01*
X206169500Y-143687128D01*
X206169368Y-143692855D01*
X206161529Y-143862404D01*
X206161512Y-143862761D01*
X206151834Y-144059766D01*
X206150794Y-144070814D01*
X206125410Y-144252780D01*
X206125257Y-144253842D01*
X206098053Y-144437240D01*
X206096101Y-144447436D01*
X206053526Y-144628455D01*
X206053104Y-144630195D01*
X206008606Y-144807841D01*
X206005894Y-144817117D01*
X205946487Y-144994364D01*
X205945666Y-144996733D01*
X205884311Y-145168207D01*
X205880994Y-145176519D01*
X205805286Y-145347980D01*
X205803947Y-145350909D01*
X205726291Y-145515102D01*
X205722525Y-145522425D01*
X205631171Y-145686435D01*
X205629200Y-145689845D01*
X205535999Y-145845342D01*
X205531940Y-145851670D01*
X205425742Y-146006699D01*
X205423041Y-146010489D01*
X205315135Y-146155984D01*
X205310935Y-146161334D01*
X205190851Y-146305947D01*
X205187331Y-146310004D01*
X205065717Y-146444183D01*
X205061520Y-146448590D01*
X204928590Y-146581520D01*
X204924183Y-146585717D01*
X204790004Y-146707331D01*
X204785947Y-146710851D01*
X204641334Y-146830935D01*
X204635984Y-146835135D01*
X204490489Y-146943041D01*
X204486699Y-146945742D01*
X204331670Y-147051940D01*
X204325342Y-147055999D01*
X204169845Y-147149200D01*
X204166435Y-147151171D01*
X204002425Y-147242525D01*
X203995102Y-147246291D01*
X203830909Y-147323947D01*
X203827980Y-147325286D01*
X203656519Y-147400994D01*
X203648207Y-147404311D01*
X203476733Y-147465666D01*
X203474364Y-147466487D01*
X203297117Y-147525894D01*
X203287841Y-147528606D01*
X203110195Y-147573104D01*
X203108455Y-147573526D01*
X202927436Y-147616101D01*
X202917240Y-147618053D01*
X202733842Y-147645257D01*
X202732780Y-147645410D01*
X202550814Y-147670794D01*
X202539766Y-147671834D01*
X202342931Y-147681503D01*
X202342575Y-147681520D01*
X202177393Y-147689158D01*
X202172854Y-147689368D01*
X202167128Y-147689500D01*
X85172872Y-147689500D01*
X85167145Y-147689368D01*
X85162305Y-147689144D01*
X84997423Y-147681520D01*
X84997067Y-147681503D01*
X84800232Y-147671834D01*
X84789184Y-147670794D01*
X84607218Y-147645410D01*
X84606156Y-147645257D01*
X84422758Y-147618053D01*
X84412562Y-147616101D01*
X84231543Y-147573526D01*
X84229803Y-147573104D01*
X84052157Y-147528606D01*
X84042881Y-147525894D01*
X83865634Y-147466487D01*
X83863265Y-147465666D01*
X83691791Y-147404311D01*
X83683479Y-147400994D01*
X83512018Y-147325286D01*
X83509089Y-147323947D01*
X83344896Y-147246291D01*
X83337573Y-147242525D01*
X83173563Y-147151171D01*
X83170153Y-147149200D01*
X83144608Y-147133889D01*
X83014645Y-147055992D01*
X83008328Y-147051940D01*
X82853299Y-146945742D01*
X82849509Y-146943041D01*
X82704000Y-146835124D01*
X82698684Y-146830951D01*
X82553998Y-146710805D01*
X82550045Y-146707375D01*
X82415795Y-146585698D01*
X82411408Y-146581520D01*
X82278478Y-146448590D01*
X82274303Y-146444206D01*
X82152617Y-146309947D01*
X82149200Y-146306009D01*
X82029040Y-146161305D01*
X82024882Y-146156009D01*
X81916935Y-146010459D01*
X81914256Y-146006699D01*
X81808058Y-145851670D01*
X81804017Y-145845371D01*
X81710777Y-145689810D01*
X81708827Y-145686435D01*
X81617465Y-145522411D01*
X81613715Y-145515119D01*
X81537357Y-145353671D01*
X81536051Y-145350909D01*
X81534712Y-145347980D01*
X81459004Y-145176519D01*
X81455692Y-145168220D01*
X81394292Y-144996618D01*
X81393550Y-144994478D01*
X81334096Y-144817091D01*
X81331401Y-144807874D01*
X81286852Y-144630023D01*
X81286510Y-144628614D01*
X81243892Y-144447413D01*
X81241949Y-144437261D01*
X81214732Y-144253781D01*
X81214588Y-144252780D01*
X81189201Y-144070787D01*
X81188166Y-144059795D01*
X81178480Y-143862611D01*
X81170632Y-143692854D01*
X81170500Y-143687128D01*
X81170500Y-138851182D01*
X89489500Y-138851182D01*
X89528604Y-139110615D01*
X89605937Y-139361323D01*
X89719772Y-139597704D01*
X89841240Y-139775865D01*
X89867571Y-139814485D01*
X90046015Y-140006801D01*
X90046019Y-140006805D01*
X90251143Y-140170386D01*
X90478357Y-140301568D01*
X90646143Y-140367419D01*
X90722089Y-140397226D01*
X90722584Y-140397420D01*
X90978370Y-140455802D01*
X91034408Y-140460001D01*
X91174501Y-140470500D01*
X91174506Y-140470500D01*
X91305494Y-140470500D01*
X91305499Y-140470500D01*
X91428079Y-140461313D01*
X91501630Y-140455802D01*
X91757416Y-140397420D01*
X92001643Y-140301568D01*
X92228857Y-140170386D01*
X92433981Y-140006805D01*
X92578606Y-139850936D01*
X92612428Y-139814485D01*
X92612429Y-139814482D01*
X92612433Y-139814479D01*
X92760228Y-139597704D01*
X92874063Y-139361323D01*
X92951396Y-139110615D01*
X92990500Y-138851182D01*
X92990500Y-138588818D01*
X92951396Y-138329385D01*
X92874063Y-138078677D01*
X92760228Y-137842296D01*
X92612433Y-137625521D01*
X92612432Y-137625520D01*
X92612428Y-137625514D01*
X92433984Y-137433198D01*
X92433983Y-137433197D01*
X92433981Y-137433195D01*
X92277365Y-137308298D01*
X92228856Y-137269613D01*
X92048817Y-137165668D01*
X92001643Y-137138432D01*
X92001642Y-137138431D01*
X92001641Y-137138431D01*
X91757418Y-137042580D01*
X91501627Y-136984197D01*
X91305499Y-136969500D01*
X91305494Y-136969500D01*
X91174506Y-136969500D01*
X91174501Y-136969500D01*
X90978372Y-136984197D01*
X90722581Y-137042580D01*
X90478358Y-137138431D01*
X90251143Y-137269613D01*
X90046015Y-137433198D01*
X89867571Y-137625514D01*
X89793033Y-137734842D01*
X89723761Y-137836446D01*
X89719771Y-137842298D01*
X89640544Y-138006814D01*
X89605937Y-138078677D01*
X89528604Y-138329385D01*
X89489500Y-138588818D01*
X89489500Y-138851182D01*
X81170500Y-138851182D01*
X81170500Y-133449335D01*
X84139500Y-133449335D01*
X84180429Y-133694615D01*
X84261170Y-133929805D01*
X84261172Y-133929810D01*
X84375183Y-134140483D01*
X84379529Y-134148514D01*
X84498960Y-134301958D01*
X84532262Y-134344744D01*
X84715215Y-134513164D01*
X84923393Y-134649173D01*
X85151119Y-134749063D01*
X85392179Y-134810108D01*
X85466480Y-134816264D01*
X85577927Y-134825500D01*
X85577933Y-134825500D01*
X87702067Y-134825500D01*
X87702073Y-134825500D01*
X87803387Y-134817104D01*
X87887821Y-134810108D01*
X88128881Y-134749063D01*
X88356607Y-134649173D01*
X88564785Y-134513164D01*
X88747738Y-134344744D01*
X88900474Y-134148509D01*
X88904818Y-134140481D01*
X88950398Y-134092977D01*
X89013872Y-134075500D01*
X98440844Y-134075500D01*
X98504443Y-134093052D01*
X98550038Y-134140740D01*
X98564719Y-134205063D01*
X98544331Y-134267811D01*
X98494646Y-134311219D01*
X98352296Y-134379772D01*
X98282922Y-134427070D01*
X98135514Y-134527571D01*
X97943198Y-134706015D01*
X97779613Y-134911143D01*
X97648431Y-135138358D01*
X97552580Y-135382581D01*
X97494197Y-135638372D01*
X97474591Y-135899999D01*
X97494197Y-136161627D01*
X97552580Y-136417418D01*
X97648431Y-136661641D01*
X97779613Y-136888856D01*
X97798331Y-136912327D01*
X97943195Y-137093981D01*
X97943197Y-137093983D01*
X97943198Y-137093984D01*
X98135514Y-137272428D01*
X98135520Y-137272432D01*
X98135521Y-137272433D01*
X98352296Y-137420228D01*
X98352299Y-137420229D01*
X98352300Y-137420230D01*
X98409301Y-137447680D01*
X98460494Y-137493428D01*
X98479500Y-137559400D01*
X98479500Y-137740391D01*
X98468175Y-137792162D01*
X98436270Y-137834477D01*
X98389612Y-137859607D01*
X98366949Y-137866091D01*
X98186593Y-137960301D01*
X98028891Y-138088891D01*
X97900301Y-138246593D01*
X97806091Y-138426949D01*
X97765294Y-138569529D01*
X97750114Y-138622582D01*
X97740342Y-138732500D01*
X97739500Y-138741966D01*
X97739500Y-140858033D01*
X97750114Y-140977417D01*
X97806091Y-141173050D01*
X97900301Y-141353406D01*
X97911238Y-141366819D01*
X98028891Y-141511109D01*
X98161565Y-141619290D01*
X98186593Y-141639698D01*
X98353653Y-141726963D01*
X98366951Y-141733909D01*
X98562582Y-141789886D01*
X98681963Y-141800500D01*
X99798036Y-141800499D01*
X99917418Y-141789886D01*
X100113049Y-141733909D01*
X100293407Y-141639698D01*
X100431641Y-141526982D01*
X100481970Y-141502296D01*
X100538030Y-141502296D01*
X100588358Y-141526982D01*
X100660419Y-141585740D01*
X100726593Y-141639698D01*
X100893653Y-141726963D01*
X100906951Y-141733909D01*
X101102582Y-141789886D01*
X101221963Y-141800500D01*
X102338036Y-141800499D01*
X102457418Y-141789886D01*
X102653049Y-141733909D01*
X102833407Y-141639698D01*
X102991109Y-141511109D01*
X103119698Y-141353407D01*
X103213909Y-141173049D01*
X103269886Y-140977418D01*
X103280500Y-140858037D01*
X103280499Y-140457068D01*
X103296695Y-140395798D01*
X103341053Y-140350532D01*
X103401985Y-140333096D01*
X103463574Y-140348047D01*
X103509730Y-140391479D01*
X103524744Y-140415566D01*
X103524746Y-140415568D01*
X103524748Y-140415571D01*
X103664941Y-140563053D01*
X103831951Y-140679295D01*
X104018942Y-140759540D01*
X104218259Y-140800500D01*
X104370740Y-140800500D01*
X104370742Y-140800500D01*
X104522438Y-140785074D01*
X104716588Y-140724159D01*
X104894502Y-140625409D01*
X105048895Y-140492866D01*
X105173448Y-140331958D01*
X105263060Y-140149271D01*
X105314063Y-139952285D01*
X105324369Y-139749064D01*
X105322680Y-139738042D01*
X105293556Y-139547928D01*
X105222886Y-139357113D01*
X105115254Y-139184431D01*
X105082507Y-139149982D01*
X104975059Y-139036947D01*
X104808049Y-138920705D01*
X104621058Y-138840460D01*
X104421741Y-138799500D01*
X104269258Y-138799500D01*
X104193409Y-138807213D01*
X104117560Y-138814926D01*
X104102514Y-138819647D01*
X104037364Y-138822123D01*
X103979962Y-138791207D01*
X103946179Y-138735444D01*
X103945354Y-138670252D01*
X103977712Y-138613654D01*
X110525642Y-132065724D01*
X110539260Y-132053954D01*
X110558530Y-132039610D01*
X110590376Y-132001656D01*
X110597662Y-131993704D01*
X110601591Y-131989777D01*
X110620833Y-131965439D01*
X110623090Y-131962670D01*
X110650512Y-131929991D01*
X110699051Y-131894726D01*
X110758463Y-131886377D01*
X110814841Y-131906898D01*
X110854986Y-131951484D01*
X110869500Y-132009698D01*
X110869500Y-134567770D01*
X110860061Y-134615223D01*
X110833181Y-134655451D01*
X108914358Y-136574272D01*
X108900727Y-136586053D01*
X108881467Y-136600392D01*
X108849633Y-136638329D01*
X108842341Y-136646289D01*
X108838408Y-136650222D01*
X108819176Y-136674545D01*
X108816902Y-136677337D01*
X108767894Y-136735744D01*
X108757418Y-136752187D01*
X108725192Y-136821294D01*
X108723622Y-136824536D01*
X108689393Y-136892692D01*
X108682996Y-136911098D01*
X108667573Y-136985788D01*
X108666793Y-136989305D01*
X108649208Y-137063505D01*
X108647229Y-137082878D01*
X108649448Y-137159131D01*
X108649500Y-137162737D01*
X108649500Y-137737530D01*
X108638175Y-137789301D01*
X108606270Y-137831616D01*
X108559612Y-137856745D01*
X108543286Y-137861417D01*
X108526950Y-137866091D01*
X108346593Y-137960301D01*
X108188891Y-138088891D01*
X108060301Y-138246593D01*
X107966091Y-138426949D01*
X107925294Y-138569529D01*
X107910114Y-138622582D01*
X107900342Y-138732500D01*
X107899500Y-138741967D01*
X107899500Y-139142928D01*
X107883304Y-139204201D01*
X107838945Y-139249468D01*
X107778013Y-139266903D01*
X107716424Y-139251951D01*
X107670268Y-139208519D01*
X107655254Y-139184431D01*
X107622507Y-139149982D01*
X107515059Y-139036947D01*
X107348049Y-138920705D01*
X107161058Y-138840460D01*
X106961741Y-138799500D01*
X106809258Y-138799500D01*
X106748579Y-138805670D01*
X106657559Y-138814926D01*
X106463412Y-138875841D01*
X106285500Y-138974589D01*
X106131104Y-139107135D01*
X106006551Y-139268042D01*
X105916940Y-139450727D01*
X105891773Y-139547929D01*
X105868677Y-139637135D01*
X105865937Y-139647716D01*
X105855630Y-139850937D01*
X105886443Y-140052071D01*
X105957113Y-140242886D01*
X106064745Y-140415568D01*
X106069016Y-140420061D01*
X106204941Y-140563053D01*
X106371951Y-140679295D01*
X106558942Y-140759540D01*
X106758259Y-140800500D01*
X106910740Y-140800500D01*
X106910742Y-140800500D01*
X107062438Y-140785074D01*
X107256588Y-140724159D01*
X107434502Y-140625409D01*
X107588895Y-140492866D01*
X107677445Y-140378468D01*
X107725447Y-140340922D01*
X107785542Y-140330778D01*
X107843211Y-140350490D01*
X107884523Y-140395295D01*
X107899500Y-140454371D01*
X107899500Y-140858033D01*
X107910114Y-140977417D01*
X107966091Y-141173050D01*
X108060301Y-141353406D01*
X108071238Y-141366819D01*
X108188891Y-141511109D01*
X108321565Y-141619290D01*
X108346593Y-141639698D01*
X108513653Y-141726963D01*
X108526951Y-141733909D01*
X108722582Y-141789886D01*
X108841963Y-141800500D01*
X109958036Y-141800499D01*
X110077418Y-141789886D01*
X110273049Y-141733909D01*
X110453407Y-141639698D01*
X110591641Y-141526982D01*
X110641970Y-141502296D01*
X110698030Y-141502296D01*
X110748358Y-141526982D01*
X110820419Y-141585740D01*
X110886593Y-141639698D01*
X111053653Y-141726963D01*
X111066951Y-141733909D01*
X111090903Y-141740762D01*
X111142352Y-141770227D01*
X111174240Y-141820211D01*
X111179277Y-141879287D01*
X111156311Y-141933948D01*
X111110592Y-141971698D01*
X111052298Y-141999770D01*
X110835514Y-142147571D01*
X110643198Y-142326015D01*
X110479613Y-142531143D01*
X110348431Y-142758358D01*
X110252580Y-143002581D01*
X110194197Y-143258372D01*
X110174591Y-143520000D01*
X110194197Y-143781627D01*
X110252580Y-144037418D01*
X110348431Y-144281641D01*
X110444152Y-144447436D01*
X110479614Y-144508857D01*
X110643195Y-144713981D01*
X110643197Y-144713983D01*
X110643198Y-144713984D01*
X110835514Y-144892428D01*
X110835520Y-144892432D01*
X110835521Y-144892433D01*
X111052296Y-145040228D01*
X111288677Y-145154063D01*
X111539385Y-145231396D01*
X111798818Y-145270500D01*
X112061182Y-145270500D01*
X112320615Y-145231396D01*
X112571323Y-145154063D01*
X112807704Y-145040228D01*
X113024479Y-144892433D01*
X113024482Y-144892429D01*
X113024485Y-144892428D01*
X113183457Y-144744923D01*
X113216805Y-144713981D01*
X113380386Y-144508857D01*
X113511568Y-144281643D01*
X113607420Y-144037416D01*
X113665802Y-143781630D01*
X113685408Y-143520000D01*
X113665802Y-143258370D01*
X113607420Y-143002584D01*
X113592937Y-142965683D01*
X113560138Y-142882112D01*
X113511568Y-142758357D01*
X113380386Y-142531143D01*
X113216805Y-142326019D01*
X113214262Y-142323659D01*
X113024485Y-142147571D01*
X112971671Y-142111563D01*
X112807704Y-141999772D01*
X112760696Y-141977134D01*
X112709507Y-141931388D01*
X112690500Y-141865416D01*
X112690500Y-141862470D01*
X112701825Y-141810699D01*
X112733730Y-141768384D01*
X112780387Y-141743254D01*
X112813049Y-141733909D01*
X112993407Y-141639698D01*
X113131641Y-141526982D01*
X113181970Y-141502296D01*
X113238030Y-141502296D01*
X113288358Y-141526982D01*
X113360419Y-141585740D01*
X113426593Y-141639698D01*
X113593653Y-141726963D01*
X113606951Y-141733909D01*
X113802582Y-141789886D01*
X113921963Y-141800500D01*
X115038036Y-141800499D01*
X115157418Y-141789886D01*
X115353049Y-141733909D01*
X115533407Y-141639698D01*
X115671641Y-141526982D01*
X115721970Y-141502296D01*
X115778030Y-141502296D01*
X115828358Y-141526982D01*
X115900419Y-141585740D01*
X115966593Y-141639698D01*
X116133653Y-141726963D01*
X116146951Y-141733909D01*
X116342582Y-141789886D01*
X116461963Y-141800500D01*
X117578036Y-141800499D01*
X117697418Y-141789886D01*
X117893049Y-141733909D01*
X118073407Y-141639698D01*
X118231109Y-141511109D01*
X118359698Y-141353407D01*
X118453909Y-141173049D01*
X118509886Y-140977418D01*
X118520500Y-140858037D01*
X118520499Y-140457067D01*
X118536695Y-140395798D01*
X118581053Y-140350532D01*
X118641985Y-140333096D01*
X118703574Y-140348047D01*
X118749730Y-140391479D01*
X118764744Y-140415566D01*
X118764746Y-140415568D01*
X118764748Y-140415571D01*
X118904941Y-140563053D01*
X119071951Y-140679295D01*
X119258942Y-140759540D01*
X119458259Y-140800500D01*
X119610740Y-140800500D01*
X119610742Y-140800500D01*
X119762438Y-140785074D01*
X119956588Y-140724159D01*
X120134502Y-140625409D01*
X120288895Y-140492866D01*
X120413448Y-140331958D01*
X120503060Y-140149271D01*
X120554063Y-139952285D01*
X120564369Y-139749064D01*
X120562680Y-139738042D01*
X120533556Y-139547928D01*
X120462886Y-139357113D01*
X120355254Y-139184431D01*
X120322507Y-139149982D01*
X120215059Y-139036947D01*
X120048049Y-138920705D01*
X119861058Y-138840460D01*
X119661741Y-138799500D01*
X119509258Y-138799500D01*
X119448579Y-138805670D01*
X119357559Y-138814926D01*
X119163412Y-138875841D01*
X118985500Y-138974589D01*
X118831104Y-139107135D01*
X118742555Y-139221530D01*
X118694551Y-139259078D01*
X118634456Y-139269221D01*
X118576788Y-139249509D01*
X118535476Y-139204703D01*
X118520499Y-139145628D01*
X118520499Y-138741966D01*
X118519919Y-138735444D01*
X118509886Y-138622582D01*
X118453909Y-138426951D01*
X118359698Y-138246593D01*
X118231109Y-138088891D01*
X118231106Y-138088888D01*
X118223140Y-138079119D01*
X118224071Y-138078359D01*
X118197127Y-138042244D01*
X118188141Y-137982581D01*
X118208377Y-137925740D01*
X118253044Y-137885179D01*
X118311567Y-137870500D01*
X120470663Y-137870500D01*
X120492876Y-137872769D01*
X120494140Y-137872732D01*
X120494144Y-137872733D01*
X120569110Y-137870552D01*
X120572716Y-137870500D01*
X120603705Y-137870500D01*
X120603709Y-137870500D01*
X120609206Y-137869857D01*
X120619969Y-137869072D01*
X120669512Y-137867631D01*
X120692707Y-137861415D01*
X120710395Y-137858029D01*
X120734255Y-137855241D01*
X120780815Y-137838294D01*
X120791105Y-137835049D01*
X120838975Y-137822223D01*
X120860113Y-137810824D01*
X120876550Y-137803450D01*
X120887404Y-137799500D01*
X120899117Y-137795237D01*
X120940511Y-137768010D01*
X120949785Y-137762474D01*
X120993400Y-137738959D01*
X121011346Y-137722987D01*
X121025633Y-137712025D01*
X121045696Y-137698830D01*
X121079694Y-137662792D01*
X121087432Y-137655275D01*
X121124459Y-137622326D01*
X121138239Y-137602645D01*
X121149608Y-137588689D01*
X121166092Y-137571218D01*
X121190865Y-137528307D01*
X121196667Y-137519198D01*
X121225088Y-137478612D01*
X121233950Y-137456301D01*
X121241806Y-137440075D01*
X121245139Y-137434302D01*
X121253812Y-137419281D01*
X121260602Y-137396602D01*
X121268021Y-137371821D01*
X121271572Y-137361604D01*
X121289862Y-137315567D01*
X121293342Y-137291805D01*
X121297243Y-137274212D01*
X121301759Y-137259129D01*
X121304130Y-137251210D01*
X121307010Y-137201743D01*
X121308105Y-137191010D01*
X121315289Y-137141977D01*
X121313195Y-137118054D01*
X121312934Y-137100040D01*
X121313044Y-137098159D01*
X121314331Y-137076065D01*
X121305723Y-137027256D01*
X121304313Y-137016535D01*
X121300972Y-136978336D01*
X121300500Y-136967532D01*
X121300500Y-136729400D01*
X121319506Y-136663428D01*
X121370699Y-136617680D01*
X121406602Y-136600390D01*
X121427704Y-136590228D01*
X121644479Y-136442433D01*
X121644482Y-136442429D01*
X121644485Y-136442428D01*
X121743566Y-136350494D01*
X121836805Y-136263981D01*
X122000386Y-136058857D01*
X122131568Y-135831643D01*
X122227420Y-135587416D01*
X122283163Y-135343190D01*
X122313948Y-135285596D01*
X122369727Y-135251630D01*
X122435026Y-135250714D01*
X122491735Y-135283103D01*
X123843181Y-136634549D01*
X123870061Y-136674777D01*
X123879500Y-136722230D01*
X123879500Y-137740391D01*
X123868175Y-137792162D01*
X123836270Y-137834477D01*
X123789612Y-137859607D01*
X123766949Y-137866091D01*
X123586593Y-137960301D01*
X123428891Y-138088891D01*
X123300301Y-138246593D01*
X123206091Y-138426949D01*
X123165294Y-138569529D01*
X123150114Y-138622582D01*
X123140342Y-138732500D01*
X123139500Y-138741967D01*
X123139500Y-139142928D01*
X123123304Y-139204201D01*
X123078945Y-139249468D01*
X123018013Y-139266903D01*
X122956424Y-139251951D01*
X122910268Y-139208519D01*
X122895254Y-139184431D01*
X122862507Y-139149982D01*
X122755059Y-139036947D01*
X122588049Y-138920705D01*
X122401058Y-138840460D01*
X122201741Y-138799500D01*
X122049258Y-138799500D01*
X121988579Y-138805670D01*
X121897559Y-138814926D01*
X121703412Y-138875841D01*
X121525500Y-138974589D01*
X121371104Y-139107135D01*
X121246551Y-139268042D01*
X121156940Y-139450727D01*
X121131773Y-139547929D01*
X121108677Y-139637135D01*
X121105937Y-139647716D01*
X121095630Y-139850937D01*
X121126443Y-140052071D01*
X121197113Y-140242886D01*
X121304745Y-140415568D01*
X121309016Y-140420061D01*
X121444941Y-140563053D01*
X121611951Y-140679295D01*
X121798942Y-140759540D01*
X121998259Y-140800500D01*
X122150740Y-140800500D01*
X122150742Y-140800500D01*
X122302438Y-140785074D01*
X122496588Y-140724159D01*
X122674502Y-140625409D01*
X122828895Y-140492866D01*
X122917445Y-140378468D01*
X122965447Y-140340922D01*
X123025542Y-140330778D01*
X123083211Y-140350490D01*
X123124523Y-140395295D01*
X123139500Y-140454371D01*
X123139500Y-140858033D01*
X123150114Y-140977417D01*
X123206091Y-141173050D01*
X123300301Y-141353406D01*
X123311238Y-141366819D01*
X123428891Y-141511109D01*
X123561565Y-141619290D01*
X123586593Y-141639698D01*
X123753653Y-141726963D01*
X123766951Y-141733909D01*
X123962582Y-141789886D01*
X124081963Y-141800500D01*
X124518770Y-141800499D01*
X124575064Y-141814014D01*
X124619087Y-141851613D01*
X124641242Y-141905101D01*
X124636700Y-141962817D01*
X124606450Y-142012180D01*
X123904358Y-142714272D01*
X123890727Y-142726053D01*
X123871467Y-142740392D01*
X123839633Y-142778329D01*
X123832341Y-142786289D01*
X123828408Y-142790222D01*
X123809176Y-142814545D01*
X123806902Y-142817337D01*
X123757894Y-142875744D01*
X123747418Y-142892187D01*
X123715192Y-142961294D01*
X123713622Y-142964536D01*
X123679393Y-143032692D01*
X123672996Y-143051098D01*
X123657573Y-143125788D01*
X123656793Y-143129305D01*
X123639208Y-143203505D01*
X123637229Y-143222878D01*
X123639448Y-143299131D01*
X123639500Y-143302737D01*
X123639500Y-146244554D01*
X123639290Y-146251764D01*
X123635668Y-146313935D01*
X123646482Y-146375262D01*
X123647527Y-146382396D01*
X123654758Y-146444253D01*
X123658593Y-146454789D01*
X123664188Y-146475667D01*
X123666135Y-146486713D01*
X123690796Y-146543884D01*
X123693459Y-146550585D01*
X123714763Y-146609118D01*
X123720923Y-146618483D01*
X123731180Y-146637505D01*
X123735621Y-146647801D01*
X123735622Y-146647803D01*
X123735623Y-146647804D01*
X123736386Y-146648829D01*
X123772815Y-146697761D01*
X123776952Y-146703670D01*
X123811168Y-146755694D01*
X123819325Y-146763390D01*
X123833689Y-146779530D01*
X123840388Y-146788528D01*
X123840389Y-146788529D01*
X123840390Y-146788530D01*
X123845696Y-146792982D01*
X123888103Y-146828566D01*
X123893490Y-146833361D01*
X123938782Y-146876092D01*
X123948493Y-146881699D01*
X123966199Y-146894097D01*
X123974786Y-146901302D01*
X124019723Y-146923869D01*
X124030438Y-146929251D01*
X124036779Y-146932669D01*
X124059421Y-146945742D01*
X124090719Y-146963812D01*
X124101458Y-146967027D01*
X124121544Y-146975007D01*
X124131566Y-146980040D01*
X124192174Y-146994405D01*
X124199136Y-146996270D01*
X124226888Y-147004578D01*
X124258786Y-147014129D01*
X124258790Y-147014130D01*
X124269985Y-147014781D01*
X124291366Y-147017913D01*
X124302279Y-147020500D01*
X124364554Y-147020500D01*
X124371764Y-147020710D01*
X124433934Y-147024331D01*
X124433934Y-147024330D01*
X124433935Y-147024331D01*
X124444976Y-147022384D01*
X124466510Y-147020500D01*
X158846294Y-147020500D01*
X158864264Y-147021809D01*
X158868191Y-147022384D01*
X158888023Y-147025289D01*
X158937368Y-147020972D01*
X158948176Y-147020500D01*
X158953706Y-147020500D01*
X158953709Y-147020500D01*
X158984550Y-147016894D01*
X158988031Y-147016539D01*
X159062797Y-147009999D01*
X159062797Y-147009998D01*
X159064052Y-147009889D01*
X159083062Y-147005674D01*
X159084250Y-147005241D01*
X159084255Y-147005241D01*
X159154820Y-146979557D01*
X159158095Y-146978419D01*
X159229334Y-146954814D01*
X159229336Y-146954812D01*
X159230536Y-146954415D01*
X159248063Y-146945929D01*
X159249112Y-146945238D01*
X159249117Y-146945237D01*
X159266723Y-146933657D01*
X162923448Y-146933657D01*
X163107045Y-147033909D01*
X163375100Y-147133889D01*
X163654642Y-147194699D01*
X163940000Y-147215109D01*
X164225357Y-147194699D01*
X164504899Y-147133889D01*
X164772954Y-147033909D01*
X164956550Y-146933658D01*
X164956550Y-146933657D01*
X163940000Y-145917107D01*
X162923448Y-146933657D01*
X159266723Y-146933657D01*
X159311806Y-146904005D01*
X159314798Y-146902099D01*
X159378656Y-146862712D01*
X159378656Y-146862711D01*
X159379729Y-146862050D01*
X159394824Y-146849753D01*
X159395692Y-146848832D01*
X159395696Y-146848830D01*
X159447184Y-146794254D01*
X159449630Y-146791736D01*
X161862790Y-144378576D01*
X161920663Y-144345895D01*
X161987100Y-144347793D01*
X162043014Y-144383726D01*
X162072339Y-144443371D01*
X162066652Y-144509592D01*
X162016111Y-144645097D01*
X161955300Y-144924642D01*
X161934890Y-145210000D01*
X161955300Y-145495357D01*
X162016111Y-145774902D01*
X162116088Y-146042952D01*
X162216341Y-146226550D01*
X163852318Y-144590573D01*
X163907905Y-144558479D01*
X163972093Y-144558479D01*
X164027680Y-144590573D01*
X165663657Y-146226550D01*
X165663658Y-146226550D01*
X165763909Y-146042954D01*
X165863889Y-145774899D01*
X165924699Y-145495357D01*
X165941466Y-145260937D01*
X167435630Y-145260937D01*
X167466443Y-145462071D01*
X167537113Y-145652886D01*
X167644745Y-145825568D01*
X167644748Y-145825571D01*
X167784941Y-145973053D01*
X167951951Y-146089295D01*
X168138942Y-146169540D01*
X168338259Y-146210500D01*
X168490740Y-146210500D01*
X168490742Y-146210500D01*
X168642438Y-146195074D01*
X168836588Y-146134159D01*
X169014502Y-146035409D01*
X169168895Y-145902866D01*
X169293448Y-145741958D01*
X169383060Y-145559271D01*
X169434063Y-145362285D01*
X169444369Y-145159064D01*
X169438994Y-145123981D01*
X169413556Y-144957928D01*
X169342886Y-144767113D01*
X169235254Y-144594431D01*
X169226345Y-144585059D01*
X169095059Y-144446947D01*
X168928049Y-144330705D01*
X168741058Y-144250460D01*
X168541741Y-144209500D01*
X168389258Y-144209500D01*
X168328579Y-144215670D01*
X168237559Y-144224926D01*
X168043412Y-144285841D01*
X167865500Y-144384589D01*
X167865497Y-144384591D01*
X167865498Y-144384591D01*
X167720747Y-144508857D01*
X167711104Y-144517135D01*
X167586551Y-144678042D01*
X167496940Y-144860727D01*
X167471773Y-144957929D01*
X167451193Y-145037417D01*
X167445937Y-145057716D01*
X167435630Y-145260937D01*
X165941466Y-145260937D01*
X165945109Y-145210000D01*
X165924699Y-144924642D01*
X165863888Y-144645097D01*
X165763911Y-144377047D01*
X165626806Y-144125957D01*
X165516653Y-143978811D01*
X165492414Y-143915553D01*
X165505036Y-143848996D01*
X165550753Y-143799005D01*
X165615920Y-143780500D01*
X168997770Y-143780500D01*
X169045223Y-143789939D01*
X169085451Y-143816819D01*
X171524267Y-146255634D01*
X171536048Y-146269266D01*
X171550387Y-146288526D01*
X171550390Y-146288530D01*
X171588355Y-146320386D01*
X171596317Y-146327684D01*
X171600224Y-146331591D01*
X171624542Y-146350819D01*
X171627298Y-146353063D01*
X171684786Y-146401302D01*
X171684788Y-146401303D01*
X171685757Y-146402116D01*
X171702177Y-146412576D01*
X171703321Y-146413109D01*
X171703323Y-146413111D01*
X171771357Y-146444835D01*
X171774456Y-146446335D01*
X171832860Y-146475667D01*
X171842704Y-146480611D01*
X171861084Y-146486998D01*
X171862321Y-146487253D01*
X171862327Y-146487256D01*
X171935862Y-146502439D01*
X171939209Y-146503181D01*
X172012279Y-146520500D01*
X172012281Y-146520500D01*
X172013505Y-146520790D01*
X172032876Y-146522769D01*
X172034140Y-146522732D01*
X172034144Y-146522733D01*
X172109110Y-146520552D01*
X172112716Y-146520500D01*
X176964554Y-146520500D01*
X176971764Y-146520710D01*
X176973138Y-146520790D01*
X177033935Y-146524331D01*
X177095304Y-146513508D01*
X177102384Y-146512471D01*
X177164255Y-146505241D01*
X177174790Y-146501405D01*
X177195661Y-146495812D01*
X177206711Y-146493865D01*
X177263899Y-146469196D01*
X177270580Y-146466541D01*
X177329117Y-146445237D01*
X177330613Y-146444253D01*
X177338481Y-146439078D01*
X177357517Y-146428814D01*
X177367804Y-146424377D01*
X177417786Y-146387165D01*
X177423648Y-146383061D01*
X177475696Y-146348830D01*
X177483391Y-146340673D01*
X177499534Y-146326306D01*
X177508530Y-146319610D01*
X177548567Y-146271893D01*
X177553333Y-146266537D01*
X177596092Y-146221218D01*
X177601699Y-146211504D01*
X177614097Y-146193800D01*
X177621302Y-146185214D01*
X177649255Y-146129551D01*
X177652669Y-146123221D01*
X177683812Y-146069281D01*
X177687028Y-146058535D01*
X177695010Y-146038448D01*
X177700039Y-146028434D01*
X177700040Y-146028433D01*
X177714405Y-145967820D01*
X177716271Y-145960860D01*
X177734130Y-145901210D01*
X177734781Y-145890009D01*
X177737916Y-145868620D01*
X177740500Y-145857721D01*
X177740500Y-145795446D01*
X177740710Y-145788236D01*
X177744331Y-145726065D01*
X177742384Y-145715023D01*
X177740500Y-145693490D01*
X177740500Y-143244500D01*
X177757113Y-143182500D01*
X177802500Y-143137113D01*
X177864500Y-143120500D01*
X178236009Y-143120500D01*
X178291388Y-143133553D01*
X178335108Y-143169966D01*
X178357964Y-143222070D01*
X178355143Y-143278897D01*
X178327239Y-143328482D01*
X178311839Y-143345210D01*
X178175825Y-143553395D01*
X178085780Y-143758678D01*
X178075937Y-143781119D01*
X178039263Y-143925941D01*
X178014891Y-144022183D01*
X177999500Y-144207927D01*
X177999500Y-145332073D01*
X178014891Y-145517816D01*
X178014891Y-145517819D01*
X178014892Y-145517821D01*
X178075937Y-145758881D01*
X178093483Y-145798881D01*
X178175825Y-145986604D01*
X178175827Y-145986607D01*
X178311836Y-146194785D01*
X178480256Y-146377738D01*
X178489630Y-146385034D01*
X178676485Y-146530470D01*
X178676487Y-146530471D01*
X178676491Y-146530474D01*
X178895190Y-146648828D01*
X179130386Y-146729571D01*
X179375665Y-146770500D01*
X179624335Y-146770500D01*
X179869614Y-146729571D01*
X180104810Y-146648828D01*
X180323509Y-146530474D01*
X180519744Y-146377738D01*
X180688164Y-146194785D01*
X180824173Y-145986607D01*
X180924063Y-145758881D01*
X180950905Y-145652886D01*
X180960738Y-145614059D01*
X180985226Y-145565670D01*
X181028023Y-145532360D01*
X181080943Y-145520500D01*
X183576294Y-145520500D01*
X183594264Y-145521809D01*
X183598320Y-145522402D01*
X183618023Y-145525289D01*
X183667368Y-145520972D01*
X183678176Y-145520500D01*
X183683706Y-145520500D01*
X183683709Y-145520500D01*
X183714550Y-145516894D01*
X183718031Y-145516539D01*
X183792797Y-145509999D01*
X183792797Y-145509998D01*
X183794052Y-145509889D01*
X183813062Y-145505674D01*
X183814250Y-145505241D01*
X183814255Y-145505241D01*
X183884820Y-145479557D01*
X183888095Y-145478419D01*
X183959334Y-145454814D01*
X183959336Y-145454812D01*
X183960536Y-145454415D01*
X183978063Y-145445929D01*
X183979112Y-145445238D01*
X183979117Y-145445237D01*
X184041806Y-145404005D01*
X184044798Y-145402099D01*
X184108656Y-145362712D01*
X184108656Y-145362711D01*
X184109729Y-145362050D01*
X184124824Y-145349753D01*
X184125692Y-145348832D01*
X184125696Y-145348830D01*
X184177185Y-145294253D01*
X184179631Y-145291735D01*
X185412480Y-144058886D01*
X185463796Y-144028021D01*
X185523595Y-144024804D01*
X185577928Y-144049988D01*
X185614122Y-144097698D01*
X185623736Y-144156807D01*
X185621082Y-144188838D01*
X185619501Y-144207927D01*
X185619500Y-144207936D01*
X185619500Y-145332073D01*
X185634891Y-145517816D01*
X185634891Y-145517819D01*
X185634892Y-145517821D01*
X185695937Y-145758881D01*
X185713483Y-145798881D01*
X185795825Y-145986604D01*
X185795827Y-145986607D01*
X185931836Y-146194785D01*
X186100256Y-146377738D01*
X186109630Y-146385034D01*
X186296485Y-146530470D01*
X186296487Y-146530471D01*
X186296491Y-146530474D01*
X186515190Y-146648828D01*
X186750386Y-146729571D01*
X186995665Y-146770500D01*
X187244335Y-146770500D01*
X187489614Y-146729571D01*
X187724810Y-146648828D01*
X187943509Y-146530474D01*
X188139744Y-146377738D01*
X188308164Y-146194785D01*
X188444173Y-145986607D01*
X188544063Y-145758881D01*
X188554729Y-145716758D01*
X188586532Y-145660247D01*
X188642511Y-145627514D01*
X188707358Y-145627514D01*
X188763338Y-145660246D01*
X188795140Y-145716759D01*
X188813241Y-145788236D01*
X188815937Y-145798881D01*
X188841747Y-145857721D01*
X188915825Y-146026604D01*
X188915827Y-146026607D01*
X189051836Y-146234785D01*
X189220256Y-146417738D01*
X189254325Y-146444255D01*
X189416485Y-146570470D01*
X189416487Y-146570471D01*
X189416491Y-146570474D01*
X189635190Y-146688828D01*
X189870386Y-146769571D01*
X190115665Y-146810500D01*
X190364335Y-146810500D01*
X190609614Y-146769571D01*
X190844810Y-146688828D01*
X191063509Y-146570474D01*
X191259744Y-146417738D01*
X191418772Y-146244986D01*
X191476258Y-146209651D01*
X191543739Y-146209651D01*
X191601229Y-146244989D01*
X191623465Y-146269143D01*
X191760256Y-146417738D01*
X191794325Y-146444255D01*
X191956485Y-146570470D01*
X191956487Y-146570471D01*
X191956491Y-146570474D01*
X192175190Y-146688828D01*
X192410386Y-146769571D01*
X192655665Y-146810500D01*
X192904335Y-146810500D01*
X193149614Y-146769571D01*
X193384810Y-146688828D01*
X193603509Y-146570474D01*
X193799744Y-146417738D01*
X193959111Y-146244618D01*
X194016598Y-146209282D01*
X194084079Y-146209282D01*
X194141568Y-146244620D01*
X194300592Y-146417365D01*
X194496766Y-146570053D01*
X194715393Y-146688368D01*
X194820000Y-146724280D01*
X194820000Y-145310000D01*
X195820000Y-145310000D01*
X195820000Y-146724280D01*
X195924606Y-146688368D01*
X196143233Y-146570053D01*
X196339403Y-146417368D01*
X196507766Y-146234477D01*
X196643733Y-146026365D01*
X196743586Y-145798721D01*
X196804613Y-145557732D01*
X196820000Y-145372049D01*
X196820000Y-145310000D01*
X195820000Y-145310000D01*
X194820000Y-145310000D01*
X194820000Y-142895719D01*
X195819999Y-142895719D01*
X195820000Y-142895720D01*
X195820000Y-144310000D01*
X196820000Y-144310000D01*
X196820000Y-144247951D01*
X196804613Y-144062267D01*
X196743586Y-143821278D01*
X196643733Y-143593634D01*
X196507766Y-143385522D01*
X196339403Y-143202631D01*
X196143233Y-143049946D01*
X195924606Y-142931631D01*
X195819999Y-142895719D01*
X194820000Y-142895719D01*
X194715393Y-142931631D01*
X194496766Y-143049946D01*
X194300592Y-143202634D01*
X194141568Y-143375380D01*
X194084079Y-143410718D01*
X194016598Y-143410718D01*
X193959111Y-143375381D01*
X193799744Y-143202262D01*
X193799742Y-143202261D01*
X193799740Y-143202258D01*
X193603512Y-143049528D01*
X193603510Y-143049527D01*
X193603509Y-143049526D01*
X193595481Y-143045181D01*
X193547977Y-142999602D01*
X193530500Y-142936128D01*
X193530500Y-142256343D01*
X193547977Y-142192870D01*
X193595482Y-142147289D01*
X193633415Y-142126760D01*
X193663509Y-142110474D01*
X193859744Y-141957738D01*
X194028164Y-141774785D01*
X194164173Y-141566607D01*
X194264063Y-141338881D01*
X194325108Y-141097821D01*
X194340500Y-140912067D01*
X194340500Y-139787933D01*
X194340214Y-139784485D01*
X194329438Y-139654431D01*
X194325108Y-139602179D01*
X194264063Y-139361119D01*
X194169540Y-139145628D01*
X194164174Y-139133395D01*
X194164173Y-139133393D01*
X194028164Y-138925215D01*
X193932395Y-138821182D01*
X194399500Y-138821182D01*
X194438604Y-139080615D01*
X194515937Y-139331323D01*
X194629772Y-139567704D01*
X194765766Y-139767170D01*
X194777571Y-139784485D01*
X194956015Y-139976801D01*
X194956019Y-139976805D01*
X195161143Y-140140386D01*
X195388357Y-140271568D01*
X195632584Y-140367420D01*
X195888370Y-140425802D01*
X195937718Y-140429500D01*
X196084501Y-140440500D01*
X196084506Y-140440500D01*
X196215494Y-140440500D01*
X196215499Y-140440500D01*
X196338079Y-140431313D01*
X196411630Y-140425802D01*
X196667416Y-140367420D01*
X196911643Y-140271568D01*
X197138857Y-140140386D01*
X197343981Y-139976805D01*
X197494592Y-139814485D01*
X197522428Y-139784485D01*
X197522429Y-139784482D01*
X197522433Y-139784479D01*
X197670228Y-139567704D01*
X197784063Y-139331323D01*
X197861396Y-139080615D01*
X197900500Y-138821182D01*
X197900500Y-138558818D01*
X197861396Y-138299385D01*
X197784063Y-138048677D01*
X197670228Y-137812296D01*
X197522433Y-137595521D01*
X197522432Y-137595520D01*
X197522428Y-137595514D01*
X197343984Y-137403198D01*
X197343983Y-137403197D01*
X197343981Y-137403195D01*
X197138857Y-137239614D01*
X197138856Y-137239613D01*
X196911641Y-137108431D01*
X196667418Y-137012580D01*
X196411627Y-136954197D01*
X196215499Y-136939500D01*
X196215494Y-136939500D01*
X196084506Y-136939500D01*
X196084501Y-136939500D01*
X195888372Y-136954197D01*
X195632581Y-137012580D01*
X195388358Y-137108431D01*
X195161143Y-137239613D01*
X194956015Y-137403198D01*
X194777571Y-137595514D01*
X194707132Y-137698830D01*
X194630537Y-137811175D01*
X194629771Y-137812298D01*
X194580073Y-137915498D01*
X194515937Y-138048677D01*
X194438604Y-138299385D01*
X194399500Y-138558818D01*
X194399500Y-138821182D01*
X193932395Y-138821182D01*
X193859744Y-138742262D01*
X193784316Y-138683554D01*
X193663514Y-138589529D01*
X193663510Y-138589526D01*
X193663509Y-138589526D01*
X193444810Y-138471172D01*
X193444806Y-138471170D01*
X193444805Y-138471170D01*
X193209615Y-138390429D01*
X192964335Y-138349500D01*
X192715665Y-138349500D01*
X192470384Y-138390429D01*
X192235194Y-138471170D01*
X192016485Y-138589529D01*
X191820259Y-138742259D01*
X191820256Y-138742261D01*
X191820256Y-138742262D01*
X191651836Y-138925215D01*
X191619577Y-138974591D01*
X191515825Y-139133395D01*
X191454788Y-139272547D01*
X191415937Y-139361119D01*
X191369837Y-139543163D01*
X191354891Y-139602183D01*
X191339500Y-139787927D01*
X191339500Y-140912073D01*
X191354891Y-141097816D01*
X191354891Y-141097819D01*
X191354892Y-141097821D01*
X191415937Y-141338881D01*
X191428192Y-141366819D01*
X191515825Y-141566604D01*
X191515827Y-141566607D01*
X191651836Y-141774785D01*
X191819785Y-141957226D01*
X191820256Y-141957738D01*
X191981663Y-142083367D01*
X192016901Y-142126760D01*
X192029500Y-142181220D01*
X192029500Y-142936128D01*
X192012023Y-142999602D01*
X191964518Y-143045181D01*
X191958448Y-143048466D01*
X191956487Y-143049528D01*
X191760259Y-143202259D01*
X191760256Y-143202261D01*
X191760256Y-143202262D01*
X191741278Y-143222878D01*
X191601230Y-143375010D01*
X191543741Y-143410348D01*
X191476259Y-143410348D01*
X191418770Y-143375010D01*
X191373430Y-143325758D01*
X191259744Y-143202262D01*
X191204128Y-143158974D01*
X191063514Y-143049529D01*
X191063510Y-143049526D01*
X191063509Y-143049526D01*
X190844810Y-142931172D01*
X190844806Y-142931170D01*
X190844805Y-142931170D01*
X190609615Y-142850429D01*
X190364335Y-142809500D01*
X190115665Y-142809500D01*
X189870384Y-142850429D01*
X189635194Y-142931170D01*
X189635190Y-142931171D01*
X189635190Y-142931172D01*
X189576484Y-142962942D01*
X189416485Y-143049529D01*
X189220259Y-143202259D01*
X189220256Y-143202261D01*
X189220256Y-143202262D01*
X189051836Y-143385215D01*
X189035416Y-143410348D01*
X188915825Y-143593395D01*
X188815936Y-143821120D01*
X188805269Y-143863242D01*
X188773466Y-143919755D01*
X188717486Y-143952486D01*
X188652639Y-143952486D01*
X188596660Y-143919753D01*
X188564859Y-143863242D01*
X188544063Y-143781119D01*
X188444173Y-143553393D01*
X188308164Y-143345215D01*
X188290251Y-143325756D01*
X188261417Y-143272765D01*
X188261003Y-143212436D01*
X188289108Y-143159053D01*
X188327101Y-143133352D01*
X188327004Y-143133205D01*
X188338415Y-143125698D01*
X188339076Y-143125251D01*
X188339117Y-143125237D01*
X188348479Y-143119078D01*
X188367517Y-143108814D01*
X188377804Y-143104377D01*
X188427786Y-143067165D01*
X188433648Y-143063061D01*
X188485696Y-143028830D01*
X188493391Y-143020673D01*
X188509534Y-143006306D01*
X188518530Y-142999610D01*
X188558567Y-142951893D01*
X188563333Y-142946537D01*
X188606092Y-142901218D01*
X188611699Y-142891504D01*
X188624097Y-142873800D01*
X188631302Y-142865214D01*
X188659255Y-142809551D01*
X188662669Y-142803221D01*
X188693812Y-142749281D01*
X188697028Y-142738535D01*
X188705010Y-142718448D01*
X188710039Y-142708434D01*
X188710040Y-142708433D01*
X188724405Y-142647820D01*
X188726271Y-142640860D01*
X188744130Y-142581210D01*
X188744781Y-142570009D01*
X188747916Y-142548620D01*
X188750441Y-142537972D01*
X188750500Y-142537721D01*
X188750500Y-142475446D01*
X188750710Y-142468236D01*
X188754331Y-142406065D01*
X188752384Y-142395023D01*
X188750500Y-142373490D01*
X188750500Y-137945446D01*
X188750710Y-137938236D01*
X188754331Y-137876066D01*
X188753349Y-137870500D01*
X188743514Y-137814728D01*
X188742469Y-137807591D01*
X188741550Y-137799729D01*
X188735241Y-137745745D01*
X188731404Y-137735206D01*
X188725810Y-137714324D01*
X188725404Y-137712020D01*
X188723865Y-137703289D01*
X188699193Y-137646094D01*
X188696535Y-137639400D01*
X188675238Y-137580884D01*
X188669076Y-137571516D01*
X188658817Y-137552490D01*
X188654377Y-137542196D01*
X188617187Y-137492243D01*
X188613054Y-137486340D01*
X188578830Y-137434304D01*
X188570673Y-137426608D01*
X188556304Y-137410462D01*
X188550894Y-137403195D01*
X188549610Y-137401470D01*
X188501894Y-137361432D01*
X188496543Y-137356670D01*
X188451218Y-137313908D01*
X188451216Y-137313906D01*
X188451213Y-137313904D01*
X188441503Y-137308298D01*
X188423803Y-137295905D01*
X188415214Y-137288698D01*
X188415212Y-137288697D01*
X188415211Y-137288696D01*
X188359551Y-137260742D01*
X188353204Y-137257320D01*
X188299279Y-137226187D01*
X188288535Y-137222970D01*
X188268459Y-137214994D01*
X188258435Y-137209960D01*
X188197841Y-137195598D01*
X188190879Y-137193732D01*
X188131212Y-137175870D01*
X188125941Y-137175563D01*
X188120013Y-137175217D01*
X188098634Y-137172086D01*
X188087721Y-137169500D01*
X188087719Y-137169500D01*
X188025446Y-137169500D01*
X188018236Y-137169290D01*
X187956065Y-137165668D01*
X187945023Y-137167616D01*
X187923490Y-137169500D01*
X183094500Y-137169500D01*
X183032500Y-137152887D01*
X182987113Y-137107500D01*
X182970500Y-137045500D01*
X182970500Y-125393706D01*
X182971809Y-125375736D01*
X182972338Y-125372118D01*
X182975289Y-125351977D01*
X182970971Y-125302633D01*
X182970500Y-125291827D01*
X182970500Y-125286292D01*
X182970500Y-125286291D01*
X182966893Y-125255436D01*
X182966537Y-125251956D01*
X182959998Y-125177203D01*
X182959888Y-125175943D01*
X182955674Y-125156936D01*
X182955241Y-125155745D01*
X182929569Y-125085211D01*
X182928422Y-125081913D01*
X182904814Y-125010665D01*
X182904812Y-125010662D01*
X182904415Y-125009463D01*
X182895929Y-124991936D01*
X182895237Y-124990884D01*
X182895237Y-124990883D01*
X182854025Y-124928224D01*
X182852106Y-124925212D01*
X182812048Y-124860267D01*
X182799750Y-124845172D01*
X182744290Y-124792848D01*
X182741703Y-124790335D01*
X180125153Y-122173785D01*
X190625214Y-122173785D01*
X190625214Y-131124786D01*
X194304786Y-131124786D01*
X194304786Y-122173785D01*
X190625214Y-122173785D01*
X180125153Y-122173785D01*
X177915728Y-119964360D01*
X177903946Y-119950727D01*
X177899257Y-119944429D01*
X177889610Y-119931470D01*
X177885361Y-119927905D01*
X177851666Y-119899631D01*
X177843691Y-119892323D01*
X177839782Y-119888414D01*
X177839777Y-119888409D01*
X177815423Y-119869152D01*
X177812647Y-119866890D01*
X177754251Y-119817890D01*
X177737821Y-119807422D01*
X177668691Y-119775186D01*
X177665447Y-119773615D01*
X177597306Y-119739394D01*
X177578903Y-119732997D01*
X177558732Y-119728832D01*
X177504206Y-119717572D01*
X177500692Y-119716794D01*
X177426490Y-119699208D01*
X177407121Y-119697229D01*
X177330869Y-119699448D01*
X177327263Y-119699500D01*
X172794500Y-119699500D01*
X172732500Y-119682887D01*
X172687113Y-119637500D01*
X172670500Y-119575500D01*
X172670500Y-115821182D01*
X194349500Y-115821182D01*
X194388604Y-116080615D01*
X194465937Y-116331323D01*
X194579772Y-116567704D01*
X194696122Y-116738358D01*
X194727571Y-116784485D01*
X194868563Y-116936437D01*
X194906019Y-116976805D01*
X195111143Y-117140386D01*
X195338357Y-117271568D01*
X195582584Y-117367420D01*
X195838370Y-117425802D01*
X195894408Y-117430001D01*
X196034501Y-117440500D01*
X196034506Y-117440500D01*
X196165493Y-117440500D01*
X196165494Y-117440500D01*
X196188359Y-117438786D01*
X196247208Y-117448783D01*
X196294569Y-117485122D01*
X196319463Y-117539379D01*
X196316120Y-117598981D01*
X196315214Y-117600485D01*
X196315214Y-117620214D01*
X196315214Y-136499785D01*
X204854786Y-136499785D01*
X204854786Y-117620214D01*
X196610383Y-117620214D01*
X196552442Y-117605844D01*
X196507929Y-117566066D01*
X196487163Y-117510098D01*
X196494955Y-117450912D01*
X196529499Y-117402226D01*
X196582789Y-117375323D01*
X196617416Y-117367420D01*
X196861643Y-117271568D01*
X197088857Y-117140386D01*
X197293981Y-116976805D01*
X197401491Y-116860937D01*
X197472428Y-116784485D01*
X197472429Y-116784482D01*
X197472433Y-116784479D01*
X197620228Y-116567704D01*
X197734063Y-116331323D01*
X197811396Y-116080615D01*
X197850500Y-115821182D01*
X197850500Y-115558818D01*
X197811396Y-115299385D01*
X197734063Y-115048677D01*
X197620228Y-114812296D01*
X197472433Y-114595521D01*
X197472432Y-114595520D01*
X197472428Y-114595514D01*
X197293984Y-114403198D01*
X197293983Y-114403197D01*
X197293981Y-114403195D01*
X197099017Y-114247716D01*
X197088856Y-114239613D01*
X196861641Y-114108431D01*
X196617418Y-114012580D01*
X196361627Y-113954197D01*
X196165499Y-113939500D01*
X196165494Y-113939500D01*
X196034506Y-113939500D01*
X196034501Y-113939500D01*
X195838372Y-113954197D01*
X195582581Y-114012580D01*
X195338358Y-114108431D01*
X195111143Y-114239613D01*
X194906015Y-114403198D01*
X194727571Y-114595514D01*
X194664124Y-114688574D01*
X194579772Y-114812296D01*
X194465937Y-115048677D01*
X194388604Y-115299385D01*
X194349500Y-115558818D01*
X194349500Y-115821182D01*
X172670500Y-115821182D01*
X172670500Y-108615446D01*
X172670710Y-108608236D01*
X172674331Y-108546066D01*
X172663906Y-108486951D01*
X172663514Y-108484728D01*
X172662469Y-108477591D01*
X172655241Y-108415745D01*
X172651404Y-108405206D01*
X172645810Y-108384324D01*
X172643865Y-108373289D01*
X172619193Y-108316094D01*
X172616535Y-108309400D01*
X172595238Y-108250884D01*
X172589076Y-108241516D01*
X172578817Y-108222490D01*
X172577167Y-108218664D01*
X172574377Y-108212196D01*
X172537187Y-108162243D01*
X172533054Y-108156340D01*
X172516759Y-108131564D01*
X172498830Y-108104304D01*
X172490673Y-108096608D01*
X172476304Y-108080462D01*
X172469610Y-108071470D01*
X172465846Y-108068312D01*
X172444077Y-108050045D01*
X172421894Y-108031432D01*
X172416543Y-108026670D01*
X172371218Y-107983908D01*
X172371216Y-107983906D01*
X172371213Y-107983904D01*
X172361503Y-107978298D01*
X172343803Y-107965905D01*
X172335214Y-107958698D01*
X172335212Y-107958697D01*
X172335211Y-107958696D01*
X172279551Y-107930742D01*
X172273204Y-107927320D01*
X172244358Y-107910666D01*
X172219281Y-107896188D01*
X172219280Y-107896187D01*
X172219279Y-107896187D01*
X172208535Y-107892970D01*
X172188459Y-107884994D01*
X172178435Y-107879960D01*
X172117841Y-107865598D01*
X172110879Y-107863732D01*
X172051212Y-107845870D01*
X172045941Y-107845563D01*
X172040013Y-107845217D01*
X172018634Y-107842086D01*
X172007721Y-107839500D01*
X172007719Y-107839500D01*
X171945446Y-107839500D01*
X171938236Y-107839290D01*
X171876065Y-107835668D01*
X171865023Y-107837616D01*
X171843490Y-107839500D01*
X112523707Y-107839500D01*
X112505738Y-107838191D01*
X112481977Y-107834711D01*
X112432631Y-107839028D01*
X112421824Y-107839500D01*
X112416291Y-107839500D01*
X112385501Y-107843098D01*
X112381917Y-107843464D01*
X112305961Y-107850109D01*
X112286921Y-107854330D01*
X112215232Y-107880421D01*
X112211831Y-107881603D01*
X112139474Y-107905580D01*
X112121927Y-107914075D01*
X112058221Y-107955975D01*
X112055181Y-107957912D01*
X111990280Y-107997944D01*
X111975164Y-108010257D01*
X111922831Y-108065726D01*
X111920319Y-108068312D01*
X108914358Y-111074272D01*
X108900727Y-111086053D01*
X108881467Y-111100392D01*
X108849633Y-111138329D01*
X108842341Y-111146289D01*
X108838408Y-111150222D01*
X108819176Y-111174545D01*
X108816902Y-111177337D01*
X108767894Y-111235744D01*
X108757418Y-111252187D01*
X108725192Y-111321294D01*
X108723622Y-111324536D01*
X108689393Y-111392692D01*
X108682996Y-111411098D01*
X108667573Y-111485788D01*
X108666793Y-111489305D01*
X108649208Y-111563505D01*
X108647229Y-111582878D01*
X108649448Y-111659131D01*
X108649500Y-111662737D01*
X108649500Y-112337530D01*
X108638175Y-112389301D01*
X108606270Y-112431616D01*
X108559612Y-112456745D01*
X108543259Y-112461424D01*
X108526950Y-112466091D01*
X108346593Y-112560301D01*
X108264726Y-112627054D01*
X108208358Y-112673017D01*
X108158030Y-112697704D01*
X108101970Y-112697704D01*
X108051641Y-112673017D01*
X107913926Y-112560725D01*
X107913406Y-112560301D01*
X107733049Y-112466091D01*
X107700387Y-112456745D01*
X107653730Y-112431616D01*
X107621825Y-112389301D01*
X107610500Y-112337530D01*
X107610500Y-110984499D01*
X107627113Y-110922499D01*
X107672500Y-110877112D01*
X107734500Y-110860499D01*
X107938034Y-110860499D01*
X107938036Y-110860499D01*
X108057418Y-110849886D01*
X108253049Y-110793909D01*
X108433407Y-110699698D01*
X108591109Y-110571109D01*
X108719698Y-110413407D01*
X108813909Y-110233049D01*
X108869886Y-110037418D01*
X108880500Y-109918037D01*
X108880499Y-108801964D01*
X108869886Y-108682582D01*
X108813909Y-108486951D01*
X108719698Y-108306593D01*
X108591109Y-108148891D01*
X108433407Y-108020302D01*
X108433406Y-108020301D01*
X108253050Y-107926091D01*
X108091828Y-107879960D01*
X108057418Y-107870114D01*
X107938037Y-107859500D01*
X107938033Y-107859500D01*
X105821966Y-107859500D01*
X105702582Y-107870114D01*
X105506949Y-107926091D01*
X105326593Y-108020301D01*
X105168891Y-108148891D01*
X105040301Y-108306593D01*
X104946091Y-108486949D01*
X104890114Y-108682582D01*
X104879500Y-108801966D01*
X104879500Y-109918033D01*
X104890114Y-110037417D01*
X104946091Y-110233050D01*
X105040301Y-110413406D01*
X105049091Y-110424186D01*
X105168891Y-110571109D01*
X105326593Y-110699698D01*
X105506951Y-110793909D01*
X105702582Y-110849886D01*
X105821963Y-110860500D01*
X105985500Y-110860500D01*
X106047500Y-110877113D01*
X106092887Y-110922500D01*
X106109500Y-110984500D01*
X106109500Y-112337530D01*
X106098175Y-112389301D01*
X106066270Y-112431616D01*
X106019612Y-112456745D01*
X106003259Y-112461424D01*
X105986950Y-112466091D01*
X105806593Y-112560301D01*
X105648891Y-112688891D01*
X105520301Y-112846593D01*
X105426091Y-113026949D01*
X105376404Y-113200600D01*
X105370114Y-113222582D01*
X105363503Y-113296947D01*
X105359500Y-113341967D01*
X105359500Y-113742928D01*
X105343304Y-113804201D01*
X105298945Y-113849468D01*
X105238013Y-113866903D01*
X105176424Y-113851951D01*
X105130268Y-113808519D01*
X105115254Y-113784431D01*
X105105949Y-113774642D01*
X104975059Y-113636947D01*
X104808049Y-113520705D01*
X104621058Y-113440460D01*
X104421741Y-113399500D01*
X104269258Y-113399500D01*
X104208579Y-113405670D01*
X104117559Y-113414926D01*
X103923412Y-113475841D01*
X103745500Y-113574589D01*
X103591104Y-113707135D01*
X103466551Y-113868042D01*
X103376940Y-114050727D01*
X103351773Y-114147929D01*
X103328035Y-114239614D01*
X103325937Y-114247716D01*
X103315630Y-114450937D01*
X103346443Y-114652071D01*
X103417113Y-114842886D01*
X103524745Y-115015568D01*
X103524748Y-115015571D01*
X103664941Y-115163053D01*
X103831951Y-115279295D01*
X104018942Y-115359540D01*
X104218259Y-115400500D01*
X104370740Y-115400500D01*
X104370742Y-115400500D01*
X104522438Y-115385074D01*
X104716588Y-115324159D01*
X104894502Y-115225409D01*
X105048895Y-115092866D01*
X105137445Y-114978468D01*
X105185447Y-114940922D01*
X105245542Y-114930778D01*
X105303211Y-114950490D01*
X105344523Y-114995295D01*
X105359500Y-115054371D01*
X105359500Y-115458033D01*
X105368460Y-115558818D01*
X105370114Y-115577418D01*
X105394393Y-115662268D01*
X105426091Y-115773050D01*
X105520301Y-115953406D01*
X105522866Y-115956552D01*
X105648891Y-116111109D01*
X105806593Y-116239698D01*
X105986951Y-116333909D01*
X106182582Y-116389886D01*
X106301963Y-116400500D01*
X107418036Y-116400499D01*
X107537418Y-116389886D01*
X107733049Y-116333909D01*
X107913407Y-116239698D01*
X108051641Y-116126982D01*
X108101970Y-116102296D01*
X108158030Y-116102296D01*
X108208358Y-116126982D01*
X108346593Y-116239698D01*
X108526951Y-116333909D01*
X108722582Y-116389886D01*
X108841963Y-116400500D01*
X109958036Y-116400499D01*
X110077418Y-116389886D01*
X110273049Y-116333909D01*
X110453407Y-116239698D01*
X110591641Y-116126982D01*
X110641970Y-116102296D01*
X110698030Y-116102296D01*
X110748358Y-116126982D01*
X110886593Y-116239698D01*
X111066951Y-116333909D01*
X111099612Y-116343254D01*
X111146270Y-116368384D01*
X111178175Y-116410699D01*
X111189500Y-116462470D01*
X111189500Y-121184554D01*
X111189290Y-121191764D01*
X111185668Y-121253935D01*
X111196482Y-121315262D01*
X111197527Y-121322396D01*
X111204758Y-121384253D01*
X111208593Y-121394789D01*
X111214188Y-121415667D01*
X111216135Y-121426713D01*
X111240796Y-121483884D01*
X111243459Y-121490585D01*
X111264763Y-121549118D01*
X111270923Y-121558483D01*
X111281180Y-121577505D01*
X111285621Y-121587801D01*
X111322815Y-121637761D01*
X111326952Y-121643670D01*
X111361168Y-121695694D01*
X111361169Y-121695695D01*
X111361170Y-121695696D01*
X111369325Y-121703390D01*
X111383689Y-121719530D01*
X111390388Y-121728528D01*
X111438103Y-121768566D01*
X111443490Y-121773361D01*
X111488782Y-121816092D01*
X111498493Y-121821699D01*
X111516199Y-121834097D01*
X111524786Y-121841302D01*
X111551381Y-121854658D01*
X111580438Y-121869251D01*
X111586779Y-121872669D01*
X111601050Y-121880909D01*
X111640719Y-121903812D01*
X111651458Y-121907027D01*
X111671544Y-121915007D01*
X111681566Y-121920040D01*
X111742174Y-121934405D01*
X111749136Y-121936270D01*
X111776888Y-121944578D01*
X111808786Y-121954129D01*
X111808790Y-121954130D01*
X111819985Y-121954781D01*
X111841366Y-121957913D01*
X111852279Y-121960500D01*
X111914554Y-121960500D01*
X111921764Y-121960710D01*
X111983934Y-121964331D01*
X111983934Y-121964330D01*
X111983935Y-121964331D01*
X111994976Y-121962384D01*
X112016510Y-121960500D01*
X116085500Y-121960500D01*
X116147500Y-121977113D01*
X116192887Y-122022500D01*
X116209500Y-122084500D01*
X116209500Y-126746294D01*
X116208191Y-126764264D01*
X116204711Y-126788023D01*
X116209028Y-126837369D01*
X116209500Y-126848176D01*
X116209500Y-126853708D01*
X116213098Y-126884496D01*
X116213464Y-126888081D01*
X116220110Y-126964041D01*
X116224329Y-126983071D01*
X116224758Y-126984251D01*
X116224759Y-126984255D01*
X116250413Y-127054742D01*
X116251582Y-127058107D01*
X116275580Y-127130524D01*
X116284075Y-127148072D01*
X116325979Y-127211784D01*
X116327889Y-127214782D01*
X116360953Y-127268385D01*
X116367952Y-127279732D01*
X116380253Y-127294830D01*
X116381168Y-127295693D01*
X116381170Y-127295696D01*
X116426437Y-127338403D01*
X116435709Y-127347151D01*
X116438296Y-127349664D01*
X117145473Y-128056841D01*
X117646452Y-128557819D01*
X117676702Y-128607182D01*
X117681244Y-128664898D01*
X117659089Y-128718385D01*
X117615066Y-128755985D01*
X117558771Y-128769500D01*
X115769593Y-128769500D01*
X115707593Y-128752887D01*
X115662206Y-128707500D01*
X115560386Y-128531143D01*
X115538688Y-128503935D01*
X115396805Y-128326019D01*
X115374638Y-128305451D01*
X115204485Y-128147571D01*
X115165021Y-128120665D01*
X114987704Y-127999772D01*
X114751323Y-127885937D01*
X114500615Y-127808604D01*
X114241182Y-127769500D01*
X113978818Y-127769500D01*
X113719385Y-127808604D01*
X113468677Y-127885937D01*
X113245771Y-127993283D01*
X113232296Y-127999772D01*
X113191059Y-128027887D01*
X113015514Y-128147571D01*
X112823198Y-128326015D01*
X112659613Y-128531143D01*
X112601887Y-128631129D01*
X112556500Y-128676516D01*
X112494500Y-128693129D01*
X112432500Y-128676516D01*
X112387113Y-128631129D01*
X112370500Y-128569129D01*
X112370500Y-123450446D01*
X112370710Y-123443236D01*
X112374331Y-123381066D01*
X112368920Y-123350384D01*
X112363514Y-123319728D01*
X112362469Y-123312591D01*
X112361515Y-123304429D01*
X112355241Y-123250745D01*
X112351404Y-123240206D01*
X112345810Y-123219324D01*
X112343865Y-123208289D01*
X112319193Y-123151094D01*
X112316535Y-123144400D01*
X112295238Y-123085884D01*
X112289076Y-123076516D01*
X112278817Y-123057490D01*
X112274377Y-123047196D01*
X112237187Y-122997243D01*
X112233054Y-122991340D01*
X112212744Y-122960460D01*
X112198830Y-122939304D01*
X112190673Y-122931608D01*
X112176304Y-122915462D01*
X112169610Y-122906470D01*
X112157710Y-122896485D01*
X112127509Y-122871143D01*
X112121894Y-122866432D01*
X112116543Y-122861670D01*
X112071218Y-122818908D01*
X112071216Y-122818906D01*
X112071213Y-122818904D01*
X112061503Y-122813298D01*
X112043803Y-122800905D01*
X112035214Y-122793698D01*
X112035212Y-122793697D01*
X112035211Y-122793696D01*
X111979551Y-122765742D01*
X111973204Y-122762320D01*
X111919279Y-122731187D01*
X111908535Y-122727970D01*
X111888459Y-122719994D01*
X111878435Y-122714960D01*
X111817841Y-122700598D01*
X111810879Y-122698732D01*
X111751212Y-122680870D01*
X111745941Y-122680563D01*
X111740013Y-122680217D01*
X111718634Y-122677086D01*
X111707721Y-122674500D01*
X111707719Y-122674500D01*
X111645446Y-122674500D01*
X111638236Y-122674290D01*
X111576065Y-122670668D01*
X111565023Y-122672616D01*
X111543490Y-122674500D01*
X97224499Y-122674500D01*
X97162499Y-122657887D01*
X97117112Y-122612500D01*
X97100499Y-122550500D01*
X97100499Y-122327130D01*
X97100499Y-122327127D01*
X97094091Y-122267517D01*
X97043796Y-122132669D01*
X96957546Y-122017454D01*
X96842331Y-121931204D01*
X96707483Y-121880909D01*
X96647873Y-121874500D01*
X96647869Y-121874500D01*
X93552130Y-121874500D01*
X93492515Y-121880909D01*
X93357669Y-121931204D01*
X93242454Y-122017454D01*
X93156204Y-122132668D01*
X93105909Y-122267515D01*
X93105909Y-122267517D01*
X93100562Y-122317256D01*
X93099500Y-122327130D01*
X93099500Y-124522869D01*
X93105909Y-124582484D01*
X93131712Y-124651666D01*
X93139530Y-124694999D01*
X93131712Y-124738331D01*
X93105909Y-124807512D01*
X93102348Y-124840633D01*
X93100895Y-124854158D01*
X93099500Y-124867131D01*
X93099500Y-125035277D01*
X93085516Y-125092483D01*
X93046717Y-125136787D01*
X92991855Y-125158194D01*
X92933304Y-125151877D01*
X92884271Y-125119261D01*
X92739744Y-124962262D01*
X92739742Y-124962261D01*
X92739740Y-124962258D01*
X92543514Y-124809529D01*
X92543510Y-124809526D01*
X92543509Y-124809526D01*
X92324810Y-124691172D01*
X92324806Y-124691170D01*
X92324805Y-124691170D01*
X92089615Y-124610429D01*
X91844335Y-124569500D01*
X91754507Y-124569500D01*
X91693248Y-124553312D01*
X91647984Y-124508974D01*
X91630533Y-124448062D01*
X91645451Y-124386484D01*
X91678828Y-124324810D01*
X91759571Y-124089614D01*
X91800500Y-123844335D01*
X91800500Y-123595665D01*
X91759571Y-123350386D01*
X91678828Y-123115190D01*
X91560474Y-122896491D01*
X91560471Y-122896487D01*
X91560470Y-122896485D01*
X91431813Y-122731188D01*
X91407738Y-122700256D01*
X91266242Y-122570000D01*
X91234989Y-122541229D01*
X91199651Y-122483739D01*
X91199651Y-122416258D01*
X91234986Y-122358772D01*
X91407738Y-122199744D01*
X91560474Y-122003509D01*
X91678828Y-121784810D01*
X91759571Y-121549614D01*
X91800500Y-121304335D01*
X91800500Y-121055665D01*
X91759571Y-120810386D01*
X91678828Y-120575190D01*
X91560474Y-120356491D01*
X91560471Y-120356487D01*
X91560470Y-120356485D01*
X91436730Y-120197505D01*
X91407738Y-120160256D01*
X91224785Y-119991836D01*
X91016607Y-119855827D01*
X91016604Y-119855825D01*
X90882372Y-119796946D01*
X90788881Y-119755937D01*
X90547821Y-119694892D01*
X90547819Y-119694891D01*
X90547816Y-119694891D01*
X90362073Y-119679500D01*
X90362067Y-119679500D01*
X90174500Y-119679500D01*
X90112500Y-119662887D01*
X90067113Y-119617500D01*
X90050500Y-119555500D01*
X90050500Y-119533706D01*
X90051809Y-119515736D01*
X90052576Y-119510500D01*
X90055289Y-119491977D01*
X90050971Y-119442633D01*
X90050500Y-119431827D01*
X90050500Y-119426291D01*
X90047790Y-119403111D01*
X90046897Y-119395471D01*
X90046534Y-119391915D01*
X90046480Y-119391302D01*
X90039998Y-119317202D01*
X90039888Y-119315942D01*
X90035674Y-119296935D01*
X90021965Y-119259270D01*
X90009571Y-119225217D01*
X90008424Y-119221917D01*
X89984814Y-119150665D01*
X89984812Y-119150662D01*
X89984415Y-119149463D01*
X89975929Y-119131936D01*
X89975237Y-119130884D01*
X89975237Y-119130883D01*
X89933994Y-119068176D01*
X89932099Y-119065201D01*
X89892711Y-119001344D01*
X89892047Y-119000267D01*
X89879748Y-118985170D01*
X89824274Y-118932833D01*
X89821687Y-118930320D01*
X89536819Y-118645451D01*
X89509939Y-118605223D01*
X89500500Y-118557770D01*
X89500500Y-116751426D01*
X89516197Y-116691039D01*
X89559315Y-116645942D01*
X89618937Y-116627551D01*
X89679967Y-116640523D01*
X89726953Y-116681573D01*
X89774578Y-116751426D01*
X89817571Y-116814485D01*
X89933619Y-116939554D01*
X89996019Y-117006805D01*
X90201143Y-117170386D01*
X90428357Y-117301568D01*
X90499616Y-117329535D01*
X90670787Y-117396715D01*
X90672584Y-117397420D01*
X90928370Y-117455802D01*
X90984408Y-117460001D01*
X91124501Y-117470500D01*
X91124506Y-117470500D01*
X91255494Y-117470500D01*
X91255499Y-117470500D01*
X91380091Y-117461163D01*
X91451630Y-117455802D01*
X91707416Y-117397420D01*
X91951643Y-117301568D01*
X92178857Y-117170386D01*
X92383981Y-117006805D01*
X92483273Y-116899792D01*
X92562428Y-116814485D01*
X92562429Y-116814482D01*
X92562433Y-116814479D01*
X92710228Y-116597704D01*
X92824063Y-116361323D01*
X92901396Y-116110615D01*
X92940500Y-115851182D01*
X92940500Y-115588818D01*
X92901396Y-115329385D01*
X92824063Y-115078677D01*
X92710228Y-114842296D01*
X92562433Y-114625521D01*
X92562432Y-114625520D01*
X92562428Y-114625514D01*
X92400443Y-114450937D01*
X98235630Y-114450937D01*
X98266443Y-114652071D01*
X98337113Y-114842886D01*
X98444745Y-115015568D01*
X98444748Y-115015571D01*
X98584941Y-115163053D01*
X98751951Y-115279295D01*
X98938942Y-115359540D01*
X99138259Y-115400500D01*
X99290740Y-115400500D01*
X99290742Y-115400500D01*
X99442438Y-115385074D01*
X99636588Y-115324159D01*
X99814502Y-115225409D01*
X99968895Y-115092866D01*
X100093448Y-114931958D01*
X100183060Y-114749271D01*
X100234063Y-114552285D01*
X100239203Y-114450937D01*
X100775630Y-114450937D01*
X100806443Y-114652071D01*
X100877113Y-114842886D01*
X100984745Y-115015568D01*
X100984748Y-115015571D01*
X101124941Y-115163053D01*
X101291951Y-115279295D01*
X101478942Y-115359540D01*
X101678259Y-115400500D01*
X101830740Y-115400500D01*
X101830742Y-115400500D01*
X101982438Y-115385074D01*
X102176588Y-115324159D01*
X102354502Y-115225409D01*
X102508895Y-115092866D01*
X102633448Y-114931958D01*
X102723060Y-114749271D01*
X102774063Y-114552285D01*
X102784369Y-114349064D01*
X102783376Y-114342584D01*
X102753556Y-114147928D01*
X102682886Y-113957113D01*
X102575254Y-113784431D01*
X102565949Y-113774642D01*
X102435059Y-113636947D01*
X102268049Y-113520705D01*
X102081058Y-113440460D01*
X101881741Y-113399500D01*
X101729258Y-113399500D01*
X101668579Y-113405670D01*
X101577559Y-113414926D01*
X101383412Y-113475841D01*
X101205500Y-113574589D01*
X101051104Y-113707135D01*
X100926551Y-113868042D01*
X100836940Y-114050727D01*
X100811773Y-114147929D01*
X100788035Y-114239614D01*
X100785937Y-114247716D01*
X100775630Y-114450937D01*
X100239203Y-114450937D01*
X100244369Y-114349064D01*
X100243376Y-114342584D01*
X100213556Y-114147928D01*
X100142886Y-113957113D01*
X100035254Y-113784431D01*
X100025949Y-113774642D01*
X99895059Y-113636947D01*
X99728049Y-113520705D01*
X99541058Y-113440460D01*
X99341741Y-113399500D01*
X99189258Y-113399500D01*
X99128579Y-113405670D01*
X99037559Y-113414926D01*
X98843412Y-113475841D01*
X98665500Y-113574589D01*
X98511104Y-113707135D01*
X98386551Y-113868042D01*
X98296940Y-114050727D01*
X98271773Y-114147929D01*
X98248035Y-114239614D01*
X98245937Y-114247716D01*
X98235630Y-114450937D01*
X92400443Y-114450937D01*
X92383984Y-114433198D01*
X92383983Y-114433197D01*
X92383981Y-114433195D01*
X92178857Y-114269614D01*
X92178856Y-114269613D01*
X91968092Y-114147929D01*
X91951643Y-114138432D01*
X91951642Y-114138431D01*
X91951641Y-114138431D01*
X91707418Y-114042580D01*
X91451627Y-113984197D01*
X91255499Y-113969500D01*
X91255494Y-113969500D01*
X91124506Y-113969500D01*
X91124501Y-113969500D01*
X90928372Y-113984197D01*
X90672581Y-114042580D01*
X90428358Y-114138431D01*
X90201143Y-114269613D01*
X89996015Y-114433198D01*
X89817571Y-114625514D01*
X89799465Y-114652071D01*
X89730745Y-114752866D01*
X89726954Y-114758426D01*
X89679967Y-114799477D01*
X89618937Y-114812449D01*
X89559315Y-114794058D01*
X89516197Y-114748961D01*
X89500500Y-114688574D01*
X89500500Y-113173872D01*
X89517977Y-113110398D01*
X89565481Y-113064818D01*
X89573509Y-113060474D01*
X89769744Y-112907738D01*
X89938164Y-112724785D01*
X90074173Y-112516607D01*
X90174063Y-112288881D01*
X90235108Y-112047821D01*
X90247207Y-111901809D01*
X90250500Y-111862073D01*
X90250500Y-110737927D01*
X90239103Y-110600390D01*
X90235108Y-110552179D01*
X90174063Y-110311119D01*
X90074173Y-110083393D01*
X89938164Y-109875215D01*
X89769744Y-109692262D01*
X89721888Y-109655014D01*
X89573514Y-109539529D01*
X89573510Y-109539526D01*
X89573509Y-109539526D01*
X89354810Y-109421172D01*
X89354806Y-109421170D01*
X89354805Y-109421170D01*
X89119615Y-109340429D01*
X88874335Y-109299500D01*
X88625665Y-109299500D01*
X88380384Y-109340429D01*
X88145194Y-109421170D01*
X87926485Y-109539529D01*
X87730255Y-109692261D01*
X87571228Y-109865010D01*
X87513739Y-109900348D01*
X87446258Y-109900348D01*
X87388770Y-109865010D01*
X87229744Y-109692262D01*
X87181888Y-109655014D01*
X87033514Y-109539529D01*
X87033510Y-109539526D01*
X87033509Y-109539526D01*
X86814810Y-109421172D01*
X86814806Y-109421170D01*
X86814805Y-109421170D01*
X86579615Y-109340429D01*
X86334335Y-109299500D01*
X86085665Y-109299500D01*
X85840384Y-109340429D01*
X85605194Y-109421170D01*
X85386485Y-109539529D01*
X85190259Y-109692259D01*
X85190256Y-109692261D01*
X85190256Y-109692262D01*
X85189914Y-109692634D01*
X85030890Y-109865379D01*
X84973401Y-109900717D01*
X84905919Y-109900717D01*
X84848431Y-109865379D01*
X84689407Y-109692634D01*
X84493233Y-109539946D01*
X84274606Y-109421631D01*
X84169999Y-109385719D01*
X84170000Y-109385720D01*
X84170000Y-113214280D01*
X84274606Y-113178368D01*
X84493233Y-113060053D01*
X84689403Y-112907368D01*
X84848430Y-112734619D01*
X84905919Y-112699281D01*
X84973401Y-112699281D01*
X85030887Y-112734617D01*
X85190256Y-112907738D01*
X85190259Y-112907741D01*
X85385950Y-113060053D01*
X85386491Y-113060474D01*
X85394518Y-113064818D01*
X85442023Y-113110398D01*
X85459500Y-113173872D01*
X85459500Y-113200600D01*
X85440494Y-113266572D01*
X85389301Y-113312320D01*
X85332300Y-113339769D01*
X85115514Y-113487571D01*
X84923198Y-113666015D01*
X84759613Y-113871143D01*
X84628431Y-114098358D01*
X84532580Y-114342581D01*
X84474197Y-114598372D01*
X84454591Y-114859999D01*
X84474197Y-115121627D01*
X84532580Y-115377418D01*
X84628431Y-115621641D01*
X84759613Y-115848856D01*
X84760892Y-115850460D01*
X84923195Y-116053981D01*
X84923197Y-116053983D01*
X84923198Y-116053984D01*
X85115514Y-116232428D01*
X85115520Y-116232432D01*
X85115521Y-116232433D01*
X85332296Y-116380228D01*
X85568677Y-116494063D01*
X85819385Y-116571396D01*
X86078818Y-116610500D01*
X86341182Y-116610500D01*
X86600615Y-116571396D01*
X86851323Y-116494063D01*
X87087704Y-116380228D01*
X87304479Y-116232433D01*
X87304482Y-116232429D01*
X87304485Y-116232428D01*
X87407676Y-116136680D01*
X87496805Y-116053981D01*
X87660386Y-115848857D01*
X87768113Y-115662267D01*
X87813500Y-115616881D01*
X87875500Y-115600268D01*
X87937500Y-115616881D01*
X87982887Y-115662268D01*
X87999500Y-115724268D01*
X87999500Y-118856294D01*
X87998191Y-118874264D01*
X87994711Y-118898023D01*
X87999028Y-118947369D01*
X87999500Y-118958176D01*
X87999500Y-118963708D01*
X88003098Y-118994496D01*
X88003464Y-118998081D01*
X88007694Y-119046434D01*
X88010110Y-119074041D01*
X88014329Y-119093071D01*
X88014758Y-119094251D01*
X88014759Y-119094255D01*
X88040413Y-119164742D01*
X88041582Y-119168107D01*
X88065580Y-119240524D01*
X88074075Y-119258072D01*
X88115979Y-119321784D01*
X88117889Y-119324782D01*
X88157288Y-119388656D01*
X88157952Y-119389732D01*
X88170253Y-119404831D01*
X88225710Y-119457152D01*
X88228297Y-119459665D01*
X88242881Y-119474249D01*
X88276291Y-119535230D01*
X88271624Y-119604608D01*
X88230347Y-119660565D01*
X88165440Y-119685506D01*
X88052183Y-119694891D01*
X88052179Y-119694891D01*
X88052179Y-119694892D01*
X87811119Y-119755937D01*
X87811116Y-119755938D01*
X87811117Y-119755938D01*
X87583395Y-119855825D01*
X87456356Y-119938824D01*
X87375215Y-119991836D01*
X87251184Y-120106015D01*
X87192259Y-120160259D01*
X87039529Y-120356485D01*
X87017333Y-120397500D01*
X86929393Y-120560000D01*
X86921170Y-120575194D01*
X86840429Y-120810384D01*
X86799500Y-121055665D01*
X86799500Y-121304335D01*
X86840429Y-121549615D01*
X86921081Y-121784545D01*
X86921172Y-121784810D01*
X87038475Y-122001567D01*
X87039529Y-122003514D01*
X87162566Y-122161591D01*
X87192262Y-122199744D01*
X87365010Y-122358770D01*
X87400348Y-122416258D01*
X87400348Y-122483739D01*
X87365010Y-122541228D01*
X87192261Y-122700255D01*
X87039529Y-122896485D01*
X86968627Y-123027500D01*
X86936405Y-123087043D01*
X86921170Y-123115194D01*
X86840429Y-123350384D01*
X86799500Y-123595665D01*
X86799500Y-123844335D01*
X86840429Y-124089615D01*
X86912483Y-124299500D01*
X86921172Y-124324810D01*
X87035229Y-124535568D01*
X87039529Y-124543514D01*
X87157436Y-124695000D01*
X87192262Y-124739744D01*
X87375215Y-124908164D01*
X87583393Y-125044173D01*
X87811119Y-125144063D01*
X88052179Y-125205108D01*
X88126480Y-125211264D01*
X88237927Y-125220500D01*
X88237933Y-125220500D01*
X89404217Y-125220500D01*
X89451670Y-125229939D01*
X89491898Y-125256819D01*
X89837710Y-125602631D01*
X90180657Y-125945577D01*
X90209400Y-125990579D01*
X90216553Y-126043496D01*
X90214357Y-126070000D01*
X90234891Y-126317816D01*
X90234891Y-126317819D01*
X90234892Y-126317821D01*
X90295937Y-126558881D01*
X90327636Y-126631148D01*
X90395825Y-126786604D01*
X90395827Y-126786607D01*
X90525686Y-126985372D01*
X90531839Y-126994789D01*
X90570253Y-127036518D01*
X90598157Y-127086103D01*
X90600978Y-127142930D01*
X90578122Y-127195034D01*
X90534402Y-127231446D01*
X90479023Y-127244500D01*
X88817027Y-127244500D01*
X88771952Y-127236017D01*
X88733046Y-127211731D01*
X88564785Y-127056836D01*
X88356607Y-126920827D01*
X88356604Y-126920825D01*
X88231523Y-126865960D01*
X88128881Y-126820937D01*
X87887821Y-126759892D01*
X87887819Y-126759891D01*
X87887816Y-126759891D01*
X87702073Y-126744500D01*
X87702067Y-126744500D01*
X85577933Y-126744500D01*
X85577927Y-126744500D01*
X85392183Y-126759891D01*
X85392179Y-126759891D01*
X85392179Y-126759892D01*
X85151119Y-126820937D01*
X85151116Y-126820938D01*
X85151117Y-126820938D01*
X84923395Y-126920825D01*
X84835719Y-126978107D01*
X84715215Y-127056836D01*
X84546569Y-127212086D01*
X84532259Y-127225259D01*
X84379529Y-127421485D01*
X84261170Y-127640194D01*
X84180429Y-127875384D01*
X84139500Y-128120665D01*
X84139500Y-128369335D01*
X84180429Y-128614615D01*
X84248391Y-128812581D01*
X84261172Y-128849810D01*
X84377535Y-129064830D01*
X84379529Y-129068514D01*
X84532258Y-129264740D01*
X84532261Y-129264742D01*
X84532262Y-129264744D01*
X84705381Y-129424111D01*
X84740718Y-129481598D01*
X84740718Y-129549079D01*
X84705380Y-129606568D01*
X84532634Y-129765592D01*
X84379946Y-129961766D01*
X84261631Y-130180393D01*
X84225719Y-130285000D01*
X89054280Y-130285000D01*
X89018368Y-130180393D01*
X88900053Y-129961766D01*
X88747365Y-129765592D01*
X88574620Y-129606568D01*
X88539282Y-129549079D01*
X88539282Y-129481598D01*
X88574618Y-129424111D01*
X88733046Y-129278268D01*
X88771952Y-129253983D01*
X88817027Y-129245500D01*
X91618259Y-129245500D01*
X91691499Y-129245500D01*
X91697778Y-129245658D01*
X91720653Y-129246819D01*
X91770935Y-129249369D01*
X91770935Y-129249368D01*
X91770936Y-129249369D01*
X91786857Y-129246929D01*
X91805635Y-129245500D01*
X91928633Y-129245500D01*
X91965754Y-129251187D01*
X91999470Y-129267725D01*
X91999940Y-129268052D01*
X91999941Y-129268053D01*
X92048358Y-129301752D01*
X92055865Y-129307413D01*
X92101593Y-129344698D01*
X92113254Y-129350789D01*
X92128556Y-129358782D01*
X92141980Y-129366915D01*
X92166951Y-129384295D01*
X92198352Y-129397770D01*
X92221163Y-129407559D01*
X92229663Y-129411595D01*
X92270953Y-129433164D01*
X92281951Y-129438909D01*
X92311196Y-129447277D01*
X92325986Y-129452543D01*
X92333464Y-129455752D01*
X92353942Y-129464540D01*
X92411737Y-129476416D01*
X92420854Y-129478654D01*
X92477582Y-129494887D01*
X92507916Y-129497196D01*
X92523453Y-129499374D01*
X92553259Y-129505500D01*
X92612243Y-129505500D01*
X92621657Y-129505858D01*
X92680477Y-129510337D01*
X92710652Y-129506493D01*
X92726318Y-129505500D01*
X92977649Y-129505500D01*
X93035777Y-129519969D01*
X93080340Y-129559998D01*
X93100939Y-129616247D01*
X93105909Y-129662484D01*
X93131979Y-129732382D01*
X93139797Y-129775714D01*
X93131979Y-129819047D01*
X93106402Y-129887622D01*
X93100000Y-129947176D01*
X93100000Y-130545000D01*
X97100000Y-130545000D01*
X97100000Y-129947176D01*
X97093597Y-129887624D01*
X97068020Y-129819048D01*
X97060202Y-129775714D01*
X97068020Y-129732381D01*
X97094091Y-129662483D01*
X97100500Y-129602873D01*
X97100499Y-127407128D01*
X97094091Y-127347517D01*
X97068285Y-127278329D01*
X97060468Y-127234998D01*
X97068287Y-127191664D01*
X97073482Y-127177738D01*
X97094091Y-127122483D01*
X97100500Y-127062873D01*
X97100500Y-126834500D01*
X97117113Y-126772500D01*
X97162500Y-126727113D01*
X97224500Y-126710500D01*
X109165500Y-126710500D01*
X109227500Y-126727113D01*
X109272887Y-126772500D01*
X109289500Y-126834500D01*
X109289500Y-127937816D01*
X109276403Y-127993283D01*
X109239878Y-128037032D01*
X109187641Y-128059823D01*
X109130727Y-128056841D01*
X109081159Y-128028715D01*
X109004481Y-127957568D01*
X108931939Y-127908110D01*
X108787704Y-127809772D01*
X108551323Y-127695937D01*
X108300615Y-127618604D01*
X108041182Y-127579500D01*
X107778818Y-127579500D01*
X107519385Y-127618604D01*
X107268677Y-127695937D01*
X107050140Y-127801179D01*
X107032296Y-127809772D01*
X106962922Y-127857070D01*
X106815514Y-127957571D01*
X106623198Y-128136015D01*
X106459613Y-128341143D01*
X106328431Y-128568358D01*
X106232580Y-128812581D01*
X106174197Y-129068372D01*
X106154591Y-129329999D01*
X106174197Y-129591627D01*
X106191389Y-129666947D01*
X106225051Y-129814431D01*
X106234648Y-129856475D01*
X106233298Y-129856783D01*
X106239281Y-129889526D01*
X106229553Y-129936144D01*
X106202972Y-129975658D01*
X103640451Y-132538181D01*
X103600223Y-132565061D01*
X103552770Y-132574500D01*
X97113349Y-132574500D01*
X97048182Y-132555995D01*
X97002465Y-132506004D01*
X96989843Y-132439447D01*
X97014082Y-132376189D01*
X97043352Y-132337088D01*
X97093597Y-132202375D01*
X97100000Y-132142824D01*
X97100000Y-131545000D01*
X93100000Y-131545000D01*
X93100000Y-132142824D01*
X93106402Y-132202375D01*
X93156647Y-132337088D01*
X93185918Y-132376189D01*
X93210157Y-132439447D01*
X93197535Y-132506004D01*
X93151818Y-132555995D01*
X93086651Y-132574500D01*
X89013872Y-132574500D01*
X88950398Y-132557023D01*
X88904818Y-132509518D01*
X88900474Y-132501491D01*
X88898626Y-132499117D01*
X88747741Y-132305259D01*
X88733367Y-132292027D01*
X88574617Y-132145887D01*
X88539281Y-132088401D01*
X88539281Y-132020919D01*
X88574619Y-131963430D01*
X88747368Y-131804403D01*
X88900053Y-131608233D01*
X89018368Y-131389606D01*
X89054280Y-131285000D01*
X84225720Y-131285000D01*
X84261631Y-131389606D01*
X84379946Y-131608233D01*
X84532634Y-131804407D01*
X84705379Y-131963431D01*
X84740717Y-132020919D01*
X84740717Y-132088401D01*
X84705379Y-132145890D01*
X84642326Y-132203935D01*
X84547450Y-132291275D01*
X84532259Y-132305259D01*
X84379529Y-132501485D01*
X84261170Y-132720194D01*
X84180429Y-132955384D01*
X84139500Y-133200665D01*
X84139500Y-133449335D01*
X81170500Y-133449335D01*
X81170500Y-111800000D01*
X82170000Y-111800000D01*
X82170000Y-111862049D01*
X82185386Y-112047732D01*
X82246413Y-112288721D01*
X82346266Y-112516365D01*
X82482233Y-112724477D01*
X82650596Y-112907368D01*
X82846766Y-113060053D01*
X83065393Y-113178368D01*
X83170000Y-113214280D01*
X83170000Y-111800000D01*
X82170000Y-111800000D01*
X81170500Y-111800000D01*
X81170500Y-110800000D01*
X82170000Y-110800000D01*
X83170000Y-110800000D01*
X83170000Y-109385719D01*
X83065393Y-109421631D01*
X82846766Y-109539946D01*
X82650596Y-109692631D01*
X82482233Y-109875522D01*
X82346266Y-110083634D01*
X82246413Y-110311278D01*
X82185386Y-110552267D01*
X82170000Y-110737951D01*
X82170000Y-110800000D01*
X81170500Y-110800000D01*
X81170500Y-110692872D01*
X81170632Y-110687146D01*
X81172437Y-110648102D01*
X81178490Y-110517168D01*
X81179452Y-110497595D01*
X81188166Y-110320200D01*
X81189200Y-110309217D01*
X81214611Y-110127054D01*
X81214722Y-110126286D01*
X81241950Y-109942729D01*
X81243890Y-109932595D01*
X81286526Y-109751318D01*
X81286837Y-109750037D01*
X81331405Y-109572111D01*
X81334091Y-109562922D01*
X81393572Y-109385457D01*
X81394270Y-109383442D01*
X81455699Y-109211759D01*
X81458996Y-109203497D01*
X81534713Y-109032015D01*
X81536051Y-109029089D01*
X81545510Y-109009089D01*
X81613727Y-108864855D01*
X81617452Y-108857612D01*
X81708864Y-108693497D01*
X81710745Y-108690243D01*
X81804036Y-108534598D01*
X81808034Y-108528363D01*
X81914270Y-108373278D01*
X81916899Y-108369590D01*
X82024909Y-108223954D01*
X82029011Y-108218728D01*
X82149239Y-108073944D01*
X82152577Y-108070097D01*
X82274340Y-107935752D01*
X82278437Y-107931450D01*
X82411450Y-107798437D01*
X82415752Y-107794340D01*
X82550097Y-107672577D01*
X82553944Y-107669239D01*
X82698728Y-107549011D01*
X82703954Y-107544909D01*
X82849590Y-107436899D01*
X82853278Y-107434270D01*
X83008363Y-107328034D01*
X83014598Y-107324036D01*
X83170243Y-107230745D01*
X83173497Y-107228864D01*
X83337612Y-107137452D01*
X83344855Y-107133727D01*
X83509098Y-107056046D01*
X83512018Y-107054712D01*
X83554281Y-107036051D01*
X83683497Y-106978996D01*
X83691759Y-106975699D01*
X83863442Y-106914270D01*
X83865457Y-106913572D01*
X84042922Y-106854091D01*
X84052111Y-106851405D01*
X84230037Y-106806837D01*
X84231318Y-106806526D01*
X84412595Y-106763890D01*
X84422729Y-106761950D01*
X84606286Y-106734722D01*
X84607054Y-106734611D01*
X84789217Y-106709200D01*
X84800200Y-106708166D01*
X84997169Y-106698490D01*
X85167179Y-106690630D01*
X85172833Y-106690499D01*
X202167138Y-106670500D01*
X202172845Y-106670631D01*
G37*
%TD.AperFunction*%
%TD*%
M02*
