%TF.GenerationSoftware,KiCad,Pcbnew,7.0.1*%
%TF.CreationDate,2023-08-15T15:03:05-03:00*%
%TF.ProjectId,controlRemoto,636f6e74-726f-46c5-9265-6d6f746f2e6b,rev?*%
%TF.SameCoordinates,Original*%
%TF.FileFunction,Copper,L2,Bot*%
%TF.FilePolarity,Positive*%
%FSLAX46Y46*%
G04 Gerber Fmt 4.6, Leading zero omitted, Abs format (unit mm)*
G04 Created by KiCad (PCBNEW 7.0.1) date 2023-08-15 15:03:05*
%MOMM*%
%LPD*%
G01*
G04 APERTURE LIST*
%ADD10C,0.300000*%
%TA.AperFunction,NonConductor*%
%ADD11C,0.300000*%
%TD*%
%TA.AperFunction,ViaPad*%
%ADD12C,2.500000*%
%TD*%
%TA.AperFunction,ViaPad*%
%ADD13C,2.000000*%
%TD*%
%TA.AperFunction,Conductor*%
%ADD14C,0.500000*%
%TD*%
%TA.AperFunction,Conductor*%
%ADD15C,1.000000*%
%TD*%
G04 APERTURE END LIST*
D10*
D11*
X178645714Y-108717857D02*
X178502857Y-108646428D01*
X178502857Y-108646428D02*
X178288571Y-108646428D01*
X178288571Y-108646428D02*
X178074285Y-108717857D01*
X178074285Y-108717857D02*
X177931428Y-108860714D01*
X177931428Y-108860714D02*
X177859999Y-109003571D01*
X177859999Y-109003571D02*
X177788571Y-109289285D01*
X177788571Y-109289285D02*
X177788571Y-109503571D01*
X177788571Y-109503571D02*
X177859999Y-109789285D01*
X177859999Y-109789285D02*
X177931428Y-109932142D01*
X177931428Y-109932142D02*
X178074285Y-110075000D01*
X178074285Y-110075000D02*
X178288571Y-110146428D01*
X178288571Y-110146428D02*
X178431428Y-110146428D01*
X178431428Y-110146428D02*
X178645714Y-110075000D01*
X178645714Y-110075000D02*
X178717142Y-110003571D01*
X178717142Y-110003571D02*
X178717142Y-109503571D01*
X178717142Y-109503571D02*
X178431428Y-109503571D01*
X179359999Y-108646428D02*
X179359999Y-109860714D01*
X179359999Y-109860714D02*
X179431428Y-110003571D01*
X179431428Y-110003571D02*
X179502857Y-110075000D01*
X179502857Y-110075000D02*
X179645714Y-110146428D01*
X179645714Y-110146428D02*
X179931428Y-110146428D01*
X179931428Y-110146428D02*
X180074285Y-110075000D01*
X180074285Y-110075000D02*
X180145714Y-110003571D01*
X180145714Y-110003571D02*
X180217142Y-109860714D01*
X180217142Y-109860714D02*
X180217142Y-108646428D01*
X180931428Y-109360714D02*
X181431428Y-109360714D01*
X181645714Y-110146428D02*
X180931428Y-110146428D01*
X180931428Y-110146428D02*
X180931428Y-108646428D01*
X180931428Y-108646428D02*
X181645714Y-108646428D01*
X183145714Y-110146428D02*
X182645714Y-109432142D01*
X182288571Y-110146428D02*
X182288571Y-108646428D01*
X182288571Y-108646428D02*
X182860000Y-108646428D01*
X182860000Y-108646428D02*
X183002857Y-108717857D01*
X183002857Y-108717857D02*
X183074286Y-108789285D01*
X183074286Y-108789285D02*
X183145714Y-108932142D01*
X183145714Y-108932142D02*
X183145714Y-109146428D01*
X183145714Y-109146428D02*
X183074286Y-109289285D01*
X183074286Y-109289285D02*
X183002857Y-109360714D01*
X183002857Y-109360714D02*
X182860000Y-109432142D01*
X182860000Y-109432142D02*
X182288571Y-109432142D01*
X183788571Y-109360714D02*
X184288571Y-109360714D01*
X184502857Y-110146428D02*
X183788571Y-110146428D01*
X183788571Y-110146428D02*
X183788571Y-108646428D01*
X183788571Y-108646428D02*
X184502857Y-108646428D01*
X184931429Y-108646428D02*
X185788572Y-108646428D01*
X185360000Y-110146428D02*
X185360000Y-108646428D01*
X186217143Y-109717857D02*
X186931429Y-109717857D01*
X186074286Y-110146428D02*
X186574286Y-108646428D01*
X186574286Y-108646428D02*
X187074286Y-110146428D01*
X178252857Y-111076428D02*
X179110000Y-111076428D01*
X178681428Y-112576428D02*
X178681428Y-111076428D01*
X179895714Y-111076428D02*
X180181428Y-111076428D01*
X180181428Y-111076428D02*
X180324285Y-111147857D01*
X180324285Y-111147857D02*
X180467142Y-111290714D01*
X180467142Y-111290714D02*
X180538571Y-111576428D01*
X180538571Y-111576428D02*
X180538571Y-112076428D01*
X180538571Y-112076428D02*
X180467142Y-112362142D01*
X180467142Y-112362142D02*
X180324285Y-112505000D01*
X180324285Y-112505000D02*
X180181428Y-112576428D01*
X180181428Y-112576428D02*
X179895714Y-112576428D01*
X179895714Y-112576428D02*
X179752857Y-112505000D01*
X179752857Y-112505000D02*
X179609999Y-112362142D01*
X179609999Y-112362142D02*
X179538571Y-112076428D01*
X179538571Y-112076428D02*
X179538571Y-111576428D01*
X179538571Y-111576428D02*
X179609999Y-111290714D01*
X179609999Y-111290714D02*
X179752857Y-111147857D01*
X179752857Y-111147857D02*
X179895714Y-111076428D01*
X182038571Y-112576428D02*
X181538571Y-111862142D01*
X181181428Y-112576428D02*
X181181428Y-111076428D01*
X181181428Y-111076428D02*
X181752857Y-111076428D01*
X181752857Y-111076428D02*
X181895714Y-111147857D01*
X181895714Y-111147857D02*
X181967143Y-111219285D01*
X181967143Y-111219285D02*
X182038571Y-111362142D01*
X182038571Y-111362142D02*
X182038571Y-111576428D01*
X182038571Y-111576428D02*
X181967143Y-111719285D01*
X181967143Y-111719285D02*
X181895714Y-111790714D01*
X181895714Y-111790714D02*
X181752857Y-111862142D01*
X181752857Y-111862142D02*
X181181428Y-111862142D01*
X183538571Y-112576428D02*
X183038571Y-111862142D01*
X182681428Y-112576428D02*
X182681428Y-111076428D01*
X182681428Y-111076428D02*
X183252857Y-111076428D01*
X183252857Y-111076428D02*
X183395714Y-111147857D01*
X183395714Y-111147857D02*
X183467143Y-111219285D01*
X183467143Y-111219285D02*
X183538571Y-111362142D01*
X183538571Y-111362142D02*
X183538571Y-111576428D01*
X183538571Y-111576428D02*
X183467143Y-111719285D01*
X183467143Y-111719285D02*
X183395714Y-111790714D01*
X183395714Y-111790714D02*
X183252857Y-111862142D01*
X183252857Y-111862142D02*
X182681428Y-111862142D01*
X184181428Y-111790714D02*
X184681428Y-111790714D01*
X184895714Y-112576428D02*
X184181428Y-112576428D01*
X184181428Y-112576428D02*
X184181428Y-111076428D01*
X184181428Y-111076428D02*
X184895714Y-111076428D01*
X185467143Y-112505000D02*
X185681429Y-112576428D01*
X185681429Y-112576428D02*
X186038571Y-112576428D01*
X186038571Y-112576428D02*
X186181429Y-112505000D01*
X186181429Y-112505000D02*
X186252857Y-112433571D01*
X186252857Y-112433571D02*
X186324286Y-112290714D01*
X186324286Y-112290714D02*
X186324286Y-112147857D01*
X186324286Y-112147857D02*
X186252857Y-112005000D01*
X186252857Y-112005000D02*
X186181429Y-111933571D01*
X186181429Y-111933571D02*
X186038571Y-111862142D01*
X186038571Y-111862142D02*
X185752857Y-111790714D01*
X185752857Y-111790714D02*
X185610000Y-111719285D01*
X185610000Y-111719285D02*
X185538571Y-111647857D01*
X185538571Y-111647857D02*
X185467143Y-111505000D01*
X185467143Y-111505000D02*
X185467143Y-111362142D01*
X185467143Y-111362142D02*
X185538571Y-111219285D01*
X185538571Y-111219285D02*
X185610000Y-111147857D01*
X185610000Y-111147857D02*
X185752857Y-111076428D01*
X185752857Y-111076428D02*
X186110000Y-111076428D01*
X186110000Y-111076428D02*
X186324286Y-111147857D01*
X174145715Y-114935000D02*
X174360001Y-115006428D01*
X174360001Y-115006428D02*
X174717143Y-115006428D01*
X174717143Y-115006428D02*
X174860001Y-114935000D01*
X174860001Y-114935000D02*
X174931429Y-114863571D01*
X174931429Y-114863571D02*
X175002858Y-114720714D01*
X175002858Y-114720714D02*
X175002858Y-114577857D01*
X175002858Y-114577857D02*
X174931429Y-114435000D01*
X174931429Y-114435000D02*
X174860001Y-114363571D01*
X174860001Y-114363571D02*
X174717143Y-114292142D01*
X174717143Y-114292142D02*
X174431429Y-114220714D01*
X174431429Y-114220714D02*
X174288572Y-114149285D01*
X174288572Y-114149285D02*
X174217143Y-114077857D01*
X174217143Y-114077857D02*
X174145715Y-113935000D01*
X174145715Y-113935000D02*
X174145715Y-113792142D01*
X174145715Y-113792142D02*
X174217143Y-113649285D01*
X174217143Y-113649285D02*
X174288572Y-113577857D01*
X174288572Y-113577857D02*
X174431429Y-113506428D01*
X174431429Y-113506428D02*
X174788572Y-113506428D01*
X174788572Y-113506428D02*
X175002858Y-113577857D01*
X176502857Y-114863571D02*
X176431429Y-114935000D01*
X176431429Y-114935000D02*
X176217143Y-115006428D01*
X176217143Y-115006428D02*
X176074286Y-115006428D01*
X176074286Y-115006428D02*
X175860000Y-114935000D01*
X175860000Y-114935000D02*
X175717143Y-114792142D01*
X175717143Y-114792142D02*
X175645714Y-114649285D01*
X175645714Y-114649285D02*
X175574286Y-114363571D01*
X175574286Y-114363571D02*
X175574286Y-114149285D01*
X175574286Y-114149285D02*
X175645714Y-113863571D01*
X175645714Y-113863571D02*
X175717143Y-113720714D01*
X175717143Y-113720714D02*
X175860000Y-113577857D01*
X175860000Y-113577857D02*
X176074286Y-113506428D01*
X176074286Y-113506428D02*
X176217143Y-113506428D01*
X176217143Y-113506428D02*
X176431429Y-113577857D01*
X176431429Y-113577857D02*
X176502857Y-113649285D01*
X177145714Y-115006428D02*
X177145714Y-113506428D01*
X177145714Y-114220714D02*
X178002857Y-114220714D01*
X178002857Y-115006428D02*
X178002857Y-113506428D01*
X178574286Y-113506428D02*
X178931429Y-115006428D01*
X178931429Y-115006428D02*
X179217143Y-113935000D01*
X179217143Y-113935000D02*
X179502858Y-115006428D01*
X179502858Y-115006428D02*
X179860001Y-113506428D01*
X180360001Y-114577857D02*
X181074287Y-114577857D01*
X180217144Y-115006428D02*
X180717144Y-113506428D01*
X180717144Y-113506428D02*
X181217144Y-115006428D01*
X182574286Y-115006428D02*
X182074286Y-114292142D01*
X181717143Y-115006428D02*
X181717143Y-113506428D01*
X181717143Y-113506428D02*
X182288572Y-113506428D01*
X182288572Y-113506428D02*
X182431429Y-113577857D01*
X182431429Y-113577857D02*
X182502858Y-113649285D01*
X182502858Y-113649285D02*
X182574286Y-113792142D01*
X182574286Y-113792142D02*
X182574286Y-114006428D01*
X182574286Y-114006428D02*
X182502858Y-114149285D01*
X182502858Y-114149285D02*
X182431429Y-114220714D01*
X182431429Y-114220714D02*
X182288572Y-114292142D01*
X182288572Y-114292142D02*
X181717143Y-114292142D01*
X183002858Y-113506428D02*
X183860001Y-113506428D01*
X183431429Y-115006428D02*
X183431429Y-113506428D01*
X184217143Y-113506428D02*
X185217143Y-113506428D01*
X185217143Y-113506428D02*
X184217143Y-115006428D01*
X184217143Y-115006428D02*
X185217143Y-115006428D01*
X186288571Y-114220714D02*
X186502857Y-114292142D01*
X186502857Y-114292142D02*
X186574286Y-114363571D01*
X186574286Y-114363571D02*
X186645714Y-114506428D01*
X186645714Y-114506428D02*
X186645714Y-114720714D01*
X186645714Y-114720714D02*
X186574286Y-114863571D01*
X186574286Y-114863571D02*
X186502857Y-114935000D01*
X186502857Y-114935000D02*
X186360000Y-115006428D01*
X186360000Y-115006428D02*
X185788571Y-115006428D01*
X185788571Y-115006428D02*
X185788571Y-113506428D01*
X185788571Y-113506428D02*
X186288571Y-113506428D01*
X186288571Y-113506428D02*
X186431429Y-113577857D01*
X186431429Y-113577857D02*
X186502857Y-113649285D01*
X186502857Y-113649285D02*
X186574286Y-113792142D01*
X186574286Y-113792142D02*
X186574286Y-113935000D01*
X186574286Y-113935000D02*
X186502857Y-114077857D01*
X186502857Y-114077857D02*
X186431429Y-114149285D01*
X186431429Y-114149285D02*
X186288571Y-114220714D01*
X186288571Y-114220714D02*
X185788571Y-114220714D01*
X187217143Y-114577857D02*
X187931429Y-114577857D01*
X187074286Y-115006428D02*
X187574286Y-113506428D01*
X187574286Y-113506428D02*
X188074286Y-115006428D01*
X189431428Y-115006428D02*
X188931428Y-114292142D01*
X188574285Y-115006428D02*
X188574285Y-113506428D01*
X188574285Y-113506428D02*
X189145714Y-113506428D01*
X189145714Y-113506428D02*
X189288571Y-113577857D01*
X189288571Y-113577857D02*
X189360000Y-113649285D01*
X189360000Y-113649285D02*
X189431428Y-113792142D01*
X189431428Y-113792142D02*
X189431428Y-114006428D01*
X189431428Y-114006428D02*
X189360000Y-114149285D01*
X189360000Y-114149285D02*
X189288571Y-114220714D01*
X189288571Y-114220714D02*
X189145714Y-114292142D01*
X189145714Y-114292142D02*
X188574285Y-114292142D01*
X189860000Y-113506428D02*
X190717143Y-113506428D01*
X190288571Y-115006428D02*
X190288571Y-113506428D01*
D10*
D11*
X180247142Y-144500714D02*
X180461428Y-144572142D01*
X180461428Y-144572142D02*
X180532857Y-144643571D01*
X180532857Y-144643571D02*
X180604285Y-144786428D01*
X180604285Y-144786428D02*
X180604285Y-145000714D01*
X180604285Y-145000714D02*
X180532857Y-145143571D01*
X180532857Y-145143571D02*
X180461428Y-145215000D01*
X180461428Y-145215000D02*
X180318571Y-145286428D01*
X180318571Y-145286428D02*
X179747142Y-145286428D01*
X179747142Y-145286428D02*
X179747142Y-143786428D01*
X179747142Y-143786428D02*
X180247142Y-143786428D01*
X180247142Y-143786428D02*
X180390000Y-143857857D01*
X180390000Y-143857857D02*
X180461428Y-143929285D01*
X180461428Y-143929285D02*
X180532857Y-144072142D01*
X180532857Y-144072142D02*
X180532857Y-144215000D01*
X180532857Y-144215000D02*
X180461428Y-144357857D01*
X180461428Y-144357857D02*
X180390000Y-144429285D01*
X180390000Y-144429285D02*
X180247142Y-144500714D01*
X180247142Y-144500714D02*
X179747142Y-144500714D01*
X181175714Y-144857857D02*
X181890000Y-144857857D01*
X181032857Y-145286428D02*
X181532857Y-143786428D01*
X181532857Y-143786428D02*
X182032857Y-145286428D01*
X183389999Y-145143571D02*
X183318571Y-145215000D01*
X183318571Y-145215000D02*
X183104285Y-145286428D01*
X183104285Y-145286428D02*
X182961428Y-145286428D01*
X182961428Y-145286428D02*
X182747142Y-145215000D01*
X182747142Y-145215000D02*
X182604285Y-145072142D01*
X182604285Y-145072142D02*
X182532856Y-144929285D01*
X182532856Y-144929285D02*
X182461428Y-144643571D01*
X182461428Y-144643571D02*
X182461428Y-144429285D01*
X182461428Y-144429285D02*
X182532856Y-144143571D01*
X182532856Y-144143571D02*
X182604285Y-144000714D01*
X182604285Y-144000714D02*
X182747142Y-143857857D01*
X182747142Y-143857857D02*
X182961428Y-143786428D01*
X182961428Y-143786428D02*
X183104285Y-143786428D01*
X183104285Y-143786428D02*
X183318571Y-143857857D01*
X183318571Y-143857857D02*
X183389999Y-143929285D01*
X184032856Y-145286428D02*
X184032856Y-143786428D01*
X184889999Y-145286428D02*
X184247142Y-144429285D01*
X184889999Y-143786428D02*
X184032856Y-144643571D01*
D12*
%TO.N,GND*%
X175060000Y-138980000D03*
X166180000Y-138980000D03*
%TO.N,+3V8*%
X137580000Y-117080000D03*
X161570000Y-135440000D03*
X121550000Y-124340000D03*
%TO.N,3V3*%
X132250000Y-143930000D03*
X90810000Y-125580000D03*
D13*
%TO.N,D12*%
X127180000Y-111279500D03*
D12*
X150740000Y-114000000D03*
%TO.N,D4*%
X86210000Y-114860000D03*
X122190000Y-136000000D03*
%TD*%
D14*
%TO.N,GND*%
X175060000Y-138980000D02*
X166180000Y-138980000D01*
D15*
%TO.N,+3V8*%
X125540000Y-120350000D02*
X137600000Y-120350000D01*
X137600000Y-120350000D02*
X137600000Y-117100000D01*
X149270000Y-117080000D02*
X137580000Y-117080000D01*
X121550000Y-124340000D02*
X125540000Y-120350000D01*
X161570000Y-119480000D02*
X161580000Y-119470000D01*
X161580000Y-119470000D02*
X151660000Y-119470000D01*
X161570000Y-135440000D02*
X161570000Y-119480000D01*
X151660000Y-119470000D02*
X149270000Y-117080000D01*
X137600000Y-117100000D02*
X137580000Y-117080000D01*
%TO.N,3V3*%
X88050000Y-126020000D02*
X88490000Y-125580000D01*
X128300000Y-145830000D02*
X86350000Y-145830000D01*
X88490000Y-125580000D02*
X90810000Y-125580000D01*
X83110000Y-126020000D02*
X88050000Y-126020000D01*
X130200000Y-143930000D02*
X128300000Y-145830000D01*
X132250000Y-143930000D02*
X130200000Y-143930000D01*
X86350000Y-145830000D02*
X83110000Y-142590000D01*
X83110000Y-142590000D02*
X83110000Y-126020000D01*
D14*
%TO.N,D12*%
X127189500Y-111270000D02*
X148010000Y-111270000D01*
X127180000Y-111279500D02*
X127189500Y-111270000D01*
X148010000Y-111270000D02*
X150740000Y-114000000D01*
%TO.N,D4*%
X117010000Y-134730000D02*
X105630000Y-134730000D01*
X117010000Y-136000000D02*
X117010000Y-134730000D01*
X91020000Y-119670000D02*
X86210000Y-114860000D01*
X105630000Y-134730000D02*
X105630000Y-119670000D01*
X122190000Y-136000000D02*
X117010000Y-136000000D01*
X105630000Y-119670000D02*
X91020000Y-119670000D01*
%TD*%
M02*
