%TF.GenerationSoftware,KiCad,Pcbnew,7.0.1*%
%TF.CreationDate,2023-10-01T14:31:09-03:00*%
%TF.ProjectId,controlRemoto,636f6e74-726f-46c5-9265-6d6f746f2e6b,rev?*%
%TF.SameCoordinates,Original*%
%TF.FileFunction,Copper,L2,Bot*%
%TF.FilePolarity,Positive*%
%FSLAX46Y46*%
G04 Gerber Fmt 4.6, Leading zero omitted, Abs format (unit mm)*
G04 Created by KiCad (PCBNEW 7.0.1) date 2023-10-01 14:31:09*
%MOMM*%
%LPD*%
G01*
G04 APERTURE LIST*
%ADD10C,0.300000*%
%TA.AperFunction,NonConductor*%
%ADD11C,0.300000*%
%TD*%
%TA.AperFunction,ComponentPad*%
%ADD12C,3.000000*%
%TD*%
%TA.AperFunction,ViaPad*%
%ADD13C,2.500000*%
%TD*%
%TA.AperFunction,ViaPad*%
%ADD14C,2.000000*%
%TD*%
%TA.AperFunction,Conductor*%
%ADD15C,0.500000*%
%TD*%
%TA.AperFunction,Conductor*%
%ADD16C,1.000000*%
%TD*%
G04 APERTURE END LIST*
D10*
D11*
X185814285Y-107787857D02*
X185957143Y-107716428D01*
X185957143Y-107716428D02*
X186171428Y-107716428D01*
X186171428Y-107716428D02*
X186385714Y-107787857D01*
X186385714Y-107787857D02*
X186528571Y-107930714D01*
X186528571Y-107930714D02*
X186600000Y-108073571D01*
X186600000Y-108073571D02*
X186671428Y-108359285D01*
X186671428Y-108359285D02*
X186671428Y-108573571D01*
X186671428Y-108573571D02*
X186600000Y-108859285D01*
X186600000Y-108859285D02*
X186528571Y-109002142D01*
X186528571Y-109002142D02*
X186385714Y-109145000D01*
X186385714Y-109145000D02*
X186171428Y-109216428D01*
X186171428Y-109216428D02*
X186028571Y-109216428D01*
X186028571Y-109216428D02*
X185814285Y-109145000D01*
X185814285Y-109145000D02*
X185742857Y-109073571D01*
X185742857Y-109073571D02*
X185742857Y-108573571D01*
X185742857Y-108573571D02*
X186028571Y-108573571D01*
X185100000Y-107716428D02*
X185100000Y-108930714D01*
X185100000Y-108930714D02*
X185028571Y-109073571D01*
X185028571Y-109073571D02*
X184957143Y-109145000D01*
X184957143Y-109145000D02*
X184814285Y-109216428D01*
X184814285Y-109216428D02*
X184528571Y-109216428D01*
X184528571Y-109216428D02*
X184385714Y-109145000D01*
X184385714Y-109145000D02*
X184314285Y-109073571D01*
X184314285Y-109073571D02*
X184242857Y-108930714D01*
X184242857Y-108930714D02*
X184242857Y-107716428D01*
X183528571Y-108430714D02*
X183028571Y-108430714D01*
X182814285Y-109216428D02*
X183528571Y-109216428D01*
X183528571Y-109216428D02*
X183528571Y-107716428D01*
X183528571Y-107716428D02*
X182814285Y-107716428D01*
X181314285Y-109216428D02*
X181814285Y-108502142D01*
X182171428Y-109216428D02*
X182171428Y-107716428D01*
X182171428Y-107716428D02*
X181599999Y-107716428D01*
X181599999Y-107716428D02*
X181457142Y-107787857D01*
X181457142Y-107787857D02*
X181385713Y-107859285D01*
X181385713Y-107859285D02*
X181314285Y-108002142D01*
X181314285Y-108002142D02*
X181314285Y-108216428D01*
X181314285Y-108216428D02*
X181385713Y-108359285D01*
X181385713Y-108359285D02*
X181457142Y-108430714D01*
X181457142Y-108430714D02*
X181599999Y-108502142D01*
X181599999Y-108502142D02*
X182171428Y-108502142D01*
X180671428Y-108430714D02*
X180171428Y-108430714D01*
X179957142Y-109216428D02*
X180671428Y-109216428D01*
X180671428Y-109216428D02*
X180671428Y-107716428D01*
X180671428Y-107716428D02*
X179957142Y-107716428D01*
X179528570Y-107716428D02*
X178671428Y-107716428D01*
X179099999Y-109216428D02*
X179099999Y-107716428D01*
X178242856Y-108787857D02*
X177528571Y-108787857D01*
X178385713Y-109216428D02*
X177885713Y-107716428D01*
X177885713Y-107716428D02*
X177385713Y-109216428D01*
X186207142Y-110146428D02*
X185350000Y-110146428D01*
X185778571Y-111646428D02*
X185778571Y-110146428D01*
X184564285Y-110146428D02*
X184278571Y-110146428D01*
X184278571Y-110146428D02*
X184135714Y-110217857D01*
X184135714Y-110217857D02*
X183992857Y-110360714D01*
X183992857Y-110360714D02*
X183921428Y-110646428D01*
X183921428Y-110646428D02*
X183921428Y-111146428D01*
X183921428Y-111146428D02*
X183992857Y-111432142D01*
X183992857Y-111432142D02*
X184135714Y-111575000D01*
X184135714Y-111575000D02*
X184278571Y-111646428D01*
X184278571Y-111646428D02*
X184564285Y-111646428D01*
X184564285Y-111646428D02*
X184707143Y-111575000D01*
X184707143Y-111575000D02*
X184850000Y-111432142D01*
X184850000Y-111432142D02*
X184921428Y-111146428D01*
X184921428Y-111146428D02*
X184921428Y-110646428D01*
X184921428Y-110646428D02*
X184850000Y-110360714D01*
X184850000Y-110360714D02*
X184707143Y-110217857D01*
X184707143Y-110217857D02*
X184564285Y-110146428D01*
X182421428Y-111646428D02*
X182921428Y-110932142D01*
X183278571Y-111646428D02*
X183278571Y-110146428D01*
X183278571Y-110146428D02*
X182707142Y-110146428D01*
X182707142Y-110146428D02*
X182564285Y-110217857D01*
X182564285Y-110217857D02*
X182492856Y-110289285D01*
X182492856Y-110289285D02*
X182421428Y-110432142D01*
X182421428Y-110432142D02*
X182421428Y-110646428D01*
X182421428Y-110646428D02*
X182492856Y-110789285D01*
X182492856Y-110789285D02*
X182564285Y-110860714D01*
X182564285Y-110860714D02*
X182707142Y-110932142D01*
X182707142Y-110932142D02*
X183278571Y-110932142D01*
X180921428Y-111646428D02*
X181421428Y-110932142D01*
X181778571Y-111646428D02*
X181778571Y-110146428D01*
X181778571Y-110146428D02*
X181207142Y-110146428D01*
X181207142Y-110146428D02*
X181064285Y-110217857D01*
X181064285Y-110217857D02*
X180992856Y-110289285D01*
X180992856Y-110289285D02*
X180921428Y-110432142D01*
X180921428Y-110432142D02*
X180921428Y-110646428D01*
X180921428Y-110646428D02*
X180992856Y-110789285D01*
X180992856Y-110789285D02*
X181064285Y-110860714D01*
X181064285Y-110860714D02*
X181207142Y-110932142D01*
X181207142Y-110932142D02*
X181778571Y-110932142D01*
X180278571Y-110860714D02*
X179778571Y-110860714D01*
X179564285Y-111646428D02*
X180278571Y-111646428D01*
X180278571Y-111646428D02*
X180278571Y-110146428D01*
X180278571Y-110146428D02*
X179564285Y-110146428D01*
X178992856Y-111575000D02*
X178778571Y-111646428D01*
X178778571Y-111646428D02*
X178421428Y-111646428D01*
X178421428Y-111646428D02*
X178278571Y-111575000D01*
X178278571Y-111575000D02*
X178207142Y-111503571D01*
X178207142Y-111503571D02*
X178135713Y-111360714D01*
X178135713Y-111360714D02*
X178135713Y-111217857D01*
X178135713Y-111217857D02*
X178207142Y-111075000D01*
X178207142Y-111075000D02*
X178278571Y-111003571D01*
X178278571Y-111003571D02*
X178421428Y-110932142D01*
X178421428Y-110932142D02*
X178707142Y-110860714D01*
X178707142Y-110860714D02*
X178849999Y-110789285D01*
X178849999Y-110789285D02*
X178921428Y-110717857D01*
X178921428Y-110717857D02*
X178992856Y-110575000D01*
X178992856Y-110575000D02*
X178992856Y-110432142D01*
X178992856Y-110432142D02*
X178921428Y-110289285D01*
X178921428Y-110289285D02*
X178849999Y-110217857D01*
X178849999Y-110217857D02*
X178707142Y-110146428D01*
X178707142Y-110146428D02*
X178349999Y-110146428D01*
X178349999Y-110146428D02*
X178135713Y-110217857D01*
X190314284Y-114005000D02*
X190099999Y-114076428D01*
X190099999Y-114076428D02*
X189742856Y-114076428D01*
X189742856Y-114076428D02*
X189599999Y-114005000D01*
X189599999Y-114005000D02*
X189528570Y-113933571D01*
X189528570Y-113933571D02*
X189457141Y-113790714D01*
X189457141Y-113790714D02*
X189457141Y-113647857D01*
X189457141Y-113647857D02*
X189528570Y-113505000D01*
X189528570Y-113505000D02*
X189599999Y-113433571D01*
X189599999Y-113433571D02*
X189742856Y-113362142D01*
X189742856Y-113362142D02*
X190028570Y-113290714D01*
X190028570Y-113290714D02*
X190171427Y-113219285D01*
X190171427Y-113219285D02*
X190242856Y-113147857D01*
X190242856Y-113147857D02*
X190314284Y-113005000D01*
X190314284Y-113005000D02*
X190314284Y-112862142D01*
X190314284Y-112862142D02*
X190242856Y-112719285D01*
X190242856Y-112719285D02*
X190171427Y-112647857D01*
X190171427Y-112647857D02*
X190028570Y-112576428D01*
X190028570Y-112576428D02*
X189671427Y-112576428D01*
X189671427Y-112576428D02*
X189457141Y-112647857D01*
X187957142Y-113933571D02*
X188028570Y-114005000D01*
X188028570Y-114005000D02*
X188242856Y-114076428D01*
X188242856Y-114076428D02*
X188385713Y-114076428D01*
X188385713Y-114076428D02*
X188599999Y-114005000D01*
X188599999Y-114005000D02*
X188742856Y-113862142D01*
X188742856Y-113862142D02*
X188814285Y-113719285D01*
X188814285Y-113719285D02*
X188885713Y-113433571D01*
X188885713Y-113433571D02*
X188885713Y-113219285D01*
X188885713Y-113219285D02*
X188814285Y-112933571D01*
X188814285Y-112933571D02*
X188742856Y-112790714D01*
X188742856Y-112790714D02*
X188599999Y-112647857D01*
X188599999Y-112647857D02*
X188385713Y-112576428D01*
X188385713Y-112576428D02*
X188242856Y-112576428D01*
X188242856Y-112576428D02*
X188028570Y-112647857D01*
X188028570Y-112647857D02*
X187957142Y-112719285D01*
X187314285Y-114076428D02*
X187314285Y-112576428D01*
X187314285Y-113290714D02*
X186457142Y-113290714D01*
X186457142Y-114076428D02*
X186457142Y-112576428D01*
X185885713Y-112576428D02*
X185528570Y-114076428D01*
X185528570Y-114076428D02*
X185242856Y-113005000D01*
X185242856Y-113005000D02*
X184957141Y-114076428D01*
X184957141Y-114076428D02*
X184599999Y-112576428D01*
X184099998Y-113647857D02*
X183385713Y-113647857D01*
X184242855Y-114076428D02*
X183742855Y-112576428D01*
X183742855Y-112576428D02*
X183242855Y-114076428D01*
X181885713Y-114076428D02*
X182385713Y-113362142D01*
X182742856Y-114076428D02*
X182742856Y-112576428D01*
X182742856Y-112576428D02*
X182171427Y-112576428D01*
X182171427Y-112576428D02*
X182028570Y-112647857D01*
X182028570Y-112647857D02*
X181957141Y-112719285D01*
X181957141Y-112719285D02*
X181885713Y-112862142D01*
X181885713Y-112862142D02*
X181885713Y-113076428D01*
X181885713Y-113076428D02*
X181957141Y-113219285D01*
X181957141Y-113219285D02*
X182028570Y-113290714D01*
X182028570Y-113290714D02*
X182171427Y-113362142D01*
X182171427Y-113362142D02*
X182742856Y-113362142D01*
X181457141Y-112576428D02*
X180599999Y-112576428D01*
X181028570Y-114076428D02*
X181028570Y-112576428D01*
X180242856Y-112576428D02*
X179242856Y-112576428D01*
X179242856Y-112576428D02*
X180242856Y-114076428D01*
X180242856Y-114076428D02*
X179242856Y-114076428D01*
X178171428Y-113290714D02*
X177957142Y-113362142D01*
X177957142Y-113362142D02*
X177885713Y-113433571D01*
X177885713Y-113433571D02*
X177814285Y-113576428D01*
X177814285Y-113576428D02*
X177814285Y-113790714D01*
X177814285Y-113790714D02*
X177885713Y-113933571D01*
X177885713Y-113933571D02*
X177957142Y-114005000D01*
X177957142Y-114005000D02*
X178099999Y-114076428D01*
X178099999Y-114076428D02*
X178671428Y-114076428D01*
X178671428Y-114076428D02*
X178671428Y-112576428D01*
X178671428Y-112576428D02*
X178171428Y-112576428D01*
X178171428Y-112576428D02*
X178028571Y-112647857D01*
X178028571Y-112647857D02*
X177957142Y-112719285D01*
X177957142Y-112719285D02*
X177885713Y-112862142D01*
X177885713Y-112862142D02*
X177885713Y-113005000D01*
X177885713Y-113005000D02*
X177957142Y-113147857D01*
X177957142Y-113147857D02*
X178028571Y-113219285D01*
X178028571Y-113219285D02*
X178171428Y-113290714D01*
X178171428Y-113290714D02*
X178671428Y-113290714D01*
X177242856Y-113647857D02*
X176528571Y-113647857D01*
X177385713Y-114076428D02*
X176885713Y-112576428D01*
X176885713Y-112576428D02*
X176385713Y-114076428D01*
X175028571Y-114076428D02*
X175528571Y-113362142D01*
X175885714Y-114076428D02*
X175885714Y-112576428D01*
X175885714Y-112576428D02*
X175314285Y-112576428D01*
X175314285Y-112576428D02*
X175171428Y-112647857D01*
X175171428Y-112647857D02*
X175099999Y-112719285D01*
X175099999Y-112719285D02*
X175028571Y-112862142D01*
X175028571Y-112862142D02*
X175028571Y-113076428D01*
X175028571Y-113076428D02*
X175099999Y-113219285D01*
X175099999Y-113219285D02*
X175171428Y-113290714D01*
X175171428Y-113290714D02*
X175314285Y-113362142D01*
X175314285Y-113362142D02*
X175885714Y-113362142D01*
X174599999Y-112576428D02*
X173742857Y-112576428D01*
X174171428Y-114076428D02*
X174171428Y-112576428D01*
D10*
D11*
X202412857Y-109080714D02*
X202198571Y-109152142D01*
X202198571Y-109152142D02*
X202127142Y-109223571D01*
X202127142Y-109223571D02*
X202055714Y-109366428D01*
X202055714Y-109366428D02*
X202055714Y-109580714D01*
X202055714Y-109580714D02*
X202127142Y-109723571D01*
X202127142Y-109723571D02*
X202198571Y-109795000D01*
X202198571Y-109795000D02*
X202341428Y-109866428D01*
X202341428Y-109866428D02*
X202912857Y-109866428D01*
X202912857Y-109866428D02*
X202912857Y-108366428D01*
X202912857Y-108366428D02*
X202412857Y-108366428D01*
X202412857Y-108366428D02*
X202270000Y-108437857D01*
X202270000Y-108437857D02*
X202198571Y-108509285D01*
X202198571Y-108509285D02*
X202127142Y-108652142D01*
X202127142Y-108652142D02*
X202127142Y-108795000D01*
X202127142Y-108795000D02*
X202198571Y-108937857D01*
X202198571Y-108937857D02*
X202270000Y-109009285D01*
X202270000Y-109009285D02*
X202412857Y-109080714D01*
X202412857Y-109080714D02*
X202912857Y-109080714D01*
X201484285Y-109437857D02*
X200770000Y-109437857D01*
X201627142Y-109866428D02*
X201127142Y-108366428D01*
X201127142Y-108366428D02*
X200627142Y-109866428D01*
X199270000Y-109723571D02*
X199341428Y-109795000D01*
X199341428Y-109795000D02*
X199555714Y-109866428D01*
X199555714Y-109866428D02*
X199698571Y-109866428D01*
X199698571Y-109866428D02*
X199912857Y-109795000D01*
X199912857Y-109795000D02*
X200055714Y-109652142D01*
X200055714Y-109652142D02*
X200127143Y-109509285D01*
X200127143Y-109509285D02*
X200198571Y-109223571D01*
X200198571Y-109223571D02*
X200198571Y-109009285D01*
X200198571Y-109009285D02*
X200127143Y-108723571D01*
X200127143Y-108723571D02*
X200055714Y-108580714D01*
X200055714Y-108580714D02*
X199912857Y-108437857D01*
X199912857Y-108437857D02*
X199698571Y-108366428D01*
X199698571Y-108366428D02*
X199555714Y-108366428D01*
X199555714Y-108366428D02*
X199341428Y-108437857D01*
X199341428Y-108437857D02*
X199270000Y-108509285D01*
X198627143Y-109866428D02*
X198627143Y-108366428D01*
X197770000Y-109866428D02*
X198412857Y-109009285D01*
X197770000Y-108366428D02*
X198627143Y-109223571D01*
D12*
%TO.P,SW3,1,1*%
%TO.N,D14*%
X156910000Y-130430000D03*
%TO.P,SW3,2,2*%
%TO.N,GND*%
X152410000Y-123930000D03*
%TD*%
D13*
%TO.N,GND*%
X174550000Y-110520000D03*
X155040000Y-113340000D03*
X163770000Y-110520000D03*
%TO.N,3V3*%
X171740000Y-128950000D03*
X132250000Y-143930000D03*
D14*
X91720000Y-126070000D03*
D13*
%TO.N,D19*%
X162520000Y-126380000D03*
X111930000Y-143520000D03*
%TO.N,D18*%
X113950000Y-136070000D03*
X162540000Y-121300000D03*
%TO.N,D5*%
X120550000Y-135070000D03*
X161800000Y-117500000D03*
%TO.N,D13*%
X129720000Y-119000000D03*
X107910000Y-129330000D03*
%TO.N,D4*%
X86210000Y-114860000D03*
X114110000Y-129520000D03*
%TO.N,D23*%
X171710000Y-123860000D03*
X99230000Y-135900000D03*
%TD*%
D15*
%TO.N,GND*%
X174550000Y-110520000D02*
X163770000Y-110520000D01*
X163770000Y-110520000D02*
X160950000Y-113340000D01*
X160950000Y-113340000D02*
X155040000Y-113340000D01*
%TO.N,D19*%
X151200000Y-133270000D02*
X151200000Y-138760000D01*
X151210000Y-133280000D02*
X151200000Y-133270000D01*
X162540000Y-133280000D02*
X151210000Y-133280000D01*
X162540000Y-126400000D02*
X162540000Y-133280000D01*
X151200000Y-138760000D02*
X151200000Y-144510000D01*
X115730000Y-142200000D02*
X114410000Y-143520000D01*
X151200000Y-144510000D02*
X137100000Y-144510000D01*
X137100000Y-144510000D02*
X134790000Y-142200000D01*
X134790000Y-142200000D02*
X115730000Y-142200000D01*
X114410000Y-143520000D02*
X111930000Y-143520000D01*
D16*
%TO.N,3V3*%
X83110000Y-142590000D02*
X86940000Y-146420000D01*
X129490000Y-144840000D02*
X130400000Y-143930000D01*
X83110000Y-126100000D02*
X83110000Y-142590000D01*
X129490000Y-146420000D02*
X129490000Y-144840000D01*
X91690000Y-126100000D02*
X83110000Y-126100000D01*
X130400000Y-143930000D02*
X132250000Y-143930000D01*
X132240000Y-146080000D02*
X132240000Y-143940000D01*
X86940000Y-146420000D02*
X129490000Y-146420000D01*
X171740000Y-128950000D02*
X171740000Y-141970000D01*
X160530000Y-141970000D02*
X156420000Y-146080000D01*
X171740000Y-141970000D02*
X160530000Y-141970000D01*
X156420000Y-146080000D02*
X132240000Y-146080000D01*
X132240000Y-143940000D02*
X132250000Y-143930000D01*
X91720000Y-126070000D02*
X91690000Y-126100000D01*
D15*
%TO.N,D18*%
X116040000Y-136070000D02*
X113950000Y-136070000D01*
X162540000Y-121300000D02*
X159620000Y-124220000D01*
X149540000Y-137140000D02*
X117110000Y-137140000D01*
X159390000Y-127410000D02*
X149540000Y-127410000D01*
X149540000Y-127410000D02*
X149540000Y-137140000D01*
X117110000Y-137140000D02*
X116040000Y-136070000D01*
X159620000Y-124220000D02*
X159620000Y-127180000D01*
X159620000Y-127180000D02*
X159390000Y-127410000D01*
%TO.N,D5*%
X149520000Y-121830000D02*
X149520000Y-124760000D01*
X147370000Y-126910000D02*
X120560000Y-126910000D01*
X149520000Y-124760000D02*
X147370000Y-126910000D01*
X120560000Y-126910000D02*
X120550000Y-126900000D01*
X161800000Y-117500000D02*
X153850000Y-117500000D01*
X120550000Y-126900000D02*
X120550000Y-135070000D01*
X153850000Y-117500000D02*
X149520000Y-121830000D01*
%TO.N,D13*%
X118240000Y-119000000D02*
X129720000Y-119000000D01*
X107910000Y-129330000D02*
X118240000Y-119000000D01*
%TO.N,D4*%
X114110000Y-132630000D02*
X105630000Y-132630000D01*
X92530000Y-119670000D02*
X91570000Y-118710000D01*
X105630000Y-119670000D02*
X92530000Y-119670000D01*
X105630000Y-132630000D02*
X105630000Y-119670000D01*
X90060000Y-118710000D02*
X86210000Y-114860000D01*
X114110000Y-129520000D02*
X114110000Y-132630000D01*
X91570000Y-118710000D02*
X90060000Y-118710000D01*
%TO.N,D23*%
X148750000Y-118040000D02*
X133060000Y-118040000D01*
X171710000Y-123860000D02*
X168950000Y-121100000D01*
X168950000Y-121100000D02*
X168950000Y-115480000D01*
X118830000Y-121460000D02*
X118830000Y-133800000D01*
X99250000Y-133800000D02*
X99230000Y-133820000D01*
X133060000Y-118040000D02*
X133060000Y-121460000D01*
X168950000Y-115480000D02*
X151310000Y-115480000D01*
X99230000Y-133820000D02*
X99230000Y-135900000D01*
X151310000Y-115480000D02*
X148750000Y-118040000D01*
X133060000Y-121460000D02*
X118830000Y-121460000D01*
X118830000Y-133800000D02*
X99250000Y-133800000D01*
%TD*%
M02*
